G04 #@! TF.GenerationSoftware,KiCad,Pcbnew,(5.1.4)-1*
G04 #@! TF.CreationDate,2021-04-02T02:31:54+02:00*
G04 #@! TF.ProjectId,pcb-test,7063622d-7465-4737-942e-6b696361645f,rev?*
G04 #@! TF.SameCoordinates,Original*
G04 #@! TF.FileFunction,Legend,Bot*
G04 #@! TF.FilePolarity,Positive*
%FSLAX46Y46*%
G04 Gerber Fmt 4.6, Leading zero omitted, Abs format (unit mm)*
G04 Created by KiCad (PCBNEW (5.1.4)-1) date 2021-04-02 02:31:54*
%MOMM*%
%LPD*%
G04 APERTURE LIST*
%ADD10C,0.150000*%
%ADD11C,1.852000*%
%ADD12R,2.007000X2.007000*%
%ADD13C,2.007000*%
%ADD14C,2.352000*%
%ADD15C,4.089800*%
%ADD16C,1.702000*%
%ADD17R,1.702000X1.702000*%
%ADD18O,1.702000X1.702000*%
G04 APERTURE END LIST*
D10*
X125571250Y-76835000D02*
X125571250Y-107315000D01*
X120491250Y-76835000D02*
X125571250Y-76835000D01*
X120491250Y-74295000D02*
X120491250Y-76835000D01*
X112871250Y-74295000D02*
X120491250Y-74295000D01*
X112871250Y-76835000D02*
X112871250Y-74295000D01*
X107791250Y-76835000D02*
X112871250Y-76835000D01*
X107791250Y-107315000D02*
X107791250Y-76835000D01*
X125571250Y-107315000D02*
X107791250Y-107315000D01*
%LPC*%
D11*
X198755000Y-85725000D03*
X188595000Y-85725000D03*
D12*
X194945000Y-90805000D03*
D13*
X192405000Y-90805000D03*
D14*
X189865000Y-83185000D03*
D15*
X193675000Y-85725000D03*
D14*
X196215000Y-80645000D03*
D11*
X198755000Y-142875000D03*
X188595000Y-142875000D03*
D12*
X194945000Y-147955000D03*
D13*
X192405000Y-147955000D03*
D14*
X189865000Y-140335000D03*
D15*
X193675000Y-142875000D03*
D14*
X196215000Y-137795000D03*
D11*
X141573250Y-85693250D03*
X131413250Y-85693250D03*
D12*
X137763250Y-90773250D03*
D13*
X135223250Y-90773250D03*
D14*
X132683250Y-83153250D03*
D15*
X136493250Y-85693250D03*
D14*
X139033250Y-80613250D03*
D11*
X198755000Y-104775000D03*
X188595000Y-104775000D03*
D12*
X194945000Y-109855000D03*
D13*
X192405000Y-109855000D03*
D14*
X189865000Y-102235000D03*
D15*
X193675000Y-104775000D03*
D14*
X196215000Y-99695000D03*
D16*
X124301250Y-78105000D03*
X124301250Y-80645000D03*
X124301250Y-83185000D03*
X124301250Y-85725000D03*
X124301250Y-88265000D03*
X124301250Y-90805000D03*
X124301250Y-93345000D03*
X124301250Y-95885000D03*
X124301250Y-98425000D03*
X124301250Y-100965000D03*
X124301250Y-103505000D03*
X124301250Y-106045000D03*
X109061250Y-106045000D03*
X109061250Y-103505000D03*
X109061250Y-100965000D03*
X109061250Y-98425000D03*
X109061250Y-95885000D03*
X109061250Y-93345000D03*
X109061250Y-90805000D03*
X109061250Y-88265000D03*
X109061250Y-85725000D03*
X109061250Y-83185000D03*
X109061250Y-80645000D03*
D17*
X109061250Y-78105000D03*
D11*
X198755000Y-123825000D03*
X188595000Y-123825000D03*
D12*
X194945000Y-128905000D03*
D13*
X192405000Y-128905000D03*
D14*
X189865000Y-121285000D03*
D15*
X193675000Y-123825000D03*
D14*
X196215000Y-118745000D03*
D11*
X179705000Y-142875000D03*
X169545000Y-142875000D03*
D12*
X175895000Y-147955000D03*
D13*
X173355000Y-147955000D03*
D14*
X170815000Y-140335000D03*
D15*
X174625000Y-142875000D03*
D14*
X177165000Y-137795000D03*
D11*
X179705000Y-123825000D03*
X169545000Y-123825000D03*
D12*
X175895000Y-128905000D03*
D13*
X173355000Y-128905000D03*
D14*
X170815000Y-121285000D03*
D15*
X174625000Y-123825000D03*
D14*
X177165000Y-118745000D03*
D11*
X179705000Y-104775000D03*
X169545000Y-104775000D03*
D12*
X175895000Y-109855000D03*
D13*
X173355000Y-109855000D03*
D14*
X170815000Y-102235000D03*
D15*
X174625000Y-104775000D03*
D14*
X177165000Y-99695000D03*
D11*
X179705000Y-85725000D03*
X169545000Y-85725000D03*
D12*
X175895000Y-90805000D03*
D13*
X173355000Y-90805000D03*
D14*
X170815000Y-83185000D03*
D15*
X174625000Y-85725000D03*
D14*
X177165000Y-80645000D03*
D11*
X160623250Y-142843250D03*
X150463250Y-142843250D03*
D12*
X156813250Y-147923250D03*
D13*
X154273250Y-147923250D03*
D14*
X151733250Y-140303250D03*
D15*
X155543250Y-142843250D03*
D14*
X158083250Y-137763250D03*
D11*
X160623250Y-123793250D03*
X150463250Y-123793250D03*
D12*
X156813250Y-128873250D03*
D13*
X154273250Y-128873250D03*
D14*
X151733250Y-121253250D03*
D15*
X155543250Y-123793250D03*
D14*
X158083250Y-118713250D03*
D11*
X160623250Y-104743250D03*
X150463250Y-104743250D03*
D12*
X156813250Y-109823250D03*
D13*
X154273250Y-109823250D03*
D14*
X151733250Y-102203250D03*
D15*
X155543250Y-104743250D03*
D14*
X158083250Y-99663250D03*
D11*
X160623250Y-85693250D03*
X150463250Y-85693250D03*
D12*
X156813250Y-90773250D03*
D13*
X154273250Y-90773250D03*
D14*
X151733250Y-83153250D03*
D15*
X155543250Y-85693250D03*
D14*
X158083250Y-80613250D03*
D11*
X141573250Y-142843250D03*
X131413250Y-142843250D03*
D12*
X137763250Y-147923250D03*
D13*
X135223250Y-147923250D03*
D14*
X132683250Y-140303250D03*
D15*
X136493250Y-142843250D03*
D14*
X139033250Y-137763250D03*
D11*
X141573250Y-123793250D03*
X131413250Y-123793250D03*
D12*
X137763250Y-128873250D03*
D13*
X135223250Y-128873250D03*
D14*
X132683250Y-121253250D03*
D15*
X136493250Y-123793250D03*
D14*
X139033250Y-118713250D03*
D11*
X141573250Y-104743250D03*
X131413250Y-104743250D03*
D12*
X137763250Y-109823250D03*
D13*
X135223250Y-109823250D03*
D14*
X132683250Y-102203250D03*
D15*
X136493250Y-104743250D03*
D14*
X139033250Y-99663250D03*
D18*
X201612500Y-139223750D03*
D17*
X201612500Y-146843750D03*
D18*
X201612500Y-120173750D03*
D17*
X201612500Y-127793750D03*
D18*
X201612500Y-101123750D03*
D17*
X201612500Y-108743750D03*
D18*
X201612500Y-82073750D03*
D17*
X201612500Y-89693750D03*
D18*
X182562500Y-139223750D03*
D17*
X182562500Y-146843750D03*
D18*
X182562500Y-120173750D03*
D17*
X182562500Y-127793750D03*
D18*
X182562500Y-101123750D03*
D17*
X182562500Y-108743750D03*
D18*
X182562500Y-82073750D03*
D17*
X182562500Y-89693750D03*
D18*
X163512500Y-139223750D03*
D17*
X163512500Y-146843750D03*
D18*
X163512500Y-120173750D03*
D17*
X163512500Y-127793750D03*
D18*
X163512500Y-101123750D03*
D17*
X163512500Y-108743750D03*
D18*
X163512500Y-82073750D03*
D17*
X163512500Y-89693750D03*
D18*
X144462500Y-139223750D03*
D17*
X144462500Y-146843750D03*
D18*
X144462500Y-120173750D03*
D17*
X144462500Y-127793750D03*
D18*
X144462500Y-101123750D03*
D17*
X144462500Y-108743750D03*
D18*
X144462500Y-82073750D03*
D17*
X144462500Y-89693750D03*
M02*
