G04 #@! TF.GenerationSoftware,KiCad,Pcbnew,(5.1.4)-1*
G04 #@! TF.CreationDate,2021-04-02T02:31:54+02:00*
G04 #@! TF.ProjectId,pcb-test,7063622d-7465-4737-942e-6b696361645f,rev?*
G04 #@! TF.SameCoordinates,Original*
G04 #@! TF.FileFunction,Legend,Top*
G04 #@! TF.FilePolarity,Positive*
%FSLAX46Y46*%
G04 Gerber Fmt 4.6, Leading zero omitted, Abs format (unit mm)*
G04 Created by KiCad (PCBNEW (5.1.4)-1) date 2021-04-02 02:31:54*
%MOMM*%
%LPD*%
G04 APERTURE LIST*
%ADD10C,0.300000*%
%ADD11C,0.150000*%
%ADD12C,0.120000*%
%ADD13C,1.852000*%
%ADD14C,4.089800*%
%ADD15C,1.702000*%
%ADD16R,1.702000X1.702000*%
%ADD17O,1.702000X1.702000*%
G04 APERTURE END LIST*
D10*
X115736607Y-115214285D02*
X113736607Y-115785714D01*
X115165178Y-116357142D01*
X113736607Y-116928571D01*
X115736607Y-117500000D01*
X113736607Y-119071428D02*
X113879464Y-118785714D01*
X114022321Y-118642857D01*
X114308035Y-118500000D01*
X115165178Y-118500000D01*
X115450892Y-118642857D01*
X115593750Y-118785714D01*
X115736607Y-119071428D01*
X115736607Y-119500000D01*
X115593750Y-119785714D01*
X115450892Y-119928571D01*
X115165178Y-120071428D01*
X114308035Y-120071428D01*
X114022321Y-119928571D01*
X113879464Y-119785714D01*
X113736607Y-119500000D01*
X113736607Y-119071428D01*
X113736607Y-121357142D02*
X115736607Y-121357142D01*
X115165178Y-121357142D02*
X115450892Y-121500000D01*
X115593750Y-121642857D01*
X115736607Y-121928571D01*
X115736607Y-122214285D01*
X113736607Y-123642857D02*
X113879464Y-123357142D01*
X114022321Y-123214285D01*
X114308035Y-123071428D01*
X115165178Y-123071428D01*
X115450892Y-123214285D01*
X115593750Y-123357142D01*
X115736607Y-123642857D01*
X115736607Y-124071428D01*
X115593750Y-124357142D01*
X115450892Y-124500000D01*
X115165178Y-124642857D01*
X114308035Y-124642857D01*
X114022321Y-124500000D01*
X113879464Y-124357142D01*
X113736607Y-124071428D01*
X113736607Y-123642857D01*
X113736607Y-125928571D02*
X116736607Y-125928571D01*
X113736607Y-127214285D02*
X115308035Y-127214285D01*
X115593750Y-127071428D01*
X115736607Y-126785714D01*
X115736607Y-126357142D01*
X115593750Y-126071428D01*
X115450892Y-125928571D01*
X113736607Y-130928571D02*
X116736607Y-130928571D01*
X116736607Y-132071428D01*
X116593750Y-132357142D01*
X116450892Y-132500000D01*
X116165178Y-132642857D01*
X115736607Y-132642857D01*
X115450892Y-132500000D01*
X115308035Y-132357142D01*
X115165178Y-132071428D01*
X115165178Y-130928571D01*
X114022321Y-135642857D02*
X113879464Y-135500000D01*
X113736607Y-135071428D01*
X113736607Y-134785714D01*
X113879464Y-134357142D01*
X114165178Y-134071428D01*
X114450892Y-133928571D01*
X115022321Y-133785714D01*
X115450892Y-133785714D01*
X116022321Y-133928571D01*
X116308035Y-134071428D01*
X116593750Y-134357142D01*
X116736607Y-134785714D01*
X116736607Y-135071428D01*
X116593750Y-135500000D01*
X116450892Y-135642857D01*
X115308035Y-137928571D02*
X115165178Y-138357142D01*
X115022321Y-138500000D01*
X114736607Y-138642857D01*
X114308035Y-138642857D01*
X114022321Y-138500000D01*
X113879464Y-138357142D01*
X113736607Y-138071428D01*
X113736607Y-136928571D01*
X116736607Y-136928571D01*
X116736607Y-137928571D01*
X116593750Y-138214285D01*
X116450892Y-138357142D01*
X116165178Y-138500000D01*
X115879464Y-138500000D01*
X115593750Y-138357142D01*
X115450892Y-138214285D01*
X115308035Y-137928571D01*
X115308035Y-136928571D01*
D11*
X125571250Y-107315000D02*
X107791250Y-107315000D01*
X125571250Y-76835000D02*
X125571250Y-107315000D01*
X120491250Y-76835000D02*
X125571250Y-76835000D01*
X120491250Y-74295000D02*
X120491250Y-76835000D01*
X112871250Y-74295000D02*
X120491250Y-74295000D01*
X112871250Y-76835000D02*
X112871250Y-74295000D01*
X107791250Y-76835000D02*
X112871250Y-76835000D01*
X107791250Y-76835000D02*
X107791250Y-107315000D01*
D12*
X200492500Y-144553750D02*
X202732500Y-144553750D01*
X200492500Y-144313750D02*
X202732500Y-144313750D01*
X200492500Y-144433750D02*
X202732500Y-144433750D01*
X201612500Y-140263750D02*
X201612500Y-140913750D01*
X201612500Y-145803750D02*
X201612500Y-145153750D01*
X200492500Y-140913750D02*
X200492500Y-145153750D01*
X202732500Y-140913750D02*
X200492500Y-140913750D01*
X202732500Y-145153750D02*
X202732500Y-140913750D01*
X200492500Y-145153750D02*
X202732500Y-145153750D01*
X200492500Y-125503750D02*
X202732500Y-125503750D01*
X200492500Y-125263750D02*
X202732500Y-125263750D01*
X200492500Y-125383750D02*
X202732500Y-125383750D01*
X201612500Y-121213750D02*
X201612500Y-121863750D01*
X201612500Y-126753750D02*
X201612500Y-126103750D01*
X200492500Y-121863750D02*
X200492500Y-126103750D01*
X202732500Y-121863750D02*
X200492500Y-121863750D01*
X202732500Y-126103750D02*
X202732500Y-121863750D01*
X200492500Y-126103750D02*
X202732500Y-126103750D01*
X200492500Y-106453750D02*
X202732500Y-106453750D01*
X200492500Y-106213750D02*
X202732500Y-106213750D01*
X200492500Y-106333750D02*
X202732500Y-106333750D01*
X201612500Y-102163750D02*
X201612500Y-102813750D01*
X201612500Y-107703750D02*
X201612500Y-107053750D01*
X200492500Y-102813750D02*
X200492500Y-107053750D01*
X202732500Y-102813750D02*
X200492500Y-102813750D01*
X202732500Y-107053750D02*
X202732500Y-102813750D01*
X200492500Y-107053750D02*
X202732500Y-107053750D01*
X200492500Y-87403750D02*
X202732500Y-87403750D01*
X200492500Y-87163750D02*
X202732500Y-87163750D01*
X200492500Y-87283750D02*
X202732500Y-87283750D01*
X201612500Y-83113750D02*
X201612500Y-83763750D01*
X201612500Y-88653750D02*
X201612500Y-88003750D01*
X200492500Y-83763750D02*
X200492500Y-88003750D01*
X202732500Y-83763750D02*
X200492500Y-83763750D01*
X202732500Y-88003750D02*
X202732500Y-83763750D01*
X200492500Y-88003750D02*
X202732500Y-88003750D01*
X181442500Y-144553750D02*
X183682500Y-144553750D01*
X181442500Y-144313750D02*
X183682500Y-144313750D01*
X181442500Y-144433750D02*
X183682500Y-144433750D01*
X182562500Y-140263750D02*
X182562500Y-140913750D01*
X182562500Y-145803750D02*
X182562500Y-145153750D01*
X181442500Y-140913750D02*
X181442500Y-145153750D01*
X183682500Y-140913750D02*
X181442500Y-140913750D01*
X183682500Y-145153750D02*
X183682500Y-140913750D01*
X181442500Y-145153750D02*
X183682500Y-145153750D01*
X181442500Y-125503750D02*
X183682500Y-125503750D01*
X181442500Y-125263750D02*
X183682500Y-125263750D01*
X181442500Y-125383750D02*
X183682500Y-125383750D01*
X182562500Y-121213750D02*
X182562500Y-121863750D01*
X182562500Y-126753750D02*
X182562500Y-126103750D01*
X181442500Y-121863750D02*
X181442500Y-126103750D01*
X183682500Y-121863750D02*
X181442500Y-121863750D01*
X183682500Y-126103750D02*
X183682500Y-121863750D01*
X181442500Y-126103750D02*
X183682500Y-126103750D01*
X181442500Y-106453750D02*
X183682500Y-106453750D01*
X181442500Y-106213750D02*
X183682500Y-106213750D01*
X181442500Y-106333750D02*
X183682500Y-106333750D01*
X182562500Y-102163750D02*
X182562500Y-102813750D01*
X182562500Y-107703750D02*
X182562500Y-107053750D01*
X181442500Y-102813750D02*
X181442500Y-107053750D01*
X183682500Y-102813750D02*
X181442500Y-102813750D01*
X183682500Y-107053750D02*
X183682500Y-102813750D01*
X181442500Y-107053750D02*
X183682500Y-107053750D01*
X181442500Y-87403750D02*
X183682500Y-87403750D01*
X181442500Y-87163750D02*
X183682500Y-87163750D01*
X181442500Y-87283750D02*
X183682500Y-87283750D01*
X182562500Y-83113750D02*
X182562500Y-83763750D01*
X182562500Y-88653750D02*
X182562500Y-88003750D01*
X181442500Y-83763750D02*
X181442500Y-88003750D01*
X183682500Y-83763750D02*
X181442500Y-83763750D01*
X183682500Y-88003750D02*
X183682500Y-83763750D01*
X181442500Y-88003750D02*
X183682500Y-88003750D01*
X162392500Y-144553750D02*
X164632500Y-144553750D01*
X162392500Y-144313750D02*
X164632500Y-144313750D01*
X162392500Y-144433750D02*
X164632500Y-144433750D01*
X163512500Y-140263750D02*
X163512500Y-140913750D01*
X163512500Y-145803750D02*
X163512500Y-145153750D01*
X162392500Y-140913750D02*
X162392500Y-145153750D01*
X164632500Y-140913750D02*
X162392500Y-140913750D01*
X164632500Y-145153750D02*
X164632500Y-140913750D01*
X162392500Y-145153750D02*
X164632500Y-145153750D01*
X162392500Y-125503750D02*
X164632500Y-125503750D01*
X162392500Y-125263750D02*
X164632500Y-125263750D01*
X162392500Y-125383750D02*
X164632500Y-125383750D01*
X163512500Y-121213750D02*
X163512500Y-121863750D01*
X163512500Y-126753750D02*
X163512500Y-126103750D01*
X162392500Y-121863750D02*
X162392500Y-126103750D01*
X164632500Y-121863750D02*
X162392500Y-121863750D01*
X164632500Y-126103750D02*
X164632500Y-121863750D01*
X162392500Y-126103750D02*
X164632500Y-126103750D01*
X162392500Y-106453750D02*
X164632500Y-106453750D01*
X162392500Y-106213750D02*
X164632500Y-106213750D01*
X162392500Y-106333750D02*
X164632500Y-106333750D01*
X163512500Y-102163750D02*
X163512500Y-102813750D01*
X163512500Y-107703750D02*
X163512500Y-107053750D01*
X162392500Y-102813750D02*
X162392500Y-107053750D01*
X164632500Y-102813750D02*
X162392500Y-102813750D01*
X164632500Y-107053750D02*
X164632500Y-102813750D01*
X162392500Y-107053750D02*
X164632500Y-107053750D01*
X162392500Y-87403750D02*
X164632500Y-87403750D01*
X162392500Y-87163750D02*
X164632500Y-87163750D01*
X162392500Y-87283750D02*
X164632500Y-87283750D01*
X163512500Y-83113750D02*
X163512500Y-83763750D01*
X163512500Y-88653750D02*
X163512500Y-88003750D01*
X162392500Y-83763750D02*
X162392500Y-88003750D01*
X164632500Y-83763750D02*
X162392500Y-83763750D01*
X164632500Y-88003750D02*
X164632500Y-83763750D01*
X162392500Y-88003750D02*
X164632500Y-88003750D01*
X143342500Y-144553750D02*
X145582500Y-144553750D01*
X143342500Y-144313750D02*
X145582500Y-144313750D01*
X143342500Y-144433750D02*
X145582500Y-144433750D01*
X144462500Y-140263750D02*
X144462500Y-140913750D01*
X144462500Y-145803750D02*
X144462500Y-145153750D01*
X143342500Y-140913750D02*
X143342500Y-145153750D01*
X145582500Y-140913750D02*
X143342500Y-140913750D01*
X145582500Y-145153750D02*
X145582500Y-140913750D01*
X143342500Y-145153750D02*
X145582500Y-145153750D01*
X143342500Y-125503750D02*
X145582500Y-125503750D01*
X143342500Y-125263750D02*
X145582500Y-125263750D01*
X143342500Y-125383750D02*
X145582500Y-125383750D01*
X144462500Y-121213750D02*
X144462500Y-121863750D01*
X144462500Y-126753750D02*
X144462500Y-126103750D01*
X143342500Y-121863750D02*
X143342500Y-126103750D01*
X145582500Y-121863750D02*
X143342500Y-121863750D01*
X145582500Y-126103750D02*
X145582500Y-121863750D01*
X143342500Y-126103750D02*
X145582500Y-126103750D01*
X143342500Y-106453750D02*
X145582500Y-106453750D01*
X143342500Y-106213750D02*
X145582500Y-106213750D01*
X143342500Y-106333750D02*
X145582500Y-106333750D01*
X144462500Y-102163750D02*
X144462500Y-102813750D01*
X144462500Y-107703750D02*
X144462500Y-107053750D01*
X143342500Y-102813750D02*
X143342500Y-107053750D01*
X145582500Y-102813750D02*
X143342500Y-102813750D01*
X145582500Y-107053750D02*
X145582500Y-102813750D01*
X143342500Y-107053750D02*
X145582500Y-107053750D01*
X143342500Y-87403750D02*
X145582500Y-87403750D01*
X143342500Y-87163750D02*
X145582500Y-87163750D01*
X143342500Y-87283750D02*
X145582500Y-87283750D01*
X144462500Y-83113750D02*
X144462500Y-83763750D01*
X144462500Y-88653750D02*
X144462500Y-88003750D01*
X143342500Y-83763750D02*
X143342500Y-88003750D01*
X145582500Y-83763750D02*
X143342500Y-83763750D01*
X145582500Y-88003750D02*
X145582500Y-83763750D01*
X143342500Y-88003750D02*
X145582500Y-88003750D01*
D11*
X199944880Y-144248035D02*
X198944880Y-144248035D01*
X198944880Y-144009940D01*
X198992500Y-143867083D01*
X199087738Y-143771845D01*
X199182976Y-143724226D01*
X199373452Y-143676607D01*
X199516309Y-143676607D01*
X199706785Y-143724226D01*
X199802023Y-143771845D01*
X199897261Y-143867083D01*
X199944880Y-144009940D01*
X199944880Y-144248035D01*
X199944880Y-142724226D02*
X199944880Y-143295654D01*
X199944880Y-143009940D02*
X198944880Y-143009940D01*
X199087738Y-143105178D01*
X199182976Y-143200416D01*
X199230595Y-143295654D01*
X198944880Y-141867083D02*
X198944880Y-142057559D01*
X198992500Y-142152797D01*
X199040119Y-142200416D01*
X199182976Y-142295654D01*
X199373452Y-142343273D01*
X199754404Y-142343273D01*
X199849642Y-142295654D01*
X199897261Y-142248035D01*
X199944880Y-142152797D01*
X199944880Y-141962321D01*
X199897261Y-141867083D01*
X199849642Y-141819464D01*
X199754404Y-141771845D01*
X199516309Y-141771845D01*
X199421071Y-141819464D01*
X199373452Y-141867083D01*
X199325833Y-141962321D01*
X199325833Y-142152797D01*
X199373452Y-142248035D01*
X199421071Y-142295654D01*
X199516309Y-142343273D01*
X200264880Y-147105654D02*
X199264880Y-147105654D01*
X200264880Y-146534226D02*
X199693452Y-146962797D01*
X199264880Y-146534226D02*
X199836309Y-147105654D01*
X199944880Y-125198035D02*
X198944880Y-125198035D01*
X198944880Y-124959940D01*
X198992500Y-124817083D01*
X199087738Y-124721845D01*
X199182976Y-124674226D01*
X199373452Y-124626607D01*
X199516309Y-124626607D01*
X199706785Y-124674226D01*
X199802023Y-124721845D01*
X199897261Y-124817083D01*
X199944880Y-124959940D01*
X199944880Y-125198035D01*
X199944880Y-123674226D02*
X199944880Y-124245654D01*
X199944880Y-123959940D02*
X198944880Y-123959940D01*
X199087738Y-124055178D01*
X199182976Y-124150416D01*
X199230595Y-124245654D01*
X198944880Y-122769464D02*
X198944880Y-123245654D01*
X199421071Y-123293273D01*
X199373452Y-123245654D01*
X199325833Y-123150416D01*
X199325833Y-122912321D01*
X199373452Y-122817083D01*
X199421071Y-122769464D01*
X199516309Y-122721845D01*
X199754404Y-122721845D01*
X199849642Y-122769464D01*
X199897261Y-122817083D01*
X199944880Y-122912321D01*
X199944880Y-123150416D01*
X199897261Y-123245654D01*
X199849642Y-123293273D01*
X200264880Y-128055654D02*
X199264880Y-128055654D01*
X200264880Y-127484226D02*
X199693452Y-127912797D01*
X199264880Y-127484226D02*
X199836309Y-128055654D01*
X199944880Y-106148035D02*
X198944880Y-106148035D01*
X198944880Y-105909940D01*
X198992500Y-105767083D01*
X199087738Y-105671845D01*
X199182976Y-105624226D01*
X199373452Y-105576607D01*
X199516309Y-105576607D01*
X199706785Y-105624226D01*
X199802023Y-105671845D01*
X199897261Y-105767083D01*
X199944880Y-105909940D01*
X199944880Y-106148035D01*
X199944880Y-104624226D02*
X199944880Y-105195654D01*
X199944880Y-104909940D02*
X198944880Y-104909940D01*
X199087738Y-105005178D01*
X199182976Y-105100416D01*
X199230595Y-105195654D01*
X199278214Y-103767083D02*
X199944880Y-103767083D01*
X198897261Y-104005178D02*
X199611547Y-104243273D01*
X199611547Y-103624226D01*
X200264880Y-109005654D02*
X199264880Y-109005654D01*
X200264880Y-108434226D02*
X199693452Y-108862797D01*
X199264880Y-108434226D02*
X199836309Y-109005654D01*
X199944880Y-87098035D02*
X198944880Y-87098035D01*
X198944880Y-86859940D01*
X198992500Y-86717083D01*
X199087738Y-86621845D01*
X199182976Y-86574226D01*
X199373452Y-86526607D01*
X199516309Y-86526607D01*
X199706785Y-86574226D01*
X199802023Y-86621845D01*
X199897261Y-86717083D01*
X199944880Y-86859940D01*
X199944880Y-87098035D01*
X199944880Y-85574226D02*
X199944880Y-86145654D01*
X199944880Y-85859940D02*
X198944880Y-85859940D01*
X199087738Y-85955178D01*
X199182976Y-86050416D01*
X199230595Y-86145654D01*
X198944880Y-85240892D02*
X198944880Y-84621845D01*
X199325833Y-84955178D01*
X199325833Y-84812321D01*
X199373452Y-84717083D01*
X199421071Y-84669464D01*
X199516309Y-84621845D01*
X199754404Y-84621845D01*
X199849642Y-84669464D01*
X199897261Y-84717083D01*
X199944880Y-84812321D01*
X199944880Y-85098035D01*
X199897261Y-85193273D01*
X199849642Y-85240892D01*
X200264880Y-89955654D02*
X199264880Y-89955654D01*
X200264880Y-89384226D02*
X199693452Y-89812797D01*
X199264880Y-89384226D02*
X199836309Y-89955654D01*
X180894880Y-144248035D02*
X179894880Y-144248035D01*
X179894880Y-144009940D01*
X179942500Y-143867083D01*
X180037738Y-143771845D01*
X180132976Y-143724226D01*
X180323452Y-143676607D01*
X180466309Y-143676607D01*
X180656785Y-143724226D01*
X180752023Y-143771845D01*
X180847261Y-143867083D01*
X180894880Y-144009940D01*
X180894880Y-144248035D01*
X180894880Y-142724226D02*
X180894880Y-143295654D01*
X180894880Y-143009940D02*
X179894880Y-143009940D01*
X180037738Y-143105178D01*
X180132976Y-143200416D01*
X180180595Y-143295654D01*
X179990119Y-142343273D02*
X179942500Y-142295654D01*
X179894880Y-142200416D01*
X179894880Y-141962321D01*
X179942500Y-141867083D01*
X179990119Y-141819464D01*
X180085357Y-141771845D01*
X180180595Y-141771845D01*
X180323452Y-141819464D01*
X180894880Y-142390892D01*
X180894880Y-141771845D01*
X181214880Y-147105654D02*
X180214880Y-147105654D01*
X181214880Y-146534226D02*
X180643452Y-146962797D01*
X180214880Y-146534226D02*
X180786309Y-147105654D01*
X180894880Y-125198035D02*
X179894880Y-125198035D01*
X179894880Y-124959940D01*
X179942500Y-124817083D01*
X180037738Y-124721845D01*
X180132976Y-124674226D01*
X180323452Y-124626607D01*
X180466309Y-124626607D01*
X180656785Y-124674226D01*
X180752023Y-124721845D01*
X180847261Y-124817083D01*
X180894880Y-124959940D01*
X180894880Y-125198035D01*
X180894880Y-123674226D02*
X180894880Y-124245654D01*
X180894880Y-123959940D02*
X179894880Y-123959940D01*
X180037738Y-124055178D01*
X180132976Y-124150416D01*
X180180595Y-124245654D01*
X180894880Y-122721845D02*
X180894880Y-123293273D01*
X180894880Y-123007559D02*
X179894880Y-123007559D01*
X180037738Y-123102797D01*
X180132976Y-123198035D01*
X180180595Y-123293273D01*
X181214880Y-128055654D02*
X180214880Y-128055654D01*
X181214880Y-127484226D02*
X180643452Y-127912797D01*
X180214880Y-127484226D02*
X180786309Y-128055654D01*
X180894880Y-106148035D02*
X179894880Y-106148035D01*
X179894880Y-105909940D01*
X179942500Y-105767083D01*
X180037738Y-105671845D01*
X180132976Y-105624226D01*
X180323452Y-105576607D01*
X180466309Y-105576607D01*
X180656785Y-105624226D01*
X180752023Y-105671845D01*
X180847261Y-105767083D01*
X180894880Y-105909940D01*
X180894880Y-106148035D01*
X180894880Y-104624226D02*
X180894880Y-105195654D01*
X180894880Y-104909940D02*
X179894880Y-104909940D01*
X180037738Y-105005178D01*
X180132976Y-105100416D01*
X180180595Y-105195654D01*
X179894880Y-104005178D02*
X179894880Y-103909940D01*
X179942500Y-103814702D01*
X179990119Y-103767083D01*
X180085357Y-103719464D01*
X180275833Y-103671845D01*
X180513928Y-103671845D01*
X180704404Y-103719464D01*
X180799642Y-103767083D01*
X180847261Y-103814702D01*
X180894880Y-103909940D01*
X180894880Y-104005178D01*
X180847261Y-104100416D01*
X180799642Y-104148035D01*
X180704404Y-104195654D01*
X180513928Y-104243273D01*
X180275833Y-104243273D01*
X180085357Y-104195654D01*
X179990119Y-104148035D01*
X179942500Y-104100416D01*
X179894880Y-104005178D01*
X181214880Y-109005654D02*
X180214880Y-109005654D01*
X181214880Y-108434226D02*
X180643452Y-108862797D01*
X180214880Y-108434226D02*
X180786309Y-109005654D01*
X180894880Y-86621845D02*
X179894880Y-86621845D01*
X179894880Y-86383750D01*
X179942500Y-86240892D01*
X180037738Y-86145654D01*
X180132976Y-86098035D01*
X180323452Y-86050416D01*
X180466309Y-86050416D01*
X180656785Y-86098035D01*
X180752023Y-86145654D01*
X180847261Y-86240892D01*
X180894880Y-86383750D01*
X180894880Y-86621845D01*
X180894880Y-85574226D02*
X180894880Y-85383750D01*
X180847261Y-85288511D01*
X180799642Y-85240892D01*
X180656785Y-85145654D01*
X180466309Y-85098035D01*
X180085357Y-85098035D01*
X179990119Y-85145654D01*
X179942500Y-85193273D01*
X179894880Y-85288511D01*
X179894880Y-85478988D01*
X179942500Y-85574226D01*
X179990119Y-85621845D01*
X180085357Y-85669464D01*
X180323452Y-85669464D01*
X180418690Y-85621845D01*
X180466309Y-85574226D01*
X180513928Y-85478988D01*
X180513928Y-85288511D01*
X180466309Y-85193273D01*
X180418690Y-85145654D01*
X180323452Y-85098035D01*
X181214880Y-89955654D02*
X180214880Y-89955654D01*
X181214880Y-89384226D02*
X180643452Y-89812797D01*
X180214880Y-89384226D02*
X180786309Y-89955654D01*
X161844880Y-143771845D02*
X160844880Y-143771845D01*
X160844880Y-143533750D01*
X160892500Y-143390892D01*
X160987738Y-143295654D01*
X161082976Y-143248035D01*
X161273452Y-143200416D01*
X161416309Y-143200416D01*
X161606785Y-143248035D01*
X161702023Y-143295654D01*
X161797261Y-143390892D01*
X161844880Y-143533750D01*
X161844880Y-143771845D01*
X161273452Y-142628988D02*
X161225833Y-142724226D01*
X161178214Y-142771845D01*
X161082976Y-142819464D01*
X161035357Y-142819464D01*
X160940119Y-142771845D01*
X160892500Y-142724226D01*
X160844880Y-142628988D01*
X160844880Y-142438511D01*
X160892500Y-142343273D01*
X160940119Y-142295654D01*
X161035357Y-142248035D01*
X161082976Y-142248035D01*
X161178214Y-142295654D01*
X161225833Y-142343273D01*
X161273452Y-142438511D01*
X161273452Y-142628988D01*
X161321071Y-142724226D01*
X161368690Y-142771845D01*
X161463928Y-142819464D01*
X161654404Y-142819464D01*
X161749642Y-142771845D01*
X161797261Y-142724226D01*
X161844880Y-142628988D01*
X161844880Y-142438511D01*
X161797261Y-142343273D01*
X161749642Y-142295654D01*
X161654404Y-142248035D01*
X161463928Y-142248035D01*
X161368690Y-142295654D01*
X161321071Y-142343273D01*
X161273452Y-142438511D01*
X162164880Y-147105654D02*
X161164880Y-147105654D01*
X162164880Y-146534226D02*
X161593452Y-146962797D01*
X161164880Y-146534226D02*
X161736309Y-147105654D01*
X161844880Y-124721845D02*
X160844880Y-124721845D01*
X160844880Y-124483750D01*
X160892500Y-124340892D01*
X160987738Y-124245654D01*
X161082976Y-124198035D01*
X161273452Y-124150416D01*
X161416309Y-124150416D01*
X161606785Y-124198035D01*
X161702023Y-124245654D01*
X161797261Y-124340892D01*
X161844880Y-124483750D01*
X161844880Y-124721845D01*
X160844880Y-123817083D02*
X160844880Y-123150416D01*
X161844880Y-123578988D01*
X162164880Y-128055654D02*
X161164880Y-128055654D01*
X162164880Y-127484226D02*
X161593452Y-127912797D01*
X161164880Y-127484226D02*
X161736309Y-128055654D01*
X161844880Y-105671845D02*
X160844880Y-105671845D01*
X160844880Y-105433750D01*
X160892500Y-105290892D01*
X160987738Y-105195654D01*
X161082976Y-105148035D01*
X161273452Y-105100416D01*
X161416309Y-105100416D01*
X161606785Y-105148035D01*
X161702023Y-105195654D01*
X161797261Y-105290892D01*
X161844880Y-105433750D01*
X161844880Y-105671845D01*
X160844880Y-104243273D02*
X160844880Y-104433750D01*
X160892500Y-104528988D01*
X160940119Y-104576607D01*
X161082976Y-104671845D01*
X161273452Y-104719464D01*
X161654404Y-104719464D01*
X161749642Y-104671845D01*
X161797261Y-104624226D01*
X161844880Y-104528988D01*
X161844880Y-104338511D01*
X161797261Y-104243273D01*
X161749642Y-104195654D01*
X161654404Y-104148035D01*
X161416309Y-104148035D01*
X161321071Y-104195654D01*
X161273452Y-104243273D01*
X161225833Y-104338511D01*
X161225833Y-104528988D01*
X161273452Y-104624226D01*
X161321071Y-104671845D01*
X161416309Y-104719464D01*
X162164880Y-109005654D02*
X161164880Y-109005654D01*
X162164880Y-108434226D02*
X161593452Y-108862797D01*
X161164880Y-108434226D02*
X161736309Y-109005654D01*
X161844880Y-86621845D02*
X160844880Y-86621845D01*
X160844880Y-86383750D01*
X160892500Y-86240892D01*
X160987738Y-86145654D01*
X161082976Y-86098035D01*
X161273452Y-86050416D01*
X161416309Y-86050416D01*
X161606785Y-86098035D01*
X161702023Y-86145654D01*
X161797261Y-86240892D01*
X161844880Y-86383750D01*
X161844880Y-86621845D01*
X160844880Y-85145654D02*
X160844880Y-85621845D01*
X161321071Y-85669464D01*
X161273452Y-85621845D01*
X161225833Y-85526607D01*
X161225833Y-85288511D01*
X161273452Y-85193273D01*
X161321071Y-85145654D01*
X161416309Y-85098035D01*
X161654404Y-85098035D01*
X161749642Y-85145654D01*
X161797261Y-85193273D01*
X161844880Y-85288511D01*
X161844880Y-85526607D01*
X161797261Y-85621845D01*
X161749642Y-85669464D01*
X162164880Y-89955654D02*
X161164880Y-89955654D01*
X162164880Y-89384226D02*
X161593452Y-89812797D01*
X161164880Y-89384226D02*
X161736309Y-89955654D01*
X142794880Y-143771845D02*
X141794880Y-143771845D01*
X141794880Y-143533750D01*
X141842500Y-143390892D01*
X141937738Y-143295654D01*
X142032976Y-143248035D01*
X142223452Y-143200416D01*
X142366309Y-143200416D01*
X142556785Y-143248035D01*
X142652023Y-143295654D01*
X142747261Y-143390892D01*
X142794880Y-143533750D01*
X142794880Y-143771845D01*
X142128214Y-142343273D02*
X142794880Y-142343273D01*
X141747261Y-142581369D02*
X142461547Y-142819464D01*
X142461547Y-142200416D01*
X143114880Y-147105654D02*
X142114880Y-147105654D01*
X143114880Y-146534226D02*
X142543452Y-146962797D01*
X142114880Y-146534226D02*
X142686309Y-147105654D01*
X142794880Y-124721845D02*
X141794880Y-124721845D01*
X141794880Y-124483750D01*
X141842500Y-124340892D01*
X141937738Y-124245654D01*
X142032976Y-124198035D01*
X142223452Y-124150416D01*
X142366309Y-124150416D01*
X142556785Y-124198035D01*
X142652023Y-124245654D01*
X142747261Y-124340892D01*
X142794880Y-124483750D01*
X142794880Y-124721845D01*
X141794880Y-123817083D02*
X141794880Y-123198035D01*
X142175833Y-123531369D01*
X142175833Y-123388511D01*
X142223452Y-123293273D01*
X142271071Y-123245654D01*
X142366309Y-123198035D01*
X142604404Y-123198035D01*
X142699642Y-123245654D01*
X142747261Y-123293273D01*
X142794880Y-123388511D01*
X142794880Y-123674226D01*
X142747261Y-123769464D01*
X142699642Y-123817083D01*
X143114880Y-128055654D02*
X142114880Y-128055654D01*
X143114880Y-127484226D02*
X142543452Y-127912797D01*
X142114880Y-127484226D02*
X142686309Y-128055654D01*
X142794880Y-105671845D02*
X141794880Y-105671845D01*
X141794880Y-105433750D01*
X141842500Y-105290892D01*
X141937738Y-105195654D01*
X142032976Y-105148035D01*
X142223452Y-105100416D01*
X142366309Y-105100416D01*
X142556785Y-105148035D01*
X142652023Y-105195654D01*
X142747261Y-105290892D01*
X142794880Y-105433750D01*
X142794880Y-105671845D01*
X141890119Y-104719464D02*
X141842500Y-104671845D01*
X141794880Y-104576607D01*
X141794880Y-104338511D01*
X141842500Y-104243273D01*
X141890119Y-104195654D01*
X141985357Y-104148035D01*
X142080595Y-104148035D01*
X142223452Y-104195654D01*
X142794880Y-104767083D01*
X142794880Y-104148035D01*
X143114880Y-109005654D02*
X142114880Y-109005654D01*
X143114880Y-108434226D02*
X142543452Y-108862797D01*
X142114880Y-108434226D02*
X142686309Y-109005654D01*
X142794880Y-86621845D02*
X141794880Y-86621845D01*
X141794880Y-86383750D01*
X141842500Y-86240892D01*
X141937738Y-86145654D01*
X142032976Y-86098035D01*
X142223452Y-86050416D01*
X142366309Y-86050416D01*
X142556785Y-86098035D01*
X142652023Y-86145654D01*
X142747261Y-86240892D01*
X142794880Y-86383750D01*
X142794880Y-86621845D01*
X142794880Y-85098035D02*
X142794880Y-85669464D01*
X142794880Y-85383750D02*
X141794880Y-85383750D01*
X141937738Y-85478988D01*
X142032976Y-85574226D01*
X142080595Y-85669464D01*
X143114880Y-89955654D02*
X142114880Y-89955654D01*
X143114880Y-89384226D02*
X142543452Y-89812797D01*
X142114880Y-89384226D02*
X142686309Y-89955654D01*
%LPC*%
D13*
X198755000Y-85725000D03*
X188595000Y-85725000D03*
D14*
X193675000Y-85725000D03*
D13*
X198755000Y-142875000D03*
X188595000Y-142875000D03*
D14*
X193675000Y-142875000D03*
D13*
X141573250Y-85693250D03*
X131413250Y-85693250D03*
D14*
X136493250Y-85693250D03*
D13*
X198755000Y-104775000D03*
X188595000Y-104775000D03*
D14*
X193675000Y-104775000D03*
D15*
X124301250Y-78105000D03*
X124301250Y-80645000D03*
X124301250Y-83185000D03*
X124301250Y-85725000D03*
X124301250Y-88265000D03*
X124301250Y-90805000D03*
X124301250Y-93345000D03*
X124301250Y-95885000D03*
X124301250Y-98425000D03*
X124301250Y-100965000D03*
X124301250Y-103505000D03*
X124301250Y-106045000D03*
X109061250Y-106045000D03*
X109061250Y-103505000D03*
X109061250Y-100965000D03*
X109061250Y-98425000D03*
X109061250Y-95885000D03*
X109061250Y-93345000D03*
X109061250Y-90805000D03*
X109061250Y-88265000D03*
X109061250Y-85725000D03*
X109061250Y-83185000D03*
X109061250Y-80645000D03*
D16*
X109061250Y-78105000D03*
D13*
X198755000Y-123825000D03*
X188595000Y-123825000D03*
D14*
X193675000Y-123825000D03*
D13*
X179705000Y-142875000D03*
X169545000Y-142875000D03*
D14*
X174625000Y-142875000D03*
D13*
X179705000Y-123825000D03*
X169545000Y-123825000D03*
D14*
X174625000Y-123825000D03*
D13*
X179705000Y-104775000D03*
X169545000Y-104775000D03*
D14*
X174625000Y-104775000D03*
D13*
X179705000Y-85725000D03*
X169545000Y-85725000D03*
D14*
X174625000Y-85725000D03*
D13*
X160623250Y-142843250D03*
X150463250Y-142843250D03*
D14*
X155543250Y-142843250D03*
D13*
X160623250Y-123793250D03*
X150463250Y-123793250D03*
D14*
X155543250Y-123793250D03*
D13*
X160623250Y-104743250D03*
X150463250Y-104743250D03*
D14*
X155543250Y-104743250D03*
D13*
X160623250Y-85693250D03*
X150463250Y-85693250D03*
D14*
X155543250Y-85693250D03*
D13*
X141573250Y-142843250D03*
X131413250Y-142843250D03*
D14*
X136493250Y-142843250D03*
D13*
X141573250Y-123793250D03*
X131413250Y-123793250D03*
D14*
X136493250Y-123793250D03*
D13*
X141573250Y-104743250D03*
X131413250Y-104743250D03*
D14*
X136493250Y-104743250D03*
D17*
X201612500Y-139223750D03*
D16*
X201612500Y-146843750D03*
D17*
X201612500Y-120173750D03*
D16*
X201612500Y-127793750D03*
D17*
X201612500Y-101123750D03*
D16*
X201612500Y-108743750D03*
D17*
X201612500Y-82073750D03*
D16*
X201612500Y-89693750D03*
D17*
X182562500Y-139223750D03*
D16*
X182562500Y-146843750D03*
D17*
X182562500Y-120173750D03*
D16*
X182562500Y-127793750D03*
D17*
X182562500Y-101123750D03*
D16*
X182562500Y-108743750D03*
D17*
X182562500Y-82073750D03*
D16*
X182562500Y-89693750D03*
D17*
X163512500Y-139223750D03*
D16*
X163512500Y-146843750D03*
D17*
X163512500Y-120173750D03*
D16*
X163512500Y-127793750D03*
D17*
X163512500Y-101123750D03*
D16*
X163512500Y-108743750D03*
D17*
X163512500Y-82073750D03*
D16*
X163512500Y-89693750D03*
D17*
X144462500Y-139223750D03*
D16*
X144462500Y-146843750D03*
D17*
X144462500Y-120173750D03*
D16*
X144462500Y-127793750D03*
D17*
X144462500Y-101123750D03*
D16*
X144462500Y-108743750D03*
D17*
X144462500Y-82073750D03*
D16*
X144462500Y-89693750D03*
M02*
