G04 #@! TF.GenerationSoftware,KiCad,Pcbnew,(5.1.4)-1*
G04 #@! TF.CreationDate,2021-04-02T02:31:54+02:00*
G04 #@! TF.ProjectId,pcb-test,7063622d-7465-4737-942e-6b696361645f,rev?*
G04 #@! TF.SameCoordinates,Original*
G04 #@! TF.FileFunction,Soldermask,Bot*
G04 #@! TF.FilePolarity,Negative*
%FSLAX46Y46*%
G04 Gerber Fmt 4.6, Leading zero omitted, Abs format (unit mm)*
G04 Created by KiCad (PCBNEW (5.1.4)-1) date 2021-04-02 02:31:54*
%MOMM*%
%LPD*%
G04 APERTURE LIST*
%ADD10C,0.100000*%
G04 APERTURE END LIST*
D10*
G36*
X195948500Y-148958500D02*
G01*
X193941500Y-148958500D01*
X193941500Y-146951500D01*
X195948500Y-146951500D01*
X195948500Y-148958500D01*
X195948500Y-148958500D01*
G37*
G36*
X192531425Y-146956988D02*
G01*
X192697710Y-146990063D01*
X192880336Y-147065709D01*
X193044694Y-147175530D01*
X193184470Y-147315306D01*
X193294291Y-147479664D01*
X193369937Y-147662290D01*
X193408500Y-147856164D01*
X193408500Y-148053836D01*
X193369937Y-148247710D01*
X193294291Y-148430336D01*
X193184470Y-148594694D01*
X193044694Y-148734470D01*
X192880336Y-148844291D01*
X192697710Y-148919937D01*
X192531425Y-148953012D01*
X192503837Y-148958500D01*
X192306163Y-148958500D01*
X192278575Y-148953012D01*
X192112290Y-148919937D01*
X191929664Y-148844291D01*
X191765306Y-148734470D01*
X191625530Y-148594694D01*
X191515709Y-148430336D01*
X191440063Y-148247710D01*
X191401500Y-148053836D01*
X191401500Y-147856164D01*
X191440063Y-147662290D01*
X191515709Y-147479664D01*
X191625530Y-147315306D01*
X191765306Y-147175530D01*
X191929664Y-147065709D01*
X192112290Y-146990063D01*
X192278575Y-146956988D01*
X192306163Y-146951500D01*
X192503837Y-146951500D01*
X192531425Y-146956988D01*
X192531425Y-146956988D01*
G37*
G36*
X173481425Y-146956988D02*
G01*
X173647710Y-146990063D01*
X173830336Y-147065709D01*
X173994694Y-147175530D01*
X174134470Y-147315306D01*
X174244291Y-147479664D01*
X174319937Y-147662290D01*
X174358500Y-147856164D01*
X174358500Y-148053836D01*
X174319937Y-148247710D01*
X174244291Y-148430336D01*
X174134470Y-148594694D01*
X173994694Y-148734470D01*
X173830336Y-148844291D01*
X173647710Y-148919937D01*
X173481425Y-148953012D01*
X173453837Y-148958500D01*
X173256163Y-148958500D01*
X173228575Y-148953012D01*
X173062290Y-148919937D01*
X172879664Y-148844291D01*
X172715306Y-148734470D01*
X172575530Y-148594694D01*
X172465709Y-148430336D01*
X172390063Y-148247710D01*
X172351500Y-148053836D01*
X172351500Y-147856164D01*
X172390063Y-147662290D01*
X172465709Y-147479664D01*
X172575530Y-147315306D01*
X172715306Y-147175530D01*
X172879664Y-147065709D01*
X173062290Y-146990063D01*
X173228575Y-146956988D01*
X173256163Y-146951500D01*
X173453837Y-146951500D01*
X173481425Y-146956988D01*
X173481425Y-146956988D01*
G37*
G36*
X176898500Y-148958500D02*
G01*
X174891500Y-148958500D01*
X174891500Y-146951500D01*
X176898500Y-146951500D01*
X176898500Y-148958500D01*
X176898500Y-148958500D01*
G37*
G36*
X135349675Y-146925238D02*
G01*
X135515960Y-146958313D01*
X135698586Y-147033959D01*
X135862944Y-147143780D01*
X136002720Y-147283556D01*
X136112541Y-147447914D01*
X136188187Y-147630540D01*
X136226750Y-147824414D01*
X136226750Y-148022086D01*
X136188187Y-148215960D01*
X136112541Y-148398586D01*
X136002720Y-148562944D01*
X135862944Y-148702720D01*
X135698586Y-148812541D01*
X135515960Y-148888187D01*
X135356343Y-148919936D01*
X135322087Y-148926750D01*
X135124413Y-148926750D01*
X135090157Y-148919936D01*
X134930540Y-148888187D01*
X134747914Y-148812541D01*
X134583556Y-148702720D01*
X134443780Y-148562944D01*
X134333959Y-148398586D01*
X134258313Y-148215960D01*
X134219750Y-148022086D01*
X134219750Y-147824414D01*
X134258313Y-147630540D01*
X134333959Y-147447914D01*
X134443780Y-147283556D01*
X134583556Y-147143780D01*
X134747914Y-147033959D01*
X134930540Y-146958313D01*
X135096825Y-146925238D01*
X135124413Y-146919750D01*
X135322087Y-146919750D01*
X135349675Y-146925238D01*
X135349675Y-146925238D01*
G37*
G36*
X154399675Y-146925238D02*
G01*
X154565960Y-146958313D01*
X154748586Y-147033959D01*
X154912944Y-147143780D01*
X155052720Y-147283556D01*
X155162541Y-147447914D01*
X155238187Y-147630540D01*
X155276750Y-147824414D01*
X155276750Y-148022086D01*
X155238187Y-148215960D01*
X155162541Y-148398586D01*
X155052720Y-148562944D01*
X154912944Y-148702720D01*
X154748586Y-148812541D01*
X154565960Y-148888187D01*
X154406343Y-148919936D01*
X154372087Y-148926750D01*
X154174413Y-148926750D01*
X154140157Y-148919936D01*
X153980540Y-148888187D01*
X153797914Y-148812541D01*
X153633556Y-148702720D01*
X153493780Y-148562944D01*
X153383959Y-148398586D01*
X153308313Y-148215960D01*
X153269750Y-148022086D01*
X153269750Y-147824414D01*
X153308313Y-147630540D01*
X153383959Y-147447914D01*
X153493780Y-147283556D01*
X153633556Y-147143780D01*
X153797914Y-147033959D01*
X153980540Y-146958313D01*
X154146825Y-146925238D01*
X154174413Y-146919750D01*
X154372087Y-146919750D01*
X154399675Y-146925238D01*
X154399675Y-146925238D01*
G37*
G36*
X138766750Y-148926750D02*
G01*
X136759750Y-148926750D01*
X136759750Y-146919750D01*
X138766750Y-146919750D01*
X138766750Y-148926750D01*
X138766750Y-148926750D01*
G37*
G36*
X157816750Y-148926750D02*
G01*
X155809750Y-148926750D01*
X155809750Y-146919750D01*
X157816750Y-146919750D01*
X157816750Y-148926750D01*
X157816750Y-148926750D01*
G37*
G36*
X183413500Y-147694750D02*
G01*
X181711500Y-147694750D01*
X181711500Y-145992750D01*
X183413500Y-145992750D01*
X183413500Y-147694750D01*
X183413500Y-147694750D01*
G37*
G36*
X164363500Y-147694750D02*
G01*
X162661500Y-147694750D01*
X162661500Y-145992750D01*
X164363500Y-145992750D01*
X164363500Y-147694750D01*
X164363500Y-147694750D01*
G37*
G36*
X202463500Y-147694750D02*
G01*
X200761500Y-147694750D01*
X200761500Y-145992750D01*
X202463500Y-145992750D01*
X202463500Y-147694750D01*
X202463500Y-147694750D01*
G37*
G36*
X145313500Y-147694750D02*
G01*
X143611500Y-147694750D01*
X143611500Y-145992750D01*
X145313500Y-145992750D01*
X145313500Y-147694750D01*
X145313500Y-147694750D01*
G37*
G36*
X194271474Y-140908684D02*
G01*
X194489474Y-140998983D01*
X194643623Y-141062833D01*
X194978548Y-141286623D01*
X195263377Y-141571452D01*
X195487167Y-141906377D01*
X195519562Y-141984586D01*
X195641316Y-142278526D01*
X195719900Y-142673594D01*
X195719900Y-143076406D01*
X195641316Y-143471474D01*
X195551017Y-143689474D01*
X195487167Y-143843623D01*
X195263377Y-144178548D01*
X194978548Y-144463377D01*
X194643623Y-144687167D01*
X194489474Y-144751017D01*
X194271474Y-144841316D01*
X193876406Y-144919900D01*
X193473594Y-144919900D01*
X193078526Y-144841316D01*
X192860526Y-144751017D01*
X192706377Y-144687167D01*
X192371452Y-144463377D01*
X192086623Y-144178548D01*
X191862833Y-143843623D01*
X191798983Y-143689474D01*
X191708684Y-143471474D01*
X191630100Y-143076406D01*
X191630100Y-142673594D01*
X191708684Y-142278526D01*
X191830438Y-141984586D01*
X191862833Y-141906377D01*
X192086623Y-141571452D01*
X192371452Y-141286623D01*
X192706377Y-141062833D01*
X192860526Y-140998983D01*
X193078526Y-140908684D01*
X193473594Y-140830100D01*
X193876406Y-140830100D01*
X194271474Y-140908684D01*
X194271474Y-140908684D01*
G37*
G36*
X175221474Y-140908684D02*
G01*
X175439474Y-140998983D01*
X175593623Y-141062833D01*
X175928548Y-141286623D01*
X176213377Y-141571452D01*
X176437167Y-141906377D01*
X176469562Y-141984586D01*
X176591316Y-142278526D01*
X176669900Y-142673594D01*
X176669900Y-143076406D01*
X176591316Y-143471474D01*
X176501017Y-143689474D01*
X176437167Y-143843623D01*
X176213377Y-144178548D01*
X175928548Y-144463377D01*
X175593623Y-144687167D01*
X175439474Y-144751017D01*
X175221474Y-144841316D01*
X174826406Y-144919900D01*
X174423594Y-144919900D01*
X174028526Y-144841316D01*
X173810526Y-144751017D01*
X173656377Y-144687167D01*
X173321452Y-144463377D01*
X173036623Y-144178548D01*
X172812833Y-143843623D01*
X172748983Y-143689474D01*
X172658684Y-143471474D01*
X172580100Y-143076406D01*
X172580100Y-142673594D01*
X172658684Y-142278526D01*
X172780438Y-141984586D01*
X172812833Y-141906377D01*
X173036623Y-141571452D01*
X173321452Y-141286623D01*
X173656377Y-141062833D01*
X173810526Y-140998983D01*
X174028526Y-140908684D01*
X174423594Y-140830100D01*
X174826406Y-140830100D01*
X175221474Y-140908684D01*
X175221474Y-140908684D01*
G37*
G36*
X156139724Y-140876934D02*
G01*
X156357724Y-140967233D01*
X156511873Y-141031083D01*
X156846798Y-141254873D01*
X157131627Y-141539702D01*
X157355417Y-141874627D01*
X157387812Y-141952836D01*
X157509566Y-142246776D01*
X157588150Y-142641844D01*
X157588150Y-143044656D01*
X157509566Y-143439724D01*
X157458701Y-143562522D01*
X157355417Y-143811873D01*
X157131627Y-144146798D01*
X156846798Y-144431627D01*
X156511873Y-144655417D01*
X156435221Y-144687167D01*
X156139724Y-144809566D01*
X155744656Y-144888150D01*
X155341844Y-144888150D01*
X154946776Y-144809566D01*
X154651279Y-144687167D01*
X154574627Y-144655417D01*
X154239702Y-144431627D01*
X153954873Y-144146798D01*
X153731083Y-143811873D01*
X153627799Y-143562522D01*
X153576934Y-143439724D01*
X153498350Y-143044656D01*
X153498350Y-142641844D01*
X153576934Y-142246776D01*
X153698688Y-141952836D01*
X153731083Y-141874627D01*
X153954873Y-141539702D01*
X154239702Y-141254873D01*
X154574627Y-141031083D01*
X154728776Y-140967233D01*
X154946776Y-140876934D01*
X155341844Y-140798350D01*
X155744656Y-140798350D01*
X156139724Y-140876934D01*
X156139724Y-140876934D01*
G37*
G36*
X137089724Y-140876934D02*
G01*
X137307724Y-140967233D01*
X137461873Y-141031083D01*
X137796798Y-141254873D01*
X138081627Y-141539702D01*
X138305417Y-141874627D01*
X138337812Y-141952836D01*
X138459566Y-142246776D01*
X138538150Y-142641844D01*
X138538150Y-143044656D01*
X138459566Y-143439724D01*
X138408701Y-143562522D01*
X138305417Y-143811873D01*
X138081627Y-144146798D01*
X137796798Y-144431627D01*
X137461873Y-144655417D01*
X137385221Y-144687167D01*
X137089724Y-144809566D01*
X136694656Y-144888150D01*
X136291844Y-144888150D01*
X135896776Y-144809566D01*
X135601279Y-144687167D01*
X135524627Y-144655417D01*
X135189702Y-144431627D01*
X134904873Y-144146798D01*
X134681083Y-143811873D01*
X134577799Y-143562522D01*
X134526934Y-143439724D01*
X134448350Y-143044656D01*
X134448350Y-142641844D01*
X134526934Y-142246776D01*
X134648688Y-141952836D01*
X134681083Y-141874627D01*
X134904873Y-141539702D01*
X135189702Y-141254873D01*
X135524627Y-141031083D01*
X135678776Y-140967233D01*
X135896776Y-140876934D01*
X136291844Y-140798350D01*
X136694656Y-140798350D01*
X137089724Y-140876934D01*
X137089724Y-140876934D01*
G37*
G36*
X169815104Y-141984585D02*
G01*
X169983626Y-142054389D01*
X170135291Y-142155728D01*
X170264272Y-142284709D01*
X170365611Y-142436374D01*
X170435415Y-142604896D01*
X170471000Y-142783797D01*
X170471000Y-142966203D01*
X170435415Y-143145104D01*
X170365611Y-143313626D01*
X170264272Y-143465291D01*
X170135291Y-143594272D01*
X169983626Y-143695611D01*
X169815104Y-143765415D01*
X169636203Y-143801000D01*
X169453797Y-143801000D01*
X169274896Y-143765415D01*
X169106374Y-143695611D01*
X168954709Y-143594272D01*
X168825728Y-143465291D01*
X168724389Y-143313626D01*
X168654585Y-143145104D01*
X168619000Y-142966203D01*
X168619000Y-142783797D01*
X168654585Y-142604896D01*
X168724389Y-142436374D01*
X168825728Y-142284709D01*
X168954709Y-142155728D01*
X169106374Y-142054389D01*
X169274896Y-141984585D01*
X169453797Y-141949000D01*
X169636203Y-141949000D01*
X169815104Y-141984585D01*
X169815104Y-141984585D01*
G37*
G36*
X179975104Y-141984585D02*
G01*
X180143626Y-142054389D01*
X180295291Y-142155728D01*
X180424272Y-142284709D01*
X180525611Y-142436374D01*
X180595415Y-142604896D01*
X180631000Y-142783797D01*
X180631000Y-142966203D01*
X180595415Y-143145104D01*
X180525611Y-143313626D01*
X180424272Y-143465291D01*
X180295291Y-143594272D01*
X180143626Y-143695611D01*
X179975104Y-143765415D01*
X179796203Y-143801000D01*
X179613797Y-143801000D01*
X179434896Y-143765415D01*
X179266374Y-143695611D01*
X179114709Y-143594272D01*
X178985728Y-143465291D01*
X178884389Y-143313626D01*
X178814585Y-143145104D01*
X178779000Y-142966203D01*
X178779000Y-142783797D01*
X178814585Y-142604896D01*
X178884389Y-142436374D01*
X178985728Y-142284709D01*
X179114709Y-142155728D01*
X179266374Y-142054389D01*
X179434896Y-141984585D01*
X179613797Y-141949000D01*
X179796203Y-141949000D01*
X179975104Y-141984585D01*
X179975104Y-141984585D01*
G37*
G36*
X188865104Y-141984585D02*
G01*
X189033626Y-142054389D01*
X189185291Y-142155728D01*
X189314272Y-142284709D01*
X189415611Y-142436374D01*
X189485415Y-142604896D01*
X189521000Y-142783797D01*
X189521000Y-142966203D01*
X189485415Y-143145104D01*
X189415611Y-143313626D01*
X189314272Y-143465291D01*
X189185291Y-143594272D01*
X189033626Y-143695611D01*
X188865104Y-143765415D01*
X188686203Y-143801000D01*
X188503797Y-143801000D01*
X188324896Y-143765415D01*
X188156374Y-143695611D01*
X188004709Y-143594272D01*
X187875728Y-143465291D01*
X187774389Y-143313626D01*
X187704585Y-143145104D01*
X187669000Y-142966203D01*
X187669000Y-142783797D01*
X187704585Y-142604896D01*
X187774389Y-142436374D01*
X187875728Y-142284709D01*
X188004709Y-142155728D01*
X188156374Y-142054389D01*
X188324896Y-141984585D01*
X188503797Y-141949000D01*
X188686203Y-141949000D01*
X188865104Y-141984585D01*
X188865104Y-141984585D01*
G37*
G36*
X199025104Y-141984585D02*
G01*
X199193626Y-142054389D01*
X199345291Y-142155728D01*
X199474272Y-142284709D01*
X199575611Y-142436374D01*
X199645415Y-142604896D01*
X199681000Y-142783797D01*
X199681000Y-142966203D01*
X199645415Y-143145104D01*
X199575611Y-143313626D01*
X199474272Y-143465291D01*
X199345291Y-143594272D01*
X199193626Y-143695611D01*
X199025104Y-143765415D01*
X198846203Y-143801000D01*
X198663797Y-143801000D01*
X198484896Y-143765415D01*
X198316374Y-143695611D01*
X198164709Y-143594272D01*
X198035728Y-143465291D01*
X197934389Y-143313626D01*
X197864585Y-143145104D01*
X197829000Y-142966203D01*
X197829000Y-142783797D01*
X197864585Y-142604896D01*
X197934389Y-142436374D01*
X198035728Y-142284709D01*
X198164709Y-142155728D01*
X198316374Y-142054389D01*
X198484896Y-141984585D01*
X198663797Y-141949000D01*
X198846203Y-141949000D01*
X199025104Y-141984585D01*
X199025104Y-141984585D01*
G37*
G36*
X150733354Y-141952835D02*
G01*
X150901876Y-142022639D01*
X151053541Y-142123978D01*
X151182522Y-142252959D01*
X151283861Y-142404624D01*
X151353665Y-142573146D01*
X151389250Y-142752047D01*
X151389250Y-142934453D01*
X151353665Y-143113354D01*
X151283861Y-143281876D01*
X151182522Y-143433541D01*
X151053541Y-143562522D01*
X150901876Y-143663861D01*
X150733354Y-143733665D01*
X150554453Y-143769250D01*
X150372047Y-143769250D01*
X150193146Y-143733665D01*
X150024624Y-143663861D01*
X149872959Y-143562522D01*
X149743978Y-143433541D01*
X149642639Y-143281876D01*
X149572835Y-143113354D01*
X149537250Y-142934453D01*
X149537250Y-142752047D01*
X149572835Y-142573146D01*
X149642639Y-142404624D01*
X149743978Y-142252959D01*
X149872959Y-142123978D01*
X150024624Y-142022639D01*
X150193146Y-141952835D01*
X150372047Y-141917250D01*
X150554453Y-141917250D01*
X150733354Y-141952835D01*
X150733354Y-141952835D01*
G37*
G36*
X160893354Y-141952835D02*
G01*
X161061876Y-142022639D01*
X161213541Y-142123978D01*
X161342522Y-142252959D01*
X161443861Y-142404624D01*
X161513665Y-142573146D01*
X161549250Y-142752047D01*
X161549250Y-142934453D01*
X161513665Y-143113354D01*
X161443861Y-143281876D01*
X161342522Y-143433541D01*
X161213541Y-143562522D01*
X161061876Y-143663861D01*
X160893354Y-143733665D01*
X160714453Y-143769250D01*
X160532047Y-143769250D01*
X160353146Y-143733665D01*
X160184624Y-143663861D01*
X160032959Y-143562522D01*
X159903978Y-143433541D01*
X159802639Y-143281876D01*
X159732835Y-143113354D01*
X159697250Y-142934453D01*
X159697250Y-142752047D01*
X159732835Y-142573146D01*
X159802639Y-142404624D01*
X159903978Y-142252959D01*
X160032959Y-142123978D01*
X160184624Y-142022639D01*
X160353146Y-141952835D01*
X160532047Y-141917250D01*
X160714453Y-141917250D01*
X160893354Y-141952835D01*
X160893354Y-141952835D01*
G37*
G36*
X141843354Y-141952835D02*
G01*
X142011876Y-142022639D01*
X142163541Y-142123978D01*
X142292522Y-142252959D01*
X142393861Y-142404624D01*
X142463665Y-142573146D01*
X142499250Y-142752047D01*
X142499250Y-142934453D01*
X142463665Y-143113354D01*
X142393861Y-143281876D01*
X142292522Y-143433541D01*
X142163541Y-143562522D01*
X142011876Y-143663861D01*
X141843354Y-143733665D01*
X141664453Y-143769250D01*
X141482047Y-143769250D01*
X141303146Y-143733665D01*
X141134624Y-143663861D01*
X140982959Y-143562522D01*
X140853978Y-143433541D01*
X140752639Y-143281876D01*
X140682835Y-143113354D01*
X140647250Y-142934453D01*
X140647250Y-142752047D01*
X140682835Y-142573146D01*
X140752639Y-142404624D01*
X140853978Y-142252959D01*
X140982959Y-142123978D01*
X141134624Y-142022639D01*
X141303146Y-141952835D01*
X141482047Y-141917250D01*
X141664453Y-141917250D01*
X141843354Y-141952835D01*
X141843354Y-141952835D01*
G37*
G36*
X131683354Y-141952835D02*
G01*
X131851876Y-142022639D01*
X132003541Y-142123978D01*
X132132522Y-142252959D01*
X132233861Y-142404624D01*
X132303665Y-142573146D01*
X132339250Y-142752047D01*
X132339250Y-142934453D01*
X132303665Y-143113354D01*
X132233861Y-143281876D01*
X132132522Y-143433541D01*
X132003541Y-143562522D01*
X131851876Y-143663861D01*
X131683354Y-143733665D01*
X131504453Y-143769250D01*
X131322047Y-143769250D01*
X131143146Y-143733665D01*
X130974624Y-143663861D01*
X130822959Y-143562522D01*
X130693978Y-143433541D01*
X130592639Y-143281876D01*
X130522835Y-143113354D01*
X130487250Y-142934453D01*
X130487250Y-142752047D01*
X130522835Y-142573146D01*
X130592639Y-142404624D01*
X130693978Y-142252959D01*
X130822959Y-142123978D01*
X130974624Y-142022639D01*
X131143146Y-141952835D01*
X131322047Y-141917250D01*
X131504453Y-141917250D01*
X131683354Y-141952835D01*
X131683354Y-141952835D01*
G37*
G36*
X190048409Y-139172443D02*
G01*
X190208027Y-139204193D01*
X190422045Y-139292842D01*
X190422046Y-139292843D01*
X190614654Y-139421539D01*
X190778461Y-139585346D01*
X190854286Y-139698826D01*
X190907158Y-139777955D01*
X190995807Y-139991973D01*
X191041000Y-140219174D01*
X191041000Y-140450826D01*
X190995807Y-140678027D01*
X190907158Y-140892045D01*
X190907157Y-140892046D01*
X190778461Y-141084654D01*
X190614654Y-141248461D01*
X190557540Y-141286623D01*
X190422045Y-141377158D01*
X190208027Y-141465807D01*
X190056560Y-141495936D01*
X189980827Y-141511000D01*
X189749173Y-141511000D01*
X189673440Y-141495936D01*
X189521973Y-141465807D01*
X189307955Y-141377158D01*
X189172460Y-141286623D01*
X189115346Y-141248461D01*
X188951539Y-141084654D01*
X188822843Y-140892046D01*
X188822842Y-140892045D01*
X188734193Y-140678027D01*
X188689000Y-140450826D01*
X188689000Y-140219174D01*
X188734193Y-139991973D01*
X188822842Y-139777955D01*
X188875714Y-139698826D01*
X188951539Y-139585346D01*
X189115346Y-139421539D01*
X189307954Y-139292843D01*
X189307955Y-139292842D01*
X189521973Y-139204193D01*
X189681591Y-139172443D01*
X189749173Y-139159000D01*
X189980827Y-139159000D01*
X190048409Y-139172443D01*
X190048409Y-139172443D01*
G37*
G36*
X170998409Y-139172443D02*
G01*
X171158027Y-139204193D01*
X171372045Y-139292842D01*
X171372046Y-139292843D01*
X171564654Y-139421539D01*
X171728461Y-139585346D01*
X171804286Y-139698826D01*
X171857158Y-139777955D01*
X171945807Y-139991973D01*
X171991000Y-140219174D01*
X171991000Y-140450826D01*
X171945807Y-140678027D01*
X171857158Y-140892045D01*
X171857157Y-140892046D01*
X171728461Y-141084654D01*
X171564654Y-141248461D01*
X171507540Y-141286623D01*
X171372045Y-141377158D01*
X171158027Y-141465807D01*
X171006560Y-141495936D01*
X170930827Y-141511000D01*
X170699173Y-141511000D01*
X170623440Y-141495936D01*
X170471973Y-141465807D01*
X170257955Y-141377158D01*
X170122460Y-141286623D01*
X170065346Y-141248461D01*
X169901539Y-141084654D01*
X169772843Y-140892046D01*
X169772842Y-140892045D01*
X169684193Y-140678027D01*
X169639000Y-140450826D01*
X169639000Y-140219174D01*
X169684193Y-139991973D01*
X169772842Y-139777955D01*
X169825714Y-139698826D01*
X169901539Y-139585346D01*
X170065346Y-139421539D01*
X170257954Y-139292843D01*
X170257955Y-139292842D01*
X170471973Y-139204193D01*
X170631591Y-139172443D01*
X170699173Y-139159000D01*
X170930827Y-139159000D01*
X170998409Y-139172443D01*
X170998409Y-139172443D01*
G37*
G36*
X151924810Y-139142314D02*
G01*
X152076277Y-139172443D01*
X152290295Y-139261092D01*
X152354499Y-139303992D01*
X152482904Y-139389789D01*
X152646711Y-139553596D01*
X152732508Y-139682001D01*
X152775408Y-139746205D01*
X152864057Y-139960223D01*
X152909250Y-140187424D01*
X152909250Y-140419076D01*
X152864057Y-140646277D01*
X152775408Y-140860295D01*
X152743075Y-140908684D01*
X152646711Y-141052904D01*
X152482904Y-141216711D01*
X152425790Y-141254873D01*
X152290295Y-141345408D01*
X152076277Y-141434057D01*
X151924810Y-141464186D01*
X151849077Y-141479250D01*
X151617423Y-141479250D01*
X151541690Y-141464186D01*
X151390223Y-141434057D01*
X151176205Y-141345408D01*
X151040710Y-141254873D01*
X150983596Y-141216711D01*
X150819789Y-141052904D01*
X150723425Y-140908684D01*
X150691092Y-140860295D01*
X150602443Y-140646277D01*
X150557250Y-140419076D01*
X150557250Y-140187424D01*
X150602443Y-139960223D01*
X150691092Y-139746205D01*
X150733992Y-139682001D01*
X150819789Y-139553596D01*
X150983596Y-139389789D01*
X151112001Y-139303992D01*
X151176205Y-139261092D01*
X151390223Y-139172443D01*
X151541690Y-139142314D01*
X151617423Y-139127250D01*
X151849077Y-139127250D01*
X151924810Y-139142314D01*
X151924810Y-139142314D01*
G37*
G36*
X132874810Y-139142314D02*
G01*
X133026277Y-139172443D01*
X133240295Y-139261092D01*
X133304499Y-139303992D01*
X133432904Y-139389789D01*
X133596711Y-139553596D01*
X133682508Y-139682001D01*
X133725408Y-139746205D01*
X133814057Y-139960223D01*
X133859250Y-140187424D01*
X133859250Y-140419076D01*
X133814057Y-140646277D01*
X133725408Y-140860295D01*
X133693075Y-140908684D01*
X133596711Y-141052904D01*
X133432904Y-141216711D01*
X133375790Y-141254873D01*
X133240295Y-141345408D01*
X133026277Y-141434057D01*
X132874810Y-141464186D01*
X132799077Y-141479250D01*
X132567423Y-141479250D01*
X132491690Y-141464186D01*
X132340223Y-141434057D01*
X132126205Y-141345408D01*
X131990710Y-141254873D01*
X131933596Y-141216711D01*
X131769789Y-141052904D01*
X131673425Y-140908684D01*
X131641092Y-140860295D01*
X131552443Y-140646277D01*
X131507250Y-140419076D01*
X131507250Y-140187424D01*
X131552443Y-139960223D01*
X131641092Y-139746205D01*
X131683992Y-139682001D01*
X131769789Y-139553596D01*
X131933596Y-139389789D01*
X132062001Y-139303992D01*
X132126205Y-139261092D01*
X132340223Y-139172443D01*
X132491690Y-139142314D01*
X132567423Y-139127250D01*
X132799077Y-139127250D01*
X132874810Y-139142314D01*
X132874810Y-139142314D01*
G37*
G36*
X201779323Y-138385063D02*
G01*
X201939742Y-138433726D01*
X202072406Y-138504636D01*
X202087578Y-138512746D01*
X202217159Y-138619091D01*
X202323504Y-138748672D01*
X202323505Y-138748674D01*
X202402524Y-138896508D01*
X202451187Y-139056927D01*
X202467617Y-139223750D01*
X202451187Y-139390573D01*
X202402524Y-139550992D01*
X202401133Y-139553594D01*
X202323504Y-139698828D01*
X202217159Y-139828409D01*
X202087578Y-139934754D01*
X202087576Y-139934755D01*
X201939742Y-140013774D01*
X201779323Y-140062437D01*
X201654304Y-140074750D01*
X201570696Y-140074750D01*
X201445677Y-140062437D01*
X201285258Y-140013774D01*
X201137424Y-139934755D01*
X201137422Y-139934754D01*
X201007841Y-139828409D01*
X200901496Y-139698828D01*
X200823867Y-139553594D01*
X200822476Y-139550992D01*
X200773813Y-139390573D01*
X200757383Y-139223750D01*
X200773813Y-139056927D01*
X200822476Y-138896508D01*
X200901495Y-138748674D01*
X200901496Y-138748672D01*
X201007841Y-138619091D01*
X201137422Y-138512746D01*
X201152594Y-138504636D01*
X201285258Y-138433726D01*
X201445677Y-138385063D01*
X201570696Y-138372750D01*
X201654304Y-138372750D01*
X201779323Y-138385063D01*
X201779323Y-138385063D01*
G37*
G36*
X182729323Y-138385063D02*
G01*
X182889742Y-138433726D01*
X183022406Y-138504636D01*
X183037578Y-138512746D01*
X183167159Y-138619091D01*
X183273504Y-138748672D01*
X183273505Y-138748674D01*
X183352524Y-138896508D01*
X183401187Y-139056927D01*
X183417617Y-139223750D01*
X183401187Y-139390573D01*
X183352524Y-139550992D01*
X183351133Y-139553594D01*
X183273504Y-139698828D01*
X183167159Y-139828409D01*
X183037578Y-139934754D01*
X183037576Y-139934755D01*
X182889742Y-140013774D01*
X182729323Y-140062437D01*
X182604304Y-140074750D01*
X182520696Y-140074750D01*
X182395677Y-140062437D01*
X182235258Y-140013774D01*
X182087424Y-139934755D01*
X182087422Y-139934754D01*
X181957841Y-139828409D01*
X181851496Y-139698828D01*
X181773867Y-139553594D01*
X181772476Y-139550992D01*
X181723813Y-139390573D01*
X181707383Y-139223750D01*
X181723813Y-139056927D01*
X181772476Y-138896508D01*
X181851495Y-138748674D01*
X181851496Y-138748672D01*
X181957841Y-138619091D01*
X182087422Y-138512746D01*
X182102594Y-138504636D01*
X182235258Y-138433726D01*
X182395677Y-138385063D01*
X182520696Y-138372750D01*
X182604304Y-138372750D01*
X182729323Y-138385063D01*
X182729323Y-138385063D01*
G37*
G36*
X163679323Y-138385063D02*
G01*
X163839742Y-138433726D01*
X163972406Y-138504636D01*
X163987578Y-138512746D01*
X164117159Y-138619091D01*
X164223504Y-138748672D01*
X164223505Y-138748674D01*
X164302524Y-138896508D01*
X164351187Y-139056927D01*
X164367617Y-139223750D01*
X164351187Y-139390573D01*
X164302524Y-139550992D01*
X164301133Y-139553594D01*
X164223504Y-139698828D01*
X164117159Y-139828409D01*
X163987578Y-139934754D01*
X163987576Y-139934755D01*
X163839742Y-140013774D01*
X163679323Y-140062437D01*
X163554304Y-140074750D01*
X163470696Y-140074750D01*
X163345677Y-140062437D01*
X163185258Y-140013774D01*
X163037424Y-139934755D01*
X163037422Y-139934754D01*
X162907841Y-139828409D01*
X162801496Y-139698828D01*
X162723867Y-139553594D01*
X162722476Y-139550992D01*
X162673813Y-139390573D01*
X162657383Y-139223750D01*
X162673813Y-139056927D01*
X162722476Y-138896508D01*
X162801495Y-138748674D01*
X162801496Y-138748672D01*
X162907841Y-138619091D01*
X163037422Y-138512746D01*
X163052594Y-138504636D01*
X163185258Y-138433726D01*
X163345677Y-138385063D01*
X163470696Y-138372750D01*
X163554304Y-138372750D01*
X163679323Y-138385063D01*
X163679323Y-138385063D01*
G37*
G36*
X144629323Y-138385063D02*
G01*
X144789742Y-138433726D01*
X144922406Y-138504636D01*
X144937578Y-138512746D01*
X145067159Y-138619091D01*
X145173504Y-138748672D01*
X145173505Y-138748674D01*
X145252524Y-138896508D01*
X145301187Y-139056927D01*
X145317617Y-139223750D01*
X145301187Y-139390573D01*
X145252524Y-139550992D01*
X145251133Y-139553594D01*
X145173504Y-139698828D01*
X145067159Y-139828409D01*
X144937578Y-139934754D01*
X144937576Y-139934755D01*
X144789742Y-140013774D01*
X144629323Y-140062437D01*
X144504304Y-140074750D01*
X144420696Y-140074750D01*
X144295677Y-140062437D01*
X144135258Y-140013774D01*
X143987424Y-139934755D01*
X143987422Y-139934754D01*
X143857841Y-139828409D01*
X143751496Y-139698828D01*
X143673867Y-139553594D01*
X143672476Y-139550992D01*
X143623813Y-139390573D01*
X143607383Y-139223750D01*
X143623813Y-139056927D01*
X143672476Y-138896508D01*
X143751495Y-138748674D01*
X143751496Y-138748672D01*
X143857841Y-138619091D01*
X143987422Y-138512746D01*
X144002594Y-138504636D01*
X144135258Y-138433726D01*
X144295677Y-138385063D01*
X144420696Y-138372750D01*
X144504304Y-138372750D01*
X144629323Y-138385063D01*
X144629323Y-138385063D01*
G37*
G36*
X177348409Y-136632443D02*
G01*
X177508027Y-136664193D01*
X177722045Y-136752842D01*
X177722046Y-136752843D01*
X177914654Y-136881539D01*
X178078461Y-137045346D01*
X178164258Y-137173751D01*
X178207158Y-137237955D01*
X178295807Y-137451973D01*
X178341000Y-137679174D01*
X178341000Y-137910826D01*
X178295807Y-138138027D01*
X178207158Y-138352045D01*
X178207157Y-138352046D01*
X178078461Y-138544654D01*
X177914654Y-138708461D01*
X177786249Y-138794258D01*
X177722045Y-138837158D01*
X177508027Y-138925807D01*
X177356560Y-138955936D01*
X177280827Y-138971000D01*
X177049173Y-138971000D01*
X176973440Y-138955936D01*
X176821973Y-138925807D01*
X176607955Y-138837158D01*
X176543751Y-138794258D01*
X176415346Y-138708461D01*
X176251539Y-138544654D01*
X176122843Y-138352046D01*
X176122842Y-138352045D01*
X176034193Y-138138027D01*
X175989000Y-137910826D01*
X175989000Y-137679174D01*
X176034193Y-137451973D01*
X176122842Y-137237955D01*
X176165742Y-137173751D01*
X176251539Y-137045346D01*
X176415346Y-136881539D01*
X176607954Y-136752843D01*
X176607955Y-136752842D01*
X176821973Y-136664193D01*
X176981591Y-136632443D01*
X177049173Y-136619000D01*
X177280827Y-136619000D01*
X177348409Y-136632443D01*
X177348409Y-136632443D01*
G37*
G36*
X196398409Y-136632443D02*
G01*
X196558027Y-136664193D01*
X196772045Y-136752842D01*
X196772046Y-136752843D01*
X196964654Y-136881539D01*
X197128461Y-137045346D01*
X197214258Y-137173751D01*
X197257158Y-137237955D01*
X197345807Y-137451973D01*
X197391000Y-137679174D01*
X197391000Y-137910826D01*
X197345807Y-138138027D01*
X197257158Y-138352045D01*
X197257157Y-138352046D01*
X197128461Y-138544654D01*
X196964654Y-138708461D01*
X196836249Y-138794258D01*
X196772045Y-138837158D01*
X196558027Y-138925807D01*
X196406560Y-138955936D01*
X196330827Y-138971000D01*
X196099173Y-138971000D01*
X196023440Y-138955936D01*
X195871973Y-138925807D01*
X195657955Y-138837158D01*
X195593751Y-138794258D01*
X195465346Y-138708461D01*
X195301539Y-138544654D01*
X195172843Y-138352046D01*
X195172842Y-138352045D01*
X195084193Y-138138027D01*
X195039000Y-137910826D01*
X195039000Y-137679174D01*
X195084193Y-137451973D01*
X195172842Y-137237955D01*
X195215742Y-137173751D01*
X195301539Y-137045346D01*
X195465346Y-136881539D01*
X195657954Y-136752843D01*
X195657955Y-136752842D01*
X195871973Y-136664193D01*
X196031591Y-136632443D01*
X196099173Y-136619000D01*
X196330827Y-136619000D01*
X196398409Y-136632443D01*
X196398409Y-136632443D01*
G37*
G36*
X158274810Y-136602314D02*
G01*
X158426277Y-136632443D01*
X158640295Y-136721092D01*
X158704499Y-136763992D01*
X158832904Y-136849789D01*
X158996711Y-137013596D01*
X159082508Y-137142001D01*
X159125408Y-137206205D01*
X159214057Y-137420223D01*
X159259250Y-137647424D01*
X159259250Y-137879076D01*
X159214057Y-138106277D01*
X159125408Y-138320295D01*
X159090359Y-138372750D01*
X158996711Y-138512904D01*
X158832904Y-138676711D01*
X158725206Y-138748672D01*
X158640295Y-138805408D01*
X158426277Y-138894057D01*
X158274810Y-138924186D01*
X158199077Y-138939250D01*
X157967423Y-138939250D01*
X157891690Y-138924186D01*
X157740223Y-138894057D01*
X157526205Y-138805408D01*
X157441294Y-138748672D01*
X157333596Y-138676711D01*
X157169789Y-138512904D01*
X157076141Y-138372750D01*
X157041092Y-138320295D01*
X156952443Y-138106277D01*
X156907250Y-137879076D01*
X156907250Y-137647424D01*
X156952443Y-137420223D01*
X157041092Y-137206205D01*
X157083992Y-137142001D01*
X157169789Y-137013596D01*
X157333596Y-136849789D01*
X157462001Y-136763992D01*
X157526205Y-136721092D01*
X157740223Y-136632443D01*
X157891690Y-136602314D01*
X157967423Y-136587250D01*
X158199077Y-136587250D01*
X158274810Y-136602314D01*
X158274810Y-136602314D01*
G37*
G36*
X139224810Y-136602314D02*
G01*
X139376277Y-136632443D01*
X139590295Y-136721092D01*
X139654499Y-136763992D01*
X139782904Y-136849789D01*
X139946711Y-137013596D01*
X140032508Y-137142001D01*
X140075408Y-137206205D01*
X140164057Y-137420223D01*
X140209250Y-137647424D01*
X140209250Y-137879076D01*
X140164057Y-138106277D01*
X140075408Y-138320295D01*
X140040359Y-138372750D01*
X139946711Y-138512904D01*
X139782904Y-138676711D01*
X139675206Y-138748672D01*
X139590295Y-138805408D01*
X139376277Y-138894057D01*
X139224810Y-138924186D01*
X139149077Y-138939250D01*
X138917423Y-138939250D01*
X138841690Y-138924186D01*
X138690223Y-138894057D01*
X138476205Y-138805408D01*
X138391294Y-138748672D01*
X138283596Y-138676711D01*
X138119789Y-138512904D01*
X138026141Y-138372750D01*
X137991092Y-138320295D01*
X137902443Y-138106277D01*
X137857250Y-137879076D01*
X137857250Y-137647424D01*
X137902443Y-137420223D01*
X137991092Y-137206205D01*
X138033992Y-137142001D01*
X138119789Y-137013596D01*
X138283596Y-136849789D01*
X138412001Y-136763992D01*
X138476205Y-136721092D01*
X138690223Y-136632443D01*
X138841690Y-136602314D01*
X138917423Y-136587250D01*
X139149077Y-136587250D01*
X139224810Y-136602314D01*
X139224810Y-136602314D01*
G37*
G36*
X195948500Y-129908500D02*
G01*
X193941500Y-129908500D01*
X193941500Y-127901500D01*
X195948500Y-127901500D01*
X195948500Y-129908500D01*
X195948500Y-129908500D01*
G37*
G36*
X192531425Y-127906988D02*
G01*
X192697710Y-127940063D01*
X192880336Y-128015709D01*
X193044694Y-128125530D01*
X193184470Y-128265306D01*
X193294291Y-128429664D01*
X193369937Y-128612290D01*
X193408500Y-128806164D01*
X193408500Y-129003836D01*
X193369937Y-129197710D01*
X193294291Y-129380336D01*
X193184470Y-129544694D01*
X193044694Y-129684470D01*
X192880336Y-129794291D01*
X192697710Y-129869937D01*
X192531425Y-129903012D01*
X192503837Y-129908500D01*
X192306163Y-129908500D01*
X192278575Y-129903012D01*
X192112290Y-129869937D01*
X191929664Y-129794291D01*
X191765306Y-129684470D01*
X191625530Y-129544694D01*
X191515709Y-129380336D01*
X191440063Y-129197710D01*
X191401500Y-129003836D01*
X191401500Y-128806164D01*
X191440063Y-128612290D01*
X191515709Y-128429664D01*
X191625530Y-128265306D01*
X191765306Y-128125530D01*
X191929664Y-128015709D01*
X192112290Y-127940063D01*
X192278575Y-127906988D01*
X192306163Y-127901500D01*
X192503837Y-127901500D01*
X192531425Y-127906988D01*
X192531425Y-127906988D01*
G37*
G36*
X173481425Y-127906988D02*
G01*
X173647710Y-127940063D01*
X173830336Y-128015709D01*
X173994694Y-128125530D01*
X174134470Y-128265306D01*
X174244291Y-128429664D01*
X174319937Y-128612290D01*
X174358500Y-128806164D01*
X174358500Y-129003836D01*
X174319937Y-129197710D01*
X174244291Y-129380336D01*
X174134470Y-129544694D01*
X173994694Y-129684470D01*
X173830336Y-129794291D01*
X173647710Y-129869937D01*
X173481425Y-129903012D01*
X173453837Y-129908500D01*
X173256163Y-129908500D01*
X173228575Y-129903012D01*
X173062290Y-129869937D01*
X172879664Y-129794291D01*
X172715306Y-129684470D01*
X172575530Y-129544694D01*
X172465709Y-129380336D01*
X172390063Y-129197710D01*
X172351500Y-129003836D01*
X172351500Y-128806164D01*
X172390063Y-128612290D01*
X172465709Y-128429664D01*
X172575530Y-128265306D01*
X172715306Y-128125530D01*
X172879664Y-128015709D01*
X173062290Y-127940063D01*
X173228575Y-127906988D01*
X173256163Y-127901500D01*
X173453837Y-127901500D01*
X173481425Y-127906988D01*
X173481425Y-127906988D01*
G37*
G36*
X176898500Y-129908500D02*
G01*
X174891500Y-129908500D01*
X174891500Y-127901500D01*
X176898500Y-127901500D01*
X176898500Y-129908500D01*
X176898500Y-129908500D01*
G37*
G36*
X138766750Y-129876750D02*
G01*
X136759750Y-129876750D01*
X136759750Y-127869750D01*
X138766750Y-127869750D01*
X138766750Y-129876750D01*
X138766750Y-129876750D01*
G37*
G36*
X135349675Y-127875238D02*
G01*
X135515960Y-127908313D01*
X135698586Y-127983959D01*
X135862944Y-128093780D01*
X136002720Y-128233556D01*
X136112541Y-128397914D01*
X136188187Y-128580540D01*
X136226750Y-128774414D01*
X136226750Y-128972086D01*
X136188187Y-129165960D01*
X136112541Y-129348586D01*
X136002720Y-129512944D01*
X135862944Y-129652720D01*
X135698586Y-129762541D01*
X135515960Y-129838187D01*
X135356343Y-129869936D01*
X135322087Y-129876750D01*
X135124413Y-129876750D01*
X135090157Y-129869936D01*
X134930540Y-129838187D01*
X134747914Y-129762541D01*
X134583556Y-129652720D01*
X134443780Y-129512944D01*
X134333959Y-129348586D01*
X134258313Y-129165960D01*
X134219750Y-128972086D01*
X134219750Y-128774414D01*
X134258313Y-128580540D01*
X134333959Y-128397914D01*
X134443780Y-128233556D01*
X134583556Y-128093780D01*
X134747914Y-127983959D01*
X134930540Y-127908313D01*
X135096825Y-127875238D01*
X135124413Y-127869750D01*
X135322087Y-127869750D01*
X135349675Y-127875238D01*
X135349675Y-127875238D01*
G37*
G36*
X154399675Y-127875238D02*
G01*
X154565960Y-127908313D01*
X154748586Y-127983959D01*
X154912944Y-128093780D01*
X155052720Y-128233556D01*
X155162541Y-128397914D01*
X155238187Y-128580540D01*
X155276750Y-128774414D01*
X155276750Y-128972086D01*
X155238187Y-129165960D01*
X155162541Y-129348586D01*
X155052720Y-129512944D01*
X154912944Y-129652720D01*
X154748586Y-129762541D01*
X154565960Y-129838187D01*
X154406343Y-129869936D01*
X154372087Y-129876750D01*
X154174413Y-129876750D01*
X154140157Y-129869936D01*
X153980540Y-129838187D01*
X153797914Y-129762541D01*
X153633556Y-129652720D01*
X153493780Y-129512944D01*
X153383959Y-129348586D01*
X153308313Y-129165960D01*
X153269750Y-128972086D01*
X153269750Y-128774414D01*
X153308313Y-128580540D01*
X153383959Y-128397914D01*
X153493780Y-128233556D01*
X153633556Y-128093780D01*
X153797914Y-127983959D01*
X153980540Y-127908313D01*
X154146825Y-127875238D01*
X154174413Y-127869750D01*
X154372087Y-127869750D01*
X154399675Y-127875238D01*
X154399675Y-127875238D01*
G37*
G36*
X157816750Y-129876750D02*
G01*
X155809750Y-129876750D01*
X155809750Y-127869750D01*
X157816750Y-127869750D01*
X157816750Y-129876750D01*
X157816750Y-129876750D01*
G37*
G36*
X145313500Y-128644750D02*
G01*
X143611500Y-128644750D01*
X143611500Y-126942750D01*
X145313500Y-126942750D01*
X145313500Y-128644750D01*
X145313500Y-128644750D01*
G37*
G36*
X202463500Y-128644750D02*
G01*
X200761500Y-128644750D01*
X200761500Y-126942750D01*
X202463500Y-126942750D01*
X202463500Y-128644750D01*
X202463500Y-128644750D01*
G37*
G36*
X164363500Y-128644750D02*
G01*
X162661500Y-128644750D01*
X162661500Y-126942750D01*
X164363500Y-126942750D01*
X164363500Y-128644750D01*
X164363500Y-128644750D01*
G37*
G36*
X183413500Y-128644750D02*
G01*
X181711500Y-128644750D01*
X181711500Y-126942750D01*
X183413500Y-126942750D01*
X183413500Y-128644750D01*
X183413500Y-128644750D01*
G37*
G36*
X175221474Y-121858684D02*
G01*
X175439474Y-121948983D01*
X175593623Y-122012833D01*
X175928548Y-122236623D01*
X176213377Y-122521452D01*
X176437167Y-122856377D01*
X176469562Y-122934586D01*
X176591316Y-123228526D01*
X176669900Y-123623594D01*
X176669900Y-124026406D01*
X176591316Y-124421474D01*
X176501017Y-124639474D01*
X176437167Y-124793623D01*
X176213377Y-125128548D01*
X175928548Y-125413377D01*
X175593623Y-125637167D01*
X175439474Y-125701017D01*
X175221474Y-125791316D01*
X174826406Y-125869900D01*
X174423594Y-125869900D01*
X174028526Y-125791316D01*
X173810526Y-125701017D01*
X173656377Y-125637167D01*
X173321452Y-125413377D01*
X173036623Y-125128548D01*
X172812833Y-124793623D01*
X172748983Y-124639474D01*
X172658684Y-124421474D01*
X172580100Y-124026406D01*
X172580100Y-123623594D01*
X172658684Y-123228526D01*
X172780438Y-122934586D01*
X172812833Y-122856377D01*
X173036623Y-122521452D01*
X173321452Y-122236623D01*
X173656377Y-122012833D01*
X173810526Y-121948983D01*
X174028526Y-121858684D01*
X174423594Y-121780100D01*
X174826406Y-121780100D01*
X175221474Y-121858684D01*
X175221474Y-121858684D01*
G37*
G36*
X194271474Y-121858684D02*
G01*
X194489474Y-121948983D01*
X194643623Y-122012833D01*
X194978548Y-122236623D01*
X195263377Y-122521452D01*
X195487167Y-122856377D01*
X195519562Y-122934586D01*
X195641316Y-123228526D01*
X195719900Y-123623594D01*
X195719900Y-124026406D01*
X195641316Y-124421474D01*
X195551017Y-124639474D01*
X195487167Y-124793623D01*
X195263377Y-125128548D01*
X194978548Y-125413377D01*
X194643623Y-125637167D01*
X194489474Y-125701017D01*
X194271474Y-125791316D01*
X193876406Y-125869900D01*
X193473594Y-125869900D01*
X193078526Y-125791316D01*
X192860526Y-125701017D01*
X192706377Y-125637167D01*
X192371452Y-125413377D01*
X192086623Y-125128548D01*
X191862833Y-124793623D01*
X191798983Y-124639474D01*
X191708684Y-124421474D01*
X191630100Y-124026406D01*
X191630100Y-123623594D01*
X191708684Y-123228526D01*
X191830438Y-122934586D01*
X191862833Y-122856377D01*
X192086623Y-122521452D01*
X192371452Y-122236623D01*
X192706377Y-122012833D01*
X192860526Y-121948983D01*
X193078526Y-121858684D01*
X193473594Y-121780100D01*
X193876406Y-121780100D01*
X194271474Y-121858684D01*
X194271474Y-121858684D01*
G37*
G36*
X156139724Y-121826934D02*
G01*
X156357724Y-121917233D01*
X156511873Y-121981083D01*
X156846798Y-122204873D01*
X157131627Y-122489702D01*
X157355417Y-122824627D01*
X157387812Y-122902836D01*
X157509566Y-123196776D01*
X157588150Y-123591844D01*
X157588150Y-123994656D01*
X157509566Y-124389724D01*
X157458701Y-124512522D01*
X157355417Y-124761873D01*
X157131627Y-125096798D01*
X156846798Y-125381627D01*
X156511873Y-125605417D01*
X156435221Y-125637167D01*
X156139724Y-125759566D01*
X155744656Y-125838150D01*
X155341844Y-125838150D01*
X154946776Y-125759566D01*
X154651279Y-125637167D01*
X154574627Y-125605417D01*
X154239702Y-125381627D01*
X153954873Y-125096798D01*
X153731083Y-124761873D01*
X153627799Y-124512522D01*
X153576934Y-124389724D01*
X153498350Y-123994656D01*
X153498350Y-123591844D01*
X153576934Y-123196776D01*
X153698688Y-122902836D01*
X153731083Y-122824627D01*
X153954873Y-122489702D01*
X154239702Y-122204873D01*
X154574627Y-121981083D01*
X154728776Y-121917233D01*
X154946776Y-121826934D01*
X155341844Y-121748350D01*
X155744656Y-121748350D01*
X156139724Y-121826934D01*
X156139724Y-121826934D01*
G37*
G36*
X137089724Y-121826934D02*
G01*
X137307724Y-121917233D01*
X137461873Y-121981083D01*
X137796798Y-122204873D01*
X138081627Y-122489702D01*
X138305417Y-122824627D01*
X138337812Y-122902836D01*
X138459566Y-123196776D01*
X138538150Y-123591844D01*
X138538150Y-123994656D01*
X138459566Y-124389724D01*
X138408701Y-124512522D01*
X138305417Y-124761873D01*
X138081627Y-125096798D01*
X137796798Y-125381627D01*
X137461873Y-125605417D01*
X137385221Y-125637167D01*
X137089724Y-125759566D01*
X136694656Y-125838150D01*
X136291844Y-125838150D01*
X135896776Y-125759566D01*
X135601279Y-125637167D01*
X135524627Y-125605417D01*
X135189702Y-125381627D01*
X134904873Y-125096798D01*
X134681083Y-124761873D01*
X134577799Y-124512522D01*
X134526934Y-124389724D01*
X134448350Y-123994656D01*
X134448350Y-123591844D01*
X134526934Y-123196776D01*
X134648688Y-122902836D01*
X134681083Y-122824627D01*
X134904873Y-122489702D01*
X135189702Y-122204873D01*
X135524627Y-121981083D01*
X135678776Y-121917233D01*
X135896776Y-121826934D01*
X136291844Y-121748350D01*
X136694656Y-121748350D01*
X137089724Y-121826934D01*
X137089724Y-121826934D01*
G37*
G36*
X188865104Y-122934585D02*
G01*
X189033626Y-123004389D01*
X189185291Y-123105728D01*
X189314272Y-123234709D01*
X189415611Y-123386374D01*
X189485415Y-123554896D01*
X189521000Y-123733797D01*
X189521000Y-123916203D01*
X189485415Y-124095104D01*
X189415611Y-124263626D01*
X189314272Y-124415291D01*
X189185291Y-124544272D01*
X189033626Y-124645611D01*
X188865104Y-124715415D01*
X188686203Y-124751000D01*
X188503797Y-124751000D01*
X188324896Y-124715415D01*
X188156374Y-124645611D01*
X188004709Y-124544272D01*
X187875728Y-124415291D01*
X187774389Y-124263626D01*
X187704585Y-124095104D01*
X187669000Y-123916203D01*
X187669000Y-123733797D01*
X187704585Y-123554896D01*
X187774389Y-123386374D01*
X187875728Y-123234709D01*
X188004709Y-123105728D01*
X188156374Y-123004389D01*
X188324896Y-122934585D01*
X188503797Y-122899000D01*
X188686203Y-122899000D01*
X188865104Y-122934585D01*
X188865104Y-122934585D01*
G37*
G36*
X179975104Y-122934585D02*
G01*
X180143626Y-123004389D01*
X180295291Y-123105728D01*
X180424272Y-123234709D01*
X180525611Y-123386374D01*
X180595415Y-123554896D01*
X180631000Y-123733797D01*
X180631000Y-123916203D01*
X180595415Y-124095104D01*
X180525611Y-124263626D01*
X180424272Y-124415291D01*
X180295291Y-124544272D01*
X180143626Y-124645611D01*
X179975104Y-124715415D01*
X179796203Y-124751000D01*
X179613797Y-124751000D01*
X179434896Y-124715415D01*
X179266374Y-124645611D01*
X179114709Y-124544272D01*
X178985728Y-124415291D01*
X178884389Y-124263626D01*
X178814585Y-124095104D01*
X178779000Y-123916203D01*
X178779000Y-123733797D01*
X178814585Y-123554896D01*
X178884389Y-123386374D01*
X178985728Y-123234709D01*
X179114709Y-123105728D01*
X179266374Y-123004389D01*
X179434896Y-122934585D01*
X179613797Y-122899000D01*
X179796203Y-122899000D01*
X179975104Y-122934585D01*
X179975104Y-122934585D01*
G37*
G36*
X169815104Y-122934585D02*
G01*
X169983626Y-123004389D01*
X170135291Y-123105728D01*
X170264272Y-123234709D01*
X170365611Y-123386374D01*
X170435415Y-123554896D01*
X170471000Y-123733797D01*
X170471000Y-123916203D01*
X170435415Y-124095104D01*
X170365611Y-124263626D01*
X170264272Y-124415291D01*
X170135291Y-124544272D01*
X169983626Y-124645611D01*
X169815104Y-124715415D01*
X169636203Y-124751000D01*
X169453797Y-124751000D01*
X169274896Y-124715415D01*
X169106374Y-124645611D01*
X168954709Y-124544272D01*
X168825728Y-124415291D01*
X168724389Y-124263626D01*
X168654585Y-124095104D01*
X168619000Y-123916203D01*
X168619000Y-123733797D01*
X168654585Y-123554896D01*
X168724389Y-123386374D01*
X168825728Y-123234709D01*
X168954709Y-123105728D01*
X169106374Y-123004389D01*
X169274896Y-122934585D01*
X169453797Y-122899000D01*
X169636203Y-122899000D01*
X169815104Y-122934585D01*
X169815104Y-122934585D01*
G37*
G36*
X199025104Y-122934585D02*
G01*
X199193626Y-123004389D01*
X199345291Y-123105728D01*
X199474272Y-123234709D01*
X199575611Y-123386374D01*
X199645415Y-123554896D01*
X199681000Y-123733797D01*
X199681000Y-123916203D01*
X199645415Y-124095104D01*
X199575611Y-124263626D01*
X199474272Y-124415291D01*
X199345291Y-124544272D01*
X199193626Y-124645611D01*
X199025104Y-124715415D01*
X198846203Y-124751000D01*
X198663797Y-124751000D01*
X198484896Y-124715415D01*
X198316374Y-124645611D01*
X198164709Y-124544272D01*
X198035728Y-124415291D01*
X197934389Y-124263626D01*
X197864585Y-124095104D01*
X197829000Y-123916203D01*
X197829000Y-123733797D01*
X197864585Y-123554896D01*
X197934389Y-123386374D01*
X198035728Y-123234709D01*
X198164709Y-123105728D01*
X198316374Y-123004389D01*
X198484896Y-122934585D01*
X198663797Y-122899000D01*
X198846203Y-122899000D01*
X199025104Y-122934585D01*
X199025104Y-122934585D01*
G37*
G36*
X131683354Y-122902835D02*
G01*
X131851876Y-122972639D01*
X132003541Y-123073978D01*
X132132522Y-123202959D01*
X132233861Y-123354624D01*
X132303665Y-123523146D01*
X132339250Y-123702047D01*
X132339250Y-123884453D01*
X132303665Y-124063354D01*
X132233861Y-124231876D01*
X132132522Y-124383541D01*
X132003541Y-124512522D01*
X131851876Y-124613861D01*
X131683354Y-124683665D01*
X131504453Y-124719250D01*
X131322047Y-124719250D01*
X131143146Y-124683665D01*
X130974624Y-124613861D01*
X130822959Y-124512522D01*
X130693978Y-124383541D01*
X130592639Y-124231876D01*
X130522835Y-124063354D01*
X130487250Y-123884453D01*
X130487250Y-123702047D01*
X130522835Y-123523146D01*
X130592639Y-123354624D01*
X130693978Y-123202959D01*
X130822959Y-123073978D01*
X130974624Y-122972639D01*
X131143146Y-122902835D01*
X131322047Y-122867250D01*
X131504453Y-122867250D01*
X131683354Y-122902835D01*
X131683354Y-122902835D01*
G37*
G36*
X160893354Y-122902835D02*
G01*
X161061876Y-122972639D01*
X161213541Y-123073978D01*
X161342522Y-123202959D01*
X161443861Y-123354624D01*
X161513665Y-123523146D01*
X161549250Y-123702047D01*
X161549250Y-123884453D01*
X161513665Y-124063354D01*
X161443861Y-124231876D01*
X161342522Y-124383541D01*
X161213541Y-124512522D01*
X161061876Y-124613861D01*
X160893354Y-124683665D01*
X160714453Y-124719250D01*
X160532047Y-124719250D01*
X160353146Y-124683665D01*
X160184624Y-124613861D01*
X160032959Y-124512522D01*
X159903978Y-124383541D01*
X159802639Y-124231876D01*
X159732835Y-124063354D01*
X159697250Y-123884453D01*
X159697250Y-123702047D01*
X159732835Y-123523146D01*
X159802639Y-123354624D01*
X159903978Y-123202959D01*
X160032959Y-123073978D01*
X160184624Y-122972639D01*
X160353146Y-122902835D01*
X160532047Y-122867250D01*
X160714453Y-122867250D01*
X160893354Y-122902835D01*
X160893354Y-122902835D01*
G37*
G36*
X141843354Y-122902835D02*
G01*
X142011876Y-122972639D01*
X142163541Y-123073978D01*
X142292522Y-123202959D01*
X142393861Y-123354624D01*
X142463665Y-123523146D01*
X142499250Y-123702047D01*
X142499250Y-123884453D01*
X142463665Y-124063354D01*
X142393861Y-124231876D01*
X142292522Y-124383541D01*
X142163541Y-124512522D01*
X142011876Y-124613861D01*
X141843354Y-124683665D01*
X141664453Y-124719250D01*
X141482047Y-124719250D01*
X141303146Y-124683665D01*
X141134624Y-124613861D01*
X140982959Y-124512522D01*
X140853978Y-124383541D01*
X140752639Y-124231876D01*
X140682835Y-124063354D01*
X140647250Y-123884453D01*
X140647250Y-123702047D01*
X140682835Y-123523146D01*
X140752639Y-123354624D01*
X140853978Y-123202959D01*
X140982959Y-123073978D01*
X141134624Y-122972639D01*
X141303146Y-122902835D01*
X141482047Y-122867250D01*
X141664453Y-122867250D01*
X141843354Y-122902835D01*
X141843354Y-122902835D01*
G37*
G36*
X150733354Y-122902835D02*
G01*
X150901876Y-122972639D01*
X151053541Y-123073978D01*
X151182522Y-123202959D01*
X151283861Y-123354624D01*
X151353665Y-123523146D01*
X151389250Y-123702047D01*
X151389250Y-123884453D01*
X151353665Y-124063354D01*
X151283861Y-124231876D01*
X151182522Y-124383541D01*
X151053541Y-124512522D01*
X150901876Y-124613861D01*
X150733354Y-124683665D01*
X150554453Y-124719250D01*
X150372047Y-124719250D01*
X150193146Y-124683665D01*
X150024624Y-124613861D01*
X149872959Y-124512522D01*
X149743978Y-124383541D01*
X149642639Y-124231876D01*
X149572835Y-124063354D01*
X149537250Y-123884453D01*
X149537250Y-123702047D01*
X149572835Y-123523146D01*
X149642639Y-123354624D01*
X149743978Y-123202959D01*
X149872959Y-123073978D01*
X150024624Y-122972639D01*
X150193146Y-122902835D01*
X150372047Y-122867250D01*
X150554453Y-122867250D01*
X150733354Y-122902835D01*
X150733354Y-122902835D01*
G37*
G36*
X190048409Y-120122443D02*
G01*
X190208027Y-120154193D01*
X190422045Y-120242842D01*
X190422046Y-120242843D01*
X190614654Y-120371539D01*
X190778461Y-120535346D01*
X190854286Y-120648826D01*
X190907158Y-120727955D01*
X190995807Y-120941973D01*
X191041000Y-121169174D01*
X191041000Y-121400826D01*
X190995807Y-121628027D01*
X190907158Y-121842045D01*
X190907157Y-121842046D01*
X190778461Y-122034654D01*
X190614654Y-122198461D01*
X190557540Y-122236623D01*
X190422045Y-122327158D01*
X190208027Y-122415807D01*
X190056560Y-122445936D01*
X189980827Y-122461000D01*
X189749173Y-122461000D01*
X189673440Y-122445936D01*
X189521973Y-122415807D01*
X189307955Y-122327158D01*
X189172460Y-122236623D01*
X189115346Y-122198461D01*
X188951539Y-122034654D01*
X188822843Y-121842046D01*
X188822842Y-121842045D01*
X188734193Y-121628027D01*
X188689000Y-121400826D01*
X188689000Y-121169174D01*
X188734193Y-120941973D01*
X188822842Y-120727955D01*
X188875714Y-120648826D01*
X188951539Y-120535346D01*
X189115346Y-120371539D01*
X189307954Y-120242843D01*
X189307955Y-120242842D01*
X189521973Y-120154193D01*
X189681591Y-120122443D01*
X189749173Y-120109000D01*
X189980827Y-120109000D01*
X190048409Y-120122443D01*
X190048409Y-120122443D01*
G37*
G36*
X170998409Y-120122443D02*
G01*
X171158027Y-120154193D01*
X171372045Y-120242842D01*
X171372046Y-120242843D01*
X171564654Y-120371539D01*
X171728461Y-120535346D01*
X171804286Y-120648826D01*
X171857158Y-120727955D01*
X171945807Y-120941973D01*
X171991000Y-121169174D01*
X171991000Y-121400826D01*
X171945807Y-121628027D01*
X171857158Y-121842045D01*
X171857157Y-121842046D01*
X171728461Y-122034654D01*
X171564654Y-122198461D01*
X171507540Y-122236623D01*
X171372045Y-122327158D01*
X171158027Y-122415807D01*
X171006560Y-122445936D01*
X170930827Y-122461000D01*
X170699173Y-122461000D01*
X170623440Y-122445936D01*
X170471973Y-122415807D01*
X170257955Y-122327158D01*
X170122460Y-122236623D01*
X170065346Y-122198461D01*
X169901539Y-122034654D01*
X169772843Y-121842046D01*
X169772842Y-121842045D01*
X169684193Y-121628027D01*
X169639000Y-121400826D01*
X169639000Y-121169174D01*
X169684193Y-120941973D01*
X169772842Y-120727955D01*
X169825714Y-120648826D01*
X169901539Y-120535346D01*
X170065346Y-120371539D01*
X170257954Y-120242843D01*
X170257955Y-120242842D01*
X170471973Y-120154193D01*
X170631591Y-120122443D01*
X170699173Y-120109000D01*
X170930827Y-120109000D01*
X170998409Y-120122443D01*
X170998409Y-120122443D01*
G37*
G36*
X151924810Y-120092314D02*
G01*
X152076277Y-120122443D01*
X152290295Y-120211092D01*
X152354499Y-120253992D01*
X152482904Y-120339789D01*
X152646711Y-120503596D01*
X152732508Y-120632001D01*
X152775408Y-120696205D01*
X152864057Y-120910223D01*
X152909250Y-121137424D01*
X152909250Y-121369076D01*
X152864057Y-121596277D01*
X152775408Y-121810295D01*
X152743075Y-121858684D01*
X152646711Y-122002904D01*
X152482904Y-122166711D01*
X152425790Y-122204873D01*
X152290295Y-122295408D01*
X152076277Y-122384057D01*
X151924810Y-122414186D01*
X151849077Y-122429250D01*
X151617423Y-122429250D01*
X151541690Y-122414186D01*
X151390223Y-122384057D01*
X151176205Y-122295408D01*
X151040710Y-122204873D01*
X150983596Y-122166711D01*
X150819789Y-122002904D01*
X150723425Y-121858684D01*
X150691092Y-121810295D01*
X150602443Y-121596277D01*
X150557250Y-121369076D01*
X150557250Y-121137424D01*
X150602443Y-120910223D01*
X150691092Y-120696205D01*
X150733992Y-120632001D01*
X150819789Y-120503596D01*
X150983596Y-120339789D01*
X151112001Y-120253992D01*
X151176205Y-120211092D01*
X151390223Y-120122443D01*
X151541690Y-120092314D01*
X151617423Y-120077250D01*
X151849077Y-120077250D01*
X151924810Y-120092314D01*
X151924810Y-120092314D01*
G37*
G36*
X132874810Y-120092314D02*
G01*
X133026277Y-120122443D01*
X133240295Y-120211092D01*
X133304499Y-120253992D01*
X133432904Y-120339789D01*
X133596711Y-120503596D01*
X133682508Y-120632001D01*
X133725408Y-120696205D01*
X133814057Y-120910223D01*
X133859250Y-121137424D01*
X133859250Y-121369076D01*
X133814057Y-121596277D01*
X133725408Y-121810295D01*
X133693075Y-121858684D01*
X133596711Y-122002904D01*
X133432904Y-122166711D01*
X133375790Y-122204873D01*
X133240295Y-122295408D01*
X133026277Y-122384057D01*
X132874810Y-122414186D01*
X132799077Y-122429250D01*
X132567423Y-122429250D01*
X132491690Y-122414186D01*
X132340223Y-122384057D01*
X132126205Y-122295408D01*
X131990710Y-122204873D01*
X131933596Y-122166711D01*
X131769789Y-122002904D01*
X131673425Y-121858684D01*
X131641092Y-121810295D01*
X131552443Y-121596277D01*
X131507250Y-121369076D01*
X131507250Y-121137424D01*
X131552443Y-120910223D01*
X131641092Y-120696205D01*
X131683992Y-120632001D01*
X131769789Y-120503596D01*
X131933596Y-120339789D01*
X132062001Y-120253992D01*
X132126205Y-120211092D01*
X132340223Y-120122443D01*
X132491690Y-120092314D01*
X132567423Y-120077250D01*
X132799077Y-120077250D01*
X132874810Y-120092314D01*
X132874810Y-120092314D01*
G37*
G36*
X201779323Y-119335063D02*
G01*
X201939742Y-119383726D01*
X202072406Y-119454636D01*
X202087578Y-119462746D01*
X202217159Y-119569091D01*
X202323504Y-119698672D01*
X202323505Y-119698674D01*
X202402524Y-119846508D01*
X202451187Y-120006927D01*
X202467617Y-120173750D01*
X202451187Y-120340573D01*
X202402524Y-120500992D01*
X202401133Y-120503594D01*
X202323504Y-120648828D01*
X202217159Y-120778409D01*
X202087578Y-120884754D01*
X202087576Y-120884755D01*
X201939742Y-120963774D01*
X201779323Y-121012437D01*
X201654304Y-121024750D01*
X201570696Y-121024750D01*
X201445677Y-121012437D01*
X201285258Y-120963774D01*
X201137424Y-120884755D01*
X201137422Y-120884754D01*
X201007841Y-120778409D01*
X200901496Y-120648828D01*
X200823867Y-120503594D01*
X200822476Y-120500992D01*
X200773813Y-120340573D01*
X200757383Y-120173750D01*
X200773813Y-120006927D01*
X200822476Y-119846508D01*
X200901495Y-119698674D01*
X200901496Y-119698672D01*
X201007841Y-119569091D01*
X201137422Y-119462746D01*
X201152594Y-119454636D01*
X201285258Y-119383726D01*
X201445677Y-119335063D01*
X201570696Y-119322750D01*
X201654304Y-119322750D01*
X201779323Y-119335063D01*
X201779323Y-119335063D01*
G37*
G36*
X144629323Y-119335063D02*
G01*
X144789742Y-119383726D01*
X144922406Y-119454636D01*
X144937578Y-119462746D01*
X145067159Y-119569091D01*
X145173504Y-119698672D01*
X145173505Y-119698674D01*
X145252524Y-119846508D01*
X145301187Y-120006927D01*
X145317617Y-120173750D01*
X145301187Y-120340573D01*
X145252524Y-120500992D01*
X145251133Y-120503594D01*
X145173504Y-120648828D01*
X145067159Y-120778409D01*
X144937578Y-120884754D01*
X144937576Y-120884755D01*
X144789742Y-120963774D01*
X144629323Y-121012437D01*
X144504304Y-121024750D01*
X144420696Y-121024750D01*
X144295677Y-121012437D01*
X144135258Y-120963774D01*
X143987424Y-120884755D01*
X143987422Y-120884754D01*
X143857841Y-120778409D01*
X143751496Y-120648828D01*
X143673867Y-120503594D01*
X143672476Y-120500992D01*
X143623813Y-120340573D01*
X143607383Y-120173750D01*
X143623813Y-120006927D01*
X143672476Y-119846508D01*
X143751495Y-119698674D01*
X143751496Y-119698672D01*
X143857841Y-119569091D01*
X143987422Y-119462746D01*
X144002594Y-119454636D01*
X144135258Y-119383726D01*
X144295677Y-119335063D01*
X144420696Y-119322750D01*
X144504304Y-119322750D01*
X144629323Y-119335063D01*
X144629323Y-119335063D01*
G37*
G36*
X182729323Y-119335063D02*
G01*
X182889742Y-119383726D01*
X183022406Y-119454636D01*
X183037578Y-119462746D01*
X183167159Y-119569091D01*
X183273504Y-119698672D01*
X183273505Y-119698674D01*
X183352524Y-119846508D01*
X183401187Y-120006927D01*
X183417617Y-120173750D01*
X183401187Y-120340573D01*
X183352524Y-120500992D01*
X183351133Y-120503594D01*
X183273504Y-120648828D01*
X183167159Y-120778409D01*
X183037578Y-120884754D01*
X183037576Y-120884755D01*
X182889742Y-120963774D01*
X182729323Y-121012437D01*
X182604304Y-121024750D01*
X182520696Y-121024750D01*
X182395677Y-121012437D01*
X182235258Y-120963774D01*
X182087424Y-120884755D01*
X182087422Y-120884754D01*
X181957841Y-120778409D01*
X181851496Y-120648828D01*
X181773867Y-120503594D01*
X181772476Y-120500992D01*
X181723813Y-120340573D01*
X181707383Y-120173750D01*
X181723813Y-120006927D01*
X181772476Y-119846508D01*
X181851495Y-119698674D01*
X181851496Y-119698672D01*
X181957841Y-119569091D01*
X182087422Y-119462746D01*
X182102594Y-119454636D01*
X182235258Y-119383726D01*
X182395677Y-119335063D01*
X182520696Y-119322750D01*
X182604304Y-119322750D01*
X182729323Y-119335063D01*
X182729323Y-119335063D01*
G37*
G36*
X163679323Y-119335063D02*
G01*
X163839742Y-119383726D01*
X163972406Y-119454636D01*
X163987578Y-119462746D01*
X164117159Y-119569091D01*
X164223504Y-119698672D01*
X164223505Y-119698674D01*
X164302524Y-119846508D01*
X164351187Y-120006927D01*
X164367617Y-120173750D01*
X164351187Y-120340573D01*
X164302524Y-120500992D01*
X164301133Y-120503594D01*
X164223504Y-120648828D01*
X164117159Y-120778409D01*
X163987578Y-120884754D01*
X163987576Y-120884755D01*
X163839742Y-120963774D01*
X163679323Y-121012437D01*
X163554304Y-121024750D01*
X163470696Y-121024750D01*
X163345677Y-121012437D01*
X163185258Y-120963774D01*
X163037424Y-120884755D01*
X163037422Y-120884754D01*
X162907841Y-120778409D01*
X162801496Y-120648828D01*
X162723867Y-120503594D01*
X162722476Y-120500992D01*
X162673813Y-120340573D01*
X162657383Y-120173750D01*
X162673813Y-120006927D01*
X162722476Y-119846508D01*
X162801495Y-119698674D01*
X162801496Y-119698672D01*
X162907841Y-119569091D01*
X163037422Y-119462746D01*
X163052594Y-119454636D01*
X163185258Y-119383726D01*
X163345677Y-119335063D01*
X163470696Y-119322750D01*
X163554304Y-119322750D01*
X163679323Y-119335063D01*
X163679323Y-119335063D01*
G37*
G36*
X196398409Y-117582443D02*
G01*
X196558027Y-117614193D01*
X196772045Y-117702842D01*
X196772046Y-117702843D01*
X196964654Y-117831539D01*
X197128461Y-117995346D01*
X197214258Y-118123751D01*
X197257158Y-118187955D01*
X197345807Y-118401973D01*
X197391000Y-118629174D01*
X197391000Y-118860826D01*
X197345807Y-119088027D01*
X197257158Y-119302045D01*
X197257157Y-119302046D01*
X197128461Y-119494654D01*
X196964654Y-119658461D01*
X196836249Y-119744258D01*
X196772045Y-119787158D01*
X196558027Y-119875807D01*
X196406560Y-119905936D01*
X196330827Y-119921000D01*
X196099173Y-119921000D01*
X196023440Y-119905936D01*
X195871973Y-119875807D01*
X195657955Y-119787158D01*
X195593751Y-119744258D01*
X195465346Y-119658461D01*
X195301539Y-119494654D01*
X195172843Y-119302046D01*
X195172842Y-119302045D01*
X195084193Y-119088027D01*
X195039000Y-118860826D01*
X195039000Y-118629174D01*
X195084193Y-118401973D01*
X195172842Y-118187955D01*
X195215742Y-118123751D01*
X195301539Y-117995346D01*
X195465346Y-117831539D01*
X195657954Y-117702843D01*
X195657955Y-117702842D01*
X195871973Y-117614193D01*
X196031591Y-117582443D01*
X196099173Y-117569000D01*
X196330827Y-117569000D01*
X196398409Y-117582443D01*
X196398409Y-117582443D01*
G37*
G36*
X177348409Y-117582443D02*
G01*
X177508027Y-117614193D01*
X177722045Y-117702842D01*
X177722046Y-117702843D01*
X177914654Y-117831539D01*
X178078461Y-117995346D01*
X178164258Y-118123751D01*
X178207158Y-118187955D01*
X178295807Y-118401973D01*
X178341000Y-118629174D01*
X178341000Y-118860826D01*
X178295807Y-119088027D01*
X178207158Y-119302045D01*
X178207157Y-119302046D01*
X178078461Y-119494654D01*
X177914654Y-119658461D01*
X177786249Y-119744258D01*
X177722045Y-119787158D01*
X177508027Y-119875807D01*
X177356560Y-119905936D01*
X177280827Y-119921000D01*
X177049173Y-119921000D01*
X176973440Y-119905936D01*
X176821973Y-119875807D01*
X176607955Y-119787158D01*
X176543751Y-119744258D01*
X176415346Y-119658461D01*
X176251539Y-119494654D01*
X176122843Y-119302046D01*
X176122842Y-119302045D01*
X176034193Y-119088027D01*
X175989000Y-118860826D01*
X175989000Y-118629174D01*
X176034193Y-118401973D01*
X176122842Y-118187955D01*
X176165742Y-118123751D01*
X176251539Y-117995346D01*
X176415346Y-117831539D01*
X176607954Y-117702843D01*
X176607955Y-117702842D01*
X176821973Y-117614193D01*
X176981591Y-117582443D01*
X177049173Y-117569000D01*
X177280827Y-117569000D01*
X177348409Y-117582443D01*
X177348409Y-117582443D01*
G37*
G36*
X139224810Y-117552314D02*
G01*
X139376277Y-117582443D01*
X139590295Y-117671092D01*
X139654499Y-117713992D01*
X139782904Y-117799789D01*
X139946711Y-117963596D01*
X140032508Y-118092001D01*
X140075408Y-118156205D01*
X140164057Y-118370223D01*
X140209250Y-118597424D01*
X140209250Y-118829076D01*
X140164057Y-119056277D01*
X140075408Y-119270295D01*
X140040359Y-119322750D01*
X139946711Y-119462904D01*
X139782904Y-119626711D01*
X139675206Y-119698672D01*
X139590295Y-119755408D01*
X139376277Y-119844057D01*
X139224810Y-119874186D01*
X139149077Y-119889250D01*
X138917423Y-119889250D01*
X138841690Y-119874186D01*
X138690223Y-119844057D01*
X138476205Y-119755408D01*
X138391294Y-119698672D01*
X138283596Y-119626711D01*
X138119789Y-119462904D01*
X138026141Y-119322750D01*
X137991092Y-119270295D01*
X137902443Y-119056277D01*
X137857250Y-118829076D01*
X137857250Y-118597424D01*
X137902443Y-118370223D01*
X137991092Y-118156205D01*
X138033992Y-118092001D01*
X138119789Y-117963596D01*
X138283596Y-117799789D01*
X138412001Y-117713992D01*
X138476205Y-117671092D01*
X138690223Y-117582443D01*
X138841690Y-117552314D01*
X138917423Y-117537250D01*
X139149077Y-117537250D01*
X139224810Y-117552314D01*
X139224810Y-117552314D01*
G37*
G36*
X158274810Y-117552314D02*
G01*
X158426277Y-117582443D01*
X158640295Y-117671092D01*
X158704499Y-117713992D01*
X158832904Y-117799789D01*
X158996711Y-117963596D01*
X159082508Y-118092001D01*
X159125408Y-118156205D01*
X159214057Y-118370223D01*
X159259250Y-118597424D01*
X159259250Y-118829076D01*
X159214057Y-119056277D01*
X159125408Y-119270295D01*
X159090359Y-119322750D01*
X158996711Y-119462904D01*
X158832904Y-119626711D01*
X158725206Y-119698672D01*
X158640295Y-119755408D01*
X158426277Y-119844057D01*
X158274810Y-119874186D01*
X158199077Y-119889250D01*
X157967423Y-119889250D01*
X157891690Y-119874186D01*
X157740223Y-119844057D01*
X157526205Y-119755408D01*
X157441294Y-119698672D01*
X157333596Y-119626711D01*
X157169789Y-119462904D01*
X157076141Y-119322750D01*
X157041092Y-119270295D01*
X156952443Y-119056277D01*
X156907250Y-118829076D01*
X156907250Y-118597424D01*
X156952443Y-118370223D01*
X157041092Y-118156205D01*
X157083992Y-118092001D01*
X157169789Y-117963596D01*
X157333596Y-117799789D01*
X157462001Y-117713992D01*
X157526205Y-117671092D01*
X157740223Y-117582443D01*
X157891690Y-117552314D01*
X157967423Y-117537250D01*
X158199077Y-117537250D01*
X158274810Y-117552314D01*
X158274810Y-117552314D01*
G37*
G36*
X195948500Y-110858500D02*
G01*
X193941500Y-110858500D01*
X193941500Y-108851500D01*
X195948500Y-108851500D01*
X195948500Y-110858500D01*
X195948500Y-110858500D01*
G37*
G36*
X176898500Y-110858500D02*
G01*
X174891500Y-110858500D01*
X174891500Y-108851500D01*
X176898500Y-108851500D01*
X176898500Y-110858500D01*
X176898500Y-110858500D01*
G37*
G36*
X173481425Y-108856988D02*
G01*
X173647710Y-108890063D01*
X173830336Y-108965709D01*
X173994694Y-109075530D01*
X174134470Y-109215306D01*
X174244291Y-109379664D01*
X174319937Y-109562290D01*
X174358500Y-109756164D01*
X174358500Y-109953836D01*
X174319937Y-110147710D01*
X174244291Y-110330336D01*
X174134470Y-110494694D01*
X173994694Y-110634470D01*
X173830336Y-110744291D01*
X173647710Y-110819937D01*
X173481425Y-110853012D01*
X173453837Y-110858500D01*
X173256163Y-110858500D01*
X173228575Y-110853012D01*
X173062290Y-110819937D01*
X172879664Y-110744291D01*
X172715306Y-110634470D01*
X172575530Y-110494694D01*
X172465709Y-110330336D01*
X172390063Y-110147710D01*
X172351500Y-109953836D01*
X172351500Y-109756164D01*
X172390063Y-109562290D01*
X172465709Y-109379664D01*
X172575530Y-109215306D01*
X172715306Y-109075530D01*
X172879664Y-108965709D01*
X173062290Y-108890063D01*
X173228575Y-108856988D01*
X173256163Y-108851500D01*
X173453837Y-108851500D01*
X173481425Y-108856988D01*
X173481425Y-108856988D01*
G37*
G36*
X192531425Y-108856988D02*
G01*
X192697710Y-108890063D01*
X192880336Y-108965709D01*
X193044694Y-109075530D01*
X193184470Y-109215306D01*
X193294291Y-109379664D01*
X193369937Y-109562290D01*
X193408500Y-109756164D01*
X193408500Y-109953836D01*
X193369937Y-110147710D01*
X193294291Y-110330336D01*
X193184470Y-110494694D01*
X193044694Y-110634470D01*
X192880336Y-110744291D01*
X192697710Y-110819937D01*
X192531425Y-110853012D01*
X192503837Y-110858500D01*
X192306163Y-110858500D01*
X192278575Y-110853012D01*
X192112290Y-110819937D01*
X191929664Y-110744291D01*
X191765306Y-110634470D01*
X191625530Y-110494694D01*
X191515709Y-110330336D01*
X191440063Y-110147710D01*
X191401500Y-109953836D01*
X191401500Y-109756164D01*
X191440063Y-109562290D01*
X191515709Y-109379664D01*
X191625530Y-109215306D01*
X191765306Y-109075530D01*
X191929664Y-108965709D01*
X192112290Y-108890063D01*
X192278575Y-108856988D01*
X192306163Y-108851500D01*
X192503837Y-108851500D01*
X192531425Y-108856988D01*
X192531425Y-108856988D01*
G37*
G36*
X157816750Y-110826750D02*
G01*
X155809750Y-110826750D01*
X155809750Y-108819750D01*
X157816750Y-108819750D01*
X157816750Y-110826750D01*
X157816750Y-110826750D01*
G37*
G36*
X135349675Y-108825238D02*
G01*
X135515960Y-108858313D01*
X135698586Y-108933959D01*
X135862944Y-109043780D01*
X136002720Y-109183556D01*
X136112541Y-109347914D01*
X136188187Y-109530540D01*
X136226750Y-109724414D01*
X136226750Y-109922086D01*
X136188187Y-110115960D01*
X136112541Y-110298586D01*
X136002720Y-110462944D01*
X135862944Y-110602720D01*
X135698586Y-110712541D01*
X135515960Y-110788187D01*
X135356343Y-110819936D01*
X135322087Y-110826750D01*
X135124413Y-110826750D01*
X135090157Y-110819936D01*
X134930540Y-110788187D01*
X134747914Y-110712541D01*
X134583556Y-110602720D01*
X134443780Y-110462944D01*
X134333959Y-110298586D01*
X134258313Y-110115960D01*
X134219750Y-109922086D01*
X134219750Y-109724414D01*
X134258313Y-109530540D01*
X134333959Y-109347914D01*
X134443780Y-109183556D01*
X134583556Y-109043780D01*
X134747914Y-108933959D01*
X134930540Y-108858313D01*
X135096825Y-108825238D01*
X135124413Y-108819750D01*
X135322087Y-108819750D01*
X135349675Y-108825238D01*
X135349675Y-108825238D01*
G37*
G36*
X154399675Y-108825238D02*
G01*
X154565960Y-108858313D01*
X154748586Y-108933959D01*
X154912944Y-109043780D01*
X155052720Y-109183556D01*
X155162541Y-109347914D01*
X155238187Y-109530540D01*
X155276750Y-109724414D01*
X155276750Y-109922086D01*
X155238187Y-110115960D01*
X155162541Y-110298586D01*
X155052720Y-110462944D01*
X154912944Y-110602720D01*
X154748586Y-110712541D01*
X154565960Y-110788187D01*
X154406343Y-110819936D01*
X154372087Y-110826750D01*
X154174413Y-110826750D01*
X154140157Y-110819936D01*
X153980540Y-110788187D01*
X153797914Y-110712541D01*
X153633556Y-110602720D01*
X153493780Y-110462944D01*
X153383959Y-110298586D01*
X153308313Y-110115960D01*
X153269750Y-109922086D01*
X153269750Y-109724414D01*
X153308313Y-109530540D01*
X153383959Y-109347914D01*
X153493780Y-109183556D01*
X153633556Y-109043780D01*
X153797914Y-108933959D01*
X153980540Y-108858313D01*
X154146825Y-108825238D01*
X154174413Y-108819750D01*
X154372087Y-108819750D01*
X154399675Y-108825238D01*
X154399675Y-108825238D01*
G37*
G36*
X138766750Y-110826750D02*
G01*
X136759750Y-110826750D01*
X136759750Y-108819750D01*
X138766750Y-108819750D01*
X138766750Y-110826750D01*
X138766750Y-110826750D01*
G37*
G36*
X202463500Y-109594750D02*
G01*
X200761500Y-109594750D01*
X200761500Y-107892750D01*
X202463500Y-107892750D01*
X202463500Y-109594750D01*
X202463500Y-109594750D01*
G37*
G36*
X183413500Y-109594750D02*
G01*
X181711500Y-109594750D01*
X181711500Y-107892750D01*
X183413500Y-107892750D01*
X183413500Y-109594750D01*
X183413500Y-109594750D01*
G37*
G36*
X164363500Y-109594750D02*
G01*
X162661500Y-109594750D01*
X162661500Y-107892750D01*
X164363500Y-107892750D01*
X164363500Y-109594750D01*
X164363500Y-109594750D01*
G37*
G36*
X145313500Y-109594750D02*
G01*
X143611500Y-109594750D01*
X143611500Y-107892750D01*
X145313500Y-107892750D01*
X145313500Y-109594750D01*
X145313500Y-109594750D01*
G37*
G36*
X124549478Y-105226703D02*
G01*
X124704350Y-105290853D01*
X124843731Y-105383985D01*
X124962265Y-105502519D01*
X125055397Y-105641900D01*
X125119547Y-105796772D01*
X125152250Y-105961184D01*
X125152250Y-106128816D01*
X125119547Y-106293228D01*
X125055397Y-106448100D01*
X124962265Y-106587481D01*
X124843731Y-106706015D01*
X124704350Y-106799147D01*
X124549478Y-106863297D01*
X124385066Y-106896000D01*
X124217434Y-106896000D01*
X124053022Y-106863297D01*
X123898150Y-106799147D01*
X123758769Y-106706015D01*
X123640235Y-106587481D01*
X123547103Y-106448100D01*
X123482953Y-106293228D01*
X123450250Y-106128816D01*
X123450250Y-105961184D01*
X123482953Y-105796772D01*
X123547103Y-105641900D01*
X123640235Y-105502519D01*
X123758769Y-105383985D01*
X123898150Y-105290853D01*
X124053022Y-105226703D01*
X124217434Y-105194000D01*
X124385066Y-105194000D01*
X124549478Y-105226703D01*
X124549478Y-105226703D01*
G37*
G36*
X109309478Y-105226703D02*
G01*
X109464350Y-105290853D01*
X109603731Y-105383985D01*
X109722265Y-105502519D01*
X109815397Y-105641900D01*
X109879547Y-105796772D01*
X109912250Y-105961184D01*
X109912250Y-106128816D01*
X109879547Y-106293228D01*
X109815397Y-106448100D01*
X109722265Y-106587481D01*
X109603731Y-106706015D01*
X109464350Y-106799147D01*
X109309478Y-106863297D01*
X109145066Y-106896000D01*
X108977434Y-106896000D01*
X108813022Y-106863297D01*
X108658150Y-106799147D01*
X108518769Y-106706015D01*
X108400235Y-106587481D01*
X108307103Y-106448100D01*
X108242953Y-106293228D01*
X108210250Y-106128816D01*
X108210250Y-105961184D01*
X108242953Y-105796772D01*
X108307103Y-105641900D01*
X108400235Y-105502519D01*
X108518769Y-105383985D01*
X108658150Y-105290853D01*
X108813022Y-105226703D01*
X108977434Y-105194000D01*
X109145066Y-105194000D01*
X109309478Y-105226703D01*
X109309478Y-105226703D01*
G37*
G36*
X194271474Y-102808684D02*
G01*
X194489474Y-102898983D01*
X194643623Y-102962833D01*
X194978548Y-103186623D01*
X195263377Y-103471452D01*
X195487167Y-103806377D01*
X195529302Y-103908100D01*
X195641316Y-104178526D01*
X195719900Y-104573594D01*
X195719900Y-104976406D01*
X195641316Y-105371474D01*
X195551017Y-105589474D01*
X195487167Y-105743623D01*
X195263377Y-106078548D01*
X194978548Y-106363377D01*
X194643623Y-106587167D01*
X194489474Y-106651017D01*
X194271474Y-106741316D01*
X193876406Y-106819900D01*
X193473594Y-106819900D01*
X193078526Y-106741316D01*
X192860526Y-106651017D01*
X192706377Y-106587167D01*
X192371452Y-106363377D01*
X192086623Y-106078548D01*
X191862833Y-105743623D01*
X191798983Y-105589474D01*
X191708684Y-105371474D01*
X191630100Y-104976406D01*
X191630100Y-104573594D01*
X191708684Y-104178526D01*
X191820698Y-103908100D01*
X191862833Y-103806377D01*
X192086623Y-103471452D01*
X192371452Y-103186623D01*
X192706377Y-102962833D01*
X192860526Y-102898983D01*
X193078526Y-102808684D01*
X193473594Y-102730100D01*
X193876406Y-102730100D01*
X194271474Y-102808684D01*
X194271474Y-102808684D01*
G37*
G36*
X175221474Y-102808684D02*
G01*
X175439474Y-102898983D01*
X175593623Y-102962833D01*
X175928548Y-103186623D01*
X176213377Y-103471452D01*
X176437167Y-103806377D01*
X176479302Y-103908100D01*
X176591316Y-104178526D01*
X176669900Y-104573594D01*
X176669900Y-104976406D01*
X176591316Y-105371474D01*
X176501017Y-105589474D01*
X176437167Y-105743623D01*
X176213377Y-106078548D01*
X175928548Y-106363377D01*
X175593623Y-106587167D01*
X175439474Y-106651017D01*
X175221474Y-106741316D01*
X174826406Y-106819900D01*
X174423594Y-106819900D01*
X174028526Y-106741316D01*
X173810526Y-106651017D01*
X173656377Y-106587167D01*
X173321452Y-106363377D01*
X173036623Y-106078548D01*
X172812833Y-105743623D01*
X172748983Y-105589474D01*
X172658684Y-105371474D01*
X172580100Y-104976406D01*
X172580100Y-104573594D01*
X172658684Y-104178526D01*
X172770698Y-103908100D01*
X172812833Y-103806377D01*
X173036623Y-103471452D01*
X173321452Y-103186623D01*
X173656377Y-102962833D01*
X173810526Y-102898983D01*
X174028526Y-102808684D01*
X174423594Y-102730100D01*
X174826406Y-102730100D01*
X175221474Y-102808684D01*
X175221474Y-102808684D01*
G37*
G36*
X156139724Y-102776934D02*
G01*
X156301599Y-102843985D01*
X156511873Y-102931083D01*
X156846798Y-103154873D01*
X157131627Y-103439702D01*
X157355417Y-103774627D01*
X157387812Y-103852836D01*
X157509566Y-104146776D01*
X157588150Y-104541844D01*
X157588150Y-104944656D01*
X157509566Y-105339724D01*
X157419267Y-105557724D01*
X157355417Y-105711873D01*
X157131627Y-106046798D01*
X156846798Y-106331627D01*
X156511873Y-106555417D01*
X156434463Y-106587481D01*
X156139724Y-106709566D01*
X155744656Y-106788150D01*
X155341844Y-106788150D01*
X154946776Y-106709566D01*
X154652037Y-106587481D01*
X154574627Y-106555417D01*
X154239702Y-106331627D01*
X153954873Y-106046798D01*
X153731083Y-105711873D01*
X153667233Y-105557724D01*
X153576934Y-105339724D01*
X153498350Y-104944656D01*
X153498350Y-104541844D01*
X153576934Y-104146776D01*
X153698688Y-103852836D01*
X153731083Y-103774627D01*
X153954873Y-103439702D01*
X154239702Y-103154873D01*
X154574627Y-102931083D01*
X154784901Y-102843985D01*
X154946776Y-102776934D01*
X155341844Y-102698350D01*
X155744656Y-102698350D01*
X156139724Y-102776934D01*
X156139724Y-102776934D01*
G37*
G36*
X137089724Y-102776934D02*
G01*
X137251599Y-102843985D01*
X137461873Y-102931083D01*
X137796798Y-103154873D01*
X138081627Y-103439702D01*
X138305417Y-103774627D01*
X138337812Y-103852836D01*
X138459566Y-104146776D01*
X138538150Y-104541844D01*
X138538150Y-104944656D01*
X138459566Y-105339724D01*
X138369267Y-105557724D01*
X138305417Y-105711873D01*
X138081627Y-106046798D01*
X137796798Y-106331627D01*
X137461873Y-106555417D01*
X137384463Y-106587481D01*
X137089724Y-106709566D01*
X136694656Y-106788150D01*
X136291844Y-106788150D01*
X135896776Y-106709566D01*
X135602037Y-106587481D01*
X135524627Y-106555417D01*
X135189702Y-106331627D01*
X134904873Y-106046798D01*
X134681083Y-105711873D01*
X134617233Y-105557724D01*
X134526934Y-105339724D01*
X134448350Y-104944656D01*
X134448350Y-104541844D01*
X134526934Y-104146776D01*
X134648688Y-103852836D01*
X134681083Y-103774627D01*
X134904873Y-103439702D01*
X135189702Y-103154873D01*
X135524627Y-102931083D01*
X135734901Y-102843985D01*
X135896776Y-102776934D01*
X136291844Y-102698350D01*
X136694656Y-102698350D01*
X137089724Y-102776934D01*
X137089724Y-102776934D01*
G37*
G36*
X199025104Y-103884585D02*
G01*
X199193626Y-103954389D01*
X199345291Y-104055728D01*
X199474272Y-104184709D01*
X199575611Y-104336374D01*
X199645415Y-104504896D01*
X199681000Y-104683797D01*
X199681000Y-104866203D01*
X199645415Y-105045104D01*
X199575611Y-105213626D01*
X199474272Y-105365291D01*
X199345291Y-105494272D01*
X199193626Y-105595611D01*
X199025104Y-105665415D01*
X198846203Y-105701000D01*
X198663797Y-105701000D01*
X198484896Y-105665415D01*
X198316374Y-105595611D01*
X198164709Y-105494272D01*
X198035728Y-105365291D01*
X197934389Y-105213626D01*
X197864585Y-105045104D01*
X197829000Y-104866203D01*
X197829000Y-104683797D01*
X197864585Y-104504896D01*
X197934389Y-104336374D01*
X198035728Y-104184709D01*
X198164709Y-104055728D01*
X198316374Y-103954389D01*
X198484896Y-103884585D01*
X198663797Y-103849000D01*
X198846203Y-103849000D01*
X199025104Y-103884585D01*
X199025104Y-103884585D01*
G37*
G36*
X188865104Y-103884585D02*
G01*
X189033626Y-103954389D01*
X189185291Y-104055728D01*
X189314272Y-104184709D01*
X189415611Y-104336374D01*
X189485415Y-104504896D01*
X189521000Y-104683797D01*
X189521000Y-104866203D01*
X189485415Y-105045104D01*
X189415611Y-105213626D01*
X189314272Y-105365291D01*
X189185291Y-105494272D01*
X189033626Y-105595611D01*
X188865104Y-105665415D01*
X188686203Y-105701000D01*
X188503797Y-105701000D01*
X188324896Y-105665415D01*
X188156374Y-105595611D01*
X188004709Y-105494272D01*
X187875728Y-105365291D01*
X187774389Y-105213626D01*
X187704585Y-105045104D01*
X187669000Y-104866203D01*
X187669000Y-104683797D01*
X187704585Y-104504896D01*
X187774389Y-104336374D01*
X187875728Y-104184709D01*
X188004709Y-104055728D01*
X188156374Y-103954389D01*
X188324896Y-103884585D01*
X188503797Y-103849000D01*
X188686203Y-103849000D01*
X188865104Y-103884585D01*
X188865104Y-103884585D01*
G37*
G36*
X179975104Y-103884585D02*
G01*
X180143626Y-103954389D01*
X180295291Y-104055728D01*
X180424272Y-104184709D01*
X180525611Y-104336374D01*
X180595415Y-104504896D01*
X180631000Y-104683797D01*
X180631000Y-104866203D01*
X180595415Y-105045104D01*
X180525611Y-105213626D01*
X180424272Y-105365291D01*
X180295291Y-105494272D01*
X180143626Y-105595611D01*
X179975104Y-105665415D01*
X179796203Y-105701000D01*
X179613797Y-105701000D01*
X179434896Y-105665415D01*
X179266374Y-105595611D01*
X179114709Y-105494272D01*
X178985728Y-105365291D01*
X178884389Y-105213626D01*
X178814585Y-105045104D01*
X178779000Y-104866203D01*
X178779000Y-104683797D01*
X178814585Y-104504896D01*
X178884389Y-104336374D01*
X178985728Y-104184709D01*
X179114709Y-104055728D01*
X179266374Y-103954389D01*
X179434896Y-103884585D01*
X179613797Y-103849000D01*
X179796203Y-103849000D01*
X179975104Y-103884585D01*
X179975104Y-103884585D01*
G37*
G36*
X169815104Y-103884585D02*
G01*
X169983626Y-103954389D01*
X170135291Y-104055728D01*
X170264272Y-104184709D01*
X170365611Y-104336374D01*
X170435415Y-104504896D01*
X170471000Y-104683797D01*
X170471000Y-104866203D01*
X170435415Y-105045104D01*
X170365611Y-105213626D01*
X170264272Y-105365291D01*
X170135291Y-105494272D01*
X169983626Y-105595611D01*
X169815104Y-105665415D01*
X169636203Y-105701000D01*
X169453797Y-105701000D01*
X169274896Y-105665415D01*
X169106374Y-105595611D01*
X168954709Y-105494272D01*
X168825728Y-105365291D01*
X168724389Y-105213626D01*
X168654585Y-105045104D01*
X168619000Y-104866203D01*
X168619000Y-104683797D01*
X168654585Y-104504896D01*
X168724389Y-104336374D01*
X168825728Y-104184709D01*
X168954709Y-104055728D01*
X169106374Y-103954389D01*
X169274896Y-103884585D01*
X169453797Y-103849000D01*
X169636203Y-103849000D01*
X169815104Y-103884585D01*
X169815104Y-103884585D01*
G37*
G36*
X131683354Y-103852835D02*
G01*
X131851876Y-103922639D01*
X132003541Y-104023978D01*
X132132522Y-104152959D01*
X132233861Y-104304624D01*
X132303665Y-104473146D01*
X132339250Y-104652047D01*
X132339250Y-104834453D01*
X132303665Y-105013354D01*
X132233861Y-105181876D01*
X132132522Y-105333541D01*
X132003541Y-105462522D01*
X131851876Y-105563861D01*
X131683354Y-105633665D01*
X131504453Y-105669250D01*
X131322047Y-105669250D01*
X131143146Y-105633665D01*
X130974624Y-105563861D01*
X130822959Y-105462522D01*
X130693978Y-105333541D01*
X130592639Y-105181876D01*
X130522835Y-105013354D01*
X130487250Y-104834453D01*
X130487250Y-104652047D01*
X130522835Y-104473146D01*
X130592639Y-104304624D01*
X130693978Y-104152959D01*
X130822959Y-104023978D01*
X130974624Y-103922639D01*
X131143146Y-103852835D01*
X131322047Y-103817250D01*
X131504453Y-103817250D01*
X131683354Y-103852835D01*
X131683354Y-103852835D01*
G37*
G36*
X141843354Y-103852835D02*
G01*
X142011876Y-103922639D01*
X142163541Y-104023978D01*
X142292522Y-104152959D01*
X142393861Y-104304624D01*
X142463665Y-104473146D01*
X142499250Y-104652047D01*
X142499250Y-104834453D01*
X142463665Y-105013354D01*
X142393861Y-105181876D01*
X142292522Y-105333541D01*
X142163541Y-105462522D01*
X142011876Y-105563861D01*
X141843354Y-105633665D01*
X141664453Y-105669250D01*
X141482047Y-105669250D01*
X141303146Y-105633665D01*
X141134624Y-105563861D01*
X140982959Y-105462522D01*
X140853978Y-105333541D01*
X140752639Y-105181876D01*
X140682835Y-105013354D01*
X140647250Y-104834453D01*
X140647250Y-104652047D01*
X140682835Y-104473146D01*
X140752639Y-104304624D01*
X140853978Y-104152959D01*
X140982959Y-104023978D01*
X141134624Y-103922639D01*
X141303146Y-103852835D01*
X141482047Y-103817250D01*
X141664453Y-103817250D01*
X141843354Y-103852835D01*
X141843354Y-103852835D01*
G37*
G36*
X160893354Y-103852835D02*
G01*
X161061876Y-103922639D01*
X161213541Y-104023978D01*
X161342522Y-104152959D01*
X161443861Y-104304624D01*
X161513665Y-104473146D01*
X161549250Y-104652047D01*
X161549250Y-104834453D01*
X161513665Y-105013354D01*
X161443861Y-105181876D01*
X161342522Y-105333541D01*
X161213541Y-105462522D01*
X161061876Y-105563861D01*
X160893354Y-105633665D01*
X160714453Y-105669250D01*
X160532047Y-105669250D01*
X160353146Y-105633665D01*
X160184624Y-105563861D01*
X160032959Y-105462522D01*
X159903978Y-105333541D01*
X159802639Y-105181876D01*
X159732835Y-105013354D01*
X159697250Y-104834453D01*
X159697250Y-104652047D01*
X159732835Y-104473146D01*
X159802639Y-104304624D01*
X159903978Y-104152959D01*
X160032959Y-104023978D01*
X160184624Y-103922639D01*
X160353146Y-103852835D01*
X160532047Y-103817250D01*
X160714453Y-103817250D01*
X160893354Y-103852835D01*
X160893354Y-103852835D01*
G37*
G36*
X150733354Y-103852835D02*
G01*
X150901876Y-103922639D01*
X151053541Y-104023978D01*
X151182522Y-104152959D01*
X151283861Y-104304624D01*
X151353665Y-104473146D01*
X151389250Y-104652047D01*
X151389250Y-104834453D01*
X151353665Y-105013354D01*
X151283861Y-105181876D01*
X151182522Y-105333541D01*
X151053541Y-105462522D01*
X150901876Y-105563861D01*
X150733354Y-105633665D01*
X150554453Y-105669250D01*
X150372047Y-105669250D01*
X150193146Y-105633665D01*
X150024624Y-105563861D01*
X149872959Y-105462522D01*
X149743978Y-105333541D01*
X149642639Y-105181876D01*
X149572835Y-105013354D01*
X149537250Y-104834453D01*
X149537250Y-104652047D01*
X149572835Y-104473146D01*
X149642639Y-104304624D01*
X149743978Y-104152959D01*
X149872959Y-104023978D01*
X150024624Y-103922639D01*
X150193146Y-103852835D01*
X150372047Y-103817250D01*
X150554453Y-103817250D01*
X150733354Y-103852835D01*
X150733354Y-103852835D01*
G37*
G36*
X109309478Y-102686703D02*
G01*
X109464350Y-102750853D01*
X109603731Y-102843985D01*
X109722265Y-102962519D01*
X109815397Y-103101900D01*
X109879547Y-103256772D01*
X109912250Y-103421184D01*
X109912250Y-103588816D01*
X109879547Y-103753228D01*
X109815397Y-103908100D01*
X109722265Y-104047481D01*
X109603731Y-104166015D01*
X109464350Y-104259147D01*
X109309478Y-104323297D01*
X109145066Y-104356000D01*
X108977434Y-104356000D01*
X108813022Y-104323297D01*
X108658150Y-104259147D01*
X108518769Y-104166015D01*
X108400235Y-104047481D01*
X108307103Y-103908100D01*
X108242953Y-103753228D01*
X108210250Y-103588816D01*
X108210250Y-103421184D01*
X108242953Y-103256772D01*
X108307103Y-103101900D01*
X108400235Y-102962519D01*
X108518769Y-102843985D01*
X108658150Y-102750853D01*
X108813022Y-102686703D01*
X108977434Y-102654000D01*
X109145066Y-102654000D01*
X109309478Y-102686703D01*
X109309478Y-102686703D01*
G37*
G36*
X124549478Y-102686703D02*
G01*
X124704350Y-102750853D01*
X124843731Y-102843985D01*
X124962265Y-102962519D01*
X125055397Y-103101900D01*
X125119547Y-103256772D01*
X125152250Y-103421184D01*
X125152250Y-103588816D01*
X125119547Y-103753228D01*
X125055397Y-103908100D01*
X124962265Y-104047481D01*
X124843731Y-104166015D01*
X124704350Y-104259147D01*
X124549478Y-104323297D01*
X124385066Y-104356000D01*
X124217434Y-104356000D01*
X124053022Y-104323297D01*
X123898150Y-104259147D01*
X123758769Y-104166015D01*
X123640235Y-104047481D01*
X123547103Y-103908100D01*
X123482953Y-103753228D01*
X123450250Y-103588816D01*
X123450250Y-103421184D01*
X123482953Y-103256772D01*
X123547103Y-103101900D01*
X123640235Y-102962519D01*
X123758769Y-102843985D01*
X123898150Y-102750853D01*
X124053022Y-102686703D01*
X124217434Y-102654000D01*
X124385066Y-102654000D01*
X124549478Y-102686703D01*
X124549478Y-102686703D01*
G37*
G36*
X170998409Y-101072443D02*
G01*
X171158027Y-101104193D01*
X171372045Y-101192842D01*
X171402556Y-101213229D01*
X171564654Y-101321539D01*
X171728461Y-101485346D01*
X171743250Y-101507480D01*
X171857158Y-101677955D01*
X171945807Y-101891973D01*
X171991000Y-102119174D01*
X171991000Y-102350826D01*
X171945807Y-102578027D01*
X171857158Y-102792045D01*
X171857157Y-102792046D01*
X171728461Y-102984654D01*
X171564654Y-103148461D01*
X171507540Y-103186623D01*
X171372045Y-103277158D01*
X171158027Y-103365807D01*
X171006560Y-103395936D01*
X170930827Y-103411000D01*
X170699173Y-103411000D01*
X170623440Y-103395936D01*
X170471973Y-103365807D01*
X170257955Y-103277158D01*
X170122460Y-103186623D01*
X170065346Y-103148461D01*
X169901539Y-102984654D01*
X169772843Y-102792046D01*
X169772842Y-102792045D01*
X169684193Y-102578027D01*
X169639000Y-102350826D01*
X169639000Y-102119174D01*
X169684193Y-101891973D01*
X169772842Y-101677955D01*
X169886750Y-101507480D01*
X169901539Y-101485346D01*
X170065346Y-101321539D01*
X170227444Y-101213229D01*
X170257955Y-101192842D01*
X170471973Y-101104193D01*
X170631591Y-101072443D01*
X170699173Y-101059000D01*
X170930827Y-101059000D01*
X170998409Y-101072443D01*
X170998409Y-101072443D01*
G37*
G36*
X190048409Y-101072443D02*
G01*
X190208027Y-101104193D01*
X190422045Y-101192842D01*
X190452556Y-101213229D01*
X190614654Y-101321539D01*
X190778461Y-101485346D01*
X190793250Y-101507480D01*
X190907158Y-101677955D01*
X190995807Y-101891973D01*
X191041000Y-102119174D01*
X191041000Y-102350826D01*
X190995807Y-102578027D01*
X190907158Y-102792045D01*
X190907157Y-102792046D01*
X190778461Y-102984654D01*
X190614654Y-103148461D01*
X190557540Y-103186623D01*
X190422045Y-103277158D01*
X190208027Y-103365807D01*
X190056560Y-103395936D01*
X189980827Y-103411000D01*
X189749173Y-103411000D01*
X189673440Y-103395936D01*
X189521973Y-103365807D01*
X189307955Y-103277158D01*
X189172460Y-103186623D01*
X189115346Y-103148461D01*
X188951539Y-102984654D01*
X188822843Y-102792046D01*
X188822842Y-102792045D01*
X188734193Y-102578027D01*
X188689000Y-102350826D01*
X188689000Y-102119174D01*
X188734193Y-101891973D01*
X188822842Y-101677955D01*
X188936750Y-101507480D01*
X188951539Y-101485346D01*
X189115346Y-101321539D01*
X189277444Y-101213229D01*
X189307955Y-101192842D01*
X189521973Y-101104193D01*
X189681591Y-101072443D01*
X189749173Y-101059000D01*
X189980827Y-101059000D01*
X190048409Y-101072443D01*
X190048409Y-101072443D01*
G37*
G36*
X151924810Y-101042314D02*
G01*
X152076277Y-101072443D01*
X152290295Y-101161092D01*
X152354499Y-101203992D01*
X152482904Y-101289789D01*
X152646711Y-101453596D01*
X152732508Y-101582001D01*
X152775408Y-101646205D01*
X152864057Y-101860223D01*
X152909250Y-102087424D01*
X152909250Y-102319076D01*
X152864057Y-102546277D01*
X152775408Y-102760295D01*
X152743075Y-102808684D01*
X152646711Y-102952904D01*
X152482904Y-103116711D01*
X152425790Y-103154873D01*
X152290295Y-103245408D01*
X152076277Y-103334057D01*
X151924810Y-103364186D01*
X151849077Y-103379250D01*
X151617423Y-103379250D01*
X151541690Y-103364186D01*
X151390223Y-103334057D01*
X151176205Y-103245408D01*
X151040710Y-103154873D01*
X150983596Y-103116711D01*
X150819789Y-102952904D01*
X150723425Y-102808684D01*
X150691092Y-102760295D01*
X150602443Y-102546277D01*
X150557250Y-102319076D01*
X150557250Y-102087424D01*
X150602443Y-101860223D01*
X150691092Y-101646205D01*
X150733992Y-101582001D01*
X150819789Y-101453596D01*
X150983596Y-101289789D01*
X151112001Y-101203992D01*
X151176205Y-101161092D01*
X151390223Y-101072443D01*
X151541690Y-101042314D01*
X151617423Y-101027250D01*
X151849077Y-101027250D01*
X151924810Y-101042314D01*
X151924810Y-101042314D01*
G37*
G36*
X132874810Y-101042314D02*
G01*
X133026277Y-101072443D01*
X133240295Y-101161092D01*
X133304499Y-101203992D01*
X133432904Y-101289789D01*
X133596711Y-101453596D01*
X133682508Y-101582001D01*
X133725408Y-101646205D01*
X133814057Y-101860223D01*
X133859250Y-102087424D01*
X133859250Y-102319076D01*
X133814057Y-102546277D01*
X133725408Y-102760295D01*
X133693075Y-102808684D01*
X133596711Y-102952904D01*
X133432904Y-103116711D01*
X133375790Y-103154873D01*
X133240295Y-103245408D01*
X133026277Y-103334057D01*
X132874810Y-103364186D01*
X132799077Y-103379250D01*
X132567423Y-103379250D01*
X132491690Y-103364186D01*
X132340223Y-103334057D01*
X132126205Y-103245408D01*
X131990710Y-103154873D01*
X131933596Y-103116711D01*
X131769789Y-102952904D01*
X131673425Y-102808684D01*
X131641092Y-102760295D01*
X131552443Y-102546277D01*
X131507250Y-102319076D01*
X131507250Y-102087424D01*
X131552443Y-101860223D01*
X131641092Y-101646205D01*
X131683992Y-101582001D01*
X131769789Y-101453596D01*
X131933596Y-101289789D01*
X132062001Y-101203992D01*
X132126205Y-101161092D01*
X132340223Y-101072443D01*
X132491690Y-101042314D01*
X132567423Y-101027250D01*
X132799077Y-101027250D01*
X132874810Y-101042314D01*
X132874810Y-101042314D01*
G37*
G36*
X182729323Y-100285063D02*
G01*
X182889742Y-100333726D01*
X183022406Y-100404636D01*
X183037578Y-100412746D01*
X183167159Y-100519091D01*
X183273504Y-100648672D01*
X183273505Y-100648674D01*
X183352524Y-100796508D01*
X183401187Y-100956927D01*
X183417617Y-101123750D01*
X183401187Y-101290573D01*
X183352524Y-101450992D01*
X183322330Y-101507481D01*
X183273504Y-101598828D01*
X183167159Y-101728409D01*
X183037578Y-101834754D01*
X183037576Y-101834755D01*
X182889742Y-101913774D01*
X182729323Y-101962437D01*
X182604304Y-101974750D01*
X182520696Y-101974750D01*
X182395677Y-101962437D01*
X182235258Y-101913774D01*
X182087424Y-101834755D01*
X182087422Y-101834754D01*
X181957841Y-101728409D01*
X181851496Y-101598828D01*
X181802670Y-101507481D01*
X181772476Y-101450992D01*
X181723813Y-101290573D01*
X181707383Y-101123750D01*
X181723813Y-100956927D01*
X181772476Y-100796508D01*
X181851495Y-100648674D01*
X181851496Y-100648672D01*
X181957841Y-100519091D01*
X182087422Y-100412746D01*
X182102594Y-100404636D01*
X182235258Y-100333726D01*
X182395677Y-100285063D01*
X182520696Y-100272750D01*
X182604304Y-100272750D01*
X182729323Y-100285063D01*
X182729323Y-100285063D01*
G37*
G36*
X163679323Y-100285063D02*
G01*
X163839742Y-100333726D01*
X163972406Y-100404636D01*
X163987578Y-100412746D01*
X164117159Y-100519091D01*
X164223504Y-100648672D01*
X164223505Y-100648674D01*
X164302524Y-100796508D01*
X164351187Y-100956927D01*
X164367617Y-101123750D01*
X164351187Y-101290573D01*
X164302524Y-101450992D01*
X164272330Y-101507481D01*
X164223504Y-101598828D01*
X164117159Y-101728409D01*
X163987578Y-101834754D01*
X163987576Y-101834755D01*
X163839742Y-101913774D01*
X163679323Y-101962437D01*
X163554304Y-101974750D01*
X163470696Y-101974750D01*
X163345677Y-101962437D01*
X163185258Y-101913774D01*
X163037424Y-101834755D01*
X163037422Y-101834754D01*
X162907841Y-101728409D01*
X162801496Y-101598828D01*
X162752670Y-101507481D01*
X162722476Y-101450992D01*
X162673813Y-101290573D01*
X162657383Y-101123750D01*
X162673813Y-100956927D01*
X162722476Y-100796508D01*
X162801495Y-100648674D01*
X162801496Y-100648672D01*
X162907841Y-100519091D01*
X163037422Y-100412746D01*
X163052594Y-100404636D01*
X163185258Y-100333726D01*
X163345677Y-100285063D01*
X163470696Y-100272750D01*
X163554304Y-100272750D01*
X163679323Y-100285063D01*
X163679323Y-100285063D01*
G37*
G36*
X144629323Y-100285063D02*
G01*
X144789742Y-100333726D01*
X144922406Y-100404636D01*
X144937578Y-100412746D01*
X145067159Y-100519091D01*
X145173504Y-100648672D01*
X145173505Y-100648674D01*
X145252524Y-100796508D01*
X145301187Y-100956927D01*
X145317617Y-101123750D01*
X145301187Y-101290573D01*
X145252524Y-101450992D01*
X145222330Y-101507481D01*
X145173504Y-101598828D01*
X145067159Y-101728409D01*
X144937578Y-101834754D01*
X144937576Y-101834755D01*
X144789742Y-101913774D01*
X144629323Y-101962437D01*
X144504304Y-101974750D01*
X144420696Y-101974750D01*
X144295677Y-101962437D01*
X144135258Y-101913774D01*
X143987424Y-101834755D01*
X143987422Y-101834754D01*
X143857841Y-101728409D01*
X143751496Y-101598828D01*
X143702670Y-101507481D01*
X143672476Y-101450992D01*
X143623813Y-101290573D01*
X143607383Y-101123750D01*
X143623813Y-100956927D01*
X143672476Y-100796508D01*
X143751495Y-100648674D01*
X143751496Y-100648672D01*
X143857841Y-100519091D01*
X143987422Y-100412746D01*
X144002594Y-100404636D01*
X144135258Y-100333726D01*
X144295677Y-100285063D01*
X144420696Y-100272750D01*
X144504304Y-100272750D01*
X144629323Y-100285063D01*
X144629323Y-100285063D01*
G37*
G36*
X201779323Y-100285063D02*
G01*
X201939742Y-100333726D01*
X202072406Y-100404636D01*
X202087578Y-100412746D01*
X202217159Y-100519091D01*
X202323504Y-100648672D01*
X202323505Y-100648674D01*
X202402524Y-100796508D01*
X202451187Y-100956927D01*
X202467617Y-101123750D01*
X202451187Y-101290573D01*
X202402524Y-101450992D01*
X202372330Y-101507481D01*
X202323504Y-101598828D01*
X202217159Y-101728409D01*
X202087578Y-101834754D01*
X202087576Y-101834755D01*
X201939742Y-101913774D01*
X201779323Y-101962437D01*
X201654304Y-101974750D01*
X201570696Y-101974750D01*
X201445677Y-101962437D01*
X201285258Y-101913774D01*
X201137424Y-101834755D01*
X201137422Y-101834754D01*
X201007841Y-101728409D01*
X200901496Y-101598828D01*
X200852670Y-101507481D01*
X200822476Y-101450992D01*
X200773813Y-101290573D01*
X200757383Y-101123750D01*
X200773813Y-100956927D01*
X200822476Y-100796508D01*
X200901495Y-100648674D01*
X200901496Y-100648672D01*
X201007841Y-100519091D01*
X201137422Y-100412746D01*
X201152594Y-100404636D01*
X201285258Y-100333726D01*
X201445677Y-100285063D01*
X201570696Y-100272750D01*
X201654304Y-100272750D01*
X201779323Y-100285063D01*
X201779323Y-100285063D01*
G37*
G36*
X109309478Y-100146703D02*
G01*
X109464350Y-100210853D01*
X109603731Y-100303985D01*
X109722265Y-100422519D01*
X109815397Y-100561900D01*
X109879547Y-100716772D01*
X109912250Y-100881184D01*
X109912250Y-101048816D01*
X109879547Y-101213228D01*
X109815397Y-101368100D01*
X109722265Y-101507481D01*
X109603731Y-101626015D01*
X109464350Y-101719147D01*
X109309478Y-101783297D01*
X109145066Y-101816000D01*
X108977434Y-101816000D01*
X108813022Y-101783297D01*
X108658150Y-101719147D01*
X108518769Y-101626015D01*
X108400235Y-101507481D01*
X108307103Y-101368100D01*
X108242953Y-101213228D01*
X108210250Y-101048816D01*
X108210250Y-100881184D01*
X108242953Y-100716772D01*
X108307103Y-100561900D01*
X108400235Y-100422519D01*
X108518769Y-100303985D01*
X108658150Y-100210853D01*
X108813022Y-100146703D01*
X108977434Y-100114000D01*
X109145066Y-100114000D01*
X109309478Y-100146703D01*
X109309478Y-100146703D01*
G37*
G36*
X124549478Y-100146703D02*
G01*
X124704350Y-100210853D01*
X124843731Y-100303985D01*
X124962265Y-100422519D01*
X125055397Y-100561900D01*
X125119547Y-100716772D01*
X125152250Y-100881184D01*
X125152250Y-101048816D01*
X125119547Y-101213228D01*
X125055397Y-101368100D01*
X124962265Y-101507481D01*
X124843731Y-101626015D01*
X124704350Y-101719147D01*
X124549478Y-101783297D01*
X124385066Y-101816000D01*
X124217434Y-101816000D01*
X124053022Y-101783297D01*
X123898150Y-101719147D01*
X123758769Y-101626015D01*
X123640235Y-101507481D01*
X123547103Y-101368100D01*
X123482953Y-101213228D01*
X123450250Y-101048816D01*
X123450250Y-100881184D01*
X123482953Y-100716772D01*
X123547103Y-100561900D01*
X123640235Y-100422519D01*
X123758769Y-100303985D01*
X123898150Y-100210853D01*
X124053022Y-100146703D01*
X124217434Y-100114000D01*
X124385066Y-100114000D01*
X124549478Y-100146703D01*
X124549478Y-100146703D01*
G37*
G36*
X196398409Y-98532443D02*
G01*
X196558027Y-98564193D01*
X196772045Y-98652842D01*
X196802556Y-98673229D01*
X196964654Y-98781539D01*
X197128461Y-98945346D01*
X197143250Y-98967480D01*
X197257158Y-99137955D01*
X197345807Y-99351973D01*
X197391000Y-99579174D01*
X197391000Y-99810826D01*
X197345807Y-100038027D01*
X197257158Y-100252045D01*
X197257157Y-100252046D01*
X197128461Y-100444654D01*
X196964654Y-100608461D01*
X196836249Y-100694258D01*
X196772045Y-100737158D01*
X196558027Y-100825807D01*
X196406560Y-100855936D01*
X196330827Y-100871000D01*
X196099173Y-100871000D01*
X196023440Y-100855936D01*
X195871973Y-100825807D01*
X195657955Y-100737158D01*
X195593751Y-100694258D01*
X195465346Y-100608461D01*
X195301539Y-100444654D01*
X195172843Y-100252046D01*
X195172842Y-100252045D01*
X195084193Y-100038027D01*
X195039000Y-99810826D01*
X195039000Y-99579174D01*
X195084193Y-99351973D01*
X195172842Y-99137955D01*
X195286750Y-98967480D01*
X195301539Y-98945346D01*
X195465346Y-98781539D01*
X195627444Y-98673229D01*
X195657955Y-98652842D01*
X195871973Y-98564193D01*
X196031591Y-98532443D01*
X196099173Y-98519000D01*
X196330827Y-98519000D01*
X196398409Y-98532443D01*
X196398409Y-98532443D01*
G37*
G36*
X177348409Y-98532443D02*
G01*
X177508027Y-98564193D01*
X177722045Y-98652842D01*
X177752556Y-98673229D01*
X177914654Y-98781539D01*
X178078461Y-98945346D01*
X178093250Y-98967480D01*
X178207158Y-99137955D01*
X178295807Y-99351973D01*
X178341000Y-99579174D01*
X178341000Y-99810826D01*
X178295807Y-100038027D01*
X178207158Y-100252045D01*
X178207157Y-100252046D01*
X178078461Y-100444654D01*
X177914654Y-100608461D01*
X177786249Y-100694258D01*
X177722045Y-100737158D01*
X177508027Y-100825807D01*
X177356560Y-100855936D01*
X177280827Y-100871000D01*
X177049173Y-100871000D01*
X176973440Y-100855936D01*
X176821973Y-100825807D01*
X176607955Y-100737158D01*
X176543751Y-100694258D01*
X176415346Y-100608461D01*
X176251539Y-100444654D01*
X176122843Y-100252046D01*
X176122842Y-100252045D01*
X176034193Y-100038027D01*
X175989000Y-99810826D01*
X175989000Y-99579174D01*
X176034193Y-99351973D01*
X176122842Y-99137955D01*
X176236750Y-98967480D01*
X176251539Y-98945346D01*
X176415346Y-98781539D01*
X176577444Y-98673229D01*
X176607955Y-98652842D01*
X176821973Y-98564193D01*
X176981591Y-98532443D01*
X177049173Y-98519000D01*
X177280827Y-98519000D01*
X177348409Y-98532443D01*
X177348409Y-98532443D01*
G37*
G36*
X158274810Y-98502314D02*
G01*
X158426277Y-98532443D01*
X158640295Y-98621092D01*
X158704499Y-98663992D01*
X158832904Y-98749789D01*
X158996711Y-98913596D01*
X159082508Y-99042001D01*
X159125408Y-99106205D01*
X159214057Y-99320223D01*
X159259250Y-99547424D01*
X159259250Y-99779076D01*
X159214057Y-100006277D01*
X159125408Y-100220295D01*
X159090359Y-100272750D01*
X158996711Y-100412904D01*
X158832904Y-100576711D01*
X158725206Y-100648672D01*
X158640295Y-100705408D01*
X158426277Y-100794057D01*
X158274810Y-100824186D01*
X158199077Y-100839250D01*
X157967423Y-100839250D01*
X157891690Y-100824186D01*
X157740223Y-100794057D01*
X157526205Y-100705408D01*
X157441294Y-100648672D01*
X157333596Y-100576711D01*
X157169789Y-100412904D01*
X157076141Y-100272750D01*
X157041092Y-100220295D01*
X156952443Y-100006277D01*
X156907250Y-99779076D01*
X156907250Y-99547424D01*
X156952443Y-99320223D01*
X157041092Y-99106205D01*
X157083992Y-99042001D01*
X157169789Y-98913596D01*
X157333596Y-98749789D01*
X157462001Y-98663992D01*
X157526205Y-98621092D01*
X157740223Y-98532443D01*
X157891690Y-98502314D01*
X157967423Y-98487250D01*
X158199077Y-98487250D01*
X158274810Y-98502314D01*
X158274810Y-98502314D01*
G37*
G36*
X139224810Y-98502314D02*
G01*
X139376277Y-98532443D01*
X139590295Y-98621092D01*
X139654499Y-98663992D01*
X139782904Y-98749789D01*
X139946711Y-98913596D01*
X140032508Y-99042001D01*
X140075408Y-99106205D01*
X140164057Y-99320223D01*
X140209250Y-99547424D01*
X140209250Y-99779076D01*
X140164057Y-100006277D01*
X140075408Y-100220295D01*
X140040359Y-100272750D01*
X139946711Y-100412904D01*
X139782904Y-100576711D01*
X139675206Y-100648672D01*
X139590295Y-100705408D01*
X139376277Y-100794057D01*
X139224810Y-100824186D01*
X139149077Y-100839250D01*
X138917423Y-100839250D01*
X138841690Y-100824186D01*
X138690223Y-100794057D01*
X138476205Y-100705408D01*
X138391294Y-100648672D01*
X138283596Y-100576711D01*
X138119789Y-100412904D01*
X138026141Y-100272750D01*
X137991092Y-100220295D01*
X137902443Y-100006277D01*
X137857250Y-99779076D01*
X137857250Y-99547424D01*
X137902443Y-99320223D01*
X137991092Y-99106205D01*
X138033992Y-99042001D01*
X138119789Y-98913596D01*
X138283596Y-98749789D01*
X138412001Y-98663992D01*
X138476205Y-98621092D01*
X138690223Y-98532443D01*
X138841690Y-98502314D01*
X138917423Y-98487250D01*
X139149077Y-98487250D01*
X139224810Y-98502314D01*
X139224810Y-98502314D01*
G37*
G36*
X109309478Y-97606703D02*
G01*
X109464350Y-97670853D01*
X109603731Y-97763985D01*
X109722265Y-97882519D01*
X109815397Y-98021900D01*
X109879547Y-98176772D01*
X109912250Y-98341184D01*
X109912250Y-98508816D01*
X109879547Y-98673228D01*
X109815397Y-98828100D01*
X109722265Y-98967481D01*
X109603731Y-99086015D01*
X109464350Y-99179147D01*
X109309478Y-99243297D01*
X109145066Y-99276000D01*
X108977434Y-99276000D01*
X108813022Y-99243297D01*
X108658150Y-99179147D01*
X108518769Y-99086015D01*
X108400235Y-98967481D01*
X108307103Y-98828100D01*
X108242953Y-98673228D01*
X108210250Y-98508816D01*
X108210250Y-98341184D01*
X108242953Y-98176772D01*
X108307103Y-98021900D01*
X108400235Y-97882519D01*
X108518769Y-97763985D01*
X108658150Y-97670853D01*
X108813022Y-97606703D01*
X108977434Y-97574000D01*
X109145066Y-97574000D01*
X109309478Y-97606703D01*
X109309478Y-97606703D01*
G37*
G36*
X124549478Y-97606703D02*
G01*
X124704350Y-97670853D01*
X124843731Y-97763985D01*
X124962265Y-97882519D01*
X125055397Y-98021900D01*
X125119547Y-98176772D01*
X125152250Y-98341184D01*
X125152250Y-98508816D01*
X125119547Y-98673228D01*
X125055397Y-98828100D01*
X124962265Y-98967481D01*
X124843731Y-99086015D01*
X124704350Y-99179147D01*
X124549478Y-99243297D01*
X124385066Y-99276000D01*
X124217434Y-99276000D01*
X124053022Y-99243297D01*
X123898150Y-99179147D01*
X123758769Y-99086015D01*
X123640235Y-98967481D01*
X123547103Y-98828100D01*
X123482953Y-98673228D01*
X123450250Y-98508816D01*
X123450250Y-98341184D01*
X123482953Y-98176772D01*
X123547103Y-98021900D01*
X123640235Y-97882519D01*
X123758769Y-97763985D01*
X123898150Y-97670853D01*
X124053022Y-97606703D01*
X124217434Y-97574000D01*
X124385066Y-97574000D01*
X124549478Y-97606703D01*
X124549478Y-97606703D01*
G37*
G36*
X109309478Y-95066703D02*
G01*
X109464350Y-95130853D01*
X109603731Y-95223985D01*
X109722265Y-95342519D01*
X109815397Y-95481900D01*
X109879547Y-95636772D01*
X109912250Y-95801184D01*
X109912250Y-95968816D01*
X109879547Y-96133228D01*
X109815397Y-96288100D01*
X109722265Y-96427481D01*
X109603731Y-96546015D01*
X109464350Y-96639147D01*
X109309478Y-96703297D01*
X109145066Y-96736000D01*
X108977434Y-96736000D01*
X108813022Y-96703297D01*
X108658150Y-96639147D01*
X108518769Y-96546015D01*
X108400235Y-96427481D01*
X108307103Y-96288100D01*
X108242953Y-96133228D01*
X108210250Y-95968816D01*
X108210250Y-95801184D01*
X108242953Y-95636772D01*
X108307103Y-95481900D01*
X108400235Y-95342519D01*
X108518769Y-95223985D01*
X108658150Y-95130853D01*
X108813022Y-95066703D01*
X108977434Y-95034000D01*
X109145066Y-95034000D01*
X109309478Y-95066703D01*
X109309478Y-95066703D01*
G37*
G36*
X124549478Y-95066703D02*
G01*
X124704350Y-95130853D01*
X124843731Y-95223985D01*
X124962265Y-95342519D01*
X125055397Y-95481900D01*
X125119547Y-95636772D01*
X125152250Y-95801184D01*
X125152250Y-95968816D01*
X125119547Y-96133228D01*
X125055397Y-96288100D01*
X124962265Y-96427481D01*
X124843731Y-96546015D01*
X124704350Y-96639147D01*
X124549478Y-96703297D01*
X124385066Y-96736000D01*
X124217434Y-96736000D01*
X124053022Y-96703297D01*
X123898150Y-96639147D01*
X123758769Y-96546015D01*
X123640235Y-96427481D01*
X123547103Y-96288100D01*
X123482953Y-96133228D01*
X123450250Y-95968816D01*
X123450250Y-95801184D01*
X123482953Y-95636772D01*
X123547103Y-95481900D01*
X123640235Y-95342519D01*
X123758769Y-95223985D01*
X123898150Y-95130853D01*
X124053022Y-95066703D01*
X124217434Y-95034000D01*
X124385066Y-95034000D01*
X124549478Y-95066703D01*
X124549478Y-95066703D01*
G37*
G36*
X109309478Y-92526703D02*
G01*
X109464350Y-92590853D01*
X109603731Y-92683985D01*
X109722265Y-92802519D01*
X109815397Y-92941900D01*
X109879547Y-93096772D01*
X109912250Y-93261184D01*
X109912250Y-93428816D01*
X109879547Y-93593228D01*
X109815397Y-93748100D01*
X109722265Y-93887481D01*
X109603731Y-94006015D01*
X109464350Y-94099147D01*
X109309478Y-94163297D01*
X109145066Y-94196000D01*
X108977434Y-94196000D01*
X108813022Y-94163297D01*
X108658150Y-94099147D01*
X108518769Y-94006015D01*
X108400235Y-93887481D01*
X108307103Y-93748100D01*
X108242953Y-93593228D01*
X108210250Y-93428816D01*
X108210250Y-93261184D01*
X108242953Y-93096772D01*
X108307103Y-92941900D01*
X108400235Y-92802519D01*
X108518769Y-92683985D01*
X108658150Y-92590853D01*
X108813022Y-92526703D01*
X108977434Y-92494000D01*
X109145066Y-92494000D01*
X109309478Y-92526703D01*
X109309478Y-92526703D01*
G37*
G36*
X124549478Y-92526703D02*
G01*
X124704350Y-92590853D01*
X124843731Y-92683985D01*
X124962265Y-92802519D01*
X125055397Y-92941900D01*
X125119547Y-93096772D01*
X125152250Y-93261184D01*
X125152250Y-93428816D01*
X125119547Y-93593228D01*
X125055397Y-93748100D01*
X124962265Y-93887481D01*
X124843731Y-94006015D01*
X124704350Y-94099147D01*
X124549478Y-94163297D01*
X124385066Y-94196000D01*
X124217434Y-94196000D01*
X124053022Y-94163297D01*
X123898150Y-94099147D01*
X123758769Y-94006015D01*
X123640235Y-93887481D01*
X123547103Y-93748100D01*
X123482953Y-93593228D01*
X123450250Y-93428816D01*
X123450250Y-93261184D01*
X123482953Y-93096772D01*
X123547103Y-92941900D01*
X123640235Y-92802519D01*
X123758769Y-92683985D01*
X123898150Y-92590853D01*
X124053022Y-92526703D01*
X124217434Y-92494000D01*
X124385066Y-92494000D01*
X124549478Y-92526703D01*
X124549478Y-92526703D01*
G37*
G36*
X192531425Y-89806988D02*
G01*
X192697710Y-89840063D01*
X192880336Y-89915709D01*
X193044694Y-90025530D01*
X193184470Y-90165306D01*
X193294291Y-90329664D01*
X193369937Y-90512290D01*
X193408500Y-90706164D01*
X193408500Y-90903836D01*
X193369937Y-91097710D01*
X193294291Y-91280336D01*
X193184470Y-91444694D01*
X193044694Y-91584470D01*
X192880336Y-91694291D01*
X192697710Y-91769937D01*
X192531425Y-91803012D01*
X192503837Y-91808500D01*
X192306163Y-91808500D01*
X192278575Y-91803012D01*
X192112290Y-91769937D01*
X191929664Y-91694291D01*
X191765306Y-91584470D01*
X191625530Y-91444694D01*
X191515709Y-91280336D01*
X191440063Y-91097710D01*
X191401500Y-90903836D01*
X191401500Y-90706164D01*
X191440063Y-90512290D01*
X191515709Y-90329664D01*
X191625530Y-90165306D01*
X191765306Y-90025530D01*
X191929664Y-89915709D01*
X192112290Y-89840063D01*
X192278575Y-89806988D01*
X192306163Y-89801500D01*
X192503837Y-89801500D01*
X192531425Y-89806988D01*
X192531425Y-89806988D01*
G37*
G36*
X173481425Y-89806988D02*
G01*
X173647710Y-89840063D01*
X173830336Y-89915709D01*
X173994694Y-90025530D01*
X174134470Y-90165306D01*
X174244291Y-90329664D01*
X174319937Y-90512290D01*
X174358500Y-90706164D01*
X174358500Y-90903836D01*
X174319937Y-91097710D01*
X174244291Y-91280336D01*
X174134470Y-91444694D01*
X173994694Y-91584470D01*
X173830336Y-91694291D01*
X173647710Y-91769937D01*
X173481425Y-91803012D01*
X173453837Y-91808500D01*
X173256163Y-91808500D01*
X173228575Y-91803012D01*
X173062290Y-91769937D01*
X172879664Y-91694291D01*
X172715306Y-91584470D01*
X172575530Y-91444694D01*
X172465709Y-91280336D01*
X172390063Y-91097710D01*
X172351500Y-90903836D01*
X172351500Y-90706164D01*
X172390063Y-90512290D01*
X172465709Y-90329664D01*
X172575530Y-90165306D01*
X172715306Y-90025530D01*
X172879664Y-89915709D01*
X173062290Y-89840063D01*
X173228575Y-89806988D01*
X173256163Y-89801500D01*
X173453837Y-89801500D01*
X173481425Y-89806988D01*
X173481425Y-89806988D01*
G37*
G36*
X176898500Y-91808500D02*
G01*
X174891500Y-91808500D01*
X174891500Y-89801500D01*
X176898500Y-89801500D01*
X176898500Y-91808500D01*
X176898500Y-91808500D01*
G37*
G36*
X195948500Y-91808500D02*
G01*
X193941500Y-91808500D01*
X193941500Y-89801500D01*
X195948500Y-89801500D01*
X195948500Y-91808500D01*
X195948500Y-91808500D01*
G37*
G36*
X154399675Y-89775238D02*
G01*
X154565960Y-89808313D01*
X154748586Y-89883959D01*
X154912944Y-89993780D01*
X155052720Y-90133556D01*
X155162541Y-90297914D01*
X155238187Y-90480540D01*
X155271262Y-90646825D01*
X155276750Y-90674413D01*
X155276750Y-90872087D01*
X155273422Y-90888816D01*
X155238187Y-91065960D01*
X155162541Y-91248586D01*
X155052720Y-91412944D01*
X154912944Y-91552720D01*
X154748586Y-91662541D01*
X154565960Y-91738187D01*
X154406343Y-91769936D01*
X154372087Y-91776750D01*
X154174413Y-91776750D01*
X154140157Y-91769936D01*
X153980540Y-91738187D01*
X153797914Y-91662541D01*
X153633556Y-91552720D01*
X153493780Y-91412944D01*
X153383959Y-91248586D01*
X153308313Y-91065960D01*
X153273078Y-90888816D01*
X153269750Y-90872087D01*
X153269750Y-90674413D01*
X153275238Y-90646825D01*
X153308313Y-90480540D01*
X153383959Y-90297914D01*
X153493780Y-90133556D01*
X153633556Y-89993780D01*
X153797914Y-89883959D01*
X153980540Y-89808313D01*
X154146825Y-89775238D01*
X154174413Y-89769750D01*
X154372087Y-89769750D01*
X154399675Y-89775238D01*
X154399675Y-89775238D01*
G37*
G36*
X135349675Y-89775238D02*
G01*
X135515960Y-89808313D01*
X135698586Y-89883959D01*
X135862944Y-89993780D01*
X136002720Y-90133556D01*
X136112541Y-90297914D01*
X136188187Y-90480540D01*
X136221262Y-90646825D01*
X136226750Y-90674413D01*
X136226750Y-90872087D01*
X136223422Y-90888816D01*
X136188187Y-91065960D01*
X136112541Y-91248586D01*
X136002720Y-91412944D01*
X135862944Y-91552720D01*
X135698586Y-91662541D01*
X135515960Y-91738187D01*
X135356343Y-91769936D01*
X135322087Y-91776750D01*
X135124413Y-91776750D01*
X135090157Y-91769936D01*
X134930540Y-91738187D01*
X134747914Y-91662541D01*
X134583556Y-91552720D01*
X134443780Y-91412944D01*
X134333959Y-91248586D01*
X134258313Y-91065960D01*
X134223078Y-90888816D01*
X134219750Y-90872087D01*
X134219750Y-90674413D01*
X134225238Y-90646825D01*
X134258313Y-90480540D01*
X134333959Y-90297914D01*
X134443780Y-90133556D01*
X134583556Y-89993780D01*
X134747914Y-89883959D01*
X134930540Y-89808313D01*
X135096825Y-89775238D01*
X135124413Y-89769750D01*
X135322087Y-89769750D01*
X135349675Y-89775238D01*
X135349675Y-89775238D01*
G37*
G36*
X157816750Y-91776750D02*
G01*
X155809750Y-91776750D01*
X155809750Y-89769750D01*
X157816750Y-89769750D01*
X157816750Y-91776750D01*
X157816750Y-91776750D01*
G37*
G36*
X138766750Y-91776750D02*
G01*
X136759750Y-91776750D01*
X136759750Y-89769750D01*
X138766750Y-89769750D01*
X138766750Y-91776750D01*
X138766750Y-91776750D01*
G37*
G36*
X109309478Y-89986703D02*
G01*
X109464350Y-90050853D01*
X109603731Y-90143985D01*
X109722265Y-90262519D01*
X109815397Y-90401900D01*
X109879547Y-90556772D01*
X109912250Y-90721184D01*
X109912250Y-90888816D01*
X109879547Y-91053228D01*
X109815397Y-91208100D01*
X109722265Y-91347481D01*
X109603731Y-91466015D01*
X109464350Y-91559147D01*
X109309478Y-91623297D01*
X109145066Y-91656000D01*
X108977434Y-91656000D01*
X108813022Y-91623297D01*
X108658150Y-91559147D01*
X108518769Y-91466015D01*
X108400235Y-91347481D01*
X108307103Y-91208100D01*
X108242953Y-91053228D01*
X108210250Y-90888816D01*
X108210250Y-90721184D01*
X108242953Y-90556772D01*
X108307103Y-90401900D01*
X108400235Y-90262519D01*
X108518769Y-90143985D01*
X108658150Y-90050853D01*
X108813022Y-89986703D01*
X108977434Y-89954000D01*
X109145066Y-89954000D01*
X109309478Y-89986703D01*
X109309478Y-89986703D01*
G37*
G36*
X124549478Y-89986703D02*
G01*
X124704350Y-90050853D01*
X124843731Y-90143985D01*
X124962265Y-90262519D01*
X125055397Y-90401900D01*
X125119547Y-90556772D01*
X125152250Y-90721184D01*
X125152250Y-90888816D01*
X125119547Y-91053228D01*
X125055397Y-91208100D01*
X124962265Y-91347481D01*
X124843731Y-91466015D01*
X124704350Y-91559147D01*
X124549478Y-91623297D01*
X124385066Y-91656000D01*
X124217434Y-91656000D01*
X124053022Y-91623297D01*
X123898150Y-91559147D01*
X123758769Y-91466015D01*
X123640235Y-91347481D01*
X123547103Y-91208100D01*
X123482953Y-91053228D01*
X123450250Y-90888816D01*
X123450250Y-90721184D01*
X123482953Y-90556772D01*
X123547103Y-90401900D01*
X123640235Y-90262519D01*
X123758769Y-90143985D01*
X123898150Y-90050853D01*
X124053022Y-89986703D01*
X124217434Y-89954000D01*
X124385066Y-89954000D01*
X124549478Y-89986703D01*
X124549478Y-89986703D01*
G37*
G36*
X164363500Y-90544750D02*
G01*
X162661500Y-90544750D01*
X162661500Y-88842750D01*
X164363500Y-88842750D01*
X164363500Y-90544750D01*
X164363500Y-90544750D01*
G37*
G36*
X183413500Y-90544750D02*
G01*
X181711500Y-90544750D01*
X181711500Y-88842750D01*
X183413500Y-88842750D01*
X183413500Y-90544750D01*
X183413500Y-90544750D01*
G37*
G36*
X202463500Y-90544750D02*
G01*
X200761500Y-90544750D01*
X200761500Y-88842750D01*
X202463500Y-88842750D01*
X202463500Y-90544750D01*
X202463500Y-90544750D01*
G37*
G36*
X145313500Y-90544750D02*
G01*
X143611500Y-90544750D01*
X143611500Y-88842750D01*
X145313500Y-88842750D01*
X145313500Y-90544750D01*
X145313500Y-90544750D01*
G37*
G36*
X124549478Y-87446703D02*
G01*
X124704350Y-87510853D01*
X124843731Y-87603985D01*
X124962265Y-87722519D01*
X125055397Y-87861900D01*
X125119547Y-88016772D01*
X125152250Y-88181184D01*
X125152250Y-88348816D01*
X125119547Y-88513228D01*
X125055397Y-88668100D01*
X124962265Y-88807481D01*
X124843731Y-88926015D01*
X124704350Y-89019147D01*
X124549478Y-89083297D01*
X124385066Y-89116000D01*
X124217434Y-89116000D01*
X124053022Y-89083297D01*
X123898150Y-89019147D01*
X123758769Y-88926015D01*
X123640235Y-88807481D01*
X123547103Y-88668100D01*
X123482953Y-88513228D01*
X123450250Y-88348816D01*
X123450250Y-88181184D01*
X123482953Y-88016772D01*
X123547103Y-87861900D01*
X123640235Y-87722519D01*
X123758769Y-87603985D01*
X123898150Y-87510853D01*
X124053022Y-87446703D01*
X124217434Y-87414000D01*
X124385066Y-87414000D01*
X124549478Y-87446703D01*
X124549478Y-87446703D01*
G37*
G36*
X109309478Y-87446703D02*
G01*
X109464350Y-87510853D01*
X109603731Y-87603985D01*
X109722265Y-87722519D01*
X109815397Y-87861900D01*
X109879547Y-88016772D01*
X109912250Y-88181184D01*
X109912250Y-88348816D01*
X109879547Y-88513228D01*
X109815397Y-88668100D01*
X109722265Y-88807481D01*
X109603731Y-88926015D01*
X109464350Y-89019147D01*
X109309478Y-89083297D01*
X109145066Y-89116000D01*
X108977434Y-89116000D01*
X108813022Y-89083297D01*
X108658150Y-89019147D01*
X108518769Y-88926015D01*
X108400235Y-88807481D01*
X108307103Y-88668100D01*
X108242953Y-88513228D01*
X108210250Y-88348816D01*
X108210250Y-88181184D01*
X108242953Y-88016772D01*
X108307103Y-87861900D01*
X108400235Y-87722519D01*
X108518769Y-87603985D01*
X108658150Y-87510853D01*
X108813022Y-87446703D01*
X108977434Y-87414000D01*
X109145066Y-87414000D01*
X109309478Y-87446703D01*
X109309478Y-87446703D01*
G37*
G36*
X175221474Y-83758684D02*
G01*
X175432309Y-83846015D01*
X175593623Y-83912833D01*
X175928548Y-84136623D01*
X176213377Y-84421452D01*
X176437167Y-84756377D01*
X176469562Y-84834586D01*
X176591316Y-85128526D01*
X176669900Y-85523594D01*
X176669900Y-85926406D01*
X176591316Y-86321474D01*
X176501017Y-86539474D01*
X176437167Y-86693623D01*
X176213377Y-87028548D01*
X175928548Y-87313377D01*
X175593623Y-87537167D01*
X175439474Y-87601017D01*
X175221474Y-87691316D01*
X174826406Y-87769900D01*
X174423594Y-87769900D01*
X174028526Y-87691316D01*
X173810526Y-87601017D01*
X173656377Y-87537167D01*
X173321452Y-87313377D01*
X173036623Y-87028548D01*
X172812833Y-86693623D01*
X172748983Y-86539474D01*
X172658684Y-86321474D01*
X172580100Y-85926406D01*
X172580100Y-85523594D01*
X172658684Y-85128526D01*
X172780438Y-84834586D01*
X172812833Y-84756377D01*
X173036623Y-84421452D01*
X173321452Y-84136623D01*
X173656377Y-83912833D01*
X173817691Y-83846015D01*
X174028526Y-83758684D01*
X174423594Y-83680100D01*
X174826406Y-83680100D01*
X175221474Y-83758684D01*
X175221474Y-83758684D01*
G37*
G36*
X194271474Y-83758684D02*
G01*
X194482309Y-83846015D01*
X194643623Y-83912833D01*
X194978548Y-84136623D01*
X195263377Y-84421452D01*
X195487167Y-84756377D01*
X195519562Y-84834586D01*
X195641316Y-85128526D01*
X195719900Y-85523594D01*
X195719900Y-85926406D01*
X195641316Y-86321474D01*
X195551017Y-86539474D01*
X195487167Y-86693623D01*
X195263377Y-87028548D01*
X194978548Y-87313377D01*
X194643623Y-87537167D01*
X194489474Y-87601017D01*
X194271474Y-87691316D01*
X193876406Y-87769900D01*
X193473594Y-87769900D01*
X193078526Y-87691316D01*
X192860526Y-87601017D01*
X192706377Y-87537167D01*
X192371452Y-87313377D01*
X192086623Y-87028548D01*
X191862833Y-86693623D01*
X191798983Y-86539474D01*
X191708684Y-86321474D01*
X191630100Y-85926406D01*
X191630100Y-85523594D01*
X191708684Y-85128526D01*
X191830438Y-84834586D01*
X191862833Y-84756377D01*
X192086623Y-84421452D01*
X192371452Y-84136623D01*
X192706377Y-83912833D01*
X192867691Y-83846015D01*
X193078526Y-83758684D01*
X193473594Y-83680100D01*
X193876406Y-83680100D01*
X194271474Y-83758684D01*
X194271474Y-83758684D01*
G37*
G36*
X137089724Y-83726934D02*
G01*
X137307724Y-83817233D01*
X137461873Y-83881083D01*
X137796798Y-84104873D01*
X138081627Y-84389702D01*
X138305417Y-84724627D01*
X138337812Y-84802836D01*
X138459566Y-85096776D01*
X138538150Y-85491844D01*
X138538150Y-85894656D01*
X138459566Y-86289724D01*
X138408701Y-86412522D01*
X138305417Y-86661873D01*
X138081627Y-86996798D01*
X137796798Y-87281627D01*
X137461873Y-87505417D01*
X137385221Y-87537167D01*
X137089724Y-87659566D01*
X136694656Y-87738150D01*
X136291844Y-87738150D01*
X135896776Y-87659566D01*
X135601279Y-87537167D01*
X135524627Y-87505417D01*
X135189702Y-87281627D01*
X134904873Y-86996798D01*
X134681083Y-86661873D01*
X134577799Y-86412522D01*
X134526934Y-86289724D01*
X134448350Y-85894656D01*
X134448350Y-85491844D01*
X134526934Y-85096776D01*
X134648688Y-84802836D01*
X134681083Y-84724627D01*
X134904873Y-84389702D01*
X135189702Y-84104873D01*
X135524627Y-83881083D01*
X135678776Y-83817233D01*
X135896776Y-83726934D01*
X136291844Y-83648350D01*
X136694656Y-83648350D01*
X137089724Y-83726934D01*
X137089724Y-83726934D01*
G37*
G36*
X156139724Y-83726934D02*
G01*
X156357724Y-83817233D01*
X156511873Y-83881083D01*
X156846798Y-84104873D01*
X157131627Y-84389702D01*
X157355417Y-84724627D01*
X157387812Y-84802836D01*
X157509566Y-85096776D01*
X157588150Y-85491844D01*
X157588150Y-85894656D01*
X157509566Y-86289724D01*
X157458701Y-86412522D01*
X157355417Y-86661873D01*
X157131627Y-86996798D01*
X156846798Y-87281627D01*
X156511873Y-87505417D01*
X156435221Y-87537167D01*
X156139724Y-87659566D01*
X155744656Y-87738150D01*
X155341844Y-87738150D01*
X154946776Y-87659566D01*
X154651279Y-87537167D01*
X154574627Y-87505417D01*
X154239702Y-87281627D01*
X153954873Y-86996798D01*
X153731083Y-86661873D01*
X153627799Y-86412522D01*
X153576934Y-86289724D01*
X153498350Y-85894656D01*
X153498350Y-85491844D01*
X153576934Y-85096776D01*
X153698688Y-84802836D01*
X153731083Y-84724627D01*
X153954873Y-84389702D01*
X154239702Y-84104873D01*
X154574627Y-83881083D01*
X154728776Y-83817233D01*
X154946776Y-83726934D01*
X155341844Y-83648350D01*
X155744656Y-83648350D01*
X156139724Y-83726934D01*
X156139724Y-83726934D01*
G37*
G36*
X199025104Y-84834585D02*
G01*
X199193626Y-84904389D01*
X199345291Y-85005728D01*
X199474272Y-85134709D01*
X199575611Y-85286374D01*
X199645415Y-85454896D01*
X199681000Y-85633797D01*
X199681000Y-85816203D01*
X199645415Y-85995104D01*
X199575611Y-86163626D01*
X199474272Y-86315291D01*
X199345291Y-86444272D01*
X199193626Y-86545611D01*
X199025104Y-86615415D01*
X198846203Y-86651000D01*
X198663797Y-86651000D01*
X198484896Y-86615415D01*
X198316374Y-86545611D01*
X198164709Y-86444272D01*
X198035728Y-86315291D01*
X197934389Y-86163626D01*
X197864585Y-85995104D01*
X197829000Y-85816203D01*
X197829000Y-85633797D01*
X197864585Y-85454896D01*
X197934389Y-85286374D01*
X198035728Y-85134709D01*
X198164709Y-85005728D01*
X198316374Y-84904389D01*
X198484896Y-84834585D01*
X198663797Y-84799000D01*
X198846203Y-84799000D01*
X199025104Y-84834585D01*
X199025104Y-84834585D01*
G37*
G36*
X188865104Y-84834585D02*
G01*
X189033626Y-84904389D01*
X189185291Y-85005728D01*
X189314272Y-85134709D01*
X189415611Y-85286374D01*
X189485415Y-85454896D01*
X189521000Y-85633797D01*
X189521000Y-85816203D01*
X189485415Y-85995104D01*
X189415611Y-86163626D01*
X189314272Y-86315291D01*
X189185291Y-86444272D01*
X189033626Y-86545611D01*
X188865104Y-86615415D01*
X188686203Y-86651000D01*
X188503797Y-86651000D01*
X188324896Y-86615415D01*
X188156374Y-86545611D01*
X188004709Y-86444272D01*
X187875728Y-86315291D01*
X187774389Y-86163626D01*
X187704585Y-85995104D01*
X187669000Y-85816203D01*
X187669000Y-85633797D01*
X187704585Y-85454896D01*
X187774389Y-85286374D01*
X187875728Y-85134709D01*
X188004709Y-85005728D01*
X188156374Y-84904389D01*
X188324896Y-84834585D01*
X188503797Y-84799000D01*
X188686203Y-84799000D01*
X188865104Y-84834585D01*
X188865104Y-84834585D01*
G37*
G36*
X179975104Y-84834585D02*
G01*
X180143626Y-84904389D01*
X180295291Y-85005728D01*
X180424272Y-85134709D01*
X180525611Y-85286374D01*
X180595415Y-85454896D01*
X180631000Y-85633797D01*
X180631000Y-85816203D01*
X180595415Y-85995104D01*
X180525611Y-86163626D01*
X180424272Y-86315291D01*
X180295291Y-86444272D01*
X180143626Y-86545611D01*
X179975104Y-86615415D01*
X179796203Y-86651000D01*
X179613797Y-86651000D01*
X179434896Y-86615415D01*
X179266374Y-86545611D01*
X179114709Y-86444272D01*
X178985728Y-86315291D01*
X178884389Y-86163626D01*
X178814585Y-85995104D01*
X178779000Y-85816203D01*
X178779000Y-85633797D01*
X178814585Y-85454896D01*
X178884389Y-85286374D01*
X178985728Y-85134709D01*
X179114709Y-85005728D01*
X179266374Y-84904389D01*
X179434896Y-84834585D01*
X179613797Y-84799000D01*
X179796203Y-84799000D01*
X179975104Y-84834585D01*
X179975104Y-84834585D01*
G37*
G36*
X169815104Y-84834585D02*
G01*
X169983626Y-84904389D01*
X170135291Y-85005728D01*
X170264272Y-85134709D01*
X170365611Y-85286374D01*
X170435415Y-85454896D01*
X170471000Y-85633797D01*
X170471000Y-85816203D01*
X170435415Y-85995104D01*
X170365611Y-86163626D01*
X170264272Y-86315291D01*
X170135291Y-86444272D01*
X169983626Y-86545611D01*
X169815104Y-86615415D01*
X169636203Y-86651000D01*
X169453797Y-86651000D01*
X169274896Y-86615415D01*
X169106374Y-86545611D01*
X168954709Y-86444272D01*
X168825728Y-86315291D01*
X168724389Y-86163626D01*
X168654585Y-85995104D01*
X168619000Y-85816203D01*
X168619000Y-85633797D01*
X168654585Y-85454896D01*
X168724389Y-85286374D01*
X168825728Y-85134709D01*
X168954709Y-85005728D01*
X169106374Y-84904389D01*
X169274896Y-84834585D01*
X169453797Y-84799000D01*
X169636203Y-84799000D01*
X169815104Y-84834585D01*
X169815104Y-84834585D01*
G37*
G36*
X131683354Y-84802835D02*
G01*
X131851876Y-84872639D01*
X132003541Y-84973978D01*
X132132522Y-85102959D01*
X132233861Y-85254624D01*
X132303665Y-85423146D01*
X132339250Y-85602047D01*
X132339250Y-85784453D01*
X132303665Y-85963354D01*
X132233861Y-86131876D01*
X132132522Y-86283541D01*
X132003541Y-86412522D01*
X131851876Y-86513861D01*
X131683354Y-86583665D01*
X131504453Y-86619250D01*
X131322047Y-86619250D01*
X131143146Y-86583665D01*
X130974624Y-86513861D01*
X130822959Y-86412522D01*
X130693978Y-86283541D01*
X130592639Y-86131876D01*
X130522835Y-85963354D01*
X130487250Y-85784453D01*
X130487250Y-85602047D01*
X130522835Y-85423146D01*
X130592639Y-85254624D01*
X130693978Y-85102959D01*
X130822959Y-84973978D01*
X130974624Y-84872639D01*
X131143146Y-84802835D01*
X131322047Y-84767250D01*
X131504453Y-84767250D01*
X131683354Y-84802835D01*
X131683354Y-84802835D01*
G37*
G36*
X141843354Y-84802835D02*
G01*
X142011876Y-84872639D01*
X142163541Y-84973978D01*
X142292522Y-85102959D01*
X142393861Y-85254624D01*
X142463665Y-85423146D01*
X142499250Y-85602047D01*
X142499250Y-85784453D01*
X142463665Y-85963354D01*
X142393861Y-86131876D01*
X142292522Y-86283541D01*
X142163541Y-86412522D01*
X142011876Y-86513861D01*
X141843354Y-86583665D01*
X141664453Y-86619250D01*
X141482047Y-86619250D01*
X141303146Y-86583665D01*
X141134624Y-86513861D01*
X140982959Y-86412522D01*
X140853978Y-86283541D01*
X140752639Y-86131876D01*
X140682835Y-85963354D01*
X140647250Y-85784453D01*
X140647250Y-85602047D01*
X140682835Y-85423146D01*
X140752639Y-85254624D01*
X140853978Y-85102959D01*
X140982959Y-84973978D01*
X141134624Y-84872639D01*
X141303146Y-84802835D01*
X141482047Y-84767250D01*
X141664453Y-84767250D01*
X141843354Y-84802835D01*
X141843354Y-84802835D01*
G37*
G36*
X160893354Y-84802835D02*
G01*
X161061876Y-84872639D01*
X161213541Y-84973978D01*
X161342522Y-85102959D01*
X161443861Y-85254624D01*
X161513665Y-85423146D01*
X161549250Y-85602047D01*
X161549250Y-85784453D01*
X161513665Y-85963354D01*
X161443861Y-86131876D01*
X161342522Y-86283541D01*
X161213541Y-86412522D01*
X161061876Y-86513861D01*
X160893354Y-86583665D01*
X160714453Y-86619250D01*
X160532047Y-86619250D01*
X160353146Y-86583665D01*
X160184624Y-86513861D01*
X160032959Y-86412522D01*
X159903978Y-86283541D01*
X159802639Y-86131876D01*
X159732835Y-85963354D01*
X159697250Y-85784453D01*
X159697250Y-85602047D01*
X159732835Y-85423146D01*
X159802639Y-85254624D01*
X159903978Y-85102959D01*
X160032959Y-84973978D01*
X160184624Y-84872639D01*
X160353146Y-84802835D01*
X160532047Y-84767250D01*
X160714453Y-84767250D01*
X160893354Y-84802835D01*
X160893354Y-84802835D01*
G37*
G36*
X150733354Y-84802835D02*
G01*
X150901876Y-84872639D01*
X151053541Y-84973978D01*
X151182522Y-85102959D01*
X151283861Y-85254624D01*
X151353665Y-85423146D01*
X151389250Y-85602047D01*
X151389250Y-85784453D01*
X151353665Y-85963354D01*
X151283861Y-86131876D01*
X151182522Y-86283541D01*
X151053541Y-86412522D01*
X150901876Y-86513861D01*
X150733354Y-86583665D01*
X150554453Y-86619250D01*
X150372047Y-86619250D01*
X150193146Y-86583665D01*
X150024624Y-86513861D01*
X149872959Y-86412522D01*
X149743978Y-86283541D01*
X149642639Y-86131876D01*
X149572835Y-85963354D01*
X149537250Y-85784453D01*
X149537250Y-85602047D01*
X149572835Y-85423146D01*
X149642639Y-85254624D01*
X149743978Y-85102959D01*
X149872959Y-84973978D01*
X150024624Y-84872639D01*
X150193146Y-84802835D01*
X150372047Y-84767250D01*
X150554453Y-84767250D01*
X150733354Y-84802835D01*
X150733354Y-84802835D01*
G37*
G36*
X124549478Y-84906703D02*
G01*
X124704350Y-84970853D01*
X124843731Y-85063985D01*
X124962265Y-85182519D01*
X125055397Y-85321900D01*
X125119547Y-85476772D01*
X125152250Y-85641184D01*
X125152250Y-85808816D01*
X125119547Y-85973228D01*
X125055397Y-86128100D01*
X124962265Y-86267481D01*
X124843731Y-86386015D01*
X124704350Y-86479147D01*
X124549478Y-86543297D01*
X124385066Y-86576000D01*
X124217434Y-86576000D01*
X124053022Y-86543297D01*
X123898150Y-86479147D01*
X123758769Y-86386015D01*
X123640235Y-86267481D01*
X123547103Y-86128100D01*
X123482953Y-85973228D01*
X123450250Y-85808816D01*
X123450250Y-85641184D01*
X123482953Y-85476772D01*
X123547103Y-85321900D01*
X123640235Y-85182519D01*
X123758769Y-85063985D01*
X123898150Y-84970853D01*
X124053022Y-84906703D01*
X124217434Y-84874000D01*
X124385066Y-84874000D01*
X124549478Y-84906703D01*
X124549478Y-84906703D01*
G37*
G36*
X109309478Y-84906703D02*
G01*
X109464350Y-84970853D01*
X109603731Y-85063985D01*
X109722265Y-85182519D01*
X109815397Y-85321900D01*
X109879547Y-85476772D01*
X109912250Y-85641184D01*
X109912250Y-85808816D01*
X109879547Y-85973228D01*
X109815397Y-86128100D01*
X109722265Y-86267481D01*
X109603731Y-86386015D01*
X109464350Y-86479147D01*
X109309478Y-86543297D01*
X109145066Y-86576000D01*
X108977434Y-86576000D01*
X108813022Y-86543297D01*
X108658150Y-86479147D01*
X108518769Y-86386015D01*
X108400235Y-86267481D01*
X108307103Y-86128100D01*
X108242953Y-85973228D01*
X108210250Y-85808816D01*
X108210250Y-85641184D01*
X108242953Y-85476772D01*
X108307103Y-85321900D01*
X108400235Y-85182519D01*
X108518769Y-85063985D01*
X108658150Y-84970853D01*
X108813022Y-84906703D01*
X108977434Y-84874000D01*
X109145066Y-84874000D01*
X109309478Y-84906703D01*
X109309478Y-84906703D01*
G37*
G36*
X190048409Y-82022443D02*
G01*
X190208027Y-82054193D01*
X190422045Y-82142842D01*
X190422046Y-82142843D01*
X190614654Y-82271539D01*
X190778461Y-82435346D01*
X190837687Y-82523985D01*
X190907158Y-82627955D01*
X190995807Y-82841973D01*
X191041000Y-83069174D01*
X191041000Y-83300826D01*
X190995807Y-83528027D01*
X190907158Y-83742045D01*
X190907157Y-83742046D01*
X190778461Y-83934654D01*
X190614654Y-84098461D01*
X190557540Y-84136623D01*
X190422045Y-84227158D01*
X190208027Y-84315807D01*
X190056560Y-84345936D01*
X189980827Y-84361000D01*
X189749173Y-84361000D01*
X189673440Y-84345936D01*
X189521973Y-84315807D01*
X189307955Y-84227158D01*
X189172460Y-84136623D01*
X189115346Y-84098461D01*
X188951539Y-83934654D01*
X188822843Y-83742046D01*
X188822842Y-83742045D01*
X188734193Y-83528027D01*
X188689000Y-83300826D01*
X188689000Y-83069174D01*
X188734193Y-82841973D01*
X188822842Y-82627955D01*
X188892313Y-82523985D01*
X188951539Y-82435346D01*
X189115346Y-82271539D01*
X189307954Y-82142843D01*
X189307955Y-82142842D01*
X189521973Y-82054193D01*
X189681591Y-82022443D01*
X189749173Y-82009000D01*
X189980827Y-82009000D01*
X190048409Y-82022443D01*
X190048409Y-82022443D01*
G37*
G36*
X170998409Y-82022443D02*
G01*
X171158027Y-82054193D01*
X171372045Y-82142842D01*
X171372046Y-82142843D01*
X171564654Y-82271539D01*
X171728461Y-82435346D01*
X171787687Y-82523985D01*
X171857158Y-82627955D01*
X171945807Y-82841973D01*
X171991000Y-83069174D01*
X171991000Y-83300826D01*
X171945807Y-83528027D01*
X171857158Y-83742045D01*
X171857157Y-83742046D01*
X171728461Y-83934654D01*
X171564654Y-84098461D01*
X171507540Y-84136623D01*
X171372045Y-84227158D01*
X171158027Y-84315807D01*
X171006560Y-84345936D01*
X170930827Y-84361000D01*
X170699173Y-84361000D01*
X170623440Y-84345936D01*
X170471973Y-84315807D01*
X170257955Y-84227158D01*
X170122460Y-84136623D01*
X170065346Y-84098461D01*
X169901539Y-83934654D01*
X169772843Y-83742046D01*
X169772842Y-83742045D01*
X169684193Y-83528027D01*
X169639000Y-83300826D01*
X169639000Y-83069174D01*
X169684193Y-82841973D01*
X169772842Y-82627955D01*
X169842313Y-82523985D01*
X169901539Y-82435346D01*
X170065346Y-82271539D01*
X170257954Y-82142843D01*
X170257955Y-82142842D01*
X170471973Y-82054193D01*
X170631591Y-82022443D01*
X170699173Y-82009000D01*
X170930827Y-82009000D01*
X170998409Y-82022443D01*
X170998409Y-82022443D01*
G37*
G36*
X132874810Y-81992314D02*
G01*
X133026277Y-82022443D01*
X133240295Y-82111092D01*
X133304499Y-82153992D01*
X133432904Y-82239789D01*
X133596711Y-82403596D01*
X133677152Y-82523985D01*
X133725408Y-82596205D01*
X133814057Y-82810223D01*
X133859250Y-83037424D01*
X133859250Y-83269076D01*
X133814057Y-83496277D01*
X133725408Y-83710295D01*
X133693075Y-83758684D01*
X133596711Y-83902904D01*
X133432904Y-84066711D01*
X133375790Y-84104873D01*
X133240295Y-84195408D01*
X133026277Y-84284057D01*
X132874810Y-84314186D01*
X132799077Y-84329250D01*
X132567423Y-84329250D01*
X132491690Y-84314186D01*
X132340223Y-84284057D01*
X132126205Y-84195408D01*
X131990710Y-84104873D01*
X131933596Y-84066711D01*
X131769789Y-83902904D01*
X131673425Y-83758684D01*
X131641092Y-83710295D01*
X131552443Y-83496277D01*
X131507250Y-83269076D01*
X131507250Y-83037424D01*
X131552443Y-82810223D01*
X131641092Y-82596205D01*
X131689348Y-82523985D01*
X131769789Y-82403596D01*
X131933596Y-82239789D01*
X132062001Y-82153992D01*
X132126205Y-82111092D01*
X132340223Y-82022443D01*
X132491690Y-81992314D01*
X132567423Y-81977250D01*
X132799077Y-81977250D01*
X132874810Y-81992314D01*
X132874810Y-81992314D01*
G37*
G36*
X151924810Y-81992314D02*
G01*
X152076277Y-82022443D01*
X152290295Y-82111092D01*
X152354499Y-82153992D01*
X152482904Y-82239789D01*
X152646711Y-82403596D01*
X152727152Y-82523985D01*
X152775408Y-82596205D01*
X152864057Y-82810223D01*
X152909250Y-83037424D01*
X152909250Y-83269076D01*
X152864057Y-83496277D01*
X152775408Y-83710295D01*
X152743075Y-83758684D01*
X152646711Y-83902904D01*
X152482904Y-84066711D01*
X152425790Y-84104873D01*
X152290295Y-84195408D01*
X152076277Y-84284057D01*
X151924810Y-84314186D01*
X151849077Y-84329250D01*
X151617423Y-84329250D01*
X151541690Y-84314186D01*
X151390223Y-84284057D01*
X151176205Y-84195408D01*
X151040710Y-84104873D01*
X150983596Y-84066711D01*
X150819789Y-83902904D01*
X150723425Y-83758684D01*
X150691092Y-83710295D01*
X150602443Y-83496277D01*
X150557250Y-83269076D01*
X150557250Y-83037424D01*
X150602443Y-82810223D01*
X150691092Y-82596205D01*
X150739348Y-82523985D01*
X150819789Y-82403596D01*
X150983596Y-82239789D01*
X151112001Y-82153992D01*
X151176205Y-82111092D01*
X151390223Y-82022443D01*
X151541690Y-81992314D01*
X151617423Y-81977250D01*
X151849077Y-81977250D01*
X151924810Y-81992314D01*
X151924810Y-81992314D01*
G37*
G36*
X109309478Y-82366703D02*
G01*
X109464350Y-82430853D01*
X109603731Y-82523985D01*
X109722265Y-82642519D01*
X109815397Y-82781900D01*
X109879547Y-82936772D01*
X109912250Y-83101184D01*
X109912250Y-83268816D01*
X109879547Y-83433228D01*
X109815397Y-83588100D01*
X109722265Y-83727481D01*
X109603731Y-83846015D01*
X109464350Y-83939147D01*
X109309478Y-84003297D01*
X109145066Y-84036000D01*
X108977434Y-84036000D01*
X108813022Y-84003297D01*
X108658150Y-83939147D01*
X108518769Y-83846015D01*
X108400235Y-83727481D01*
X108307103Y-83588100D01*
X108242953Y-83433228D01*
X108210250Y-83268816D01*
X108210250Y-83101184D01*
X108242953Y-82936772D01*
X108307103Y-82781900D01*
X108400235Y-82642519D01*
X108518769Y-82523985D01*
X108658150Y-82430853D01*
X108813022Y-82366703D01*
X108977434Y-82334000D01*
X109145066Y-82334000D01*
X109309478Y-82366703D01*
X109309478Y-82366703D01*
G37*
G36*
X124549478Y-82366703D02*
G01*
X124704350Y-82430853D01*
X124843731Y-82523985D01*
X124962265Y-82642519D01*
X125055397Y-82781900D01*
X125119547Y-82936772D01*
X125152250Y-83101184D01*
X125152250Y-83268816D01*
X125119547Y-83433228D01*
X125055397Y-83588100D01*
X124962265Y-83727481D01*
X124843731Y-83846015D01*
X124704350Y-83939147D01*
X124549478Y-84003297D01*
X124385066Y-84036000D01*
X124217434Y-84036000D01*
X124053022Y-84003297D01*
X123898150Y-83939147D01*
X123758769Y-83846015D01*
X123640235Y-83727481D01*
X123547103Y-83588100D01*
X123482953Y-83433228D01*
X123450250Y-83268816D01*
X123450250Y-83101184D01*
X123482953Y-82936772D01*
X123547103Y-82781900D01*
X123640235Y-82642519D01*
X123758769Y-82523985D01*
X123898150Y-82430853D01*
X124053022Y-82366703D01*
X124217434Y-82334000D01*
X124385066Y-82334000D01*
X124549478Y-82366703D01*
X124549478Y-82366703D01*
G37*
G36*
X182729323Y-81235063D02*
G01*
X182889742Y-81283726D01*
X183022406Y-81354636D01*
X183037578Y-81362746D01*
X183167159Y-81469091D01*
X183273504Y-81598672D01*
X183273505Y-81598674D01*
X183352524Y-81746508D01*
X183401187Y-81906927D01*
X183417617Y-82073750D01*
X183401187Y-82240573D01*
X183352524Y-82400992D01*
X183334162Y-82435344D01*
X183273504Y-82548828D01*
X183167159Y-82678409D01*
X183037578Y-82784754D01*
X183037576Y-82784755D01*
X182889742Y-82863774D01*
X182729323Y-82912437D01*
X182604304Y-82924750D01*
X182520696Y-82924750D01*
X182395677Y-82912437D01*
X182235258Y-82863774D01*
X182087424Y-82784755D01*
X182087422Y-82784754D01*
X181957841Y-82678409D01*
X181851496Y-82548828D01*
X181790838Y-82435344D01*
X181772476Y-82400992D01*
X181723813Y-82240573D01*
X181707383Y-82073750D01*
X181723813Y-81906927D01*
X181772476Y-81746508D01*
X181851495Y-81598674D01*
X181851496Y-81598672D01*
X181957841Y-81469091D01*
X182087422Y-81362746D01*
X182102594Y-81354636D01*
X182235258Y-81283726D01*
X182395677Y-81235063D01*
X182520696Y-81222750D01*
X182604304Y-81222750D01*
X182729323Y-81235063D01*
X182729323Y-81235063D01*
G37*
G36*
X144629323Y-81235063D02*
G01*
X144789742Y-81283726D01*
X144922406Y-81354636D01*
X144937578Y-81362746D01*
X145067159Y-81469091D01*
X145173504Y-81598672D01*
X145173505Y-81598674D01*
X145252524Y-81746508D01*
X145301187Y-81906927D01*
X145317617Y-82073750D01*
X145301187Y-82240573D01*
X145252524Y-82400992D01*
X145234162Y-82435344D01*
X145173504Y-82548828D01*
X145067159Y-82678409D01*
X144937578Y-82784754D01*
X144937576Y-82784755D01*
X144789742Y-82863774D01*
X144629323Y-82912437D01*
X144504304Y-82924750D01*
X144420696Y-82924750D01*
X144295677Y-82912437D01*
X144135258Y-82863774D01*
X143987424Y-82784755D01*
X143987422Y-82784754D01*
X143857841Y-82678409D01*
X143751496Y-82548828D01*
X143690838Y-82435344D01*
X143672476Y-82400992D01*
X143623813Y-82240573D01*
X143607383Y-82073750D01*
X143623813Y-81906927D01*
X143672476Y-81746508D01*
X143751495Y-81598674D01*
X143751496Y-81598672D01*
X143857841Y-81469091D01*
X143987422Y-81362746D01*
X144002594Y-81354636D01*
X144135258Y-81283726D01*
X144295677Y-81235063D01*
X144420696Y-81222750D01*
X144504304Y-81222750D01*
X144629323Y-81235063D01*
X144629323Y-81235063D01*
G37*
G36*
X163679323Y-81235063D02*
G01*
X163839742Y-81283726D01*
X163972406Y-81354636D01*
X163987578Y-81362746D01*
X164117159Y-81469091D01*
X164223504Y-81598672D01*
X164223505Y-81598674D01*
X164302524Y-81746508D01*
X164351187Y-81906927D01*
X164367617Y-82073750D01*
X164351187Y-82240573D01*
X164302524Y-82400992D01*
X164284162Y-82435344D01*
X164223504Y-82548828D01*
X164117159Y-82678409D01*
X163987578Y-82784754D01*
X163987576Y-82784755D01*
X163839742Y-82863774D01*
X163679323Y-82912437D01*
X163554304Y-82924750D01*
X163470696Y-82924750D01*
X163345677Y-82912437D01*
X163185258Y-82863774D01*
X163037424Y-82784755D01*
X163037422Y-82784754D01*
X162907841Y-82678409D01*
X162801496Y-82548828D01*
X162740838Y-82435344D01*
X162722476Y-82400992D01*
X162673813Y-82240573D01*
X162657383Y-82073750D01*
X162673813Y-81906927D01*
X162722476Y-81746508D01*
X162801495Y-81598674D01*
X162801496Y-81598672D01*
X162907841Y-81469091D01*
X163037422Y-81362746D01*
X163052594Y-81354636D01*
X163185258Y-81283726D01*
X163345677Y-81235063D01*
X163470696Y-81222750D01*
X163554304Y-81222750D01*
X163679323Y-81235063D01*
X163679323Y-81235063D01*
G37*
G36*
X201779323Y-81235063D02*
G01*
X201939742Y-81283726D01*
X202072406Y-81354636D01*
X202087578Y-81362746D01*
X202217159Y-81469091D01*
X202323504Y-81598672D01*
X202323505Y-81598674D01*
X202402524Y-81746508D01*
X202451187Y-81906927D01*
X202467617Y-82073750D01*
X202451187Y-82240573D01*
X202402524Y-82400992D01*
X202384162Y-82435344D01*
X202323504Y-82548828D01*
X202217159Y-82678409D01*
X202087578Y-82784754D01*
X202087576Y-82784755D01*
X201939742Y-82863774D01*
X201779323Y-82912437D01*
X201654304Y-82924750D01*
X201570696Y-82924750D01*
X201445677Y-82912437D01*
X201285258Y-82863774D01*
X201137424Y-82784755D01*
X201137422Y-82784754D01*
X201007841Y-82678409D01*
X200901496Y-82548828D01*
X200840838Y-82435344D01*
X200822476Y-82400992D01*
X200773813Y-82240573D01*
X200757383Y-82073750D01*
X200773813Y-81906927D01*
X200822476Y-81746508D01*
X200901495Y-81598674D01*
X200901496Y-81598672D01*
X201007841Y-81469091D01*
X201137422Y-81362746D01*
X201152594Y-81354636D01*
X201285258Y-81283726D01*
X201445677Y-81235063D01*
X201570696Y-81222750D01*
X201654304Y-81222750D01*
X201779323Y-81235063D01*
X201779323Y-81235063D01*
G37*
G36*
X177348409Y-79482443D02*
G01*
X177508027Y-79514193D01*
X177722045Y-79602842D01*
X177722046Y-79602843D01*
X177914654Y-79731539D01*
X178078461Y-79895346D01*
X178137687Y-79983985D01*
X178207158Y-80087955D01*
X178295807Y-80301973D01*
X178341000Y-80529174D01*
X178341000Y-80760826D01*
X178295807Y-80988027D01*
X178207158Y-81202045D01*
X178207157Y-81202046D01*
X178078461Y-81394654D01*
X177914654Y-81558461D01*
X177786249Y-81644258D01*
X177722045Y-81687158D01*
X177508027Y-81775807D01*
X177356560Y-81805936D01*
X177280827Y-81821000D01*
X177049173Y-81821000D01*
X176973440Y-81805936D01*
X176821973Y-81775807D01*
X176607955Y-81687158D01*
X176543751Y-81644258D01*
X176415346Y-81558461D01*
X176251539Y-81394654D01*
X176122843Y-81202046D01*
X176122842Y-81202045D01*
X176034193Y-80988027D01*
X175989000Y-80760826D01*
X175989000Y-80529174D01*
X176034193Y-80301973D01*
X176122842Y-80087955D01*
X176192313Y-79983985D01*
X176251539Y-79895346D01*
X176415346Y-79731539D01*
X176607954Y-79602843D01*
X176607955Y-79602842D01*
X176821973Y-79514193D01*
X176981591Y-79482443D01*
X177049173Y-79469000D01*
X177280827Y-79469000D01*
X177348409Y-79482443D01*
X177348409Y-79482443D01*
G37*
G36*
X196398409Y-79482443D02*
G01*
X196558027Y-79514193D01*
X196772045Y-79602842D01*
X196772046Y-79602843D01*
X196964654Y-79731539D01*
X197128461Y-79895346D01*
X197187687Y-79983985D01*
X197257158Y-80087955D01*
X197345807Y-80301973D01*
X197391000Y-80529174D01*
X197391000Y-80760826D01*
X197345807Y-80988027D01*
X197257158Y-81202045D01*
X197257157Y-81202046D01*
X197128461Y-81394654D01*
X196964654Y-81558461D01*
X196836249Y-81644258D01*
X196772045Y-81687158D01*
X196558027Y-81775807D01*
X196406560Y-81805936D01*
X196330827Y-81821000D01*
X196099173Y-81821000D01*
X196023440Y-81805936D01*
X195871973Y-81775807D01*
X195657955Y-81687158D01*
X195593751Y-81644258D01*
X195465346Y-81558461D01*
X195301539Y-81394654D01*
X195172843Y-81202046D01*
X195172842Y-81202045D01*
X195084193Y-80988027D01*
X195039000Y-80760826D01*
X195039000Y-80529174D01*
X195084193Y-80301973D01*
X195172842Y-80087955D01*
X195242313Y-79983985D01*
X195301539Y-79895346D01*
X195465346Y-79731539D01*
X195657954Y-79602843D01*
X195657955Y-79602842D01*
X195871973Y-79514193D01*
X196031591Y-79482443D01*
X196099173Y-79469000D01*
X196330827Y-79469000D01*
X196398409Y-79482443D01*
X196398409Y-79482443D01*
G37*
G36*
X139224810Y-79452314D02*
G01*
X139376277Y-79482443D01*
X139590295Y-79571092D01*
X139654499Y-79613992D01*
X139782904Y-79699789D01*
X139946711Y-79863596D01*
X140027152Y-79983985D01*
X140075408Y-80056205D01*
X140164057Y-80270223D01*
X140209250Y-80497424D01*
X140209250Y-80729076D01*
X140164057Y-80956277D01*
X140075408Y-81170295D01*
X140040359Y-81222750D01*
X139946711Y-81362904D01*
X139782904Y-81526711D01*
X139675206Y-81598672D01*
X139590295Y-81655408D01*
X139376277Y-81744057D01*
X139224810Y-81774186D01*
X139149077Y-81789250D01*
X138917423Y-81789250D01*
X138841690Y-81774186D01*
X138690223Y-81744057D01*
X138476205Y-81655408D01*
X138391294Y-81598672D01*
X138283596Y-81526711D01*
X138119789Y-81362904D01*
X138026141Y-81222750D01*
X137991092Y-81170295D01*
X137902443Y-80956277D01*
X137857250Y-80729076D01*
X137857250Y-80497424D01*
X137902443Y-80270223D01*
X137991092Y-80056205D01*
X138039348Y-79983985D01*
X138119789Y-79863596D01*
X138283596Y-79699789D01*
X138412001Y-79613992D01*
X138476205Y-79571092D01*
X138690223Y-79482443D01*
X138841690Y-79452314D01*
X138917423Y-79437250D01*
X139149077Y-79437250D01*
X139224810Y-79452314D01*
X139224810Y-79452314D01*
G37*
G36*
X158274810Y-79452314D02*
G01*
X158426277Y-79482443D01*
X158640295Y-79571092D01*
X158704499Y-79613992D01*
X158832904Y-79699789D01*
X158996711Y-79863596D01*
X159077152Y-79983985D01*
X159125408Y-80056205D01*
X159214057Y-80270223D01*
X159259250Y-80497424D01*
X159259250Y-80729076D01*
X159214057Y-80956277D01*
X159125408Y-81170295D01*
X159090359Y-81222750D01*
X158996711Y-81362904D01*
X158832904Y-81526711D01*
X158725206Y-81598672D01*
X158640295Y-81655408D01*
X158426277Y-81744057D01*
X158274810Y-81774186D01*
X158199077Y-81789250D01*
X157967423Y-81789250D01*
X157891690Y-81774186D01*
X157740223Y-81744057D01*
X157526205Y-81655408D01*
X157441294Y-81598672D01*
X157333596Y-81526711D01*
X157169789Y-81362904D01*
X157076141Y-81222750D01*
X157041092Y-81170295D01*
X156952443Y-80956277D01*
X156907250Y-80729076D01*
X156907250Y-80497424D01*
X156952443Y-80270223D01*
X157041092Y-80056205D01*
X157089348Y-79983985D01*
X157169789Y-79863596D01*
X157333596Y-79699789D01*
X157462001Y-79613992D01*
X157526205Y-79571092D01*
X157740223Y-79482443D01*
X157891690Y-79452314D01*
X157967423Y-79437250D01*
X158199077Y-79437250D01*
X158274810Y-79452314D01*
X158274810Y-79452314D01*
G37*
G36*
X109309478Y-79826703D02*
G01*
X109464350Y-79890853D01*
X109603731Y-79983985D01*
X109722265Y-80102519D01*
X109815397Y-80241900D01*
X109879547Y-80396772D01*
X109912250Y-80561184D01*
X109912250Y-80728816D01*
X109879547Y-80893228D01*
X109815397Y-81048100D01*
X109722265Y-81187481D01*
X109603731Y-81306015D01*
X109464350Y-81399147D01*
X109309478Y-81463297D01*
X109145066Y-81496000D01*
X108977434Y-81496000D01*
X108813022Y-81463297D01*
X108658150Y-81399147D01*
X108518769Y-81306015D01*
X108400235Y-81187481D01*
X108307103Y-81048100D01*
X108242953Y-80893228D01*
X108210250Y-80728816D01*
X108210250Y-80561184D01*
X108242953Y-80396772D01*
X108307103Y-80241900D01*
X108400235Y-80102519D01*
X108518769Y-79983985D01*
X108658150Y-79890853D01*
X108813022Y-79826703D01*
X108977434Y-79794000D01*
X109145066Y-79794000D01*
X109309478Y-79826703D01*
X109309478Y-79826703D01*
G37*
G36*
X124549478Y-79826703D02*
G01*
X124704350Y-79890853D01*
X124843731Y-79983985D01*
X124962265Y-80102519D01*
X125055397Y-80241900D01*
X125119547Y-80396772D01*
X125152250Y-80561184D01*
X125152250Y-80728816D01*
X125119547Y-80893228D01*
X125055397Y-81048100D01*
X124962265Y-81187481D01*
X124843731Y-81306015D01*
X124704350Y-81399147D01*
X124549478Y-81463297D01*
X124385066Y-81496000D01*
X124217434Y-81496000D01*
X124053022Y-81463297D01*
X123898150Y-81399147D01*
X123758769Y-81306015D01*
X123640235Y-81187481D01*
X123547103Y-81048100D01*
X123482953Y-80893228D01*
X123450250Y-80728816D01*
X123450250Y-80561184D01*
X123482953Y-80396772D01*
X123547103Y-80241900D01*
X123640235Y-80102519D01*
X123758769Y-79983985D01*
X123898150Y-79890853D01*
X124053022Y-79826703D01*
X124217434Y-79794000D01*
X124385066Y-79794000D01*
X124549478Y-79826703D01*
X124549478Y-79826703D01*
G37*
G36*
X124549478Y-77286703D02*
G01*
X124704350Y-77350853D01*
X124843731Y-77443985D01*
X124962265Y-77562519D01*
X125055397Y-77701900D01*
X125119547Y-77856772D01*
X125152250Y-78021184D01*
X125152250Y-78188816D01*
X125119547Y-78353228D01*
X125055397Y-78508100D01*
X124962265Y-78647481D01*
X124843731Y-78766015D01*
X124704350Y-78859147D01*
X124549478Y-78923297D01*
X124385066Y-78956000D01*
X124217434Y-78956000D01*
X124053022Y-78923297D01*
X123898150Y-78859147D01*
X123758769Y-78766015D01*
X123640235Y-78647481D01*
X123547103Y-78508100D01*
X123482953Y-78353228D01*
X123450250Y-78188816D01*
X123450250Y-78021184D01*
X123482953Y-77856772D01*
X123547103Y-77701900D01*
X123640235Y-77562519D01*
X123758769Y-77443985D01*
X123898150Y-77350853D01*
X124053022Y-77286703D01*
X124217434Y-77254000D01*
X124385066Y-77254000D01*
X124549478Y-77286703D01*
X124549478Y-77286703D01*
G37*
G36*
X109912250Y-78956000D02*
G01*
X108210250Y-78956000D01*
X108210250Y-77254000D01*
X109912250Y-77254000D01*
X109912250Y-78956000D01*
X109912250Y-78956000D01*
G37*
M02*
