G04 #@! TF.GenerationSoftware,KiCad,Pcbnew,(5.1.4)-1*
G04 #@! TF.CreationDate,2021-04-02T02:31:54+02:00*
G04 #@! TF.ProjectId,pcb-test,7063622d-7465-4737-942e-6b696361645f,rev?*
G04 #@! TF.SameCoordinates,Original*
G04 #@! TF.FileFunction,Soldermask,Top*
G04 #@! TF.FilePolarity,Negative*
%FSLAX46Y46*%
G04 Gerber Fmt 4.6, Leading zero omitted, Abs format (unit mm)*
G04 Created by KiCad (PCBNEW (5.1.4)-1) date 2021-04-02 02:31:54*
%MOMM*%
%LPD*%
G04 APERTURE LIST*
%ADD10C,0.100000*%
G04 APERTURE END LIST*
D10*
G36*
X164363500Y-147694750D02*
G01*
X162661500Y-147694750D01*
X162661500Y-145992750D01*
X164363500Y-145992750D01*
X164363500Y-147694750D01*
X164363500Y-147694750D01*
G37*
G36*
X183413500Y-147694750D02*
G01*
X181711500Y-147694750D01*
X181711500Y-145992750D01*
X183413500Y-145992750D01*
X183413500Y-147694750D01*
X183413500Y-147694750D01*
G37*
G36*
X202463500Y-147694750D02*
G01*
X200761500Y-147694750D01*
X200761500Y-145992750D01*
X202463500Y-145992750D01*
X202463500Y-147694750D01*
X202463500Y-147694750D01*
G37*
G36*
X145313500Y-147694750D02*
G01*
X143611500Y-147694750D01*
X143611500Y-145992750D01*
X145313500Y-145992750D01*
X145313500Y-147694750D01*
X145313500Y-147694750D01*
G37*
G36*
X194271474Y-140908684D02*
G01*
X194489474Y-140998983D01*
X194643623Y-141062833D01*
X194978548Y-141286623D01*
X195263377Y-141571452D01*
X195487167Y-141906377D01*
X195519562Y-141984586D01*
X195641316Y-142278526D01*
X195719900Y-142673594D01*
X195719900Y-143076406D01*
X195641316Y-143471474D01*
X195551017Y-143689474D01*
X195487167Y-143843623D01*
X195263377Y-144178548D01*
X194978548Y-144463377D01*
X194643623Y-144687167D01*
X194489474Y-144751017D01*
X194271474Y-144841316D01*
X193876406Y-144919900D01*
X193473594Y-144919900D01*
X193078526Y-144841316D01*
X192860526Y-144751017D01*
X192706377Y-144687167D01*
X192371452Y-144463377D01*
X192086623Y-144178548D01*
X191862833Y-143843623D01*
X191798983Y-143689474D01*
X191708684Y-143471474D01*
X191630100Y-143076406D01*
X191630100Y-142673594D01*
X191708684Y-142278526D01*
X191830438Y-141984586D01*
X191862833Y-141906377D01*
X192086623Y-141571452D01*
X192371452Y-141286623D01*
X192706377Y-141062833D01*
X192860526Y-140998983D01*
X193078526Y-140908684D01*
X193473594Y-140830100D01*
X193876406Y-140830100D01*
X194271474Y-140908684D01*
X194271474Y-140908684D01*
G37*
G36*
X175221474Y-140908684D02*
G01*
X175439474Y-140998983D01*
X175593623Y-141062833D01*
X175928548Y-141286623D01*
X176213377Y-141571452D01*
X176437167Y-141906377D01*
X176469562Y-141984586D01*
X176591316Y-142278526D01*
X176669900Y-142673594D01*
X176669900Y-143076406D01*
X176591316Y-143471474D01*
X176501017Y-143689474D01*
X176437167Y-143843623D01*
X176213377Y-144178548D01*
X175928548Y-144463377D01*
X175593623Y-144687167D01*
X175439474Y-144751017D01*
X175221474Y-144841316D01*
X174826406Y-144919900D01*
X174423594Y-144919900D01*
X174028526Y-144841316D01*
X173810526Y-144751017D01*
X173656377Y-144687167D01*
X173321452Y-144463377D01*
X173036623Y-144178548D01*
X172812833Y-143843623D01*
X172748983Y-143689474D01*
X172658684Y-143471474D01*
X172580100Y-143076406D01*
X172580100Y-142673594D01*
X172658684Y-142278526D01*
X172780438Y-141984586D01*
X172812833Y-141906377D01*
X173036623Y-141571452D01*
X173321452Y-141286623D01*
X173656377Y-141062833D01*
X173810526Y-140998983D01*
X174028526Y-140908684D01*
X174423594Y-140830100D01*
X174826406Y-140830100D01*
X175221474Y-140908684D01*
X175221474Y-140908684D01*
G37*
G36*
X137089724Y-140876934D02*
G01*
X137307724Y-140967233D01*
X137461873Y-141031083D01*
X137796798Y-141254873D01*
X138081627Y-141539702D01*
X138305417Y-141874627D01*
X138337812Y-141952836D01*
X138459566Y-142246776D01*
X138538150Y-142641844D01*
X138538150Y-143044656D01*
X138459566Y-143439724D01*
X138408701Y-143562522D01*
X138305417Y-143811873D01*
X138081627Y-144146798D01*
X137796798Y-144431627D01*
X137461873Y-144655417D01*
X137385221Y-144687167D01*
X137089724Y-144809566D01*
X136694656Y-144888150D01*
X136291844Y-144888150D01*
X135896776Y-144809566D01*
X135601279Y-144687167D01*
X135524627Y-144655417D01*
X135189702Y-144431627D01*
X134904873Y-144146798D01*
X134681083Y-143811873D01*
X134577799Y-143562522D01*
X134526934Y-143439724D01*
X134448350Y-143044656D01*
X134448350Y-142641844D01*
X134526934Y-142246776D01*
X134648688Y-141952836D01*
X134681083Y-141874627D01*
X134904873Y-141539702D01*
X135189702Y-141254873D01*
X135524627Y-141031083D01*
X135678776Y-140967233D01*
X135896776Y-140876934D01*
X136291844Y-140798350D01*
X136694656Y-140798350D01*
X137089724Y-140876934D01*
X137089724Y-140876934D01*
G37*
G36*
X156139724Y-140876934D02*
G01*
X156357724Y-140967233D01*
X156511873Y-141031083D01*
X156846798Y-141254873D01*
X157131627Y-141539702D01*
X157355417Y-141874627D01*
X157387812Y-141952836D01*
X157509566Y-142246776D01*
X157588150Y-142641844D01*
X157588150Y-143044656D01*
X157509566Y-143439724D01*
X157458701Y-143562522D01*
X157355417Y-143811873D01*
X157131627Y-144146798D01*
X156846798Y-144431627D01*
X156511873Y-144655417D01*
X156435221Y-144687167D01*
X156139724Y-144809566D01*
X155744656Y-144888150D01*
X155341844Y-144888150D01*
X154946776Y-144809566D01*
X154651279Y-144687167D01*
X154574627Y-144655417D01*
X154239702Y-144431627D01*
X153954873Y-144146798D01*
X153731083Y-143811873D01*
X153627799Y-143562522D01*
X153576934Y-143439724D01*
X153498350Y-143044656D01*
X153498350Y-142641844D01*
X153576934Y-142246776D01*
X153698688Y-141952836D01*
X153731083Y-141874627D01*
X153954873Y-141539702D01*
X154239702Y-141254873D01*
X154574627Y-141031083D01*
X154728776Y-140967233D01*
X154946776Y-140876934D01*
X155341844Y-140798350D01*
X155744656Y-140798350D01*
X156139724Y-140876934D01*
X156139724Y-140876934D01*
G37*
G36*
X169815104Y-141984585D02*
G01*
X169983626Y-142054389D01*
X170135291Y-142155728D01*
X170264272Y-142284709D01*
X170365611Y-142436374D01*
X170435415Y-142604896D01*
X170471000Y-142783797D01*
X170471000Y-142966203D01*
X170435415Y-143145104D01*
X170365611Y-143313626D01*
X170264272Y-143465291D01*
X170135291Y-143594272D01*
X169983626Y-143695611D01*
X169815104Y-143765415D01*
X169636203Y-143801000D01*
X169453797Y-143801000D01*
X169274896Y-143765415D01*
X169106374Y-143695611D01*
X168954709Y-143594272D01*
X168825728Y-143465291D01*
X168724389Y-143313626D01*
X168654585Y-143145104D01*
X168619000Y-142966203D01*
X168619000Y-142783797D01*
X168654585Y-142604896D01*
X168724389Y-142436374D01*
X168825728Y-142284709D01*
X168954709Y-142155728D01*
X169106374Y-142054389D01*
X169274896Y-141984585D01*
X169453797Y-141949000D01*
X169636203Y-141949000D01*
X169815104Y-141984585D01*
X169815104Y-141984585D01*
G37*
G36*
X199025104Y-141984585D02*
G01*
X199193626Y-142054389D01*
X199345291Y-142155728D01*
X199474272Y-142284709D01*
X199575611Y-142436374D01*
X199645415Y-142604896D01*
X199681000Y-142783797D01*
X199681000Y-142966203D01*
X199645415Y-143145104D01*
X199575611Y-143313626D01*
X199474272Y-143465291D01*
X199345291Y-143594272D01*
X199193626Y-143695611D01*
X199025104Y-143765415D01*
X198846203Y-143801000D01*
X198663797Y-143801000D01*
X198484896Y-143765415D01*
X198316374Y-143695611D01*
X198164709Y-143594272D01*
X198035728Y-143465291D01*
X197934389Y-143313626D01*
X197864585Y-143145104D01*
X197829000Y-142966203D01*
X197829000Y-142783797D01*
X197864585Y-142604896D01*
X197934389Y-142436374D01*
X198035728Y-142284709D01*
X198164709Y-142155728D01*
X198316374Y-142054389D01*
X198484896Y-141984585D01*
X198663797Y-141949000D01*
X198846203Y-141949000D01*
X199025104Y-141984585D01*
X199025104Y-141984585D01*
G37*
G36*
X188865104Y-141984585D02*
G01*
X189033626Y-142054389D01*
X189185291Y-142155728D01*
X189314272Y-142284709D01*
X189415611Y-142436374D01*
X189485415Y-142604896D01*
X189521000Y-142783797D01*
X189521000Y-142966203D01*
X189485415Y-143145104D01*
X189415611Y-143313626D01*
X189314272Y-143465291D01*
X189185291Y-143594272D01*
X189033626Y-143695611D01*
X188865104Y-143765415D01*
X188686203Y-143801000D01*
X188503797Y-143801000D01*
X188324896Y-143765415D01*
X188156374Y-143695611D01*
X188004709Y-143594272D01*
X187875728Y-143465291D01*
X187774389Y-143313626D01*
X187704585Y-143145104D01*
X187669000Y-142966203D01*
X187669000Y-142783797D01*
X187704585Y-142604896D01*
X187774389Y-142436374D01*
X187875728Y-142284709D01*
X188004709Y-142155728D01*
X188156374Y-142054389D01*
X188324896Y-141984585D01*
X188503797Y-141949000D01*
X188686203Y-141949000D01*
X188865104Y-141984585D01*
X188865104Y-141984585D01*
G37*
G36*
X179975104Y-141984585D02*
G01*
X180143626Y-142054389D01*
X180295291Y-142155728D01*
X180424272Y-142284709D01*
X180525611Y-142436374D01*
X180595415Y-142604896D01*
X180631000Y-142783797D01*
X180631000Y-142966203D01*
X180595415Y-143145104D01*
X180525611Y-143313626D01*
X180424272Y-143465291D01*
X180295291Y-143594272D01*
X180143626Y-143695611D01*
X179975104Y-143765415D01*
X179796203Y-143801000D01*
X179613797Y-143801000D01*
X179434896Y-143765415D01*
X179266374Y-143695611D01*
X179114709Y-143594272D01*
X178985728Y-143465291D01*
X178884389Y-143313626D01*
X178814585Y-143145104D01*
X178779000Y-142966203D01*
X178779000Y-142783797D01*
X178814585Y-142604896D01*
X178884389Y-142436374D01*
X178985728Y-142284709D01*
X179114709Y-142155728D01*
X179266374Y-142054389D01*
X179434896Y-141984585D01*
X179613797Y-141949000D01*
X179796203Y-141949000D01*
X179975104Y-141984585D01*
X179975104Y-141984585D01*
G37*
G36*
X131683354Y-141952835D02*
G01*
X131851876Y-142022639D01*
X132003541Y-142123978D01*
X132132522Y-142252959D01*
X132233861Y-142404624D01*
X132303665Y-142573146D01*
X132339250Y-142752047D01*
X132339250Y-142934453D01*
X132303665Y-143113354D01*
X132233861Y-143281876D01*
X132132522Y-143433541D01*
X132003541Y-143562522D01*
X131851876Y-143663861D01*
X131683354Y-143733665D01*
X131504453Y-143769250D01*
X131322047Y-143769250D01*
X131143146Y-143733665D01*
X130974624Y-143663861D01*
X130822959Y-143562522D01*
X130693978Y-143433541D01*
X130592639Y-143281876D01*
X130522835Y-143113354D01*
X130487250Y-142934453D01*
X130487250Y-142752047D01*
X130522835Y-142573146D01*
X130592639Y-142404624D01*
X130693978Y-142252959D01*
X130822959Y-142123978D01*
X130974624Y-142022639D01*
X131143146Y-141952835D01*
X131322047Y-141917250D01*
X131504453Y-141917250D01*
X131683354Y-141952835D01*
X131683354Y-141952835D01*
G37*
G36*
X141843354Y-141952835D02*
G01*
X142011876Y-142022639D01*
X142163541Y-142123978D01*
X142292522Y-142252959D01*
X142393861Y-142404624D01*
X142463665Y-142573146D01*
X142499250Y-142752047D01*
X142499250Y-142934453D01*
X142463665Y-143113354D01*
X142393861Y-143281876D01*
X142292522Y-143433541D01*
X142163541Y-143562522D01*
X142011876Y-143663861D01*
X141843354Y-143733665D01*
X141664453Y-143769250D01*
X141482047Y-143769250D01*
X141303146Y-143733665D01*
X141134624Y-143663861D01*
X140982959Y-143562522D01*
X140853978Y-143433541D01*
X140752639Y-143281876D01*
X140682835Y-143113354D01*
X140647250Y-142934453D01*
X140647250Y-142752047D01*
X140682835Y-142573146D01*
X140752639Y-142404624D01*
X140853978Y-142252959D01*
X140982959Y-142123978D01*
X141134624Y-142022639D01*
X141303146Y-141952835D01*
X141482047Y-141917250D01*
X141664453Y-141917250D01*
X141843354Y-141952835D01*
X141843354Y-141952835D01*
G37*
G36*
X150733354Y-141952835D02*
G01*
X150901876Y-142022639D01*
X151053541Y-142123978D01*
X151182522Y-142252959D01*
X151283861Y-142404624D01*
X151353665Y-142573146D01*
X151389250Y-142752047D01*
X151389250Y-142934453D01*
X151353665Y-143113354D01*
X151283861Y-143281876D01*
X151182522Y-143433541D01*
X151053541Y-143562522D01*
X150901876Y-143663861D01*
X150733354Y-143733665D01*
X150554453Y-143769250D01*
X150372047Y-143769250D01*
X150193146Y-143733665D01*
X150024624Y-143663861D01*
X149872959Y-143562522D01*
X149743978Y-143433541D01*
X149642639Y-143281876D01*
X149572835Y-143113354D01*
X149537250Y-142934453D01*
X149537250Y-142752047D01*
X149572835Y-142573146D01*
X149642639Y-142404624D01*
X149743978Y-142252959D01*
X149872959Y-142123978D01*
X150024624Y-142022639D01*
X150193146Y-141952835D01*
X150372047Y-141917250D01*
X150554453Y-141917250D01*
X150733354Y-141952835D01*
X150733354Y-141952835D01*
G37*
G36*
X160893354Y-141952835D02*
G01*
X161061876Y-142022639D01*
X161213541Y-142123978D01*
X161342522Y-142252959D01*
X161443861Y-142404624D01*
X161513665Y-142573146D01*
X161549250Y-142752047D01*
X161549250Y-142934453D01*
X161513665Y-143113354D01*
X161443861Y-143281876D01*
X161342522Y-143433541D01*
X161213541Y-143562522D01*
X161061876Y-143663861D01*
X160893354Y-143733665D01*
X160714453Y-143769250D01*
X160532047Y-143769250D01*
X160353146Y-143733665D01*
X160184624Y-143663861D01*
X160032959Y-143562522D01*
X159903978Y-143433541D01*
X159802639Y-143281876D01*
X159732835Y-143113354D01*
X159697250Y-142934453D01*
X159697250Y-142752047D01*
X159732835Y-142573146D01*
X159802639Y-142404624D01*
X159903978Y-142252959D01*
X160032959Y-142123978D01*
X160184624Y-142022639D01*
X160353146Y-141952835D01*
X160532047Y-141917250D01*
X160714453Y-141917250D01*
X160893354Y-141952835D01*
X160893354Y-141952835D01*
G37*
G36*
X201779323Y-138385063D02*
G01*
X201939742Y-138433726D01*
X202072406Y-138504636D01*
X202087578Y-138512746D01*
X202217159Y-138619091D01*
X202323504Y-138748672D01*
X202323505Y-138748674D01*
X202402524Y-138896508D01*
X202451187Y-139056927D01*
X202467617Y-139223750D01*
X202451187Y-139390573D01*
X202402524Y-139550992D01*
X202331614Y-139683656D01*
X202323504Y-139698828D01*
X202217159Y-139828409D01*
X202087578Y-139934754D01*
X202087576Y-139934755D01*
X201939742Y-140013774D01*
X201779323Y-140062437D01*
X201654304Y-140074750D01*
X201570696Y-140074750D01*
X201445677Y-140062437D01*
X201285258Y-140013774D01*
X201137424Y-139934755D01*
X201137422Y-139934754D01*
X201007841Y-139828409D01*
X200901496Y-139698828D01*
X200893386Y-139683656D01*
X200822476Y-139550992D01*
X200773813Y-139390573D01*
X200757383Y-139223750D01*
X200773813Y-139056927D01*
X200822476Y-138896508D01*
X200901495Y-138748674D01*
X200901496Y-138748672D01*
X201007841Y-138619091D01*
X201137422Y-138512746D01*
X201152594Y-138504636D01*
X201285258Y-138433726D01*
X201445677Y-138385063D01*
X201570696Y-138372750D01*
X201654304Y-138372750D01*
X201779323Y-138385063D01*
X201779323Y-138385063D01*
G37*
G36*
X144629323Y-138385063D02*
G01*
X144789742Y-138433726D01*
X144922406Y-138504636D01*
X144937578Y-138512746D01*
X145067159Y-138619091D01*
X145173504Y-138748672D01*
X145173505Y-138748674D01*
X145252524Y-138896508D01*
X145301187Y-139056927D01*
X145317617Y-139223750D01*
X145301187Y-139390573D01*
X145252524Y-139550992D01*
X145181614Y-139683656D01*
X145173504Y-139698828D01*
X145067159Y-139828409D01*
X144937578Y-139934754D01*
X144937576Y-139934755D01*
X144789742Y-140013774D01*
X144629323Y-140062437D01*
X144504304Y-140074750D01*
X144420696Y-140074750D01*
X144295677Y-140062437D01*
X144135258Y-140013774D01*
X143987424Y-139934755D01*
X143987422Y-139934754D01*
X143857841Y-139828409D01*
X143751496Y-139698828D01*
X143743386Y-139683656D01*
X143672476Y-139550992D01*
X143623813Y-139390573D01*
X143607383Y-139223750D01*
X143623813Y-139056927D01*
X143672476Y-138896508D01*
X143751495Y-138748674D01*
X143751496Y-138748672D01*
X143857841Y-138619091D01*
X143987422Y-138512746D01*
X144002594Y-138504636D01*
X144135258Y-138433726D01*
X144295677Y-138385063D01*
X144420696Y-138372750D01*
X144504304Y-138372750D01*
X144629323Y-138385063D01*
X144629323Y-138385063D01*
G37*
G36*
X163679323Y-138385063D02*
G01*
X163839742Y-138433726D01*
X163972406Y-138504636D01*
X163987578Y-138512746D01*
X164117159Y-138619091D01*
X164223504Y-138748672D01*
X164223505Y-138748674D01*
X164302524Y-138896508D01*
X164351187Y-139056927D01*
X164367617Y-139223750D01*
X164351187Y-139390573D01*
X164302524Y-139550992D01*
X164231614Y-139683656D01*
X164223504Y-139698828D01*
X164117159Y-139828409D01*
X163987578Y-139934754D01*
X163987576Y-139934755D01*
X163839742Y-140013774D01*
X163679323Y-140062437D01*
X163554304Y-140074750D01*
X163470696Y-140074750D01*
X163345677Y-140062437D01*
X163185258Y-140013774D01*
X163037424Y-139934755D01*
X163037422Y-139934754D01*
X162907841Y-139828409D01*
X162801496Y-139698828D01*
X162793386Y-139683656D01*
X162722476Y-139550992D01*
X162673813Y-139390573D01*
X162657383Y-139223750D01*
X162673813Y-139056927D01*
X162722476Y-138896508D01*
X162801495Y-138748674D01*
X162801496Y-138748672D01*
X162907841Y-138619091D01*
X163037422Y-138512746D01*
X163052594Y-138504636D01*
X163185258Y-138433726D01*
X163345677Y-138385063D01*
X163470696Y-138372750D01*
X163554304Y-138372750D01*
X163679323Y-138385063D01*
X163679323Y-138385063D01*
G37*
G36*
X182729323Y-138385063D02*
G01*
X182889742Y-138433726D01*
X183022406Y-138504636D01*
X183037578Y-138512746D01*
X183167159Y-138619091D01*
X183273504Y-138748672D01*
X183273505Y-138748674D01*
X183352524Y-138896508D01*
X183401187Y-139056927D01*
X183417617Y-139223750D01*
X183401187Y-139390573D01*
X183352524Y-139550992D01*
X183281614Y-139683656D01*
X183273504Y-139698828D01*
X183167159Y-139828409D01*
X183037578Y-139934754D01*
X183037576Y-139934755D01*
X182889742Y-140013774D01*
X182729323Y-140062437D01*
X182604304Y-140074750D01*
X182520696Y-140074750D01*
X182395677Y-140062437D01*
X182235258Y-140013774D01*
X182087424Y-139934755D01*
X182087422Y-139934754D01*
X181957841Y-139828409D01*
X181851496Y-139698828D01*
X181843386Y-139683656D01*
X181772476Y-139550992D01*
X181723813Y-139390573D01*
X181707383Y-139223750D01*
X181723813Y-139056927D01*
X181772476Y-138896508D01*
X181851495Y-138748674D01*
X181851496Y-138748672D01*
X181957841Y-138619091D01*
X182087422Y-138512746D01*
X182102594Y-138504636D01*
X182235258Y-138433726D01*
X182395677Y-138385063D01*
X182520696Y-138372750D01*
X182604304Y-138372750D01*
X182729323Y-138385063D01*
X182729323Y-138385063D01*
G37*
G36*
X183413500Y-128644750D02*
G01*
X181711500Y-128644750D01*
X181711500Y-126942750D01*
X183413500Y-126942750D01*
X183413500Y-128644750D01*
X183413500Y-128644750D01*
G37*
G36*
X145313500Y-128644750D02*
G01*
X143611500Y-128644750D01*
X143611500Y-126942750D01*
X145313500Y-126942750D01*
X145313500Y-128644750D01*
X145313500Y-128644750D01*
G37*
G36*
X202463500Y-128644750D02*
G01*
X200761500Y-128644750D01*
X200761500Y-126942750D01*
X202463500Y-126942750D01*
X202463500Y-128644750D01*
X202463500Y-128644750D01*
G37*
G36*
X164363500Y-128644750D02*
G01*
X162661500Y-128644750D01*
X162661500Y-126942750D01*
X164363500Y-126942750D01*
X164363500Y-128644750D01*
X164363500Y-128644750D01*
G37*
G36*
X175221474Y-121858684D02*
G01*
X175439474Y-121948983D01*
X175593623Y-122012833D01*
X175928548Y-122236623D01*
X176213377Y-122521452D01*
X176437167Y-122856377D01*
X176469562Y-122934586D01*
X176591316Y-123228526D01*
X176669900Y-123623594D01*
X176669900Y-124026406D01*
X176591316Y-124421474D01*
X176501017Y-124639474D01*
X176437167Y-124793623D01*
X176213377Y-125128548D01*
X175928548Y-125413377D01*
X175593623Y-125637167D01*
X175439474Y-125701017D01*
X175221474Y-125791316D01*
X174826406Y-125869900D01*
X174423594Y-125869900D01*
X174028526Y-125791316D01*
X173810526Y-125701017D01*
X173656377Y-125637167D01*
X173321452Y-125413377D01*
X173036623Y-125128548D01*
X172812833Y-124793623D01*
X172748983Y-124639474D01*
X172658684Y-124421474D01*
X172580100Y-124026406D01*
X172580100Y-123623594D01*
X172658684Y-123228526D01*
X172780438Y-122934586D01*
X172812833Y-122856377D01*
X173036623Y-122521452D01*
X173321452Y-122236623D01*
X173656377Y-122012833D01*
X173810526Y-121948983D01*
X174028526Y-121858684D01*
X174423594Y-121780100D01*
X174826406Y-121780100D01*
X175221474Y-121858684D01*
X175221474Y-121858684D01*
G37*
G36*
X194271474Y-121858684D02*
G01*
X194489474Y-121948983D01*
X194643623Y-122012833D01*
X194978548Y-122236623D01*
X195263377Y-122521452D01*
X195487167Y-122856377D01*
X195519562Y-122934586D01*
X195641316Y-123228526D01*
X195719900Y-123623594D01*
X195719900Y-124026406D01*
X195641316Y-124421474D01*
X195551017Y-124639474D01*
X195487167Y-124793623D01*
X195263377Y-125128548D01*
X194978548Y-125413377D01*
X194643623Y-125637167D01*
X194489474Y-125701017D01*
X194271474Y-125791316D01*
X193876406Y-125869900D01*
X193473594Y-125869900D01*
X193078526Y-125791316D01*
X192860526Y-125701017D01*
X192706377Y-125637167D01*
X192371452Y-125413377D01*
X192086623Y-125128548D01*
X191862833Y-124793623D01*
X191798983Y-124639474D01*
X191708684Y-124421474D01*
X191630100Y-124026406D01*
X191630100Y-123623594D01*
X191708684Y-123228526D01*
X191830438Y-122934586D01*
X191862833Y-122856377D01*
X192086623Y-122521452D01*
X192371452Y-122236623D01*
X192706377Y-122012833D01*
X192860526Y-121948983D01*
X193078526Y-121858684D01*
X193473594Y-121780100D01*
X193876406Y-121780100D01*
X194271474Y-121858684D01*
X194271474Y-121858684D01*
G37*
G36*
X137089724Y-121826934D02*
G01*
X137307724Y-121917233D01*
X137461873Y-121981083D01*
X137796798Y-122204873D01*
X138081627Y-122489702D01*
X138305417Y-122824627D01*
X138337812Y-122902836D01*
X138459566Y-123196776D01*
X138538150Y-123591844D01*
X138538150Y-123994656D01*
X138459566Y-124389724D01*
X138408701Y-124512522D01*
X138305417Y-124761873D01*
X138081627Y-125096798D01*
X137796798Y-125381627D01*
X137461873Y-125605417D01*
X137385221Y-125637167D01*
X137089724Y-125759566D01*
X136694656Y-125838150D01*
X136291844Y-125838150D01*
X135896776Y-125759566D01*
X135601279Y-125637167D01*
X135524627Y-125605417D01*
X135189702Y-125381627D01*
X134904873Y-125096798D01*
X134681083Y-124761873D01*
X134577799Y-124512522D01*
X134526934Y-124389724D01*
X134448350Y-123994656D01*
X134448350Y-123591844D01*
X134526934Y-123196776D01*
X134648688Y-122902836D01*
X134681083Y-122824627D01*
X134904873Y-122489702D01*
X135189702Y-122204873D01*
X135524627Y-121981083D01*
X135678776Y-121917233D01*
X135896776Y-121826934D01*
X136291844Y-121748350D01*
X136694656Y-121748350D01*
X137089724Y-121826934D01*
X137089724Y-121826934D01*
G37*
G36*
X156139724Y-121826934D02*
G01*
X156357724Y-121917233D01*
X156511873Y-121981083D01*
X156846798Y-122204873D01*
X157131627Y-122489702D01*
X157355417Y-122824627D01*
X157387812Y-122902836D01*
X157509566Y-123196776D01*
X157588150Y-123591844D01*
X157588150Y-123994656D01*
X157509566Y-124389724D01*
X157458701Y-124512522D01*
X157355417Y-124761873D01*
X157131627Y-125096798D01*
X156846798Y-125381627D01*
X156511873Y-125605417D01*
X156435221Y-125637167D01*
X156139724Y-125759566D01*
X155744656Y-125838150D01*
X155341844Y-125838150D01*
X154946776Y-125759566D01*
X154651279Y-125637167D01*
X154574627Y-125605417D01*
X154239702Y-125381627D01*
X153954873Y-125096798D01*
X153731083Y-124761873D01*
X153627799Y-124512522D01*
X153576934Y-124389724D01*
X153498350Y-123994656D01*
X153498350Y-123591844D01*
X153576934Y-123196776D01*
X153698688Y-122902836D01*
X153731083Y-122824627D01*
X153954873Y-122489702D01*
X154239702Y-122204873D01*
X154574627Y-121981083D01*
X154728776Y-121917233D01*
X154946776Y-121826934D01*
X155341844Y-121748350D01*
X155744656Y-121748350D01*
X156139724Y-121826934D01*
X156139724Y-121826934D01*
G37*
G36*
X179975104Y-122934585D02*
G01*
X180143626Y-123004389D01*
X180295291Y-123105728D01*
X180424272Y-123234709D01*
X180525611Y-123386374D01*
X180595415Y-123554896D01*
X180631000Y-123733797D01*
X180631000Y-123916203D01*
X180595415Y-124095104D01*
X180525611Y-124263626D01*
X180424272Y-124415291D01*
X180295291Y-124544272D01*
X180143626Y-124645611D01*
X179975104Y-124715415D01*
X179796203Y-124751000D01*
X179613797Y-124751000D01*
X179434896Y-124715415D01*
X179266374Y-124645611D01*
X179114709Y-124544272D01*
X178985728Y-124415291D01*
X178884389Y-124263626D01*
X178814585Y-124095104D01*
X178779000Y-123916203D01*
X178779000Y-123733797D01*
X178814585Y-123554896D01*
X178884389Y-123386374D01*
X178985728Y-123234709D01*
X179114709Y-123105728D01*
X179266374Y-123004389D01*
X179434896Y-122934585D01*
X179613797Y-122899000D01*
X179796203Y-122899000D01*
X179975104Y-122934585D01*
X179975104Y-122934585D01*
G37*
G36*
X188865104Y-122934585D02*
G01*
X189033626Y-123004389D01*
X189185291Y-123105728D01*
X189314272Y-123234709D01*
X189415611Y-123386374D01*
X189485415Y-123554896D01*
X189521000Y-123733797D01*
X189521000Y-123916203D01*
X189485415Y-124095104D01*
X189415611Y-124263626D01*
X189314272Y-124415291D01*
X189185291Y-124544272D01*
X189033626Y-124645611D01*
X188865104Y-124715415D01*
X188686203Y-124751000D01*
X188503797Y-124751000D01*
X188324896Y-124715415D01*
X188156374Y-124645611D01*
X188004709Y-124544272D01*
X187875728Y-124415291D01*
X187774389Y-124263626D01*
X187704585Y-124095104D01*
X187669000Y-123916203D01*
X187669000Y-123733797D01*
X187704585Y-123554896D01*
X187774389Y-123386374D01*
X187875728Y-123234709D01*
X188004709Y-123105728D01*
X188156374Y-123004389D01*
X188324896Y-122934585D01*
X188503797Y-122899000D01*
X188686203Y-122899000D01*
X188865104Y-122934585D01*
X188865104Y-122934585D01*
G37*
G36*
X199025104Y-122934585D02*
G01*
X199193626Y-123004389D01*
X199345291Y-123105728D01*
X199474272Y-123234709D01*
X199575611Y-123386374D01*
X199645415Y-123554896D01*
X199681000Y-123733797D01*
X199681000Y-123916203D01*
X199645415Y-124095104D01*
X199575611Y-124263626D01*
X199474272Y-124415291D01*
X199345291Y-124544272D01*
X199193626Y-124645611D01*
X199025104Y-124715415D01*
X198846203Y-124751000D01*
X198663797Y-124751000D01*
X198484896Y-124715415D01*
X198316374Y-124645611D01*
X198164709Y-124544272D01*
X198035728Y-124415291D01*
X197934389Y-124263626D01*
X197864585Y-124095104D01*
X197829000Y-123916203D01*
X197829000Y-123733797D01*
X197864585Y-123554896D01*
X197934389Y-123386374D01*
X198035728Y-123234709D01*
X198164709Y-123105728D01*
X198316374Y-123004389D01*
X198484896Y-122934585D01*
X198663797Y-122899000D01*
X198846203Y-122899000D01*
X199025104Y-122934585D01*
X199025104Y-122934585D01*
G37*
G36*
X169815104Y-122934585D02*
G01*
X169983626Y-123004389D01*
X170135291Y-123105728D01*
X170264272Y-123234709D01*
X170365611Y-123386374D01*
X170435415Y-123554896D01*
X170471000Y-123733797D01*
X170471000Y-123916203D01*
X170435415Y-124095104D01*
X170365611Y-124263626D01*
X170264272Y-124415291D01*
X170135291Y-124544272D01*
X169983626Y-124645611D01*
X169815104Y-124715415D01*
X169636203Y-124751000D01*
X169453797Y-124751000D01*
X169274896Y-124715415D01*
X169106374Y-124645611D01*
X168954709Y-124544272D01*
X168825728Y-124415291D01*
X168724389Y-124263626D01*
X168654585Y-124095104D01*
X168619000Y-123916203D01*
X168619000Y-123733797D01*
X168654585Y-123554896D01*
X168724389Y-123386374D01*
X168825728Y-123234709D01*
X168954709Y-123105728D01*
X169106374Y-123004389D01*
X169274896Y-122934585D01*
X169453797Y-122899000D01*
X169636203Y-122899000D01*
X169815104Y-122934585D01*
X169815104Y-122934585D01*
G37*
G36*
X141843354Y-122902835D02*
G01*
X142011876Y-122972639D01*
X142163541Y-123073978D01*
X142292522Y-123202959D01*
X142393861Y-123354624D01*
X142463665Y-123523146D01*
X142499250Y-123702047D01*
X142499250Y-123884453D01*
X142463665Y-124063354D01*
X142393861Y-124231876D01*
X142292522Y-124383541D01*
X142163541Y-124512522D01*
X142011876Y-124613861D01*
X141843354Y-124683665D01*
X141664453Y-124719250D01*
X141482047Y-124719250D01*
X141303146Y-124683665D01*
X141134624Y-124613861D01*
X140982959Y-124512522D01*
X140853978Y-124383541D01*
X140752639Y-124231876D01*
X140682835Y-124063354D01*
X140647250Y-123884453D01*
X140647250Y-123702047D01*
X140682835Y-123523146D01*
X140752639Y-123354624D01*
X140853978Y-123202959D01*
X140982959Y-123073978D01*
X141134624Y-122972639D01*
X141303146Y-122902835D01*
X141482047Y-122867250D01*
X141664453Y-122867250D01*
X141843354Y-122902835D01*
X141843354Y-122902835D01*
G37*
G36*
X160893354Y-122902835D02*
G01*
X161061876Y-122972639D01*
X161213541Y-123073978D01*
X161342522Y-123202959D01*
X161443861Y-123354624D01*
X161513665Y-123523146D01*
X161549250Y-123702047D01*
X161549250Y-123884453D01*
X161513665Y-124063354D01*
X161443861Y-124231876D01*
X161342522Y-124383541D01*
X161213541Y-124512522D01*
X161061876Y-124613861D01*
X160893354Y-124683665D01*
X160714453Y-124719250D01*
X160532047Y-124719250D01*
X160353146Y-124683665D01*
X160184624Y-124613861D01*
X160032959Y-124512522D01*
X159903978Y-124383541D01*
X159802639Y-124231876D01*
X159732835Y-124063354D01*
X159697250Y-123884453D01*
X159697250Y-123702047D01*
X159732835Y-123523146D01*
X159802639Y-123354624D01*
X159903978Y-123202959D01*
X160032959Y-123073978D01*
X160184624Y-122972639D01*
X160353146Y-122902835D01*
X160532047Y-122867250D01*
X160714453Y-122867250D01*
X160893354Y-122902835D01*
X160893354Y-122902835D01*
G37*
G36*
X131683354Y-122902835D02*
G01*
X131851876Y-122972639D01*
X132003541Y-123073978D01*
X132132522Y-123202959D01*
X132233861Y-123354624D01*
X132303665Y-123523146D01*
X132339250Y-123702047D01*
X132339250Y-123884453D01*
X132303665Y-124063354D01*
X132233861Y-124231876D01*
X132132522Y-124383541D01*
X132003541Y-124512522D01*
X131851876Y-124613861D01*
X131683354Y-124683665D01*
X131504453Y-124719250D01*
X131322047Y-124719250D01*
X131143146Y-124683665D01*
X130974624Y-124613861D01*
X130822959Y-124512522D01*
X130693978Y-124383541D01*
X130592639Y-124231876D01*
X130522835Y-124063354D01*
X130487250Y-123884453D01*
X130487250Y-123702047D01*
X130522835Y-123523146D01*
X130592639Y-123354624D01*
X130693978Y-123202959D01*
X130822959Y-123073978D01*
X130974624Y-122972639D01*
X131143146Y-122902835D01*
X131322047Y-122867250D01*
X131504453Y-122867250D01*
X131683354Y-122902835D01*
X131683354Y-122902835D01*
G37*
G36*
X150733354Y-122902835D02*
G01*
X150901876Y-122972639D01*
X151053541Y-123073978D01*
X151182522Y-123202959D01*
X151283861Y-123354624D01*
X151353665Y-123523146D01*
X151389250Y-123702047D01*
X151389250Y-123884453D01*
X151353665Y-124063354D01*
X151283861Y-124231876D01*
X151182522Y-124383541D01*
X151053541Y-124512522D01*
X150901876Y-124613861D01*
X150733354Y-124683665D01*
X150554453Y-124719250D01*
X150372047Y-124719250D01*
X150193146Y-124683665D01*
X150024624Y-124613861D01*
X149872959Y-124512522D01*
X149743978Y-124383541D01*
X149642639Y-124231876D01*
X149572835Y-124063354D01*
X149537250Y-123884453D01*
X149537250Y-123702047D01*
X149572835Y-123523146D01*
X149642639Y-123354624D01*
X149743978Y-123202959D01*
X149872959Y-123073978D01*
X150024624Y-122972639D01*
X150193146Y-122902835D01*
X150372047Y-122867250D01*
X150554453Y-122867250D01*
X150733354Y-122902835D01*
X150733354Y-122902835D01*
G37*
G36*
X144629323Y-119335063D02*
G01*
X144789742Y-119383726D01*
X144922406Y-119454636D01*
X144937578Y-119462746D01*
X145067159Y-119569091D01*
X145173504Y-119698672D01*
X145173505Y-119698674D01*
X145252524Y-119846508D01*
X145301187Y-120006927D01*
X145317617Y-120173750D01*
X145301187Y-120340573D01*
X145252524Y-120500992D01*
X145181614Y-120633656D01*
X145173504Y-120648828D01*
X145067159Y-120778409D01*
X144937578Y-120884754D01*
X144937576Y-120884755D01*
X144789742Y-120963774D01*
X144629323Y-121012437D01*
X144504304Y-121024750D01*
X144420696Y-121024750D01*
X144295677Y-121012437D01*
X144135258Y-120963774D01*
X143987424Y-120884755D01*
X143987422Y-120884754D01*
X143857841Y-120778409D01*
X143751496Y-120648828D01*
X143743386Y-120633656D01*
X143672476Y-120500992D01*
X143623813Y-120340573D01*
X143607383Y-120173750D01*
X143623813Y-120006927D01*
X143672476Y-119846508D01*
X143751495Y-119698674D01*
X143751496Y-119698672D01*
X143857841Y-119569091D01*
X143987422Y-119462746D01*
X144002594Y-119454636D01*
X144135258Y-119383726D01*
X144295677Y-119335063D01*
X144420696Y-119322750D01*
X144504304Y-119322750D01*
X144629323Y-119335063D01*
X144629323Y-119335063D01*
G37*
G36*
X201779323Y-119335063D02*
G01*
X201939742Y-119383726D01*
X202072406Y-119454636D01*
X202087578Y-119462746D01*
X202217159Y-119569091D01*
X202323504Y-119698672D01*
X202323505Y-119698674D01*
X202402524Y-119846508D01*
X202451187Y-120006927D01*
X202467617Y-120173750D01*
X202451187Y-120340573D01*
X202402524Y-120500992D01*
X202331614Y-120633656D01*
X202323504Y-120648828D01*
X202217159Y-120778409D01*
X202087578Y-120884754D01*
X202087576Y-120884755D01*
X201939742Y-120963774D01*
X201779323Y-121012437D01*
X201654304Y-121024750D01*
X201570696Y-121024750D01*
X201445677Y-121012437D01*
X201285258Y-120963774D01*
X201137424Y-120884755D01*
X201137422Y-120884754D01*
X201007841Y-120778409D01*
X200901496Y-120648828D01*
X200893386Y-120633656D01*
X200822476Y-120500992D01*
X200773813Y-120340573D01*
X200757383Y-120173750D01*
X200773813Y-120006927D01*
X200822476Y-119846508D01*
X200901495Y-119698674D01*
X200901496Y-119698672D01*
X201007841Y-119569091D01*
X201137422Y-119462746D01*
X201152594Y-119454636D01*
X201285258Y-119383726D01*
X201445677Y-119335063D01*
X201570696Y-119322750D01*
X201654304Y-119322750D01*
X201779323Y-119335063D01*
X201779323Y-119335063D01*
G37*
G36*
X163679323Y-119335063D02*
G01*
X163839742Y-119383726D01*
X163972406Y-119454636D01*
X163987578Y-119462746D01*
X164117159Y-119569091D01*
X164223504Y-119698672D01*
X164223505Y-119698674D01*
X164302524Y-119846508D01*
X164351187Y-120006927D01*
X164367617Y-120173750D01*
X164351187Y-120340573D01*
X164302524Y-120500992D01*
X164231614Y-120633656D01*
X164223504Y-120648828D01*
X164117159Y-120778409D01*
X163987578Y-120884754D01*
X163987576Y-120884755D01*
X163839742Y-120963774D01*
X163679323Y-121012437D01*
X163554304Y-121024750D01*
X163470696Y-121024750D01*
X163345677Y-121012437D01*
X163185258Y-120963774D01*
X163037424Y-120884755D01*
X163037422Y-120884754D01*
X162907841Y-120778409D01*
X162801496Y-120648828D01*
X162793386Y-120633656D01*
X162722476Y-120500992D01*
X162673813Y-120340573D01*
X162657383Y-120173750D01*
X162673813Y-120006927D01*
X162722476Y-119846508D01*
X162801495Y-119698674D01*
X162801496Y-119698672D01*
X162907841Y-119569091D01*
X163037422Y-119462746D01*
X163052594Y-119454636D01*
X163185258Y-119383726D01*
X163345677Y-119335063D01*
X163470696Y-119322750D01*
X163554304Y-119322750D01*
X163679323Y-119335063D01*
X163679323Y-119335063D01*
G37*
G36*
X182729323Y-119335063D02*
G01*
X182889742Y-119383726D01*
X183022406Y-119454636D01*
X183037578Y-119462746D01*
X183167159Y-119569091D01*
X183273504Y-119698672D01*
X183273505Y-119698674D01*
X183352524Y-119846508D01*
X183401187Y-120006927D01*
X183417617Y-120173750D01*
X183401187Y-120340573D01*
X183352524Y-120500992D01*
X183281614Y-120633656D01*
X183273504Y-120648828D01*
X183167159Y-120778409D01*
X183037578Y-120884754D01*
X183037576Y-120884755D01*
X182889742Y-120963774D01*
X182729323Y-121012437D01*
X182604304Y-121024750D01*
X182520696Y-121024750D01*
X182395677Y-121012437D01*
X182235258Y-120963774D01*
X182087424Y-120884755D01*
X182087422Y-120884754D01*
X181957841Y-120778409D01*
X181851496Y-120648828D01*
X181843386Y-120633656D01*
X181772476Y-120500992D01*
X181723813Y-120340573D01*
X181707383Y-120173750D01*
X181723813Y-120006927D01*
X181772476Y-119846508D01*
X181851495Y-119698674D01*
X181851496Y-119698672D01*
X181957841Y-119569091D01*
X182087422Y-119462746D01*
X182102594Y-119454636D01*
X182235258Y-119383726D01*
X182395677Y-119335063D01*
X182520696Y-119322750D01*
X182604304Y-119322750D01*
X182729323Y-119335063D01*
X182729323Y-119335063D01*
G37*
G36*
X183413500Y-109594750D02*
G01*
X181711500Y-109594750D01*
X181711500Y-107892750D01*
X183413500Y-107892750D01*
X183413500Y-109594750D01*
X183413500Y-109594750D01*
G37*
G36*
X202463500Y-109594750D02*
G01*
X200761500Y-109594750D01*
X200761500Y-107892750D01*
X202463500Y-107892750D01*
X202463500Y-109594750D01*
X202463500Y-109594750D01*
G37*
G36*
X164363500Y-109594750D02*
G01*
X162661500Y-109594750D01*
X162661500Y-107892750D01*
X164363500Y-107892750D01*
X164363500Y-109594750D01*
X164363500Y-109594750D01*
G37*
G36*
X145313500Y-109594750D02*
G01*
X143611500Y-109594750D01*
X143611500Y-107892750D01*
X145313500Y-107892750D01*
X145313500Y-109594750D01*
X145313500Y-109594750D01*
G37*
G36*
X109309478Y-105226703D02*
G01*
X109464350Y-105290853D01*
X109603731Y-105383985D01*
X109722265Y-105502519D01*
X109815397Y-105641900D01*
X109879547Y-105796772D01*
X109912250Y-105961184D01*
X109912250Y-106128816D01*
X109879547Y-106293228D01*
X109815397Y-106448100D01*
X109722265Y-106587481D01*
X109603731Y-106706015D01*
X109464350Y-106799147D01*
X109309478Y-106863297D01*
X109145066Y-106896000D01*
X108977434Y-106896000D01*
X108813022Y-106863297D01*
X108658150Y-106799147D01*
X108518769Y-106706015D01*
X108400235Y-106587481D01*
X108307103Y-106448100D01*
X108242953Y-106293228D01*
X108210250Y-106128816D01*
X108210250Y-105961184D01*
X108242953Y-105796772D01*
X108307103Y-105641900D01*
X108400235Y-105502519D01*
X108518769Y-105383985D01*
X108658150Y-105290853D01*
X108813022Y-105226703D01*
X108977434Y-105194000D01*
X109145066Y-105194000D01*
X109309478Y-105226703D01*
X109309478Y-105226703D01*
G37*
G36*
X124549478Y-105226703D02*
G01*
X124704350Y-105290853D01*
X124843731Y-105383985D01*
X124962265Y-105502519D01*
X125055397Y-105641900D01*
X125119547Y-105796772D01*
X125152250Y-105961184D01*
X125152250Y-106128816D01*
X125119547Y-106293228D01*
X125055397Y-106448100D01*
X124962265Y-106587481D01*
X124843731Y-106706015D01*
X124704350Y-106799147D01*
X124549478Y-106863297D01*
X124385066Y-106896000D01*
X124217434Y-106896000D01*
X124053022Y-106863297D01*
X123898150Y-106799147D01*
X123758769Y-106706015D01*
X123640235Y-106587481D01*
X123547103Y-106448100D01*
X123482953Y-106293228D01*
X123450250Y-106128816D01*
X123450250Y-105961184D01*
X123482953Y-105796772D01*
X123547103Y-105641900D01*
X123640235Y-105502519D01*
X123758769Y-105383985D01*
X123898150Y-105290853D01*
X124053022Y-105226703D01*
X124217434Y-105194000D01*
X124385066Y-105194000D01*
X124549478Y-105226703D01*
X124549478Y-105226703D01*
G37*
G36*
X194271474Y-102808684D02*
G01*
X194489474Y-102898983D01*
X194643623Y-102962833D01*
X194978548Y-103186623D01*
X195263377Y-103471452D01*
X195487167Y-103806377D01*
X195529302Y-103908100D01*
X195641316Y-104178526D01*
X195719900Y-104573594D01*
X195719900Y-104976406D01*
X195641316Y-105371474D01*
X195551017Y-105589474D01*
X195487167Y-105743623D01*
X195263377Y-106078548D01*
X194978548Y-106363377D01*
X194643623Y-106587167D01*
X194489474Y-106651017D01*
X194271474Y-106741316D01*
X193876406Y-106819900D01*
X193473594Y-106819900D01*
X193078526Y-106741316D01*
X192860526Y-106651017D01*
X192706377Y-106587167D01*
X192371452Y-106363377D01*
X192086623Y-106078548D01*
X191862833Y-105743623D01*
X191798983Y-105589474D01*
X191708684Y-105371474D01*
X191630100Y-104976406D01*
X191630100Y-104573594D01*
X191708684Y-104178526D01*
X191820698Y-103908100D01*
X191862833Y-103806377D01*
X192086623Y-103471452D01*
X192371452Y-103186623D01*
X192706377Y-102962833D01*
X192860526Y-102898983D01*
X193078526Y-102808684D01*
X193473594Y-102730100D01*
X193876406Y-102730100D01*
X194271474Y-102808684D01*
X194271474Y-102808684D01*
G37*
G36*
X175221474Y-102808684D02*
G01*
X175439474Y-102898983D01*
X175593623Y-102962833D01*
X175928548Y-103186623D01*
X176213377Y-103471452D01*
X176437167Y-103806377D01*
X176479302Y-103908100D01*
X176591316Y-104178526D01*
X176669900Y-104573594D01*
X176669900Y-104976406D01*
X176591316Y-105371474D01*
X176501017Y-105589474D01*
X176437167Y-105743623D01*
X176213377Y-106078548D01*
X175928548Y-106363377D01*
X175593623Y-106587167D01*
X175439474Y-106651017D01*
X175221474Y-106741316D01*
X174826406Y-106819900D01*
X174423594Y-106819900D01*
X174028526Y-106741316D01*
X173810526Y-106651017D01*
X173656377Y-106587167D01*
X173321452Y-106363377D01*
X173036623Y-106078548D01*
X172812833Y-105743623D01*
X172748983Y-105589474D01*
X172658684Y-105371474D01*
X172580100Y-104976406D01*
X172580100Y-104573594D01*
X172658684Y-104178526D01*
X172770698Y-103908100D01*
X172812833Y-103806377D01*
X173036623Y-103471452D01*
X173321452Y-103186623D01*
X173656377Y-102962833D01*
X173810526Y-102898983D01*
X174028526Y-102808684D01*
X174423594Y-102730100D01*
X174826406Y-102730100D01*
X175221474Y-102808684D01*
X175221474Y-102808684D01*
G37*
G36*
X137089724Y-102776934D02*
G01*
X137251599Y-102843985D01*
X137461873Y-102931083D01*
X137796798Y-103154873D01*
X138081627Y-103439702D01*
X138305417Y-103774627D01*
X138337812Y-103852836D01*
X138459566Y-104146776D01*
X138538150Y-104541844D01*
X138538150Y-104944656D01*
X138459566Y-105339724D01*
X138369267Y-105557724D01*
X138305417Y-105711873D01*
X138081627Y-106046798D01*
X137796798Y-106331627D01*
X137461873Y-106555417D01*
X137384463Y-106587481D01*
X137089724Y-106709566D01*
X136694656Y-106788150D01*
X136291844Y-106788150D01*
X135896776Y-106709566D01*
X135602037Y-106587481D01*
X135524627Y-106555417D01*
X135189702Y-106331627D01*
X134904873Y-106046798D01*
X134681083Y-105711873D01*
X134617233Y-105557724D01*
X134526934Y-105339724D01*
X134448350Y-104944656D01*
X134448350Y-104541844D01*
X134526934Y-104146776D01*
X134648688Y-103852836D01*
X134681083Y-103774627D01*
X134904873Y-103439702D01*
X135189702Y-103154873D01*
X135524627Y-102931083D01*
X135734901Y-102843985D01*
X135896776Y-102776934D01*
X136291844Y-102698350D01*
X136694656Y-102698350D01*
X137089724Y-102776934D01*
X137089724Y-102776934D01*
G37*
G36*
X156139724Y-102776934D02*
G01*
X156301599Y-102843985D01*
X156511873Y-102931083D01*
X156846798Y-103154873D01*
X157131627Y-103439702D01*
X157355417Y-103774627D01*
X157387812Y-103852836D01*
X157509566Y-104146776D01*
X157588150Y-104541844D01*
X157588150Y-104944656D01*
X157509566Y-105339724D01*
X157419267Y-105557724D01*
X157355417Y-105711873D01*
X157131627Y-106046798D01*
X156846798Y-106331627D01*
X156511873Y-106555417D01*
X156434463Y-106587481D01*
X156139724Y-106709566D01*
X155744656Y-106788150D01*
X155341844Y-106788150D01*
X154946776Y-106709566D01*
X154652037Y-106587481D01*
X154574627Y-106555417D01*
X154239702Y-106331627D01*
X153954873Y-106046798D01*
X153731083Y-105711873D01*
X153667233Y-105557724D01*
X153576934Y-105339724D01*
X153498350Y-104944656D01*
X153498350Y-104541844D01*
X153576934Y-104146776D01*
X153698688Y-103852836D01*
X153731083Y-103774627D01*
X153954873Y-103439702D01*
X154239702Y-103154873D01*
X154574627Y-102931083D01*
X154784901Y-102843985D01*
X154946776Y-102776934D01*
X155341844Y-102698350D01*
X155744656Y-102698350D01*
X156139724Y-102776934D01*
X156139724Y-102776934D01*
G37*
G36*
X169815104Y-103884585D02*
G01*
X169983626Y-103954389D01*
X170135291Y-104055728D01*
X170264272Y-104184709D01*
X170365611Y-104336374D01*
X170435415Y-104504896D01*
X170471000Y-104683797D01*
X170471000Y-104866203D01*
X170435415Y-105045104D01*
X170365611Y-105213626D01*
X170264272Y-105365291D01*
X170135291Y-105494272D01*
X169983626Y-105595611D01*
X169815104Y-105665415D01*
X169636203Y-105701000D01*
X169453797Y-105701000D01*
X169274896Y-105665415D01*
X169106374Y-105595611D01*
X168954709Y-105494272D01*
X168825728Y-105365291D01*
X168724389Y-105213626D01*
X168654585Y-105045104D01*
X168619000Y-104866203D01*
X168619000Y-104683797D01*
X168654585Y-104504896D01*
X168724389Y-104336374D01*
X168825728Y-104184709D01*
X168954709Y-104055728D01*
X169106374Y-103954389D01*
X169274896Y-103884585D01*
X169453797Y-103849000D01*
X169636203Y-103849000D01*
X169815104Y-103884585D01*
X169815104Y-103884585D01*
G37*
G36*
X188865104Y-103884585D02*
G01*
X189033626Y-103954389D01*
X189185291Y-104055728D01*
X189314272Y-104184709D01*
X189415611Y-104336374D01*
X189485415Y-104504896D01*
X189521000Y-104683797D01*
X189521000Y-104866203D01*
X189485415Y-105045104D01*
X189415611Y-105213626D01*
X189314272Y-105365291D01*
X189185291Y-105494272D01*
X189033626Y-105595611D01*
X188865104Y-105665415D01*
X188686203Y-105701000D01*
X188503797Y-105701000D01*
X188324896Y-105665415D01*
X188156374Y-105595611D01*
X188004709Y-105494272D01*
X187875728Y-105365291D01*
X187774389Y-105213626D01*
X187704585Y-105045104D01*
X187669000Y-104866203D01*
X187669000Y-104683797D01*
X187704585Y-104504896D01*
X187774389Y-104336374D01*
X187875728Y-104184709D01*
X188004709Y-104055728D01*
X188156374Y-103954389D01*
X188324896Y-103884585D01*
X188503797Y-103849000D01*
X188686203Y-103849000D01*
X188865104Y-103884585D01*
X188865104Y-103884585D01*
G37*
G36*
X179975104Y-103884585D02*
G01*
X180143626Y-103954389D01*
X180295291Y-104055728D01*
X180424272Y-104184709D01*
X180525611Y-104336374D01*
X180595415Y-104504896D01*
X180631000Y-104683797D01*
X180631000Y-104866203D01*
X180595415Y-105045104D01*
X180525611Y-105213626D01*
X180424272Y-105365291D01*
X180295291Y-105494272D01*
X180143626Y-105595611D01*
X179975104Y-105665415D01*
X179796203Y-105701000D01*
X179613797Y-105701000D01*
X179434896Y-105665415D01*
X179266374Y-105595611D01*
X179114709Y-105494272D01*
X178985728Y-105365291D01*
X178884389Y-105213626D01*
X178814585Y-105045104D01*
X178779000Y-104866203D01*
X178779000Y-104683797D01*
X178814585Y-104504896D01*
X178884389Y-104336374D01*
X178985728Y-104184709D01*
X179114709Y-104055728D01*
X179266374Y-103954389D01*
X179434896Y-103884585D01*
X179613797Y-103849000D01*
X179796203Y-103849000D01*
X179975104Y-103884585D01*
X179975104Y-103884585D01*
G37*
G36*
X199025104Y-103884585D02*
G01*
X199193626Y-103954389D01*
X199345291Y-104055728D01*
X199474272Y-104184709D01*
X199575611Y-104336374D01*
X199645415Y-104504896D01*
X199681000Y-104683797D01*
X199681000Y-104866203D01*
X199645415Y-105045104D01*
X199575611Y-105213626D01*
X199474272Y-105365291D01*
X199345291Y-105494272D01*
X199193626Y-105595611D01*
X199025104Y-105665415D01*
X198846203Y-105701000D01*
X198663797Y-105701000D01*
X198484896Y-105665415D01*
X198316374Y-105595611D01*
X198164709Y-105494272D01*
X198035728Y-105365291D01*
X197934389Y-105213626D01*
X197864585Y-105045104D01*
X197829000Y-104866203D01*
X197829000Y-104683797D01*
X197864585Y-104504896D01*
X197934389Y-104336374D01*
X198035728Y-104184709D01*
X198164709Y-104055728D01*
X198316374Y-103954389D01*
X198484896Y-103884585D01*
X198663797Y-103849000D01*
X198846203Y-103849000D01*
X199025104Y-103884585D01*
X199025104Y-103884585D01*
G37*
G36*
X150733354Y-103852835D02*
G01*
X150901876Y-103922639D01*
X151053541Y-104023978D01*
X151182522Y-104152959D01*
X151283861Y-104304624D01*
X151353665Y-104473146D01*
X151389250Y-104652047D01*
X151389250Y-104834453D01*
X151353665Y-105013354D01*
X151283861Y-105181876D01*
X151182522Y-105333541D01*
X151053541Y-105462522D01*
X150901876Y-105563861D01*
X150733354Y-105633665D01*
X150554453Y-105669250D01*
X150372047Y-105669250D01*
X150193146Y-105633665D01*
X150024624Y-105563861D01*
X149872959Y-105462522D01*
X149743978Y-105333541D01*
X149642639Y-105181876D01*
X149572835Y-105013354D01*
X149537250Y-104834453D01*
X149537250Y-104652047D01*
X149572835Y-104473146D01*
X149642639Y-104304624D01*
X149743978Y-104152959D01*
X149872959Y-104023978D01*
X150024624Y-103922639D01*
X150193146Y-103852835D01*
X150372047Y-103817250D01*
X150554453Y-103817250D01*
X150733354Y-103852835D01*
X150733354Y-103852835D01*
G37*
G36*
X131683354Y-103852835D02*
G01*
X131851876Y-103922639D01*
X132003541Y-104023978D01*
X132132522Y-104152959D01*
X132233861Y-104304624D01*
X132303665Y-104473146D01*
X132339250Y-104652047D01*
X132339250Y-104834453D01*
X132303665Y-105013354D01*
X132233861Y-105181876D01*
X132132522Y-105333541D01*
X132003541Y-105462522D01*
X131851876Y-105563861D01*
X131683354Y-105633665D01*
X131504453Y-105669250D01*
X131322047Y-105669250D01*
X131143146Y-105633665D01*
X130974624Y-105563861D01*
X130822959Y-105462522D01*
X130693978Y-105333541D01*
X130592639Y-105181876D01*
X130522835Y-105013354D01*
X130487250Y-104834453D01*
X130487250Y-104652047D01*
X130522835Y-104473146D01*
X130592639Y-104304624D01*
X130693978Y-104152959D01*
X130822959Y-104023978D01*
X130974624Y-103922639D01*
X131143146Y-103852835D01*
X131322047Y-103817250D01*
X131504453Y-103817250D01*
X131683354Y-103852835D01*
X131683354Y-103852835D01*
G37*
G36*
X141843354Y-103852835D02*
G01*
X142011876Y-103922639D01*
X142163541Y-104023978D01*
X142292522Y-104152959D01*
X142393861Y-104304624D01*
X142463665Y-104473146D01*
X142499250Y-104652047D01*
X142499250Y-104834453D01*
X142463665Y-105013354D01*
X142393861Y-105181876D01*
X142292522Y-105333541D01*
X142163541Y-105462522D01*
X142011876Y-105563861D01*
X141843354Y-105633665D01*
X141664453Y-105669250D01*
X141482047Y-105669250D01*
X141303146Y-105633665D01*
X141134624Y-105563861D01*
X140982959Y-105462522D01*
X140853978Y-105333541D01*
X140752639Y-105181876D01*
X140682835Y-105013354D01*
X140647250Y-104834453D01*
X140647250Y-104652047D01*
X140682835Y-104473146D01*
X140752639Y-104304624D01*
X140853978Y-104152959D01*
X140982959Y-104023978D01*
X141134624Y-103922639D01*
X141303146Y-103852835D01*
X141482047Y-103817250D01*
X141664453Y-103817250D01*
X141843354Y-103852835D01*
X141843354Y-103852835D01*
G37*
G36*
X160893354Y-103852835D02*
G01*
X161061876Y-103922639D01*
X161213541Y-104023978D01*
X161342522Y-104152959D01*
X161443861Y-104304624D01*
X161513665Y-104473146D01*
X161549250Y-104652047D01*
X161549250Y-104834453D01*
X161513665Y-105013354D01*
X161443861Y-105181876D01*
X161342522Y-105333541D01*
X161213541Y-105462522D01*
X161061876Y-105563861D01*
X160893354Y-105633665D01*
X160714453Y-105669250D01*
X160532047Y-105669250D01*
X160353146Y-105633665D01*
X160184624Y-105563861D01*
X160032959Y-105462522D01*
X159903978Y-105333541D01*
X159802639Y-105181876D01*
X159732835Y-105013354D01*
X159697250Y-104834453D01*
X159697250Y-104652047D01*
X159732835Y-104473146D01*
X159802639Y-104304624D01*
X159903978Y-104152959D01*
X160032959Y-104023978D01*
X160184624Y-103922639D01*
X160353146Y-103852835D01*
X160532047Y-103817250D01*
X160714453Y-103817250D01*
X160893354Y-103852835D01*
X160893354Y-103852835D01*
G37*
G36*
X124549478Y-102686703D02*
G01*
X124704350Y-102750853D01*
X124843731Y-102843985D01*
X124962265Y-102962519D01*
X125055397Y-103101900D01*
X125119547Y-103256772D01*
X125152250Y-103421184D01*
X125152250Y-103588816D01*
X125119547Y-103753228D01*
X125055397Y-103908100D01*
X124962265Y-104047481D01*
X124843731Y-104166015D01*
X124704350Y-104259147D01*
X124549478Y-104323297D01*
X124385066Y-104356000D01*
X124217434Y-104356000D01*
X124053022Y-104323297D01*
X123898150Y-104259147D01*
X123758769Y-104166015D01*
X123640235Y-104047481D01*
X123547103Y-103908100D01*
X123482953Y-103753228D01*
X123450250Y-103588816D01*
X123450250Y-103421184D01*
X123482953Y-103256772D01*
X123547103Y-103101900D01*
X123640235Y-102962519D01*
X123758769Y-102843985D01*
X123898150Y-102750853D01*
X124053022Y-102686703D01*
X124217434Y-102654000D01*
X124385066Y-102654000D01*
X124549478Y-102686703D01*
X124549478Y-102686703D01*
G37*
G36*
X109309478Y-102686703D02*
G01*
X109464350Y-102750853D01*
X109603731Y-102843985D01*
X109722265Y-102962519D01*
X109815397Y-103101900D01*
X109879547Y-103256772D01*
X109912250Y-103421184D01*
X109912250Y-103588816D01*
X109879547Y-103753228D01*
X109815397Y-103908100D01*
X109722265Y-104047481D01*
X109603731Y-104166015D01*
X109464350Y-104259147D01*
X109309478Y-104323297D01*
X109145066Y-104356000D01*
X108977434Y-104356000D01*
X108813022Y-104323297D01*
X108658150Y-104259147D01*
X108518769Y-104166015D01*
X108400235Y-104047481D01*
X108307103Y-103908100D01*
X108242953Y-103753228D01*
X108210250Y-103588816D01*
X108210250Y-103421184D01*
X108242953Y-103256772D01*
X108307103Y-103101900D01*
X108400235Y-102962519D01*
X108518769Y-102843985D01*
X108658150Y-102750853D01*
X108813022Y-102686703D01*
X108977434Y-102654000D01*
X109145066Y-102654000D01*
X109309478Y-102686703D01*
X109309478Y-102686703D01*
G37*
G36*
X182729323Y-100285063D02*
G01*
X182889742Y-100333726D01*
X183022406Y-100404636D01*
X183037578Y-100412746D01*
X183167159Y-100519091D01*
X183273504Y-100648672D01*
X183273505Y-100648674D01*
X183352524Y-100796508D01*
X183401187Y-100956927D01*
X183417617Y-101123750D01*
X183401187Y-101290573D01*
X183352524Y-101450992D01*
X183322330Y-101507481D01*
X183273504Y-101598828D01*
X183167159Y-101728409D01*
X183037578Y-101834754D01*
X183037576Y-101834755D01*
X182889742Y-101913774D01*
X182729323Y-101962437D01*
X182604304Y-101974750D01*
X182520696Y-101974750D01*
X182395677Y-101962437D01*
X182235258Y-101913774D01*
X182087424Y-101834755D01*
X182087422Y-101834754D01*
X181957841Y-101728409D01*
X181851496Y-101598828D01*
X181802670Y-101507481D01*
X181772476Y-101450992D01*
X181723813Y-101290573D01*
X181707383Y-101123750D01*
X181723813Y-100956927D01*
X181772476Y-100796508D01*
X181851495Y-100648674D01*
X181851496Y-100648672D01*
X181957841Y-100519091D01*
X182087422Y-100412746D01*
X182102594Y-100404636D01*
X182235258Y-100333726D01*
X182395677Y-100285063D01*
X182520696Y-100272750D01*
X182604304Y-100272750D01*
X182729323Y-100285063D01*
X182729323Y-100285063D01*
G37*
G36*
X201779323Y-100285063D02*
G01*
X201939742Y-100333726D01*
X202072406Y-100404636D01*
X202087578Y-100412746D01*
X202217159Y-100519091D01*
X202323504Y-100648672D01*
X202323505Y-100648674D01*
X202402524Y-100796508D01*
X202451187Y-100956927D01*
X202467617Y-101123750D01*
X202451187Y-101290573D01*
X202402524Y-101450992D01*
X202372330Y-101507481D01*
X202323504Y-101598828D01*
X202217159Y-101728409D01*
X202087578Y-101834754D01*
X202087576Y-101834755D01*
X201939742Y-101913774D01*
X201779323Y-101962437D01*
X201654304Y-101974750D01*
X201570696Y-101974750D01*
X201445677Y-101962437D01*
X201285258Y-101913774D01*
X201137424Y-101834755D01*
X201137422Y-101834754D01*
X201007841Y-101728409D01*
X200901496Y-101598828D01*
X200852670Y-101507481D01*
X200822476Y-101450992D01*
X200773813Y-101290573D01*
X200757383Y-101123750D01*
X200773813Y-100956927D01*
X200822476Y-100796508D01*
X200901495Y-100648674D01*
X200901496Y-100648672D01*
X201007841Y-100519091D01*
X201137422Y-100412746D01*
X201152594Y-100404636D01*
X201285258Y-100333726D01*
X201445677Y-100285063D01*
X201570696Y-100272750D01*
X201654304Y-100272750D01*
X201779323Y-100285063D01*
X201779323Y-100285063D01*
G37*
G36*
X163679323Y-100285063D02*
G01*
X163839742Y-100333726D01*
X163972406Y-100404636D01*
X163987578Y-100412746D01*
X164117159Y-100519091D01*
X164223504Y-100648672D01*
X164223505Y-100648674D01*
X164302524Y-100796508D01*
X164351187Y-100956927D01*
X164367617Y-101123750D01*
X164351187Y-101290573D01*
X164302524Y-101450992D01*
X164272330Y-101507481D01*
X164223504Y-101598828D01*
X164117159Y-101728409D01*
X163987578Y-101834754D01*
X163987576Y-101834755D01*
X163839742Y-101913774D01*
X163679323Y-101962437D01*
X163554304Y-101974750D01*
X163470696Y-101974750D01*
X163345677Y-101962437D01*
X163185258Y-101913774D01*
X163037424Y-101834755D01*
X163037422Y-101834754D01*
X162907841Y-101728409D01*
X162801496Y-101598828D01*
X162752670Y-101507481D01*
X162722476Y-101450992D01*
X162673813Y-101290573D01*
X162657383Y-101123750D01*
X162673813Y-100956927D01*
X162722476Y-100796508D01*
X162801495Y-100648674D01*
X162801496Y-100648672D01*
X162907841Y-100519091D01*
X163037422Y-100412746D01*
X163052594Y-100404636D01*
X163185258Y-100333726D01*
X163345677Y-100285063D01*
X163470696Y-100272750D01*
X163554304Y-100272750D01*
X163679323Y-100285063D01*
X163679323Y-100285063D01*
G37*
G36*
X144629323Y-100285063D02*
G01*
X144789742Y-100333726D01*
X144922406Y-100404636D01*
X144937578Y-100412746D01*
X145067159Y-100519091D01*
X145173504Y-100648672D01*
X145173505Y-100648674D01*
X145252524Y-100796508D01*
X145301187Y-100956927D01*
X145317617Y-101123750D01*
X145301187Y-101290573D01*
X145252524Y-101450992D01*
X145222330Y-101507481D01*
X145173504Y-101598828D01*
X145067159Y-101728409D01*
X144937578Y-101834754D01*
X144937576Y-101834755D01*
X144789742Y-101913774D01*
X144629323Y-101962437D01*
X144504304Y-101974750D01*
X144420696Y-101974750D01*
X144295677Y-101962437D01*
X144135258Y-101913774D01*
X143987424Y-101834755D01*
X143987422Y-101834754D01*
X143857841Y-101728409D01*
X143751496Y-101598828D01*
X143702670Y-101507481D01*
X143672476Y-101450992D01*
X143623813Y-101290573D01*
X143607383Y-101123750D01*
X143623813Y-100956927D01*
X143672476Y-100796508D01*
X143751495Y-100648674D01*
X143751496Y-100648672D01*
X143857841Y-100519091D01*
X143987422Y-100412746D01*
X144002594Y-100404636D01*
X144135258Y-100333726D01*
X144295677Y-100285063D01*
X144420696Y-100272750D01*
X144504304Y-100272750D01*
X144629323Y-100285063D01*
X144629323Y-100285063D01*
G37*
G36*
X124549478Y-100146703D02*
G01*
X124704350Y-100210853D01*
X124843731Y-100303985D01*
X124962265Y-100422519D01*
X125055397Y-100561900D01*
X125119547Y-100716772D01*
X125152250Y-100881184D01*
X125152250Y-101048816D01*
X125119547Y-101213228D01*
X125055397Y-101368100D01*
X124962265Y-101507481D01*
X124843731Y-101626015D01*
X124704350Y-101719147D01*
X124549478Y-101783297D01*
X124385066Y-101816000D01*
X124217434Y-101816000D01*
X124053022Y-101783297D01*
X123898150Y-101719147D01*
X123758769Y-101626015D01*
X123640235Y-101507481D01*
X123547103Y-101368100D01*
X123482953Y-101213228D01*
X123450250Y-101048816D01*
X123450250Y-100881184D01*
X123482953Y-100716772D01*
X123547103Y-100561900D01*
X123640235Y-100422519D01*
X123758769Y-100303985D01*
X123898150Y-100210853D01*
X124053022Y-100146703D01*
X124217434Y-100114000D01*
X124385066Y-100114000D01*
X124549478Y-100146703D01*
X124549478Y-100146703D01*
G37*
G36*
X109309478Y-100146703D02*
G01*
X109464350Y-100210853D01*
X109603731Y-100303985D01*
X109722265Y-100422519D01*
X109815397Y-100561900D01*
X109879547Y-100716772D01*
X109912250Y-100881184D01*
X109912250Y-101048816D01*
X109879547Y-101213228D01*
X109815397Y-101368100D01*
X109722265Y-101507481D01*
X109603731Y-101626015D01*
X109464350Y-101719147D01*
X109309478Y-101783297D01*
X109145066Y-101816000D01*
X108977434Y-101816000D01*
X108813022Y-101783297D01*
X108658150Y-101719147D01*
X108518769Y-101626015D01*
X108400235Y-101507481D01*
X108307103Y-101368100D01*
X108242953Y-101213228D01*
X108210250Y-101048816D01*
X108210250Y-100881184D01*
X108242953Y-100716772D01*
X108307103Y-100561900D01*
X108400235Y-100422519D01*
X108518769Y-100303985D01*
X108658150Y-100210853D01*
X108813022Y-100146703D01*
X108977434Y-100114000D01*
X109145066Y-100114000D01*
X109309478Y-100146703D01*
X109309478Y-100146703D01*
G37*
G36*
X124549478Y-97606703D02*
G01*
X124704350Y-97670853D01*
X124843731Y-97763985D01*
X124962265Y-97882519D01*
X125055397Y-98021900D01*
X125119547Y-98176772D01*
X125152250Y-98341184D01*
X125152250Y-98508816D01*
X125119547Y-98673228D01*
X125055397Y-98828100D01*
X124962265Y-98967481D01*
X124843731Y-99086015D01*
X124704350Y-99179147D01*
X124549478Y-99243297D01*
X124385066Y-99276000D01*
X124217434Y-99276000D01*
X124053022Y-99243297D01*
X123898150Y-99179147D01*
X123758769Y-99086015D01*
X123640235Y-98967481D01*
X123547103Y-98828100D01*
X123482953Y-98673228D01*
X123450250Y-98508816D01*
X123450250Y-98341184D01*
X123482953Y-98176772D01*
X123547103Y-98021900D01*
X123640235Y-97882519D01*
X123758769Y-97763985D01*
X123898150Y-97670853D01*
X124053022Y-97606703D01*
X124217434Y-97574000D01*
X124385066Y-97574000D01*
X124549478Y-97606703D01*
X124549478Y-97606703D01*
G37*
G36*
X109309478Y-97606703D02*
G01*
X109464350Y-97670853D01*
X109603731Y-97763985D01*
X109722265Y-97882519D01*
X109815397Y-98021900D01*
X109879547Y-98176772D01*
X109912250Y-98341184D01*
X109912250Y-98508816D01*
X109879547Y-98673228D01*
X109815397Y-98828100D01*
X109722265Y-98967481D01*
X109603731Y-99086015D01*
X109464350Y-99179147D01*
X109309478Y-99243297D01*
X109145066Y-99276000D01*
X108977434Y-99276000D01*
X108813022Y-99243297D01*
X108658150Y-99179147D01*
X108518769Y-99086015D01*
X108400235Y-98967481D01*
X108307103Y-98828100D01*
X108242953Y-98673228D01*
X108210250Y-98508816D01*
X108210250Y-98341184D01*
X108242953Y-98176772D01*
X108307103Y-98021900D01*
X108400235Y-97882519D01*
X108518769Y-97763985D01*
X108658150Y-97670853D01*
X108813022Y-97606703D01*
X108977434Y-97574000D01*
X109145066Y-97574000D01*
X109309478Y-97606703D01*
X109309478Y-97606703D01*
G37*
G36*
X109309478Y-95066703D02*
G01*
X109464350Y-95130853D01*
X109603731Y-95223985D01*
X109722265Y-95342519D01*
X109815397Y-95481900D01*
X109879547Y-95636772D01*
X109912250Y-95801184D01*
X109912250Y-95968816D01*
X109879547Y-96133228D01*
X109815397Y-96288100D01*
X109722265Y-96427481D01*
X109603731Y-96546015D01*
X109464350Y-96639147D01*
X109309478Y-96703297D01*
X109145066Y-96736000D01*
X108977434Y-96736000D01*
X108813022Y-96703297D01*
X108658150Y-96639147D01*
X108518769Y-96546015D01*
X108400235Y-96427481D01*
X108307103Y-96288100D01*
X108242953Y-96133228D01*
X108210250Y-95968816D01*
X108210250Y-95801184D01*
X108242953Y-95636772D01*
X108307103Y-95481900D01*
X108400235Y-95342519D01*
X108518769Y-95223985D01*
X108658150Y-95130853D01*
X108813022Y-95066703D01*
X108977434Y-95034000D01*
X109145066Y-95034000D01*
X109309478Y-95066703D01*
X109309478Y-95066703D01*
G37*
G36*
X124549478Y-95066703D02*
G01*
X124704350Y-95130853D01*
X124843731Y-95223985D01*
X124962265Y-95342519D01*
X125055397Y-95481900D01*
X125119547Y-95636772D01*
X125152250Y-95801184D01*
X125152250Y-95968816D01*
X125119547Y-96133228D01*
X125055397Y-96288100D01*
X124962265Y-96427481D01*
X124843731Y-96546015D01*
X124704350Y-96639147D01*
X124549478Y-96703297D01*
X124385066Y-96736000D01*
X124217434Y-96736000D01*
X124053022Y-96703297D01*
X123898150Y-96639147D01*
X123758769Y-96546015D01*
X123640235Y-96427481D01*
X123547103Y-96288100D01*
X123482953Y-96133228D01*
X123450250Y-95968816D01*
X123450250Y-95801184D01*
X123482953Y-95636772D01*
X123547103Y-95481900D01*
X123640235Y-95342519D01*
X123758769Y-95223985D01*
X123898150Y-95130853D01*
X124053022Y-95066703D01*
X124217434Y-95034000D01*
X124385066Y-95034000D01*
X124549478Y-95066703D01*
X124549478Y-95066703D01*
G37*
G36*
X109309478Y-92526703D02*
G01*
X109464350Y-92590853D01*
X109603731Y-92683985D01*
X109722265Y-92802519D01*
X109815397Y-92941900D01*
X109879547Y-93096772D01*
X109912250Y-93261184D01*
X109912250Y-93428816D01*
X109879547Y-93593228D01*
X109815397Y-93748100D01*
X109722265Y-93887481D01*
X109603731Y-94006015D01*
X109464350Y-94099147D01*
X109309478Y-94163297D01*
X109145066Y-94196000D01*
X108977434Y-94196000D01*
X108813022Y-94163297D01*
X108658150Y-94099147D01*
X108518769Y-94006015D01*
X108400235Y-93887481D01*
X108307103Y-93748100D01*
X108242953Y-93593228D01*
X108210250Y-93428816D01*
X108210250Y-93261184D01*
X108242953Y-93096772D01*
X108307103Y-92941900D01*
X108400235Y-92802519D01*
X108518769Y-92683985D01*
X108658150Y-92590853D01*
X108813022Y-92526703D01*
X108977434Y-92494000D01*
X109145066Y-92494000D01*
X109309478Y-92526703D01*
X109309478Y-92526703D01*
G37*
G36*
X124549478Y-92526703D02*
G01*
X124704350Y-92590853D01*
X124843731Y-92683985D01*
X124962265Y-92802519D01*
X125055397Y-92941900D01*
X125119547Y-93096772D01*
X125152250Y-93261184D01*
X125152250Y-93428816D01*
X125119547Y-93593228D01*
X125055397Y-93748100D01*
X124962265Y-93887481D01*
X124843731Y-94006015D01*
X124704350Y-94099147D01*
X124549478Y-94163297D01*
X124385066Y-94196000D01*
X124217434Y-94196000D01*
X124053022Y-94163297D01*
X123898150Y-94099147D01*
X123758769Y-94006015D01*
X123640235Y-93887481D01*
X123547103Y-93748100D01*
X123482953Y-93593228D01*
X123450250Y-93428816D01*
X123450250Y-93261184D01*
X123482953Y-93096772D01*
X123547103Y-92941900D01*
X123640235Y-92802519D01*
X123758769Y-92683985D01*
X123898150Y-92590853D01*
X124053022Y-92526703D01*
X124217434Y-92494000D01*
X124385066Y-92494000D01*
X124549478Y-92526703D01*
X124549478Y-92526703D01*
G37*
G36*
X109309478Y-89986703D02*
G01*
X109464350Y-90050853D01*
X109603731Y-90143985D01*
X109722265Y-90262519D01*
X109815397Y-90401900D01*
X109879547Y-90556772D01*
X109912250Y-90721184D01*
X109912250Y-90888816D01*
X109879547Y-91053228D01*
X109815397Y-91208100D01*
X109722265Y-91347481D01*
X109603731Y-91466015D01*
X109464350Y-91559147D01*
X109309478Y-91623297D01*
X109145066Y-91656000D01*
X108977434Y-91656000D01*
X108813022Y-91623297D01*
X108658150Y-91559147D01*
X108518769Y-91466015D01*
X108400235Y-91347481D01*
X108307103Y-91208100D01*
X108242953Y-91053228D01*
X108210250Y-90888816D01*
X108210250Y-90721184D01*
X108242953Y-90556772D01*
X108307103Y-90401900D01*
X108400235Y-90262519D01*
X108518769Y-90143985D01*
X108658150Y-90050853D01*
X108813022Y-89986703D01*
X108977434Y-89954000D01*
X109145066Y-89954000D01*
X109309478Y-89986703D01*
X109309478Y-89986703D01*
G37*
G36*
X124549478Y-89986703D02*
G01*
X124704350Y-90050853D01*
X124843731Y-90143985D01*
X124962265Y-90262519D01*
X125055397Y-90401900D01*
X125119547Y-90556772D01*
X125152250Y-90721184D01*
X125152250Y-90888816D01*
X125119547Y-91053228D01*
X125055397Y-91208100D01*
X124962265Y-91347481D01*
X124843731Y-91466015D01*
X124704350Y-91559147D01*
X124549478Y-91623297D01*
X124385066Y-91656000D01*
X124217434Y-91656000D01*
X124053022Y-91623297D01*
X123898150Y-91559147D01*
X123758769Y-91466015D01*
X123640235Y-91347481D01*
X123547103Y-91208100D01*
X123482953Y-91053228D01*
X123450250Y-90888816D01*
X123450250Y-90721184D01*
X123482953Y-90556772D01*
X123547103Y-90401900D01*
X123640235Y-90262519D01*
X123758769Y-90143985D01*
X123898150Y-90050853D01*
X124053022Y-89986703D01*
X124217434Y-89954000D01*
X124385066Y-89954000D01*
X124549478Y-89986703D01*
X124549478Y-89986703D01*
G37*
G36*
X145313500Y-90544750D02*
G01*
X143611500Y-90544750D01*
X143611500Y-88842750D01*
X145313500Y-88842750D01*
X145313500Y-90544750D01*
X145313500Y-90544750D01*
G37*
G36*
X164363500Y-90544750D02*
G01*
X162661500Y-90544750D01*
X162661500Y-88842750D01*
X164363500Y-88842750D01*
X164363500Y-90544750D01*
X164363500Y-90544750D01*
G37*
G36*
X183413500Y-90544750D02*
G01*
X181711500Y-90544750D01*
X181711500Y-88842750D01*
X183413500Y-88842750D01*
X183413500Y-90544750D01*
X183413500Y-90544750D01*
G37*
G36*
X202463500Y-90544750D02*
G01*
X200761500Y-90544750D01*
X200761500Y-88842750D01*
X202463500Y-88842750D01*
X202463500Y-90544750D01*
X202463500Y-90544750D01*
G37*
G36*
X124549478Y-87446703D02*
G01*
X124704350Y-87510853D01*
X124843731Y-87603985D01*
X124962265Y-87722519D01*
X125055397Y-87861900D01*
X125119547Y-88016772D01*
X125152250Y-88181184D01*
X125152250Y-88348816D01*
X125119547Y-88513228D01*
X125055397Y-88668100D01*
X124962265Y-88807481D01*
X124843731Y-88926015D01*
X124704350Y-89019147D01*
X124549478Y-89083297D01*
X124385066Y-89116000D01*
X124217434Y-89116000D01*
X124053022Y-89083297D01*
X123898150Y-89019147D01*
X123758769Y-88926015D01*
X123640235Y-88807481D01*
X123547103Y-88668100D01*
X123482953Y-88513228D01*
X123450250Y-88348816D01*
X123450250Y-88181184D01*
X123482953Y-88016772D01*
X123547103Y-87861900D01*
X123640235Y-87722519D01*
X123758769Y-87603985D01*
X123898150Y-87510853D01*
X124053022Y-87446703D01*
X124217434Y-87414000D01*
X124385066Y-87414000D01*
X124549478Y-87446703D01*
X124549478Y-87446703D01*
G37*
G36*
X109309478Y-87446703D02*
G01*
X109464350Y-87510853D01*
X109603731Y-87603985D01*
X109722265Y-87722519D01*
X109815397Y-87861900D01*
X109879547Y-88016772D01*
X109912250Y-88181184D01*
X109912250Y-88348816D01*
X109879547Y-88513228D01*
X109815397Y-88668100D01*
X109722265Y-88807481D01*
X109603731Y-88926015D01*
X109464350Y-89019147D01*
X109309478Y-89083297D01*
X109145066Y-89116000D01*
X108977434Y-89116000D01*
X108813022Y-89083297D01*
X108658150Y-89019147D01*
X108518769Y-88926015D01*
X108400235Y-88807481D01*
X108307103Y-88668100D01*
X108242953Y-88513228D01*
X108210250Y-88348816D01*
X108210250Y-88181184D01*
X108242953Y-88016772D01*
X108307103Y-87861900D01*
X108400235Y-87722519D01*
X108518769Y-87603985D01*
X108658150Y-87510853D01*
X108813022Y-87446703D01*
X108977434Y-87414000D01*
X109145066Y-87414000D01*
X109309478Y-87446703D01*
X109309478Y-87446703D01*
G37*
G36*
X194271474Y-83758684D02*
G01*
X194482309Y-83846015D01*
X194643623Y-83912833D01*
X194978548Y-84136623D01*
X195263377Y-84421452D01*
X195487167Y-84756377D01*
X195519562Y-84834586D01*
X195641316Y-85128526D01*
X195719900Y-85523594D01*
X195719900Y-85926406D01*
X195641316Y-86321474D01*
X195551017Y-86539474D01*
X195487167Y-86693623D01*
X195263377Y-87028548D01*
X194978548Y-87313377D01*
X194643623Y-87537167D01*
X194489474Y-87601017D01*
X194271474Y-87691316D01*
X193876406Y-87769900D01*
X193473594Y-87769900D01*
X193078526Y-87691316D01*
X192860526Y-87601017D01*
X192706377Y-87537167D01*
X192371452Y-87313377D01*
X192086623Y-87028548D01*
X191862833Y-86693623D01*
X191798983Y-86539474D01*
X191708684Y-86321474D01*
X191630100Y-85926406D01*
X191630100Y-85523594D01*
X191708684Y-85128526D01*
X191830438Y-84834586D01*
X191862833Y-84756377D01*
X192086623Y-84421452D01*
X192371452Y-84136623D01*
X192706377Y-83912833D01*
X192867691Y-83846015D01*
X193078526Y-83758684D01*
X193473594Y-83680100D01*
X193876406Y-83680100D01*
X194271474Y-83758684D01*
X194271474Y-83758684D01*
G37*
G36*
X175221474Y-83758684D02*
G01*
X175432309Y-83846015D01*
X175593623Y-83912833D01*
X175928548Y-84136623D01*
X176213377Y-84421452D01*
X176437167Y-84756377D01*
X176469562Y-84834586D01*
X176591316Y-85128526D01*
X176669900Y-85523594D01*
X176669900Y-85926406D01*
X176591316Y-86321474D01*
X176501017Y-86539474D01*
X176437167Y-86693623D01*
X176213377Y-87028548D01*
X175928548Y-87313377D01*
X175593623Y-87537167D01*
X175439474Y-87601017D01*
X175221474Y-87691316D01*
X174826406Y-87769900D01*
X174423594Y-87769900D01*
X174028526Y-87691316D01*
X173810526Y-87601017D01*
X173656377Y-87537167D01*
X173321452Y-87313377D01*
X173036623Y-87028548D01*
X172812833Y-86693623D01*
X172748983Y-86539474D01*
X172658684Y-86321474D01*
X172580100Y-85926406D01*
X172580100Y-85523594D01*
X172658684Y-85128526D01*
X172780438Y-84834586D01*
X172812833Y-84756377D01*
X173036623Y-84421452D01*
X173321452Y-84136623D01*
X173656377Y-83912833D01*
X173817691Y-83846015D01*
X174028526Y-83758684D01*
X174423594Y-83680100D01*
X174826406Y-83680100D01*
X175221474Y-83758684D01*
X175221474Y-83758684D01*
G37*
G36*
X156139724Y-83726934D02*
G01*
X156357724Y-83817233D01*
X156511873Y-83881083D01*
X156846798Y-84104873D01*
X157131627Y-84389702D01*
X157355417Y-84724627D01*
X157387812Y-84802836D01*
X157509566Y-85096776D01*
X157588150Y-85491844D01*
X157588150Y-85894656D01*
X157509566Y-86289724D01*
X157458701Y-86412522D01*
X157355417Y-86661873D01*
X157131627Y-86996798D01*
X156846798Y-87281627D01*
X156511873Y-87505417D01*
X156435221Y-87537167D01*
X156139724Y-87659566D01*
X155744656Y-87738150D01*
X155341844Y-87738150D01*
X154946776Y-87659566D01*
X154651279Y-87537167D01*
X154574627Y-87505417D01*
X154239702Y-87281627D01*
X153954873Y-86996798D01*
X153731083Y-86661873D01*
X153627799Y-86412522D01*
X153576934Y-86289724D01*
X153498350Y-85894656D01*
X153498350Y-85491844D01*
X153576934Y-85096776D01*
X153698688Y-84802836D01*
X153731083Y-84724627D01*
X153954873Y-84389702D01*
X154239702Y-84104873D01*
X154574627Y-83881083D01*
X154728776Y-83817233D01*
X154946776Y-83726934D01*
X155341844Y-83648350D01*
X155744656Y-83648350D01*
X156139724Y-83726934D01*
X156139724Y-83726934D01*
G37*
G36*
X137089724Y-83726934D02*
G01*
X137307724Y-83817233D01*
X137461873Y-83881083D01*
X137796798Y-84104873D01*
X138081627Y-84389702D01*
X138305417Y-84724627D01*
X138337812Y-84802836D01*
X138459566Y-85096776D01*
X138538150Y-85491844D01*
X138538150Y-85894656D01*
X138459566Y-86289724D01*
X138408701Y-86412522D01*
X138305417Y-86661873D01*
X138081627Y-86996798D01*
X137796798Y-87281627D01*
X137461873Y-87505417D01*
X137385221Y-87537167D01*
X137089724Y-87659566D01*
X136694656Y-87738150D01*
X136291844Y-87738150D01*
X135896776Y-87659566D01*
X135601279Y-87537167D01*
X135524627Y-87505417D01*
X135189702Y-87281627D01*
X134904873Y-86996798D01*
X134681083Y-86661873D01*
X134577799Y-86412522D01*
X134526934Y-86289724D01*
X134448350Y-85894656D01*
X134448350Y-85491844D01*
X134526934Y-85096776D01*
X134648688Y-84802836D01*
X134681083Y-84724627D01*
X134904873Y-84389702D01*
X135189702Y-84104873D01*
X135524627Y-83881083D01*
X135678776Y-83817233D01*
X135896776Y-83726934D01*
X136291844Y-83648350D01*
X136694656Y-83648350D01*
X137089724Y-83726934D01*
X137089724Y-83726934D01*
G37*
G36*
X169815104Y-84834585D02*
G01*
X169983626Y-84904389D01*
X170135291Y-85005728D01*
X170264272Y-85134709D01*
X170365611Y-85286374D01*
X170435415Y-85454896D01*
X170471000Y-85633797D01*
X170471000Y-85816203D01*
X170435415Y-85995104D01*
X170365611Y-86163626D01*
X170264272Y-86315291D01*
X170135291Y-86444272D01*
X169983626Y-86545611D01*
X169815104Y-86615415D01*
X169636203Y-86651000D01*
X169453797Y-86651000D01*
X169274896Y-86615415D01*
X169106374Y-86545611D01*
X168954709Y-86444272D01*
X168825728Y-86315291D01*
X168724389Y-86163626D01*
X168654585Y-85995104D01*
X168619000Y-85816203D01*
X168619000Y-85633797D01*
X168654585Y-85454896D01*
X168724389Y-85286374D01*
X168825728Y-85134709D01*
X168954709Y-85005728D01*
X169106374Y-84904389D01*
X169274896Y-84834585D01*
X169453797Y-84799000D01*
X169636203Y-84799000D01*
X169815104Y-84834585D01*
X169815104Y-84834585D01*
G37*
G36*
X199025104Y-84834585D02*
G01*
X199193626Y-84904389D01*
X199345291Y-85005728D01*
X199474272Y-85134709D01*
X199575611Y-85286374D01*
X199645415Y-85454896D01*
X199681000Y-85633797D01*
X199681000Y-85816203D01*
X199645415Y-85995104D01*
X199575611Y-86163626D01*
X199474272Y-86315291D01*
X199345291Y-86444272D01*
X199193626Y-86545611D01*
X199025104Y-86615415D01*
X198846203Y-86651000D01*
X198663797Y-86651000D01*
X198484896Y-86615415D01*
X198316374Y-86545611D01*
X198164709Y-86444272D01*
X198035728Y-86315291D01*
X197934389Y-86163626D01*
X197864585Y-85995104D01*
X197829000Y-85816203D01*
X197829000Y-85633797D01*
X197864585Y-85454896D01*
X197934389Y-85286374D01*
X198035728Y-85134709D01*
X198164709Y-85005728D01*
X198316374Y-84904389D01*
X198484896Y-84834585D01*
X198663797Y-84799000D01*
X198846203Y-84799000D01*
X199025104Y-84834585D01*
X199025104Y-84834585D01*
G37*
G36*
X188865104Y-84834585D02*
G01*
X189033626Y-84904389D01*
X189185291Y-85005728D01*
X189314272Y-85134709D01*
X189415611Y-85286374D01*
X189485415Y-85454896D01*
X189521000Y-85633797D01*
X189521000Y-85816203D01*
X189485415Y-85995104D01*
X189415611Y-86163626D01*
X189314272Y-86315291D01*
X189185291Y-86444272D01*
X189033626Y-86545611D01*
X188865104Y-86615415D01*
X188686203Y-86651000D01*
X188503797Y-86651000D01*
X188324896Y-86615415D01*
X188156374Y-86545611D01*
X188004709Y-86444272D01*
X187875728Y-86315291D01*
X187774389Y-86163626D01*
X187704585Y-85995104D01*
X187669000Y-85816203D01*
X187669000Y-85633797D01*
X187704585Y-85454896D01*
X187774389Y-85286374D01*
X187875728Y-85134709D01*
X188004709Y-85005728D01*
X188156374Y-84904389D01*
X188324896Y-84834585D01*
X188503797Y-84799000D01*
X188686203Y-84799000D01*
X188865104Y-84834585D01*
X188865104Y-84834585D01*
G37*
G36*
X179975104Y-84834585D02*
G01*
X180143626Y-84904389D01*
X180295291Y-85005728D01*
X180424272Y-85134709D01*
X180525611Y-85286374D01*
X180595415Y-85454896D01*
X180631000Y-85633797D01*
X180631000Y-85816203D01*
X180595415Y-85995104D01*
X180525611Y-86163626D01*
X180424272Y-86315291D01*
X180295291Y-86444272D01*
X180143626Y-86545611D01*
X179975104Y-86615415D01*
X179796203Y-86651000D01*
X179613797Y-86651000D01*
X179434896Y-86615415D01*
X179266374Y-86545611D01*
X179114709Y-86444272D01*
X178985728Y-86315291D01*
X178884389Y-86163626D01*
X178814585Y-85995104D01*
X178779000Y-85816203D01*
X178779000Y-85633797D01*
X178814585Y-85454896D01*
X178884389Y-85286374D01*
X178985728Y-85134709D01*
X179114709Y-85005728D01*
X179266374Y-84904389D01*
X179434896Y-84834585D01*
X179613797Y-84799000D01*
X179796203Y-84799000D01*
X179975104Y-84834585D01*
X179975104Y-84834585D01*
G37*
G36*
X150733354Y-84802835D02*
G01*
X150901876Y-84872639D01*
X151053541Y-84973978D01*
X151182522Y-85102959D01*
X151283861Y-85254624D01*
X151353665Y-85423146D01*
X151389250Y-85602047D01*
X151389250Y-85784453D01*
X151353665Y-85963354D01*
X151283861Y-86131876D01*
X151182522Y-86283541D01*
X151053541Y-86412522D01*
X150901876Y-86513861D01*
X150733354Y-86583665D01*
X150554453Y-86619250D01*
X150372047Y-86619250D01*
X150193146Y-86583665D01*
X150024624Y-86513861D01*
X149872959Y-86412522D01*
X149743978Y-86283541D01*
X149642639Y-86131876D01*
X149572835Y-85963354D01*
X149537250Y-85784453D01*
X149537250Y-85602047D01*
X149572835Y-85423146D01*
X149642639Y-85254624D01*
X149743978Y-85102959D01*
X149872959Y-84973978D01*
X150024624Y-84872639D01*
X150193146Y-84802835D01*
X150372047Y-84767250D01*
X150554453Y-84767250D01*
X150733354Y-84802835D01*
X150733354Y-84802835D01*
G37*
G36*
X160893354Y-84802835D02*
G01*
X161061876Y-84872639D01*
X161213541Y-84973978D01*
X161342522Y-85102959D01*
X161443861Y-85254624D01*
X161513665Y-85423146D01*
X161549250Y-85602047D01*
X161549250Y-85784453D01*
X161513665Y-85963354D01*
X161443861Y-86131876D01*
X161342522Y-86283541D01*
X161213541Y-86412522D01*
X161061876Y-86513861D01*
X160893354Y-86583665D01*
X160714453Y-86619250D01*
X160532047Y-86619250D01*
X160353146Y-86583665D01*
X160184624Y-86513861D01*
X160032959Y-86412522D01*
X159903978Y-86283541D01*
X159802639Y-86131876D01*
X159732835Y-85963354D01*
X159697250Y-85784453D01*
X159697250Y-85602047D01*
X159732835Y-85423146D01*
X159802639Y-85254624D01*
X159903978Y-85102959D01*
X160032959Y-84973978D01*
X160184624Y-84872639D01*
X160353146Y-84802835D01*
X160532047Y-84767250D01*
X160714453Y-84767250D01*
X160893354Y-84802835D01*
X160893354Y-84802835D01*
G37*
G36*
X141843354Y-84802835D02*
G01*
X142011876Y-84872639D01*
X142163541Y-84973978D01*
X142292522Y-85102959D01*
X142393861Y-85254624D01*
X142463665Y-85423146D01*
X142499250Y-85602047D01*
X142499250Y-85784453D01*
X142463665Y-85963354D01*
X142393861Y-86131876D01*
X142292522Y-86283541D01*
X142163541Y-86412522D01*
X142011876Y-86513861D01*
X141843354Y-86583665D01*
X141664453Y-86619250D01*
X141482047Y-86619250D01*
X141303146Y-86583665D01*
X141134624Y-86513861D01*
X140982959Y-86412522D01*
X140853978Y-86283541D01*
X140752639Y-86131876D01*
X140682835Y-85963354D01*
X140647250Y-85784453D01*
X140647250Y-85602047D01*
X140682835Y-85423146D01*
X140752639Y-85254624D01*
X140853978Y-85102959D01*
X140982959Y-84973978D01*
X141134624Y-84872639D01*
X141303146Y-84802835D01*
X141482047Y-84767250D01*
X141664453Y-84767250D01*
X141843354Y-84802835D01*
X141843354Y-84802835D01*
G37*
G36*
X131683354Y-84802835D02*
G01*
X131851876Y-84872639D01*
X132003541Y-84973978D01*
X132132522Y-85102959D01*
X132233861Y-85254624D01*
X132303665Y-85423146D01*
X132339250Y-85602047D01*
X132339250Y-85784453D01*
X132303665Y-85963354D01*
X132233861Y-86131876D01*
X132132522Y-86283541D01*
X132003541Y-86412522D01*
X131851876Y-86513861D01*
X131683354Y-86583665D01*
X131504453Y-86619250D01*
X131322047Y-86619250D01*
X131143146Y-86583665D01*
X130974624Y-86513861D01*
X130822959Y-86412522D01*
X130693978Y-86283541D01*
X130592639Y-86131876D01*
X130522835Y-85963354D01*
X130487250Y-85784453D01*
X130487250Y-85602047D01*
X130522835Y-85423146D01*
X130592639Y-85254624D01*
X130693978Y-85102959D01*
X130822959Y-84973978D01*
X130974624Y-84872639D01*
X131143146Y-84802835D01*
X131322047Y-84767250D01*
X131504453Y-84767250D01*
X131683354Y-84802835D01*
X131683354Y-84802835D01*
G37*
G36*
X109309478Y-84906703D02*
G01*
X109464350Y-84970853D01*
X109603731Y-85063985D01*
X109722265Y-85182519D01*
X109815397Y-85321900D01*
X109879547Y-85476772D01*
X109912250Y-85641184D01*
X109912250Y-85808816D01*
X109879547Y-85973228D01*
X109815397Y-86128100D01*
X109722265Y-86267481D01*
X109603731Y-86386015D01*
X109464350Y-86479147D01*
X109309478Y-86543297D01*
X109145066Y-86576000D01*
X108977434Y-86576000D01*
X108813022Y-86543297D01*
X108658150Y-86479147D01*
X108518769Y-86386015D01*
X108400235Y-86267481D01*
X108307103Y-86128100D01*
X108242953Y-85973228D01*
X108210250Y-85808816D01*
X108210250Y-85641184D01*
X108242953Y-85476772D01*
X108307103Y-85321900D01*
X108400235Y-85182519D01*
X108518769Y-85063985D01*
X108658150Y-84970853D01*
X108813022Y-84906703D01*
X108977434Y-84874000D01*
X109145066Y-84874000D01*
X109309478Y-84906703D01*
X109309478Y-84906703D01*
G37*
G36*
X124549478Y-84906703D02*
G01*
X124704350Y-84970853D01*
X124843731Y-85063985D01*
X124962265Y-85182519D01*
X125055397Y-85321900D01*
X125119547Y-85476772D01*
X125152250Y-85641184D01*
X125152250Y-85808816D01*
X125119547Y-85973228D01*
X125055397Y-86128100D01*
X124962265Y-86267481D01*
X124843731Y-86386015D01*
X124704350Y-86479147D01*
X124549478Y-86543297D01*
X124385066Y-86576000D01*
X124217434Y-86576000D01*
X124053022Y-86543297D01*
X123898150Y-86479147D01*
X123758769Y-86386015D01*
X123640235Y-86267481D01*
X123547103Y-86128100D01*
X123482953Y-85973228D01*
X123450250Y-85808816D01*
X123450250Y-85641184D01*
X123482953Y-85476772D01*
X123547103Y-85321900D01*
X123640235Y-85182519D01*
X123758769Y-85063985D01*
X123898150Y-84970853D01*
X124053022Y-84906703D01*
X124217434Y-84874000D01*
X124385066Y-84874000D01*
X124549478Y-84906703D01*
X124549478Y-84906703D01*
G37*
G36*
X109309478Y-82366703D02*
G01*
X109464350Y-82430853D01*
X109603731Y-82523985D01*
X109722265Y-82642519D01*
X109815397Y-82781900D01*
X109879547Y-82936772D01*
X109912250Y-83101184D01*
X109912250Y-83268816D01*
X109879547Y-83433228D01*
X109815397Y-83588100D01*
X109722265Y-83727481D01*
X109603731Y-83846015D01*
X109464350Y-83939147D01*
X109309478Y-84003297D01*
X109145066Y-84036000D01*
X108977434Y-84036000D01*
X108813022Y-84003297D01*
X108658150Y-83939147D01*
X108518769Y-83846015D01*
X108400235Y-83727481D01*
X108307103Y-83588100D01*
X108242953Y-83433228D01*
X108210250Y-83268816D01*
X108210250Y-83101184D01*
X108242953Y-82936772D01*
X108307103Y-82781900D01*
X108400235Y-82642519D01*
X108518769Y-82523985D01*
X108658150Y-82430853D01*
X108813022Y-82366703D01*
X108977434Y-82334000D01*
X109145066Y-82334000D01*
X109309478Y-82366703D01*
X109309478Y-82366703D01*
G37*
G36*
X124549478Y-82366703D02*
G01*
X124704350Y-82430853D01*
X124843731Y-82523985D01*
X124962265Y-82642519D01*
X125055397Y-82781900D01*
X125119547Y-82936772D01*
X125152250Y-83101184D01*
X125152250Y-83268816D01*
X125119547Y-83433228D01*
X125055397Y-83588100D01*
X124962265Y-83727481D01*
X124843731Y-83846015D01*
X124704350Y-83939147D01*
X124549478Y-84003297D01*
X124385066Y-84036000D01*
X124217434Y-84036000D01*
X124053022Y-84003297D01*
X123898150Y-83939147D01*
X123758769Y-83846015D01*
X123640235Y-83727481D01*
X123547103Y-83588100D01*
X123482953Y-83433228D01*
X123450250Y-83268816D01*
X123450250Y-83101184D01*
X123482953Y-82936772D01*
X123547103Y-82781900D01*
X123640235Y-82642519D01*
X123758769Y-82523985D01*
X123898150Y-82430853D01*
X124053022Y-82366703D01*
X124217434Y-82334000D01*
X124385066Y-82334000D01*
X124549478Y-82366703D01*
X124549478Y-82366703D01*
G37*
G36*
X163679323Y-81235063D02*
G01*
X163839742Y-81283726D01*
X163972406Y-81354636D01*
X163987578Y-81362746D01*
X164117159Y-81469091D01*
X164223504Y-81598672D01*
X164223505Y-81598674D01*
X164302524Y-81746508D01*
X164351187Y-81906927D01*
X164367617Y-82073750D01*
X164351187Y-82240573D01*
X164302524Y-82400992D01*
X164236783Y-82523985D01*
X164223504Y-82548828D01*
X164117159Y-82678409D01*
X163987578Y-82784754D01*
X163987576Y-82784755D01*
X163839742Y-82863774D01*
X163679323Y-82912437D01*
X163554304Y-82924750D01*
X163470696Y-82924750D01*
X163345677Y-82912437D01*
X163185258Y-82863774D01*
X163037424Y-82784755D01*
X163037422Y-82784754D01*
X162907841Y-82678409D01*
X162801496Y-82548828D01*
X162788217Y-82523985D01*
X162722476Y-82400992D01*
X162673813Y-82240573D01*
X162657383Y-82073750D01*
X162673813Y-81906927D01*
X162722476Y-81746508D01*
X162801495Y-81598674D01*
X162801496Y-81598672D01*
X162907841Y-81469091D01*
X163037422Y-81362746D01*
X163052594Y-81354636D01*
X163185258Y-81283726D01*
X163345677Y-81235063D01*
X163470696Y-81222750D01*
X163554304Y-81222750D01*
X163679323Y-81235063D01*
X163679323Y-81235063D01*
G37*
G36*
X144629323Y-81235063D02*
G01*
X144789742Y-81283726D01*
X144922406Y-81354636D01*
X144937578Y-81362746D01*
X145067159Y-81469091D01*
X145173504Y-81598672D01*
X145173505Y-81598674D01*
X145252524Y-81746508D01*
X145301187Y-81906927D01*
X145317617Y-82073750D01*
X145301187Y-82240573D01*
X145252524Y-82400992D01*
X145186783Y-82523985D01*
X145173504Y-82548828D01*
X145067159Y-82678409D01*
X144937578Y-82784754D01*
X144937576Y-82784755D01*
X144789742Y-82863774D01*
X144629323Y-82912437D01*
X144504304Y-82924750D01*
X144420696Y-82924750D01*
X144295677Y-82912437D01*
X144135258Y-82863774D01*
X143987424Y-82784755D01*
X143987422Y-82784754D01*
X143857841Y-82678409D01*
X143751496Y-82548828D01*
X143738217Y-82523985D01*
X143672476Y-82400992D01*
X143623813Y-82240573D01*
X143607383Y-82073750D01*
X143623813Y-81906927D01*
X143672476Y-81746508D01*
X143751495Y-81598674D01*
X143751496Y-81598672D01*
X143857841Y-81469091D01*
X143987422Y-81362746D01*
X144002594Y-81354636D01*
X144135258Y-81283726D01*
X144295677Y-81235063D01*
X144420696Y-81222750D01*
X144504304Y-81222750D01*
X144629323Y-81235063D01*
X144629323Y-81235063D01*
G37*
G36*
X182729323Y-81235063D02*
G01*
X182889742Y-81283726D01*
X183022406Y-81354636D01*
X183037578Y-81362746D01*
X183167159Y-81469091D01*
X183273504Y-81598672D01*
X183273505Y-81598674D01*
X183352524Y-81746508D01*
X183401187Y-81906927D01*
X183417617Y-82073750D01*
X183401187Y-82240573D01*
X183352524Y-82400992D01*
X183286783Y-82523985D01*
X183273504Y-82548828D01*
X183167159Y-82678409D01*
X183037578Y-82784754D01*
X183037576Y-82784755D01*
X182889742Y-82863774D01*
X182729323Y-82912437D01*
X182604304Y-82924750D01*
X182520696Y-82924750D01*
X182395677Y-82912437D01*
X182235258Y-82863774D01*
X182087424Y-82784755D01*
X182087422Y-82784754D01*
X181957841Y-82678409D01*
X181851496Y-82548828D01*
X181838217Y-82523985D01*
X181772476Y-82400992D01*
X181723813Y-82240573D01*
X181707383Y-82073750D01*
X181723813Y-81906927D01*
X181772476Y-81746508D01*
X181851495Y-81598674D01*
X181851496Y-81598672D01*
X181957841Y-81469091D01*
X182087422Y-81362746D01*
X182102594Y-81354636D01*
X182235258Y-81283726D01*
X182395677Y-81235063D01*
X182520696Y-81222750D01*
X182604304Y-81222750D01*
X182729323Y-81235063D01*
X182729323Y-81235063D01*
G37*
G36*
X201779323Y-81235063D02*
G01*
X201939742Y-81283726D01*
X202072406Y-81354636D01*
X202087578Y-81362746D01*
X202217159Y-81469091D01*
X202323504Y-81598672D01*
X202323505Y-81598674D01*
X202402524Y-81746508D01*
X202451187Y-81906927D01*
X202467617Y-82073750D01*
X202451187Y-82240573D01*
X202402524Y-82400992D01*
X202336783Y-82523985D01*
X202323504Y-82548828D01*
X202217159Y-82678409D01*
X202087578Y-82784754D01*
X202087576Y-82784755D01*
X201939742Y-82863774D01*
X201779323Y-82912437D01*
X201654304Y-82924750D01*
X201570696Y-82924750D01*
X201445677Y-82912437D01*
X201285258Y-82863774D01*
X201137424Y-82784755D01*
X201137422Y-82784754D01*
X201007841Y-82678409D01*
X200901496Y-82548828D01*
X200888217Y-82523985D01*
X200822476Y-82400992D01*
X200773813Y-82240573D01*
X200757383Y-82073750D01*
X200773813Y-81906927D01*
X200822476Y-81746508D01*
X200901495Y-81598674D01*
X200901496Y-81598672D01*
X201007841Y-81469091D01*
X201137422Y-81362746D01*
X201152594Y-81354636D01*
X201285258Y-81283726D01*
X201445677Y-81235063D01*
X201570696Y-81222750D01*
X201654304Y-81222750D01*
X201779323Y-81235063D01*
X201779323Y-81235063D01*
G37*
G36*
X124549478Y-79826703D02*
G01*
X124704350Y-79890853D01*
X124843731Y-79983985D01*
X124962265Y-80102519D01*
X125055397Y-80241900D01*
X125119547Y-80396772D01*
X125152250Y-80561184D01*
X125152250Y-80728816D01*
X125119547Y-80893228D01*
X125055397Y-81048100D01*
X124962265Y-81187481D01*
X124843731Y-81306015D01*
X124704350Y-81399147D01*
X124549478Y-81463297D01*
X124385066Y-81496000D01*
X124217434Y-81496000D01*
X124053022Y-81463297D01*
X123898150Y-81399147D01*
X123758769Y-81306015D01*
X123640235Y-81187481D01*
X123547103Y-81048100D01*
X123482953Y-80893228D01*
X123450250Y-80728816D01*
X123450250Y-80561184D01*
X123482953Y-80396772D01*
X123547103Y-80241900D01*
X123640235Y-80102519D01*
X123758769Y-79983985D01*
X123898150Y-79890853D01*
X124053022Y-79826703D01*
X124217434Y-79794000D01*
X124385066Y-79794000D01*
X124549478Y-79826703D01*
X124549478Y-79826703D01*
G37*
G36*
X109309478Y-79826703D02*
G01*
X109464350Y-79890853D01*
X109603731Y-79983985D01*
X109722265Y-80102519D01*
X109815397Y-80241900D01*
X109879547Y-80396772D01*
X109912250Y-80561184D01*
X109912250Y-80728816D01*
X109879547Y-80893228D01*
X109815397Y-81048100D01*
X109722265Y-81187481D01*
X109603731Y-81306015D01*
X109464350Y-81399147D01*
X109309478Y-81463297D01*
X109145066Y-81496000D01*
X108977434Y-81496000D01*
X108813022Y-81463297D01*
X108658150Y-81399147D01*
X108518769Y-81306015D01*
X108400235Y-81187481D01*
X108307103Y-81048100D01*
X108242953Y-80893228D01*
X108210250Y-80728816D01*
X108210250Y-80561184D01*
X108242953Y-80396772D01*
X108307103Y-80241900D01*
X108400235Y-80102519D01*
X108518769Y-79983985D01*
X108658150Y-79890853D01*
X108813022Y-79826703D01*
X108977434Y-79794000D01*
X109145066Y-79794000D01*
X109309478Y-79826703D01*
X109309478Y-79826703D01*
G37*
G36*
X124549478Y-77286703D02*
G01*
X124704350Y-77350853D01*
X124843731Y-77443985D01*
X124962265Y-77562519D01*
X125055397Y-77701900D01*
X125119547Y-77856772D01*
X125152250Y-78021184D01*
X125152250Y-78188816D01*
X125119547Y-78353228D01*
X125055397Y-78508100D01*
X124962265Y-78647481D01*
X124843731Y-78766015D01*
X124704350Y-78859147D01*
X124549478Y-78923297D01*
X124385066Y-78956000D01*
X124217434Y-78956000D01*
X124053022Y-78923297D01*
X123898150Y-78859147D01*
X123758769Y-78766015D01*
X123640235Y-78647481D01*
X123547103Y-78508100D01*
X123482953Y-78353228D01*
X123450250Y-78188816D01*
X123450250Y-78021184D01*
X123482953Y-77856772D01*
X123547103Y-77701900D01*
X123640235Y-77562519D01*
X123758769Y-77443985D01*
X123898150Y-77350853D01*
X124053022Y-77286703D01*
X124217434Y-77254000D01*
X124385066Y-77254000D01*
X124549478Y-77286703D01*
X124549478Y-77286703D01*
G37*
G36*
X109912250Y-78956000D02*
G01*
X108210250Y-78956000D01*
X108210250Y-77254000D01*
X109912250Y-77254000D01*
X109912250Y-78956000D01*
X109912250Y-78956000D01*
G37*
M02*
