G04 #@! TF.GenerationSoftware,KiCad,Pcbnew,(5.1.4)-1*
G04 #@! TF.CreationDate,2021-04-02T02:45:42+02:00*
G04 #@! TF.ProjectId,pcb-test,7063622d-7465-4737-942e-6b696361645f,rev?*
G04 #@! TF.SameCoordinates,Original*
G04 #@! TF.FileFunction,Copper,L1,Top*
G04 #@! TF.FilePolarity,Positive*
%FSLAX46Y46*%
G04 Gerber Fmt 4.6, Leading zero omitted, Abs format (unit mm)*
G04 Created by KiCad (PCBNEW (5.1.4)-1) date 2021-04-02 02:45:42*
%MOMM*%
%LPD*%
G04 APERTURE LIST*
%ADD10R,1.905000X1.905000*%
%ADD11C,1.905000*%
%ADD12C,2.250000*%
%ADD13C,1.600000*%
%ADD14R,1.600000X1.600000*%
%ADD15O,1.600000X1.600000*%
%ADD16C,0.250000*%
G04 APERTURE END LIST*
D10*
X194945000Y-90805000D03*
D11*
X192405000Y-90805000D03*
D12*
X189865000Y-83185000D03*
X196215000Y-80645000D03*
D10*
X194945000Y-147955000D03*
D11*
X192405000Y-147955000D03*
D12*
X189865000Y-140335000D03*
X196215000Y-137795000D03*
D10*
X137763250Y-90773250D03*
D11*
X135223250Y-90773250D03*
D12*
X132683250Y-83153250D03*
X139033250Y-80613250D03*
D10*
X194945000Y-109855000D03*
D11*
X192405000Y-109855000D03*
D12*
X189865000Y-102235000D03*
X196215000Y-99695000D03*
D13*
X124301250Y-78105000D03*
X124301250Y-80645000D03*
X124301250Y-83185000D03*
X124301250Y-85725000D03*
X124301250Y-88265000D03*
X124301250Y-90805000D03*
X124301250Y-93345000D03*
X124301250Y-95885000D03*
X124301250Y-98425000D03*
X124301250Y-100965000D03*
X124301250Y-103505000D03*
X124301250Y-106045000D03*
X109061250Y-106045000D03*
X109061250Y-103505000D03*
X109061250Y-100965000D03*
X109061250Y-98425000D03*
X109061250Y-95885000D03*
X109061250Y-93345000D03*
X109061250Y-90805000D03*
X109061250Y-88265000D03*
X109061250Y-85725000D03*
X109061250Y-83185000D03*
X109061250Y-80645000D03*
D14*
X109061250Y-78105000D03*
D10*
X194945000Y-128905000D03*
D11*
X192405000Y-128905000D03*
D12*
X189865000Y-121285000D03*
X196215000Y-118745000D03*
D10*
X175895000Y-147955000D03*
D11*
X173355000Y-147955000D03*
D12*
X170815000Y-140335000D03*
X177165000Y-137795000D03*
D10*
X175895000Y-128905000D03*
D11*
X173355000Y-128905000D03*
D12*
X170815000Y-121285000D03*
X177165000Y-118745000D03*
D10*
X175895000Y-109855000D03*
D11*
X173355000Y-109855000D03*
D12*
X170815000Y-102235000D03*
X177165000Y-99695000D03*
D10*
X175895000Y-90805000D03*
D11*
X173355000Y-90805000D03*
D12*
X170815000Y-83185000D03*
X177165000Y-80645000D03*
D10*
X156813250Y-147923250D03*
D11*
X154273250Y-147923250D03*
D12*
X151733250Y-140303250D03*
X158083250Y-137763250D03*
D10*
X156813250Y-128873250D03*
D11*
X154273250Y-128873250D03*
D12*
X151733250Y-121253250D03*
X158083250Y-118713250D03*
D10*
X156813250Y-109823250D03*
D11*
X154273250Y-109823250D03*
D12*
X151733250Y-102203250D03*
X158083250Y-99663250D03*
D10*
X156813250Y-90773250D03*
D11*
X154273250Y-90773250D03*
D12*
X151733250Y-83153250D03*
X158083250Y-80613250D03*
D10*
X137763250Y-147923250D03*
D11*
X135223250Y-147923250D03*
D12*
X132683250Y-140303250D03*
X139033250Y-137763250D03*
D10*
X137763250Y-128873250D03*
D11*
X135223250Y-128873250D03*
D12*
X132683250Y-121253250D03*
X139033250Y-118713250D03*
D10*
X137763250Y-109823250D03*
D11*
X135223250Y-109823250D03*
D12*
X132683250Y-102203250D03*
X139033250Y-99663250D03*
D15*
X201612500Y-139223750D03*
D14*
X201612500Y-146843750D03*
D15*
X201612500Y-120173750D03*
D14*
X201612500Y-127793750D03*
D15*
X201612500Y-101123750D03*
D14*
X201612500Y-108743750D03*
D15*
X201612500Y-82073750D03*
D14*
X201612500Y-89693750D03*
D15*
X182562500Y-139223750D03*
D14*
X182562500Y-146843750D03*
D15*
X182562500Y-120173750D03*
D14*
X182562500Y-127793750D03*
D15*
X182562500Y-101123750D03*
D14*
X182562500Y-108743750D03*
D15*
X182562500Y-82073750D03*
D14*
X182562500Y-89693750D03*
D15*
X163512500Y-139223750D03*
D14*
X163512500Y-146843750D03*
D15*
X163512500Y-120173750D03*
D14*
X163512500Y-127793750D03*
D15*
X163512500Y-101123750D03*
D14*
X163512500Y-108743750D03*
D15*
X163512500Y-82073750D03*
D14*
X163512500Y-89693750D03*
D15*
X144462500Y-139223750D03*
D14*
X144462500Y-146843750D03*
D15*
X144462500Y-120173750D03*
D14*
X144462500Y-127793750D03*
D15*
X144462500Y-101123750D03*
D14*
X144462500Y-108743750D03*
D15*
X144462500Y-82073750D03*
D14*
X144462500Y-89693750D03*
D16*
X132683250Y-83153250D02*
X132683250Y-102203250D01*
X132683250Y-102203250D02*
X132683250Y-121253250D01*
X132683250Y-122844240D02*
X132683250Y-140303250D01*
X132683250Y-121253250D02*
X132683250Y-122844240D01*
X129413000Y-83153250D02*
X124301250Y-88265000D01*
X132683250Y-83153250D02*
X129413000Y-83153250D01*
X151733250Y-84744240D02*
X151733250Y-102203250D01*
X151733250Y-83153250D02*
X151733250Y-84744240D01*
X151733250Y-102203250D02*
X151733250Y-121253250D01*
X151733250Y-121253250D02*
X151733250Y-140303250D01*
X123501251Y-90005001D02*
X124301250Y-90805000D01*
X123176249Y-89679999D02*
X123501251Y-90005001D01*
X123176249Y-85184999D02*
X123176249Y-89679999D01*
X123761249Y-84599999D02*
X123176249Y-85184999D01*
X124551253Y-84599999D02*
X123761249Y-84599999D01*
X129988003Y-79163249D02*
X124551253Y-84599999D01*
X147743249Y-79163249D02*
X129988003Y-79163249D01*
X151733250Y-83153250D02*
X147743249Y-79163249D01*
X170815000Y-86231002D02*
X170815000Y-102235000D01*
X170815000Y-83185000D02*
X170815000Y-86231002D01*
X170815000Y-102235000D02*
X170815000Y-121285000D01*
X170815000Y-121285000D02*
X170815000Y-140335000D01*
X123501251Y-92545001D02*
X124301250Y-93345000D01*
X122726240Y-91769990D02*
X123501251Y-92545001D01*
X122726240Y-83095008D02*
X122726240Y-91769990D01*
X124051247Y-81770001D02*
X122726240Y-83095008D01*
X124841251Y-81770001D02*
X124051247Y-81770001D01*
X127898012Y-78713240D02*
X124841251Y-81770001D01*
X166343240Y-78713240D02*
X127898012Y-78713240D01*
X170815000Y-83185000D02*
X166343240Y-78713240D01*
X189865000Y-83185000D02*
X189865000Y-102235000D01*
X189865000Y-102235000D02*
X189865000Y-121285000D01*
X189865000Y-121285000D02*
X189865000Y-140335000D01*
X123501251Y-95085001D02*
X124301250Y-95885000D01*
X122276231Y-93859981D02*
X123501251Y-95085001D01*
X122276231Y-81005017D02*
X122276231Y-93859981D01*
X123906248Y-79375000D02*
X122276231Y-81005017D01*
X126599842Y-79375000D02*
X123906248Y-79375000D01*
X127711611Y-78263231D02*
X126599842Y-79375000D01*
X184943230Y-78263230D02*
X127711611Y-78263231D01*
X189865000Y-83185000D02*
X184943230Y-78263230D01*
M02*
