G04 #@! TF.GenerationSoftware,KiCad,Pcbnew,(5.1.4)-1*
G04 #@! TF.CreationDate,2021-04-02T14:20:44+02:00*
G04 #@! TF.ProjectId,pcb-test,7063622d-7465-4737-942e-6b696361645f,rev?*
G04 #@! TF.SameCoordinates,Original*
G04 #@! TF.FileFunction,Legend,Top*
G04 #@! TF.FilePolarity,Positive*
%FSLAX46Y46*%
G04 Gerber Fmt 4.6, Leading zero omitted, Abs format (unit mm)*
G04 Created by KiCad (PCBNEW (5.1.4)-1) date 2021-04-02 14:20:44*
%MOMM*%
%LPD*%
G04 APERTURE LIST*
%ADD10C,0.150000*%
%ADD11C,0.120000*%
%ADD12C,1.852000*%
%ADD13C,4.089800*%
%ADD14C,1.702000*%
%ADD15R,1.702000X1.702000*%
%ADD16O,1.702000X1.702000*%
G04 APERTURE END LIST*
D10*
X125571250Y-107315000D02*
X107791250Y-107315000D01*
X125571250Y-76835000D02*
X125571250Y-107315000D01*
X120491250Y-76835000D02*
X125571250Y-76835000D01*
X120491250Y-74295000D02*
X120491250Y-76835000D01*
X112871250Y-74295000D02*
X120491250Y-74295000D01*
X112871250Y-76835000D02*
X112871250Y-74295000D01*
X107791250Y-76835000D02*
X112871250Y-76835000D01*
X107791250Y-76835000D02*
X107791250Y-107315000D01*
D11*
X202080000Y-144553750D02*
X204320000Y-144553750D01*
X202080000Y-144313750D02*
X204320000Y-144313750D01*
X202080000Y-144433750D02*
X204320000Y-144433750D01*
X203200000Y-140263750D02*
X203200000Y-140913750D01*
X203200000Y-145803750D02*
X203200000Y-145153750D01*
X202080000Y-140913750D02*
X202080000Y-145153750D01*
X204320000Y-140913750D02*
X202080000Y-140913750D01*
X204320000Y-145153750D02*
X204320000Y-140913750D01*
X202080000Y-145153750D02*
X204320000Y-145153750D01*
X202080000Y-125503750D02*
X204320000Y-125503750D01*
X202080000Y-125263750D02*
X204320000Y-125263750D01*
X202080000Y-125383750D02*
X204320000Y-125383750D01*
X203200000Y-121213750D02*
X203200000Y-121863750D01*
X203200000Y-126753750D02*
X203200000Y-126103750D01*
X202080000Y-121863750D02*
X202080000Y-126103750D01*
X204320000Y-121863750D02*
X202080000Y-121863750D01*
X204320000Y-126103750D02*
X204320000Y-121863750D01*
X202080000Y-126103750D02*
X204320000Y-126103750D01*
X202080000Y-106453750D02*
X204320000Y-106453750D01*
X202080000Y-106213750D02*
X204320000Y-106213750D01*
X202080000Y-106333750D02*
X204320000Y-106333750D01*
X203200000Y-102163750D02*
X203200000Y-102813750D01*
X203200000Y-107703750D02*
X203200000Y-107053750D01*
X202080000Y-102813750D02*
X202080000Y-107053750D01*
X204320000Y-102813750D02*
X202080000Y-102813750D01*
X204320000Y-107053750D02*
X204320000Y-102813750D01*
X202080000Y-107053750D02*
X204320000Y-107053750D01*
X202080000Y-87403750D02*
X204320000Y-87403750D01*
X202080000Y-87163750D02*
X204320000Y-87163750D01*
X202080000Y-87283750D02*
X204320000Y-87283750D01*
X203200000Y-83113750D02*
X203200000Y-83763750D01*
X203200000Y-88653750D02*
X203200000Y-88003750D01*
X202080000Y-83763750D02*
X202080000Y-88003750D01*
X204320000Y-83763750D02*
X202080000Y-83763750D01*
X204320000Y-88003750D02*
X204320000Y-83763750D01*
X202080000Y-88003750D02*
X204320000Y-88003750D01*
X183030000Y-144553750D02*
X185270000Y-144553750D01*
X183030000Y-144313750D02*
X185270000Y-144313750D01*
X183030000Y-144433750D02*
X185270000Y-144433750D01*
X184150000Y-140263750D02*
X184150000Y-140913750D01*
X184150000Y-145803750D02*
X184150000Y-145153750D01*
X183030000Y-140913750D02*
X183030000Y-145153750D01*
X185270000Y-140913750D02*
X183030000Y-140913750D01*
X185270000Y-145153750D02*
X185270000Y-140913750D01*
X183030000Y-145153750D02*
X185270000Y-145153750D01*
X183030000Y-125503750D02*
X185270000Y-125503750D01*
X183030000Y-125263750D02*
X185270000Y-125263750D01*
X183030000Y-125383750D02*
X185270000Y-125383750D01*
X184150000Y-121213750D02*
X184150000Y-121863750D01*
X184150000Y-126753750D02*
X184150000Y-126103750D01*
X183030000Y-121863750D02*
X183030000Y-126103750D01*
X185270000Y-121863750D02*
X183030000Y-121863750D01*
X185270000Y-126103750D02*
X185270000Y-121863750D01*
X183030000Y-126103750D02*
X185270000Y-126103750D01*
X183030000Y-106453750D02*
X185270000Y-106453750D01*
X183030000Y-106213750D02*
X185270000Y-106213750D01*
X183030000Y-106333750D02*
X185270000Y-106333750D01*
X184150000Y-102163750D02*
X184150000Y-102813750D01*
X184150000Y-107703750D02*
X184150000Y-107053750D01*
X183030000Y-102813750D02*
X183030000Y-107053750D01*
X185270000Y-102813750D02*
X183030000Y-102813750D01*
X185270000Y-107053750D02*
X185270000Y-102813750D01*
X183030000Y-107053750D02*
X185270000Y-107053750D01*
X183030000Y-87403750D02*
X185270000Y-87403750D01*
X183030000Y-87163750D02*
X185270000Y-87163750D01*
X183030000Y-87283750D02*
X185270000Y-87283750D01*
X184150000Y-83113750D02*
X184150000Y-83763750D01*
X184150000Y-88653750D02*
X184150000Y-88003750D01*
X183030000Y-83763750D02*
X183030000Y-88003750D01*
X185270000Y-83763750D02*
X183030000Y-83763750D01*
X185270000Y-88003750D02*
X185270000Y-83763750D01*
X183030000Y-88003750D02*
X185270000Y-88003750D01*
X163980000Y-144553750D02*
X166220000Y-144553750D01*
X163980000Y-144313750D02*
X166220000Y-144313750D01*
X163980000Y-144433750D02*
X166220000Y-144433750D01*
X165100000Y-140263750D02*
X165100000Y-140913750D01*
X165100000Y-145803750D02*
X165100000Y-145153750D01*
X163980000Y-140913750D02*
X163980000Y-145153750D01*
X166220000Y-140913750D02*
X163980000Y-140913750D01*
X166220000Y-145153750D02*
X166220000Y-140913750D01*
X163980000Y-145153750D02*
X166220000Y-145153750D01*
X163980000Y-125503750D02*
X166220000Y-125503750D01*
X163980000Y-125263750D02*
X166220000Y-125263750D01*
X163980000Y-125383750D02*
X166220000Y-125383750D01*
X165100000Y-121213750D02*
X165100000Y-121863750D01*
X165100000Y-126753750D02*
X165100000Y-126103750D01*
X163980000Y-121863750D02*
X163980000Y-126103750D01*
X166220000Y-121863750D02*
X163980000Y-121863750D01*
X166220000Y-126103750D02*
X166220000Y-121863750D01*
X163980000Y-126103750D02*
X166220000Y-126103750D01*
X163980000Y-106453750D02*
X166220000Y-106453750D01*
X163980000Y-106213750D02*
X166220000Y-106213750D01*
X163980000Y-106333750D02*
X166220000Y-106333750D01*
X165100000Y-102163750D02*
X165100000Y-102813750D01*
X165100000Y-107703750D02*
X165100000Y-107053750D01*
X163980000Y-102813750D02*
X163980000Y-107053750D01*
X166220000Y-102813750D02*
X163980000Y-102813750D01*
X166220000Y-107053750D02*
X166220000Y-102813750D01*
X163980000Y-107053750D02*
X166220000Y-107053750D01*
X163980000Y-87403750D02*
X166220000Y-87403750D01*
X163980000Y-87163750D02*
X166220000Y-87163750D01*
X163980000Y-87283750D02*
X166220000Y-87283750D01*
X165100000Y-83113750D02*
X165100000Y-83763750D01*
X165100000Y-88653750D02*
X165100000Y-88003750D01*
X163980000Y-83763750D02*
X163980000Y-88003750D01*
X166220000Y-83763750D02*
X163980000Y-83763750D01*
X166220000Y-88003750D02*
X166220000Y-83763750D01*
X163980000Y-88003750D02*
X166220000Y-88003750D01*
X144930000Y-144553750D02*
X147170000Y-144553750D01*
X144930000Y-144313750D02*
X147170000Y-144313750D01*
X144930000Y-144433750D02*
X147170000Y-144433750D01*
X146050000Y-140263750D02*
X146050000Y-140913750D01*
X146050000Y-145803750D02*
X146050000Y-145153750D01*
X144930000Y-140913750D02*
X144930000Y-145153750D01*
X147170000Y-140913750D02*
X144930000Y-140913750D01*
X147170000Y-145153750D02*
X147170000Y-140913750D01*
X144930000Y-145153750D02*
X147170000Y-145153750D01*
X144930000Y-125503750D02*
X147170000Y-125503750D01*
X144930000Y-125263750D02*
X147170000Y-125263750D01*
X144930000Y-125383750D02*
X147170000Y-125383750D01*
X146050000Y-121213750D02*
X146050000Y-121863750D01*
X146050000Y-126753750D02*
X146050000Y-126103750D01*
X144930000Y-121863750D02*
X144930000Y-126103750D01*
X147170000Y-121863750D02*
X144930000Y-121863750D01*
X147170000Y-126103750D02*
X147170000Y-121863750D01*
X144930000Y-126103750D02*
X147170000Y-126103750D01*
X144930000Y-106453750D02*
X147170000Y-106453750D01*
X144930000Y-106213750D02*
X147170000Y-106213750D01*
X144930000Y-106333750D02*
X147170000Y-106333750D01*
X146050000Y-102163750D02*
X146050000Y-102813750D01*
X146050000Y-107703750D02*
X146050000Y-107053750D01*
X144930000Y-102813750D02*
X144930000Y-107053750D01*
X147170000Y-102813750D02*
X144930000Y-102813750D01*
X147170000Y-107053750D02*
X147170000Y-102813750D01*
X144930000Y-107053750D02*
X147170000Y-107053750D01*
X144930000Y-87403750D02*
X147170000Y-87403750D01*
X144930000Y-87163750D02*
X147170000Y-87163750D01*
X144930000Y-87283750D02*
X147170000Y-87283750D01*
X146050000Y-83113750D02*
X146050000Y-83763750D01*
X146050000Y-88653750D02*
X146050000Y-88003750D01*
X144930000Y-83763750D02*
X144930000Y-88003750D01*
X147170000Y-83763750D02*
X144930000Y-83763750D01*
X147170000Y-88003750D02*
X147170000Y-83763750D01*
X144930000Y-88003750D02*
X147170000Y-88003750D01*
D10*
X201532380Y-144248035D02*
X200532380Y-144248035D01*
X200532380Y-144009940D01*
X200580000Y-143867083D01*
X200675238Y-143771845D01*
X200770476Y-143724226D01*
X200960952Y-143676607D01*
X201103809Y-143676607D01*
X201294285Y-143724226D01*
X201389523Y-143771845D01*
X201484761Y-143867083D01*
X201532380Y-144009940D01*
X201532380Y-144248035D01*
X201532380Y-142724226D02*
X201532380Y-143295654D01*
X201532380Y-143009940D02*
X200532380Y-143009940D01*
X200675238Y-143105178D01*
X200770476Y-143200416D01*
X200818095Y-143295654D01*
X200532380Y-141867083D02*
X200532380Y-142057559D01*
X200580000Y-142152797D01*
X200627619Y-142200416D01*
X200770476Y-142295654D01*
X200960952Y-142343273D01*
X201341904Y-142343273D01*
X201437142Y-142295654D01*
X201484761Y-142248035D01*
X201532380Y-142152797D01*
X201532380Y-141962321D01*
X201484761Y-141867083D01*
X201437142Y-141819464D01*
X201341904Y-141771845D01*
X201103809Y-141771845D01*
X201008571Y-141819464D01*
X200960952Y-141867083D01*
X200913333Y-141962321D01*
X200913333Y-142152797D01*
X200960952Y-142248035D01*
X201008571Y-142295654D01*
X201103809Y-142343273D01*
X201852380Y-147105654D02*
X200852380Y-147105654D01*
X201852380Y-146534226D02*
X201280952Y-146962797D01*
X200852380Y-146534226D02*
X201423809Y-147105654D01*
X201532380Y-125198035D02*
X200532380Y-125198035D01*
X200532380Y-124959940D01*
X200580000Y-124817083D01*
X200675238Y-124721845D01*
X200770476Y-124674226D01*
X200960952Y-124626607D01*
X201103809Y-124626607D01*
X201294285Y-124674226D01*
X201389523Y-124721845D01*
X201484761Y-124817083D01*
X201532380Y-124959940D01*
X201532380Y-125198035D01*
X201532380Y-123674226D02*
X201532380Y-124245654D01*
X201532380Y-123959940D02*
X200532380Y-123959940D01*
X200675238Y-124055178D01*
X200770476Y-124150416D01*
X200818095Y-124245654D01*
X200532380Y-122769464D02*
X200532380Y-123245654D01*
X201008571Y-123293273D01*
X200960952Y-123245654D01*
X200913333Y-123150416D01*
X200913333Y-122912321D01*
X200960952Y-122817083D01*
X201008571Y-122769464D01*
X201103809Y-122721845D01*
X201341904Y-122721845D01*
X201437142Y-122769464D01*
X201484761Y-122817083D01*
X201532380Y-122912321D01*
X201532380Y-123150416D01*
X201484761Y-123245654D01*
X201437142Y-123293273D01*
X201852380Y-128055654D02*
X200852380Y-128055654D01*
X201852380Y-127484226D02*
X201280952Y-127912797D01*
X200852380Y-127484226D02*
X201423809Y-128055654D01*
X201532380Y-106148035D02*
X200532380Y-106148035D01*
X200532380Y-105909940D01*
X200580000Y-105767083D01*
X200675238Y-105671845D01*
X200770476Y-105624226D01*
X200960952Y-105576607D01*
X201103809Y-105576607D01*
X201294285Y-105624226D01*
X201389523Y-105671845D01*
X201484761Y-105767083D01*
X201532380Y-105909940D01*
X201532380Y-106148035D01*
X201532380Y-104624226D02*
X201532380Y-105195654D01*
X201532380Y-104909940D02*
X200532380Y-104909940D01*
X200675238Y-105005178D01*
X200770476Y-105100416D01*
X200818095Y-105195654D01*
X200865714Y-103767083D02*
X201532380Y-103767083D01*
X200484761Y-104005178D02*
X201199047Y-104243273D01*
X201199047Y-103624226D01*
X201852380Y-109005654D02*
X200852380Y-109005654D01*
X201852380Y-108434226D02*
X201280952Y-108862797D01*
X200852380Y-108434226D02*
X201423809Y-109005654D01*
X201532380Y-87098035D02*
X200532380Y-87098035D01*
X200532380Y-86859940D01*
X200580000Y-86717083D01*
X200675238Y-86621845D01*
X200770476Y-86574226D01*
X200960952Y-86526607D01*
X201103809Y-86526607D01*
X201294285Y-86574226D01*
X201389523Y-86621845D01*
X201484761Y-86717083D01*
X201532380Y-86859940D01*
X201532380Y-87098035D01*
X201532380Y-85574226D02*
X201532380Y-86145654D01*
X201532380Y-85859940D02*
X200532380Y-85859940D01*
X200675238Y-85955178D01*
X200770476Y-86050416D01*
X200818095Y-86145654D01*
X200532380Y-85240892D02*
X200532380Y-84621845D01*
X200913333Y-84955178D01*
X200913333Y-84812321D01*
X200960952Y-84717083D01*
X201008571Y-84669464D01*
X201103809Y-84621845D01*
X201341904Y-84621845D01*
X201437142Y-84669464D01*
X201484761Y-84717083D01*
X201532380Y-84812321D01*
X201532380Y-85098035D01*
X201484761Y-85193273D01*
X201437142Y-85240892D01*
X201852380Y-89955654D02*
X200852380Y-89955654D01*
X201852380Y-89384226D02*
X201280952Y-89812797D01*
X200852380Y-89384226D02*
X201423809Y-89955654D01*
X182482380Y-144248035D02*
X181482380Y-144248035D01*
X181482380Y-144009940D01*
X181530000Y-143867083D01*
X181625238Y-143771845D01*
X181720476Y-143724226D01*
X181910952Y-143676607D01*
X182053809Y-143676607D01*
X182244285Y-143724226D01*
X182339523Y-143771845D01*
X182434761Y-143867083D01*
X182482380Y-144009940D01*
X182482380Y-144248035D01*
X182482380Y-142724226D02*
X182482380Y-143295654D01*
X182482380Y-143009940D02*
X181482380Y-143009940D01*
X181625238Y-143105178D01*
X181720476Y-143200416D01*
X181768095Y-143295654D01*
X181577619Y-142343273D02*
X181530000Y-142295654D01*
X181482380Y-142200416D01*
X181482380Y-141962321D01*
X181530000Y-141867083D01*
X181577619Y-141819464D01*
X181672857Y-141771845D01*
X181768095Y-141771845D01*
X181910952Y-141819464D01*
X182482380Y-142390892D01*
X182482380Y-141771845D01*
X182802380Y-147105654D02*
X181802380Y-147105654D01*
X182802380Y-146534226D02*
X182230952Y-146962797D01*
X181802380Y-146534226D02*
X182373809Y-147105654D01*
X182482380Y-125198035D02*
X181482380Y-125198035D01*
X181482380Y-124959940D01*
X181530000Y-124817083D01*
X181625238Y-124721845D01*
X181720476Y-124674226D01*
X181910952Y-124626607D01*
X182053809Y-124626607D01*
X182244285Y-124674226D01*
X182339523Y-124721845D01*
X182434761Y-124817083D01*
X182482380Y-124959940D01*
X182482380Y-125198035D01*
X182482380Y-123674226D02*
X182482380Y-124245654D01*
X182482380Y-123959940D02*
X181482380Y-123959940D01*
X181625238Y-124055178D01*
X181720476Y-124150416D01*
X181768095Y-124245654D01*
X182482380Y-122721845D02*
X182482380Y-123293273D01*
X182482380Y-123007559D02*
X181482380Y-123007559D01*
X181625238Y-123102797D01*
X181720476Y-123198035D01*
X181768095Y-123293273D01*
X182802380Y-128055654D02*
X181802380Y-128055654D01*
X182802380Y-127484226D02*
X182230952Y-127912797D01*
X181802380Y-127484226D02*
X182373809Y-128055654D01*
X182482380Y-106148035D02*
X181482380Y-106148035D01*
X181482380Y-105909940D01*
X181530000Y-105767083D01*
X181625238Y-105671845D01*
X181720476Y-105624226D01*
X181910952Y-105576607D01*
X182053809Y-105576607D01*
X182244285Y-105624226D01*
X182339523Y-105671845D01*
X182434761Y-105767083D01*
X182482380Y-105909940D01*
X182482380Y-106148035D01*
X182482380Y-104624226D02*
X182482380Y-105195654D01*
X182482380Y-104909940D02*
X181482380Y-104909940D01*
X181625238Y-105005178D01*
X181720476Y-105100416D01*
X181768095Y-105195654D01*
X181482380Y-104005178D02*
X181482380Y-103909940D01*
X181530000Y-103814702D01*
X181577619Y-103767083D01*
X181672857Y-103719464D01*
X181863333Y-103671845D01*
X182101428Y-103671845D01*
X182291904Y-103719464D01*
X182387142Y-103767083D01*
X182434761Y-103814702D01*
X182482380Y-103909940D01*
X182482380Y-104005178D01*
X182434761Y-104100416D01*
X182387142Y-104148035D01*
X182291904Y-104195654D01*
X182101428Y-104243273D01*
X181863333Y-104243273D01*
X181672857Y-104195654D01*
X181577619Y-104148035D01*
X181530000Y-104100416D01*
X181482380Y-104005178D01*
X182802380Y-109005654D02*
X181802380Y-109005654D01*
X182802380Y-108434226D02*
X182230952Y-108862797D01*
X181802380Y-108434226D02*
X182373809Y-109005654D01*
X182482380Y-86621845D02*
X181482380Y-86621845D01*
X181482380Y-86383750D01*
X181530000Y-86240892D01*
X181625238Y-86145654D01*
X181720476Y-86098035D01*
X181910952Y-86050416D01*
X182053809Y-86050416D01*
X182244285Y-86098035D01*
X182339523Y-86145654D01*
X182434761Y-86240892D01*
X182482380Y-86383750D01*
X182482380Y-86621845D01*
X182482380Y-85574226D02*
X182482380Y-85383750D01*
X182434761Y-85288511D01*
X182387142Y-85240892D01*
X182244285Y-85145654D01*
X182053809Y-85098035D01*
X181672857Y-85098035D01*
X181577619Y-85145654D01*
X181530000Y-85193273D01*
X181482380Y-85288511D01*
X181482380Y-85478988D01*
X181530000Y-85574226D01*
X181577619Y-85621845D01*
X181672857Y-85669464D01*
X181910952Y-85669464D01*
X182006190Y-85621845D01*
X182053809Y-85574226D01*
X182101428Y-85478988D01*
X182101428Y-85288511D01*
X182053809Y-85193273D01*
X182006190Y-85145654D01*
X181910952Y-85098035D01*
X182802380Y-89955654D02*
X181802380Y-89955654D01*
X182802380Y-89384226D02*
X182230952Y-89812797D01*
X181802380Y-89384226D02*
X182373809Y-89955654D01*
X163432380Y-143771845D02*
X162432380Y-143771845D01*
X162432380Y-143533750D01*
X162480000Y-143390892D01*
X162575238Y-143295654D01*
X162670476Y-143248035D01*
X162860952Y-143200416D01*
X163003809Y-143200416D01*
X163194285Y-143248035D01*
X163289523Y-143295654D01*
X163384761Y-143390892D01*
X163432380Y-143533750D01*
X163432380Y-143771845D01*
X162860952Y-142628988D02*
X162813333Y-142724226D01*
X162765714Y-142771845D01*
X162670476Y-142819464D01*
X162622857Y-142819464D01*
X162527619Y-142771845D01*
X162480000Y-142724226D01*
X162432380Y-142628988D01*
X162432380Y-142438511D01*
X162480000Y-142343273D01*
X162527619Y-142295654D01*
X162622857Y-142248035D01*
X162670476Y-142248035D01*
X162765714Y-142295654D01*
X162813333Y-142343273D01*
X162860952Y-142438511D01*
X162860952Y-142628988D01*
X162908571Y-142724226D01*
X162956190Y-142771845D01*
X163051428Y-142819464D01*
X163241904Y-142819464D01*
X163337142Y-142771845D01*
X163384761Y-142724226D01*
X163432380Y-142628988D01*
X163432380Y-142438511D01*
X163384761Y-142343273D01*
X163337142Y-142295654D01*
X163241904Y-142248035D01*
X163051428Y-142248035D01*
X162956190Y-142295654D01*
X162908571Y-142343273D01*
X162860952Y-142438511D01*
X163752380Y-147105654D02*
X162752380Y-147105654D01*
X163752380Y-146534226D02*
X163180952Y-146962797D01*
X162752380Y-146534226D02*
X163323809Y-147105654D01*
X163432380Y-124721845D02*
X162432380Y-124721845D01*
X162432380Y-124483750D01*
X162480000Y-124340892D01*
X162575238Y-124245654D01*
X162670476Y-124198035D01*
X162860952Y-124150416D01*
X163003809Y-124150416D01*
X163194285Y-124198035D01*
X163289523Y-124245654D01*
X163384761Y-124340892D01*
X163432380Y-124483750D01*
X163432380Y-124721845D01*
X162432380Y-123817083D02*
X162432380Y-123150416D01*
X163432380Y-123578988D01*
X163752380Y-128055654D02*
X162752380Y-128055654D01*
X163752380Y-127484226D02*
X163180952Y-127912797D01*
X162752380Y-127484226D02*
X163323809Y-128055654D01*
X163432380Y-105671845D02*
X162432380Y-105671845D01*
X162432380Y-105433750D01*
X162480000Y-105290892D01*
X162575238Y-105195654D01*
X162670476Y-105148035D01*
X162860952Y-105100416D01*
X163003809Y-105100416D01*
X163194285Y-105148035D01*
X163289523Y-105195654D01*
X163384761Y-105290892D01*
X163432380Y-105433750D01*
X163432380Y-105671845D01*
X162432380Y-104243273D02*
X162432380Y-104433750D01*
X162480000Y-104528988D01*
X162527619Y-104576607D01*
X162670476Y-104671845D01*
X162860952Y-104719464D01*
X163241904Y-104719464D01*
X163337142Y-104671845D01*
X163384761Y-104624226D01*
X163432380Y-104528988D01*
X163432380Y-104338511D01*
X163384761Y-104243273D01*
X163337142Y-104195654D01*
X163241904Y-104148035D01*
X163003809Y-104148035D01*
X162908571Y-104195654D01*
X162860952Y-104243273D01*
X162813333Y-104338511D01*
X162813333Y-104528988D01*
X162860952Y-104624226D01*
X162908571Y-104671845D01*
X163003809Y-104719464D01*
X163752380Y-109005654D02*
X162752380Y-109005654D01*
X163752380Y-108434226D02*
X163180952Y-108862797D01*
X162752380Y-108434226D02*
X163323809Y-109005654D01*
X163432380Y-86621845D02*
X162432380Y-86621845D01*
X162432380Y-86383750D01*
X162480000Y-86240892D01*
X162575238Y-86145654D01*
X162670476Y-86098035D01*
X162860952Y-86050416D01*
X163003809Y-86050416D01*
X163194285Y-86098035D01*
X163289523Y-86145654D01*
X163384761Y-86240892D01*
X163432380Y-86383750D01*
X163432380Y-86621845D01*
X162432380Y-85145654D02*
X162432380Y-85621845D01*
X162908571Y-85669464D01*
X162860952Y-85621845D01*
X162813333Y-85526607D01*
X162813333Y-85288511D01*
X162860952Y-85193273D01*
X162908571Y-85145654D01*
X163003809Y-85098035D01*
X163241904Y-85098035D01*
X163337142Y-85145654D01*
X163384761Y-85193273D01*
X163432380Y-85288511D01*
X163432380Y-85526607D01*
X163384761Y-85621845D01*
X163337142Y-85669464D01*
X163752380Y-89955654D02*
X162752380Y-89955654D01*
X163752380Y-89384226D02*
X163180952Y-89812797D01*
X162752380Y-89384226D02*
X163323809Y-89955654D01*
X144382380Y-143771845D02*
X143382380Y-143771845D01*
X143382380Y-143533750D01*
X143430000Y-143390892D01*
X143525238Y-143295654D01*
X143620476Y-143248035D01*
X143810952Y-143200416D01*
X143953809Y-143200416D01*
X144144285Y-143248035D01*
X144239523Y-143295654D01*
X144334761Y-143390892D01*
X144382380Y-143533750D01*
X144382380Y-143771845D01*
X143715714Y-142343273D02*
X144382380Y-142343273D01*
X143334761Y-142581369D02*
X144049047Y-142819464D01*
X144049047Y-142200416D01*
X144702380Y-147105654D02*
X143702380Y-147105654D01*
X144702380Y-146534226D02*
X144130952Y-146962797D01*
X143702380Y-146534226D02*
X144273809Y-147105654D01*
X144382380Y-124721845D02*
X143382380Y-124721845D01*
X143382380Y-124483750D01*
X143430000Y-124340892D01*
X143525238Y-124245654D01*
X143620476Y-124198035D01*
X143810952Y-124150416D01*
X143953809Y-124150416D01*
X144144285Y-124198035D01*
X144239523Y-124245654D01*
X144334761Y-124340892D01*
X144382380Y-124483750D01*
X144382380Y-124721845D01*
X143382380Y-123817083D02*
X143382380Y-123198035D01*
X143763333Y-123531369D01*
X143763333Y-123388511D01*
X143810952Y-123293273D01*
X143858571Y-123245654D01*
X143953809Y-123198035D01*
X144191904Y-123198035D01*
X144287142Y-123245654D01*
X144334761Y-123293273D01*
X144382380Y-123388511D01*
X144382380Y-123674226D01*
X144334761Y-123769464D01*
X144287142Y-123817083D01*
X144702380Y-128055654D02*
X143702380Y-128055654D01*
X144702380Y-127484226D02*
X144130952Y-127912797D01*
X143702380Y-127484226D02*
X144273809Y-128055654D01*
X144382380Y-105671845D02*
X143382380Y-105671845D01*
X143382380Y-105433750D01*
X143430000Y-105290892D01*
X143525238Y-105195654D01*
X143620476Y-105148035D01*
X143810952Y-105100416D01*
X143953809Y-105100416D01*
X144144285Y-105148035D01*
X144239523Y-105195654D01*
X144334761Y-105290892D01*
X144382380Y-105433750D01*
X144382380Y-105671845D01*
X143477619Y-104719464D02*
X143430000Y-104671845D01*
X143382380Y-104576607D01*
X143382380Y-104338511D01*
X143430000Y-104243273D01*
X143477619Y-104195654D01*
X143572857Y-104148035D01*
X143668095Y-104148035D01*
X143810952Y-104195654D01*
X144382380Y-104767083D01*
X144382380Y-104148035D01*
X144702380Y-109005654D02*
X143702380Y-109005654D01*
X144702380Y-108434226D02*
X144130952Y-108862797D01*
X143702380Y-108434226D02*
X144273809Y-109005654D01*
X144382380Y-86621845D02*
X143382380Y-86621845D01*
X143382380Y-86383750D01*
X143430000Y-86240892D01*
X143525238Y-86145654D01*
X143620476Y-86098035D01*
X143810952Y-86050416D01*
X143953809Y-86050416D01*
X144144285Y-86098035D01*
X144239523Y-86145654D01*
X144334761Y-86240892D01*
X144382380Y-86383750D01*
X144382380Y-86621845D01*
X144382380Y-85098035D02*
X144382380Y-85669464D01*
X144382380Y-85383750D02*
X143382380Y-85383750D01*
X143525238Y-85478988D01*
X143620476Y-85574226D01*
X143668095Y-85669464D01*
X144702380Y-89955654D02*
X143702380Y-89955654D01*
X144702380Y-89384226D02*
X144130952Y-89812797D01*
X143702380Y-89384226D02*
X144273809Y-89955654D01*
%LPC*%
D12*
X198755000Y-85725000D03*
X188595000Y-85725000D03*
D13*
X193675000Y-85725000D03*
D12*
X198755000Y-142875000D03*
X188595000Y-142875000D03*
D13*
X193675000Y-142875000D03*
D12*
X141573250Y-85693250D03*
X131413250Y-85693250D03*
D13*
X136493250Y-85693250D03*
D12*
X198755000Y-104775000D03*
X188595000Y-104775000D03*
D13*
X193675000Y-104775000D03*
D14*
X124301250Y-78105000D03*
X124301250Y-80645000D03*
X124301250Y-83185000D03*
X124301250Y-85725000D03*
X124301250Y-88265000D03*
X124301250Y-90805000D03*
X124301250Y-93345000D03*
X124301250Y-95885000D03*
X124301250Y-98425000D03*
X124301250Y-100965000D03*
X124301250Y-103505000D03*
X124301250Y-106045000D03*
X109061250Y-106045000D03*
X109061250Y-103505000D03*
X109061250Y-100965000D03*
X109061250Y-98425000D03*
X109061250Y-95885000D03*
X109061250Y-93345000D03*
X109061250Y-90805000D03*
X109061250Y-88265000D03*
X109061250Y-85725000D03*
X109061250Y-83185000D03*
X109061250Y-80645000D03*
D15*
X109061250Y-78105000D03*
D12*
X198755000Y-123825000D03*
X188595000Y-123825000D03*
D13*
X193675000Y-123825000D03*
D12*
X179705000Y-142875000D03*
X169545000Y-142875000D03*
D13*
X174625000Y-142875000D03*
D12*
X179705000Y-123825000D03*
X169545000Y-123825000D03*
D13*
X174625000Y-123825000D03*
D12*
X179705000Y-104775000D03*
X169545000Y-104775000D03*
D13*
X174625000Y-104775000D03*
D12*
X179705000Y-85725000D03*
X169545000Y-85725000D03*
D13*
X174625000Y-85725000D03*
D12*
X160623250Y-142843250D03*
X150463250Y-142843250D03*
D13*
X155543250Y-142843250D03*
D12*
X160623250Y-123793250D03*
X150463250Y-123793250D03*
D13*
X155543250Y-123793250D03*
D12*
X160623250Y-104743250D03*
X150463250Y-104743250D03*
D13*
X155543250Y-104743250D03*
D12*
X160623250Y-85693250D03*
X150463250Y-85693250D03*
D13*
X155543250Y-85693250D03*
D12*
X141573250Y-142843250D03*
X131413250Y-142843250D03*
D13*
X136493250Y-142843250D03*
D12*
X141573250Y-123793250D03*
X131413250Y-123793250D03*
D13*
X136493250Y-123793250D03*
D12*
X141573250Y-104743250D03*
X131413250Y-104743250D03*
D13*
X136493250Y-104743250D03*
D16*
X203200000Y-139223750D03*
D15*
X203200000Y-146843750D03*
D16*
X203200000Y-120173750D03*
D15*
X203200000Y-127793750D03*
D16*
X203200000Y-101123750D03*
D15*
X203200000Y-108743750D03*
D16*
X203200000Y-82073750D03*
D15*
X203200000Y-89693750D03*
D16*
X184150000Y-139223750D03*
D15*
X184150000Y-146843750D03*
D16*
X184150000Y-120173750D03*
D15*
X184150000Y-127793750D03*
D16*
X184150000Y-101123750D03*
D15*
X184150000Y-108743750D03*
D16*
X184150000Y-82073750D03*
D15*
X184150000Y-89693750D03*
D16*
X165100000Y-139223750D03*
D15*
X165100000Y-146843750D03*
D16*
X165100000Y-120173750D03*
D15*
X165100000Y-127793750D03*
D16*
X165100000Y-101123750D03*
D15*
X165100000Y-108743750D03*
D16*
X165100000Y-82073750D03*
D15*
X165100000Y-89693750D03*
D16*
X146050000Y-139223750D03*
D15*
X146050000Y-146843750D03*
D16*
X146050000Y-120173750D03*
D15*
X146050000Y-127793750D03*
D16*
X146050000Y-101123750D03*
D15*
X146050000Y-108743750D03*
D16*
X146050000Y-82073750D03*
D15*
X146050000Y-89693750D03*
M02*
