G04 #@! TF.GenerationSoftware,KiCad,Pcbnew,(5.1.4)-1*
G04 #@! TF.CreationDate,2021-04-02T02:45:42+02:00*
G04 #@! TF.ProjectId,pcb-test,7063622d-7465-4737-942e-6b696361645f,rev?*
G04 #@! TF.SameCoordinates,Original*
G04 #@! TF.FileFunction,Copper,L2,Bot*
G04 #@! TF.FilePolarity,Positive*
%FSLAX46Y46*%
G04 Gerber Fmt 4.6, Leading zero omitted, Abs format (unit mm)*
G04 Created by KiCad (PCBNEW (5.1.4)-1) date 2021-04-02 02:45:42*
%MOMM*%
%LPD*%
G04 APERTURE LIST*
%ADD10R,1.905000X1.905000*%
%ADD11C,1.905000*%
%ADD12C,2.250000*%
%ADD13C,1.600000*%
%ADD14R,1.600000X1.600000*%
%ADD15O,1.600000X1.600000*%
%ADD16C,0.250000*%
G04 APERTURE END LIST*
D10*
X194945000Y-90805000D03*
D11*
X192405000Y-90805000D03*
D12*
X189865000Y-83185000D03*
X196215000Y-80645000D03*
D10*
X194945000Y-147955000D03*
D11*
X192405000Y-147955000D03*
D12*
X189865000Y-140335000D03*
X196215000Y-137795000D03*
D10*
X137763250Y-90773250D03*
D11*
X135223250Y-90773250D03*
D12*
X132683250Y-83153250D03*
X139033250Y-80613250D03*
D10*
X194945000Y-109855000D03*
D11*
X192405000Y-109855000D03*
D12*
X189865000Y-102235000D03*
X196215000Y-99695000D03*
D13*
X124301250Y-78105000D03*
X124301250Y-80645000D03*
X124301250Y-83185000D03*
X124301250Y-85725000D03*
X124301250Y-88265000D03*
X124301250Y-90805000D03*
X124301250Y-93345000D03*
X124301250Y-95885000D03*
X124301250Y-98425000D03*
X124301250Y-100965000D03*
X124301250Y-103505000D03*
X124301250Y-106045000D03*
X109061250Y-106045000D03*
X109061250Y-103505000D03*
X109061250Y-100965000D03*
X109061250Y-98425000D03*
X109061250Y-95885000D03*
X109061250Y-93345000D03*
X109061250Y-90805000D03*
X109061250Y-88265000D03*
X109061250Y-85725000D03*
X109061250Y-83185000D03*
X109061250Y-80645000D03*
D14*
X109061250Y-78105000D03*
D10*
X194945000Y-128905000D03*
D11*
X192405000Y-128905000D03*
D12*
X189865000Y-121285000D03*
X196215000Y-118745000D03*
D10*
X175895000Y-147955000D03*
D11*
X173355000Y-147955000D03*
D12*
X170815000Y-140335000D03*
X177165000Y-137795000D03*
D10*
X175895000Y-128905000D03*
D11*
X173355000Y-128905000D03*
D12*
X170815000Y-121285000D03*
X177165000Y-118745000D03*
D10*
X175895000Y-109855000D03*
D11*
X173355000Y-109855000D03*
D12*
X170815000Y-102235000D03*
X177165000Y-99695000D03*
D10*
X175895000Y-90805000D03*
D11*
X173355000Y-90805000D03*
D12*
X170815000Y-83185000D03*
X177165000Y-80645000D03*
D10*
X156813250Y-147923250D03*
D11*
X154273250Y-147923250D03*
D12*
X151733250Y-140303250D03*
X158083250Y-137763250D03*
D10*
X156813250Y-128873250D03*
D11*
X154273250Y-128873250D03*
D12*
X151733250Y-121253250D03*
X158083250Y-118713250D03*
D10*
X156813250Y-109823250D03*
D11*
X154273250Y-109823250D03*
D12*
X151733250Y-102203250D03*
X158083250Y-99663250D03*
D10*
X156813250Y-90773250D03*
D11*
X154273250Y-90773250D03*
D12*
X151733250Y-83153250D03*
X158083250Y-80613250D03*
D10*
X137763250Y-147923250D03*
D11*
X135223250Y-147923250D03*
D12*
X132683250Y-140303250D03*
X139033250Y-137763250D03*
D10*
X137763250Y-128873250D03*
D11*
X135223250Y-128873250D03*
D12*
X132683250Y-121253250D03*
X139033250Y-118713250D03*
D10*
X137763250Y-109823250D03*
D11*
X135223250Y-109823250D03*
D12*
X132683250Y-102203250D03*
X139033250Y-99663250D03*
D15*
X201612500Y-139223750D03*
D14*
X201612500Y-146843750D03*
D15*
X201612500Y-120173750D03*
D14*
X201612500Y-127793750D03*
D15*
X201612500Y-101123750D03*
D14*
X201612500Y-108743750D03*
D15*
X201612500Y-82073750D03*
D14*
X201612500Y-89693750D03*
D15*
X182562500Y-139223750D03*
D14*
X182562500Y-146843750D03*
D15*
X182562500Y-120173750D03*
D14*
X182562500Y-127793750D03*
D15*
X182562500Y-101123750D03*
D14*
X182562500Y-108743750D03*
D15*
X182562500Y-82073750D03*
D14*
X182562500Y-89693750D03*
D15*
X163512500Y-139223750D03*
D14*
X163512500Y-146843750D03*
D15*
X163512500Y-120173750D03*
D14*
X163512500Y-127793750D03*
D15*
X163512500Y-101123750D03*
D14*
X163512500Y-108743750D03*
D15*
X163512500Y-82073750D03*
D14*
X163512500Y-89693750D03*
D15*
X144462500Y-139223750D03*
D14*
X144462500Y-146843750D03*
D15*
X144462500Y-120173750D03*
D14*
X144462500Y-127793750D03*
D15*
X144462500Y-101123750D03*
D14*
X144462500Y-108743750D03*
D15*
X144462500Y-82073750D03*
D14*
X144462500Y-89693750D03*
D16*
X143002000Y-80613250D02*
X144462500Y-82073750D01*
X139033250Y-80613250D02*
X143002000Y-80613250D01*
X201612500Y-89693750D02*
X201612500Y-93662500D01*
X201612500Y-93662500D02*
X182562500Y-93662500D01*
X182562500Y-93662500D02*
X182562500Y-89693750D01*
X182562500Y-93662500D02*
X163512500Y-93662500D01*
X144462500Y-89693750D02*
X144462500Y-93662500D01*
X144462500Y-93662500D02*
X163512500Y-93662500D01*
X163512500Y-93662500D02*
X163512500Y-90487500D01*
X163512500Y-89693750D02*
X163512500Y-90487500D01*
X129063750Y-93662500D02*
X124301250Y-98425000D01*
X144462500Y-93662500D02*
X129063750Y-93662500D01*
X143002000Y-99663250D02*
X144462500Y-101123750D01*
X139033250Y-99663250D02*
X143002000Y-99663250D01*
X201612500Y-108743750D02*
X201612500Y-112712500D01*
X201612500Y-112712500D02*
X182562500Y-112712500D01*
X182562500Y-108743750D02*
X182562500Y-112712500D01*
X182562500Y-112712500D02*
X163512500Y-112712500D01*
X163512500Y-108743750D02*
X163512500Y-112712500D01*
X163512500Y-108743750D02*
X163512500Y-109793750D01*
X163512500Y-109793750D02*
X163512500Y-112712500D01*
X163512500Y-112712500D02*
X144462500Y-112712500D01*
X144462500Y-112712500D02*
X144462500Y-108743750D01*
X133350000Y-112712500D02*
X144462500Y-112712500D01*
X132873750Y-109537500D02*
X133350000Y-109537500D01*
X130016250Y-106680000D02*
X132873750Y-109537500D01*
X133350000Y-109537500D02*
X133350000Y-112712500D01*
X124301250Y-100965000D02*
X130016250Y-100965000D01*
X130016250Y-100965000D02*
X130016250Y-106680000D01*
X143002000Y-118713250D02*
X144462500Y-120173750D01*
X139033250Y-118713250D02*
X143002000Y-118713250D01*
X201612500Y-127793750D02*
X201612500Y-131762500D01*
X201612500Y-131762500D02*
X182562500Y-131762500D01*
X182562500Y-131762500D02*
X182562500Y-127793750D01*
X182562500Y-131762500D02*
X163512500Y-131762500D01*
X163512500Y-131762500D02*
X163512500Y-127793750D01*
X163512500Y-131762500D02*
X144462500Y-131762500D01*
X144462500Y-131762500D02*
X144462500Y-127793750D01*
X133350000Y-131762500D02*
X144462500Y-131762500D01*
X133350000Y-127793750D02*
X133350000Y-131762500D01*
X128270000Y-122713750D02*
X133350000Y-127793750D01*
X124301250Y-103505000D02*
X128270000Y-103505000D01*
X128270000Y-103505000D02*
X128270000Y-122713750D01*
X143002000Y-137763250D02*
X144462500Y-139223750D01*
X139033250Y-137763250D02*
X143002000Y-137763250D01*
X182562500Y-146843750D02*
X182562500Y-150812500D01*
X182562500Y-150812500D02*
X163512500Y-150812500D01*
X163512500Y-150812500D02*
X163512500Y-146843750D01*
X163512500Y-150812500D02*
X144462500Y-150812500D01*
X144462500Y-150812500D02*
X144462500Y-146843750D01*
X133350000Y-150812500D02*
X144462500Y-150812500D01*
X133350000Y-146843750D02*
X133350000Y-150812500D01*
X126523750Y-140017500D02*
X133350000Y-146843750D01*
X124301250Y-106045000D02*
X126523750Y-106045000D01*
X126523750Y-106045000D02*
X126523750Y-140017500D01*
X201612500Y-146843750D02*
X201612500Y-150018750D01*
X201612500Y-150018750D02*
X200818750Y-150812500D01*
X200818750Y-150812500D02*
X182562500Y-150812500D01*
X162052000Y-80613250D02*
X163512500Y-82073750D01*
X158083250Y-80613250D02*
X162052000Y-80613250D01*
X162052000Y-99663250D02*
X163512500Y-101123750D01*
X158083250Y-99663250D02*
X162052000Y-99663250D01*
X162052000Y-118713250D02*
X163512500Y-120173750D01*
X158083250Y-118713250D02*
X162052000Y-118713250D01*
X162052000Y-137763250D02*
X163512500Y-139223750D01*
X158083250Y-137763250D02*
X162052000Y-137763250D01*
X181133750Y-80645000D02*
X182562500Y-82073750D01*
X177165000Y-80645000D02*
X181133750Y-80645000D01*
X181133750Y-99695000D02*
X182562500Y-101123750D01*
X177165000Y-99695000D02*
X181133750Y-99695000D01*
X181133750Y-118745000D02*
X182562500Y-120173750D01*
X177165000Y-118745000D02*
X181133750Y-118745000D01*
X181133750Y-137795000D02*
X182562500Y-139223750D01*
X177165000Y-137795000D02*
X181133750Y-137795000D01*
X200183750Y-80645000D02*
X201612500Y-82073750D01*
X196215000Y-80645000D02*
X200183750Y-80645000D01*
X200183750Y-99695000D02*
X201612500Y-101123750D01*
X196215000Y-99695000D02*
X200183750Y-99695000D01*
X200183750Y-118745000D02*
X201612500Y-120173750D01*
X196215000Y-118745000D02*
X200183750Y-118745000D01*
X200183750Y-137795000D02*
X201612500Y-139223750D01*
X196215000Y-137795000D02*
X200183750Y-137795000D01*
M02*
